<svg width="21" height="5" viewBox="0 0 21 5" fill="none" xmlns="http://www.w3.org/2000/svg">
<path d="M2.09961 4.5C2.98313 4.5 3.69998 3.78387 3.7002 2.90039C3.7002 2.01673 2.98327 1.2998 2.09961 1.2998C1.21613 1.30002 0.5 2.01687 0.5 2.90039C0.500211 3.78374 1.21626 4.49979 2.09961 4.5Z" fill="black" stroke="black"/>
<path d="M10.498 4.5C11.3816 4.5 12.0984 3.78387 12.0986 2.90039C12.0986 2.01673 11.3817 1.2998 10.498 1.2998C9.61457 1.30002 8.89844 2.01687 8.89844 2.90039C8.89865 3.78374 9.6147 4.49979 10.498 4.5Z" fill="black" stroke="black"/>
<path d="M18.9004 4.5C19.7839 4.5 20.5008 3.78387 20.501 2.90039C20.501 2.01673 19.784 1.2998 18.9004 1.2998C18.0169 1.30002 17.3008 2.01687 17.3008 2.90039C17.301 3.78374 18.017 4.49979 18.9004 4.5Z" fill="black" stroke="black"/>
</svg>
