<svg width="23" height="23" viewBox="0 0 23 23" fill="none" xmlns="http://www.w3.org/2000/svg">
<path d="M12.3545 1.66406H13.6798L14.5633 1.79713L15.3585 2.0189L16.2862 2.4181L17.0372 2.86165L17.6115 3.3052L18.1417 3.7931L18.6718 4.36971L18.6276 4.45843L18.23 4.05923L17.5674 3.57133L17.1256 3.3052L16.2862 2.95036L15.3585 2.72858L15.0051 2.68423H13.9449L13.1939 2.81729L12.487 3.03907L11.7802 3.34955L11.1617 3.74875L10.6758 4.14794L10.1899 4.63584L9.74809 5.25681L9.3505 5.96649L9.04126 6.80924L8.86455 7.74069V9.02699L9.04126 9.95844L9.3505 10.9342L9.43885 11.5552V12.0431L9.30632 12.6641L8.99708 13.2851L8.59949 13.7286L8.24608 14.0391L7.89266 14.2609L7.23001 14.4826L6.69989 14.5714H6.03724L5.33042 14.4383L4.66776 14.1722L4.18182 13.8617L3.96094 13.6399L4.18182 13.7286L4.62359 13.9947L5.10953 14.1722L5.63965 14.2609H6.21395L6.8766 14.1278L7.49507 13.8617L7.6276 13.8173L7.36254 13.4625L6.8766 12.7528L6.43483 11.9101L6.1256 11.0673L5.90471 10.1359L5.81636 9.29312V8.58344L5.90471 7.74069L6.08142 6.9423L6.3023 6.27698L6.56736 5.65601L6.92078 5.03504L7.36254 4.41407L7.84849 3.83746L8.15772 3.52697L8.64367 3.12778L9.21797 2.72858L9.74809 2.4181L10.5874 2.06326L11.471 1.79713L12.3545 1.66406Z" fill="black"/>
<path d="M13.2666 13.7451L13.8193 13.8838L13.7754 14.0332L13.6533 14.4385L13.2432 15.3027L12.832 15.9219L12.4639 16.376L12.1777 16.7041L11.8604 16.9834L11.3896 17.3691L10.7783 17.7783L9.91602 18.1895L9.17969 18.4365L8.34668 18.6045L8.00391 18.6436H6.86816L6.05078 18.5205L5.26953 18.3135L4.41016 17.9443L3.71094 17.5303L3.17773 17.1191L2.75 16.7324L2.39551 16.376L1.85938 15.6729L1.54102 15.1201H1.74609L1.90527 15.3027L1.92383 15.3242L1.94531 15.3438L2.43066 15.7871L2.46094 15.8154L2.49609 15.8369L3.24707 16.3252L3.28125 16.3477L3.31836 16.3643L4.02441 16.6738L4.0498 16.6855L4.07617 16.6934L4.7832 16.915L4.81836 16.9268L4.85449 16.9316L5.69336 17.0654L5.73242 17.0713H6.73926L6.77832 17.0654L7.61719 16.9316L7.65332 16.9268L7.68848 16.915L8.39551 16.6934L8.42188 16.6855L8.44727 16.6738L9.1543 16.3643L9.19434 16.3457L9.23047 16.3213L10.0264 15.7891L10.0586 15.7676L10.0869 15.7412L10.6172 15.2539L10.6299 15.2412L10.6426 15.2275L11.3379 14.4863L11.6826 14.1787L12.0537 13.9561L12.3799 13.8096L12.6719 13.7451H13.2666ZM1.3916 14.7227L1.41016 14.7773L1.49902 15.0479L1.40625 14.8857L1.2832 14.5771L1.3916 14.7227Z" fill="white" stroke="#D7D7D7"/>
<path d="M12.7978 5.17188L12.8861 5.21623L12.4443 5.52671L12.2235 5.74849H12.1351L12.0467 5.92591L11.7817 6.28075L11.5166 6.81301L11.3399 7.43398L11.2957 8.14366L12.1793 8.01059H13.3279L14.2556 8.14366L15.0949 8.36543L15.7576 8.63156L16.597 9.07511L17.2154 9.51866L17.7897 10.0066L18.1873 10.4058L18.6733 11.0267L19.0708 11.6477L19.4243 12.3574L19.7335 13.2001L19.9102 13.9542L19.9986 14.6195V15.8171L19.866 16.7485L19.601 17.68L19.2476 18.4784L18.85 19.188L18.4524 19.7203L18.0548 20.1639L17.4805 20.7405L16.9062 21.184L16.2435 21.5832L15.4042 21.9824L14.5648 22.2485L14.1672 22.3372H13.9463L14.1231 22.2485L14.9624 21.938L15.6692 21.5389L16.2877 21.051L16.5528 20.8292L16.862 20.4743L17.2596 19.9421L17.6572 19.2324L17.9223 18.5671L18.099 17.9017L18.1873 17.3251V16.2163L18.0548 15.4622L17.8339 14.7525L17.5247 14.0429L17.2154 13.555L16.7737 12.9783L16.2877 12.4904L15.7134 12.0469L15.0066 11.6477L14.3439 11.3816L12.6652 10.938L11.9584 10.5832L11.5608 10.2727L11.2516 9.91786L10.9423 9.29689L10.8098 8.76463L10.7656 8.23237L10.854 7.65575L11.0749 6.99043L11.3841 6.41381L11.7375 5.97026L12.0467 5.65978L12.4885 5.34929L12.7978 5.17188Z" fill="#949599"/>
<path d="M10.8977 0.335938H12.0021L13.0623 0.469002L13.4158 0.557712V0.602067L12.2672 0.646422L11.3395 0.779487L10.3676 1.04562L9.48403 1.40046L8.64467 1.84401L7.89367 2.37627L7.27519 2.90853L6.92178 3.26336L6.52419 3.75127L6.08242 4.37224L5.5523 5.30369L5.19889 6.19079L4.93383 7.12225L4.8013 7.92064L4.75712 8.40854V9.4287L4.88965 10.4932L5.11054 11.3803L5.41977 12.2231L5.77319 12.9327L5.86154 13.1989L5.41977 13.1545L4.88965 12.9327L4.44789 12.6223L4.13865 12.3118L3.74106 11.6908L3.43182 10.7594L3.25511 9.87225L3.21094 9.51741V7.87628L3.34347 6.98918L3.56435 6.14644L3.87359 5.30369L4.40371 4.28353L4.88965 3.57385L5.46395 2.90853L5.81736 2.55369H5.90572L5.94989 2.42062L6.56837 1.93272L7.23102 1.48917L7.89367 1.13433L8.73303 0.779487L9.52821 0.557712L10.4559 0.380292L10.8977 0.335938Z" fill="currentColor"/>
<path d="M14.2686 17.8125L14.0166 18.3203L13.5469 18.833L13.043 19.3389L12.4971 19.7598L11.9229 20.1299L11.2207 20.5039L10.3398 20.8398L9.55566 21.0469L8.80859 21.1719L8.23828 21.2139H7.60742L6.52441 21.0879L5.82031 20.9209L5.07324 20.6709L4.03906 20.1729L3.52734 19.8311L4.05762 20.082L4.08398 20.0947L4.1123 20.1035L5.04004 20.4141L5.06738 20.4238L5.09668 20.4297L6.15625 20.6514L6.18262 20.6562L6.20898 20.6592L6.65039 20.7041L6.67578 20.7061H8.15137L8.18848 20.7002L9.07227 20.5674L9.09277 20.5645L9.11328 20.5596L9.86426 20.3818L9.88965 20.376L9.91504 20.3672L10.7979 20.0566L10.8281 20.0459L10.8564 20.0322L11.5635 19.6768L11.5762 19.6709L11.5879 19.6641L12.207 19.3096L12.2334 19.2939L12.2588 19.2754L12.9658 18.7422L12.9854 18.7275L13.0029 18.7109L13.5332 18.2236L13.5488 18.208L14.0791 17.6758L14.1016 17.6533L14.1221 17.627L14.4092 17.252L14.2686 17.8125Z" fill="white" stroke="#D7D7D7"/>
<path d="M14.3455 5.83594H15.3174L16.2009 6.05771L17.1728 6.41255L18.1005 6.90046L18.8515 7.43272L19.4258 7.92062L20.0443 8.54159L20.6186 9.29562L20.972 9.87224L21.4137 10.715L21.723 11.5577L21.9439 12.4448L22.0764 13.465V14.5295L21.9439 15.594L21.723 16.4811L21.4137 17.3239L21.0603 18.0336L20.7511 18.5658L20.221 19.2755L19.9559 19.586V19.4529L20.3093 18.7432L20.5744 18.1223L20.7953 17.4569L21.0162 16.3924L21.0603 16.0376V14.3964L20.8836 13.3319L20.5744 12.3118L20.221 11.5134L19.7792 10.715L19.2491 10.0053L18.8515 9.56175L18.5864 9.25127L18.233 8.94078L17.6146 8.45288L16.7752 7.92062L16.0242 7.56578L15.3174 7.29965L14.2129 7.03352L13.5503 6.94481L12.7109 6.90046L12.7993 6.72304L13.0644 6.41255L13.5503 6.10207L14.1246 5.88029L14.3455 5.83594Z" fill="currentColor"/>
</svg>
