<svg width="20" height="21" viewBox="0 0 20 21" fill="none" xmlns="http://www.w3.org/2000/svg">
<path d="M10 0.992188C15.2464 0.992188 19.5 5.24583 19.5 10.4922C19.5 15.7385 15.2464 19.9922 10 19.9922C4.75364 19.9922 0.5 15.7385 0.5 10.4922C0.5 5.24583 4.75364 0.992188 10 0.992188ZM2 10.4922C2 14.4464 4.88725 17.7127 8.65527 18.3584L9.24805 18.46L9.24023 17.8584C9.17949 13.5924 6.27032 9.99219 2.5 9.99219H2V10.4922ZM17.5 9.99219C13.7297 9.99219 10.8205 13.5924 10.7598 17.8584L10.752 18.46L11.3447 18.3584C15.1128 17.7127 18 14.4464 18 10.4922V9.99219H17.5ZM10 8.74219C9.03323 8.74219 8.25 9.52542 8.25 10.4922C8.25 11.459 9.03323 12.2422 10 12.2422C10.9668 12.2422 11.75 11.459 11.75 10.4922C11.75 9.52542 10.9668 8.74219 10 8.74219ZM10 2.49219C6.52349 2.49219 3.59378 4.73201 2.48828 7.82422L2.24902 8.49219H17.751L17.5117 7.82422C16.4062 4.73201 13.4765 2.49219 10 2.49219Z" fill="white" stroke="#767676"/>
</svg>
