<svg width="36" height="36" viewBox="0 0 36 36" fill="none" xmlns="http://www.w3.org/2000/svg">
<path d="M18 36C22.8079 36 27.328 34.1276 30.7279 30.7279C34.1276 27.3281 36 22.8079 36 18C36 13.1921 34.1276 8.67194 30.7279 5.27214C27.3281 1.87235 22.8079 0 18 0C8.07471 0 0 8.07471 0 18C0 22.8079 1.87235 27.3281 5.27214 30.7279C8.67194 34.1276 13.1921 36 18 36Z" fill="black"/>
<path d="M0.623047 18.0022C0.623047 13.3607 2.43062 8.99688 5.71277 5.71473C8.99493 2.4325 13.3587 0.625 18.0002 0.625C22.6418 0.625 27.0056 2.4325 30.2877 5.71473C33.5698 8.99688 35.3774 13.3606 35.3774 18.0022C35.3774 27.584 27.582 35.3794 18.0002 35.3794C13.3587 35.3794 8.99493 33.5718 5.71277 30.2897C2.43062 27.0075 0.623047 22.6437 0.623047 18.0022Z" fill="white"/>
<path d="M18.0009 1.34375C8.79935 1.34375 1.33984 8.80325 1.33984 18.0047C1.33984 27.2062 8.79935 34.6658 18.0009 34.6658C27.2024 34.6658 34.6619 27.2062 34.6619 18.0047C34.6619 8.80325 27.2024 1.34375 18.0009 1.34375Z" fill="black"/>
<path d="M17.998 28.6444C12.1204 28.6444 7.35547 23.8796 7.35547 18.0019C7.35547 12.1243 12.1204 7.35938 17.998 7.35938C23.8756 7.35938 28.6405 12.1243 28.6405 18.0019C28.6405 23.8796 23.8757 28.6444 17.998 28.6444Z" fill="white"/>
<path d="M8.04297 18.0047H18.0008V8.04688C12.5013 8.04688 8.04297 12.5053 8.04297 18.0047ZM18.0008 18.0047V27.9626C23.5003 27.9626 27.9586 23.5042 27.9586 18.0047H18.0008Z" fill="black"/>
<path d="M10.1778 7.84719C9.82501 7.50431 9.27971 7.40097 8.76777 7.71836C8.86555 7.46495 8.82561 7.20634 8.77369 7.06364C8.55314 6.66147 8.47616 6.61114 8.29439 6.45862C7.70597 5.96487 7.08672 6.3864 6.64382 6.91423L4.50391 9.4644L7.86781 12.2871L10.1245 9.59778C10.6401 8.98329 10.7198 8.37408 10.1778 7.84719ZM18.5562 6.6354L19.7114 3.57336V6.6354H20.5894V2.25H19.2702L18.0704 5.38989H18.0828L16.8829 2.25H15.5638V6.6354H16.4418V3.57336L17.5971 6.6354H18.5562ZM30.3606 8.45987L28.7076 10.8002L31.2703 9.58356L31.9488 10.4215L27.9152 12.3767L27.1189 11.3854L28.7054 9.06562L28.6961 9.05399L26.0971 10.1235L25.2929 9.13849L28.0442 5.5996L28.7227 6.43753L26.9998 8.69125L29.6327 7.56092L30.3606 8.45987Z" fill="white"/>
<path d="M7.11343 7.54313C7.26234 7.36562 7.59887 7.37292 7.8153 7.55447C8.05325 7.75415 8.05383 8.03723 7.89401 8.2276L6.62323 9.74204L5.82812 9.07484L7.11343 7.54313ZM9.37445 9.32969L8.03462 10.9264L7.19446 10.2214L8.54512 8.61171C8.69764 8.42995 9.0377 8.37701 9.26706 8.56954C9.52668 8.78727 9.55239 9.11766 9.37445 9.32969Z" fill="black"/>
</svg>
