<svg width="16" height="16" viewBox="0 0 16 16" fill="none" xmlns="http://www.w3.org/2000/svg">
<path d="M12.4202 1V2.4M3.57812 1V2.4" stroke="#767676" stroke-linecap="round" stroke-linejoin="round"/>
<path d="M7.99874 8.70312H8.00537M7.99874 11.5031H8.00537M10.9428 8.70312H10.9494M5.05469 8.70312H5.0613M5.05469 11.5031H5.0613" stroke="#767676" stroke-linecap="round" stroke-linejoin="round"/>
<path d="M1.73828 5.20312H14.2646" stroke="#767676" stroke-linecap="round" stroke-linejoin="round"/>
<path d="M1 8.17337C1 5.12328 1 3.59822 1.92261 2.65067C2.84523 1.70313 4.33015 1.70312 7.3 1.70312H8.7C11.6698 1.70312 13.1548 1.70313 14.0774 2.65067C15 3.59822 15 5.12328 15 8.17337V8.53288C15 11.583 15 13.108 14.0774 14.0556C13.1548 15.0031 11.6698 15.0031 8.7 15.0031H7.3C4.33015 15.0031 2.84523 15.0031 1.92261 14.0556C1 13.108 1 11.583 1 8.53288V8.17337Z" stroke="#767676" stroke-linecap="round" stroke-linejoin="round"/>
<path d="M1.36719 5.20312H14.6303" stroke="#767676" stroke-linecap="round" stroke-linejoin="round"/>
</svg>
