<svg width="111" height="21" viewBox="0 0 111 21" fill="none" xmlns="http://www.w3.org/2000/svg">
<path fill-rule="evenodd" clip-rule="evenodd" d="M90.293 19.3013C90.293 20.2395 90.7707 21 91.3594 21H109.227C109.816 21 110.293 20.2396 110.293 19.3013V2.69872C110.293 1.76054 109.815 1 109.227 1H91.3594C90.7704 1 90.293 1.76036 90.293 2.69872V19.3013ZM92.6226 10.1343C92.4448 10.3746 92.2138 10.4795 91.848 10.4795H91.6961V7.60677H91.848C92.2138 7.60677 92.4357 7.70479 92.6226 7.95806C92.8184 8.21905 92.9362 8.62337 92.9362 9.03961C92.9362 9.45653 92.8184 9.87327 92.6226 10.1343ZM91.9614 6.87063H91.1305V11.215H91.957C92.3965 11.215 92.7139 11.0597 92.9924 10.7135C93.3235 10.3033 93.5193 9.68512 93.5193 9.04582C93.5193 7.7637 92.8794 6.87063 91.9614 6.87063ZM93.7797 11.215H94.3458V6.87063H93.7797V11.215ZM95.7299 8.52723C95.3902 8.33908 95.2905 8.21488 95.2905 7.98024C95.2905 7.70666 95.4682 7.49871 95.7122 7.49871C95.8817 7.49871 96.0212 7.60311 96.1686 7.8505L96.4648 7.26995C96.2214 6.95122 95.9302 6.78825 95.6121 6.78825C95.0986 6.78825 94.7069 7.32214 94.7069 8.03311C94.7069 8.63162 94.8893 8.93793 95.4209 9.22443C95.6425 9.34142 95.7553 9.41946 95.8122 9.47183C95.9253 9.58243 95.982 9.73886 95.982 9.9213C95.982 10.2733 95.795 10.5341 95.5425 10.5341C95.2725 10.5341 95.055 10.332 94.9246 9.9547L94.559 10.4819C94.8198 11.0549 95.133 11.3088 95.5637 11.3088C96.1519 11.3088 96.5646 10.7234 96.5646 9.88236C96.5646 9.19221 96.3738 8.87969 95.7299 8.52723ZM96.7432 9.03409C96.7432 10.311 97.4129 11.3011 98.2749 11.3011C98.5186 11.3011 98.7273 11.2294 98.9847 11.048V10.0505C98.7583 10.3896 98.5579 10.5264 98.3012 10.5264C97.7311 10.5264 97.3265 9.90753 97.3265 9.02788C97.3265 8.19372 97.744 7.53579 98.2749 7.53579C98.545 7.53579 98.7493 7.67997 98.9847 8.02454V7.02757C98.7361 6.83892 98.5319 6.76071 98.2883 6.76071C97.4307 6.76071 96.7432 7.77094 96.7432 9.03409ZM103.473 9.78201L102.699 6.86396H102.081L103.312 11.3198H103.617L104.87 6.86396H104.257L103.473 9.78201ZM105.126 11.215H106.732V10.4795H105.692V9.30682H106.693V8.57101H105.692V7.60677H106.732V6.87063H105.126V11.215ZM107.837 8.8706H107.672V7.55491H107.846C108.199 7.55491 108.39 7.77612 108.39 8.19891C108.39 8.63563 108.199 8.8706 107.837 8.8706ZM108.973 8.15325C108.973 7.33991 108.599 6.87063 107.946 6.87063H107.107V11.215H107.672V9.46979H107.746L108.529 11.215H109.225L108.312 9.38486C108.738 9.25495 108.973 8.8184 108.973 8.15325ZM99.169 9.04212V9.0406C99.169 7.76419 99.8602 6.73097 100.713 6.73097C101.566 6.73097 102.257 7.76419 102.257 9.0406V9.04212C102.257 10.3185 101.566 11.3533 100.713 11.3533C99.8602 11.3533 99.169 10.3185 99.169 9.04212Z" fill="#767676"/>
<path fill-rule="evenodd" clip-rule="evenodd" d="M60.293 2.69872C60.293 1.76054 60.7707 1 61.3594 1H79.2265C79.8155 1 80.293 1.76036 80.293 2.69872V19.3013C80.293 20.2395 79.8153 21 79.2265 21H61.3594C60.7704 21 60.293 20.2396 60.293 19.3013V2.69872ZM60.293 10.3803H61.2537L61.4704 9.5518H61.9553L62.1714 10.3803H64.0616V9.74689L64.2303 10.383H65.2116L65.3803 9.73744V10.3803H70.078L70.0758 9.02032H70.1667C70.2303 9.02381 70.2489 9.03315 70.2489 9.19977V10.3803H72.6785V10.0637C72.8745 10.2302 73.1793 10.3803 73.5804 10.3803H74.6026L74.8213 9.5518H75.3063L75.5202 10.3803H77.4899V9.59332L77.7882 10.3803H79.3666V5.178H77.8045V5.7924L77.5858 5.178H75.9829V5.7924L75.782 5.178H73.6169C73.2545 5.178 72.9359 5.25822 72.6785 5.48177V5.178H71.1844V5.48177C71.0207 5.25135 70.7975 5.178 70.5494 5.178H65.0908L64.7245 6.52167L64.3484 5.178H62.6291V5.7924L62.4402 5.178H60.9739L60.293 7.65146V10.3803H60.293ZM66.3639 9.64766H65.7875L65.7853 6.72631L64.97 9.64766H64.4763L63.6589 6.72373V9.64766H62.5153L62.2992 8.81567H61.1285L60.9103 9.64766H60.2996L61.3065 5.91762H62.1419L63.0982 9.4492V5.91762H64.0159L64.7517 8.448L65.4277 5.91762H66.3638V9.64766H66.3639ZM62.0962 8.03814L61.7114 6.55114L61.3287 8.03814H62.0962ZM68.6613 9.64766H66.7829V5.91762H68.6613V6.69436H67.3452V7.3667H68.6297V8.1313H67.3452V8.8762H68.6613V9.64766ZM71.3097 6.92219C71.3097 7.5169 71.0593 7.82415 70.9135 7.91641C71.0365 7.99066 71.1416 8.12185 71.1916 8.23053C71.271 8.41605 71.2847 8.58177 71.2847 8.9149V9.64766H70.7176L70.7154 9.17727C70.7154 8.95282 70.729 8.63004 70.6267 8.45059C70.5445 8.31941 70.4193 8.29094 70.2168 8.29094H69.6132V9.64766H69.051V5.91762H70.3443C70.6316 5.91762 70.8433 5.92966 71.0251 6.09628C71.203 6.2629 71.3097 6.50614 71.3097 6.92219ZM70.5744 7.44602C70.4971 7.52039 70.4057 7.52286 70.2962 7.52286H69.6132V6.69436H70.3055C70.4035 6.69436 70.5058 6.70134 70.5722 6.76164C70.6451 6.81598 70.6902 6.93164 70.6902 7.0914C70.6902 7.25442 70.6473 7.3856 70.5744 7.44602ZM72.2095 9.64766H71.6357V5.91762H72.2095V9.64766ZM78.8654 9.64766H78.0686L77.0028 6.84805V9.64766H75.8577L75.6389 8.81567H74.4709L74.2586 9.64766H73.6006C73.3273 9.64766 72.9813 9.5518 72.7853 9.2351C72.5877 8.91839 72.4849 8.4894 72.4849 7.8111C72.4849 7.25791 72.5464 6.75219 72.788 6.35257C72.9698 6.05488 73.2545 5.91762 73.6419 5.91762H74.1863V6.71686H73.6534C73.4482 6.71686 73.3323 6.76524 73.2207 6.93783C73.1248 7.09489 73.0591 7.39179 73.0591 7.78275C73.0591 8.18237 73.1092 8.4705 73.2137 8.65873C73.3002 8.80633 73.4575 8.85111 73.6055 8.85111H73.8581L74.6505 5.91773H75.493L76.445 9.44582V5.91773H77.3011L78.2895 8.51551V5.91773H78.8654V9.64766ZM75.4473 8.03814L75.0582 6.55114L74.6712 8.03814H75.4473ZM80.293 15.5868C80.1564 15.9035 79.8902 16.064 79.5299 16.064H78.4441V15.264H79.5255C79.6328 15.264 79.7079 15.2416 79.7531 15.1716C79.7923 15.1139 79.8196 15.0301 79.8196 14.9283C79.8196 14.8196 79.7923 14.7333 79.7509 14.6815C79.7101 14.6246 79.6507 14.5987 79.5528 14.5987C79.0248 14.5703 78.3662 14.6246 78.3662 13.444C78.3662 12.9028 78.5829 12.3332 79.1729 12.3332H80.2929V11.5909H79.2523C78.9383 11.5909 78.7102 11.7101 78.5486 11.8955V11.5909H77.0094C76.7633 11.5909 76.4744 11.6876 76.3377 11.8955V11.5909H73.5891V11.8955C73.3704 11.6453 73.0013 11.5909 72.8309 11.5909H71.018V11.8955C70.8449 11.6298 70.4601 11.5909 70.2255 11.5909H68.1965L67.7321 12.3876L67.2973 11.5909H64.2663V16.7968H67.2402L67.7187 15.9874L68.1694 16.7968L70.0025 16.7994V15.5747H70.1827C70.4259 15.5807 70.7128 15.5652 70.9659 15.3917V16.7967H72.4779V15.4398H72.5508C72.6439 15.4398 72.6531 15.4459 72.6531 15.5934V16.7965H77.2463C77.5379 16.7965 77.8427 16.6782 78.0115 16.4634V16.7965H79.4684C79.7716 16.7965 80.0677 16.7292 80.293 16.5566V15.5868ZM71.1868 13.5622C71.1868 14.5986 70.6991 14.8126 70.2076 14.8126H69.506V16.064H68.4131L67.7208 14.8289L67.0013 16.064H64.7741V12.3331H67.0355L67.7273 13.556L68.4425 12.3331H70.2392C70.6854 12.3331 71.1868 12.529 71.1868 13.5622ZM66.7166 15.2865H65.3342V14.5442H66.5686V13.7829H65.3342V13.1046H66.7438L67.3589 14.1919L66.7166 15.2865ZM68.946 15.7247L68.0827 14.205L68.946 12.7335V15.7247ZM70.2327 14.0549H69.506V13.1048H70.2392C70.4422 13.1048 70.5831 13.2359 70.5831 13.5622C70.5831 13.8849 70.4487 14.0549 70.2327 14.0549ZM74.0263 12.3331H75.9029V13.1046H74.5862V13.7829H75.8708V14.5442H74.5862V15.2865L75.9029 15.2899V16.064H74.0263V12.3331ZM73.316 14.3302C73.4411 14.4034 73.5435 14.5347 73.5914 14.6434C73.6708 14.8255 73.6823 14.9955 73.6846 15.3244V16.064H73.1201V15.5972C73.1201 15.3728 73.1337 15.0404 73.0292 14.8669C72.947 14.7333 72.8218 14.7013 72.6167 14.7013H72.0158V16.064H71.4508V12.3331H72.7489C73.0336 12.3331 73.2409 12.353 73.4255 12.5091C73.6029 12.6791 73.7145 12.912 73.7145 13.3376C73.7144 13.9331 73.464 14.237 73.316 14.3302ZM72.9764 13.8659C72.9012 13.9366 72.8082 13.9427 72.6988 13.9427H72.0157V13.1048H72.7081C72.8082 13.1048 72.9084 13.1081 72.9764 13.1722C73.0493 13.2326 73.0928 13.3481 73.0928 13.5078C73.0928 13.6674 73.0493 13.796 72.9764 13.8659ZM78.0501 14.0963C78.1596 14.276 78.2182 14.5028 78.2182 14.8867C78.2182 15.6894 77.902 16.064 77.335 16.064H76.2398V15.264H77.3306C77.4372 15.264 77.5128 15.2416 77.5602 15.1716C77.5989 15.1139 77.6266 15.0301 77.6266 14.9283C77.6266 14.8196 77.5966 14.7333 77.558 14.6815C77.515 14.6246 77.4557 14.5987 77.3578 14.5987C76.832 14.5703 76.1735 14.6246 76.1735 13.444C76.1735 12.9028 76.3879 12.3332 76.9774 12.3332H78.1046V13.1273H77.0731C76.9709 13.1273 76.9044 13.1333 76.8479 13.1947C76.7863 13.2551 76.7634 13.3447 76.7634 13.4631C76.7634 13.6038 76.8157 13.6996 76.8865 13.741C76.9458 13.7737 77.0095 13.7833 77.1053 13.7833L77.408 13.7962C77.7132 13.808 77.9227 13.8917 78.0501 14.0963ZM80.293 13.127H79.2682C79.1659 13.127 79.0979 13.1331 79.0407 13.1944C78.9813 13.2548 78.9585 13.3445 78.9585 13.4629C78.9585 13.6036 79.0086 13.6994 79.0815 13.7408C79.1408 13.7735 79.2045 13.7831 79.2981 13.7831L79.6029 13.796C79.9104 13.808 80.1157 13.8919 80.2408 14.0963C80.2636 14.1247 80.2773 14.1567 80.293 14.1886V13.127Z" fill="#767676"/>
<g opacity="0.3">
<path d="M31.793 19.3984H48.7941V20.9984H31.793V19.3984Z" fill="#767676"/>
<path d="M31.7931 19.3984V20.9983C31.1726 21.0013 30.293 20.6398 30.293 20.1983C30.293 19.7567 30.9854 19.3984 31.7931 19.3984Z" fill="#767676"/>
<path d="M48.793 19.3984V20.9983C49.4135 21.0013 50.2931 20.6398 50.2931 20.1983C50.2931 19.7567 49.6006 19.3984 48.793 19.3984Z" fill="#767676"/>
</g>
<path d="M48.4152 1H32.1641C31.4737 1 30.9141 1.71631 30.9141 2.59992V18.5991C30.9141 19.4827 31.4737 20.199 32.1641 20.199H48.4152C49.1056 20.199 49.6653 19.4827 49.6653 18.5991V2.59992C49.6653 1.71631 49.1056 1 48.4152 1Z" fill="#767676"/>
<path opacity="0.5" d="M48.4152 1H32.1641C31.4737 1 30.9141 1.71631 30.9141 2.59992V18.5991C30.9141 19.4827 31.4737 20.199 32.1641 20.199H48.4152C49.1056 20.199 49.6653 19.4827 49.6653 18.5991V2.59992C49.6653 1.71631 49.1056 1 48.4152 1Z" stroke="#D7D7D7" stroke-linecap="round" stroke-linejoin="round"/>
<path d="M49.2263 1H31.3596C30.7705 1 30.293 1.76045 30.293 2.69851V19.3015C30.293 20.2395 30.7705 21 31.3596 21H49.2263C49.8154 21 50.293 20.2395 50.293 19.3015V2.69851C50.293 1.76045 49.8154 1 49.2263 1Z" fill="#767676"/>
<path d="M36.1906 18.9036V17.8484C36.1906 17.4437 36.036 17.18 35.7821 17.18C35.6488 17.18 35.5061 17.2505 35.4066 17.4772C35.3293 17.2836 35.22 17.18 35.0533 17.18C34.9274 17.1713 34.8072 17.2638 34.7333 17.4263V17.214H34.5234V18.9023H34.7333V17.9363C34.7333 17.639 34.8437 17.4968 34.9984 17.4968C35.153 17.4968 35.2413 17.6552 35.2413 17.9363V18.9036H35.4512V17.9363C35.4512 17.639 35.5616 17.4968 35.7162 17.4968C35.8709 17.4968 35.9592 17.6552 35.9592 17.9363V18.9036H36.1906ZM39.6365 17.2326H39.2498V16.7231H39.0405V17.2326H38.8197V17.5299H39.0405V18.3231C39.0405 18.7099 39.1288 18.9388 39.3938 18.9388C39.4943 18.9355 39.5927 18.8932 39.6805 18.8157L39.6141 18.5184C39.5545 18.5777 39.4854 18.6083 39.4152 18.6063C39.3048 18.6063 39.2496 18.5006 39.2496 18.3248V17.5163H39.6362V17.2348L39.6365 17.2326ZM41.6024 17.18C41.4861 17.1759 41.377 17.2694 41.3152 17.4263V17.214H41.1053V18.9023H41.3152V17.9541C41.3152 17.6726 41.4034 17.4968 41.5472 17.4968C41.5957 17.4999 41.6438 17.5117 41.6906 17.532L41.757 17.2152C41.7064 17.1949 41.6546 17.1831 41.6024 17.18ZM38.6314 17.3558C38.521 17.2326 38.3664 17.18 38.2008 17.18C37.9357 17.18 37.7701 17.3736 37.7701 17.7078C37.7701 17.9893 37.8917 18.1473 38.1234 18.2004L38.2338 18.2178C38.3554 18.253 38.4328 18.3235 38.4328 18.4114C38.4328 18.5346 38.3445 18.6237 38.1786 18.6237C38.052 18.6279 37.9279 18.5662 37.8253 18.4479L37.7149 18.7116C37.8696 18.8874 38.0573 18.9239 38.1682 18.9239C38.4776 18.9239 38.6432 18.6955 38.6432 18.3787C38.6432 18.0815 38.5098 17.9392 38.2786 17.8862L38.1682 17.8687C38.0688 17.8513 37.9816 17.7983 37.9816 17.6929C37.9816 17.5698 38.0698 17.4806 38.1914 17.4806C38.3248 17.4806 38.4565 17.5685 38.5229 17.6212L38.6314 17.3558ZM41.8344 18.0594C41.8344 18.569 42.0442 18.9388 42.3866 18.9388C42.5413 18.9388 42.6517 18.8862 42.7621 18.7452L42.6517 18.4815C42.5735 18.5823 42.4763 18.6381 42.3757 18.6399C42.189 18.6399 42.0442 18.4114 42.0442 18.0772C42.0442 17.7431 42.1872 17.5163 42.3757 17.5163C42.4763 17.5181 42.5735 17.5739 42.6517 17.6747L42.7621 17.411C42.6517 17.2704 42.5413 17.2174 42.3866 17.2174C42.0552 17.1821 41.8344 17.5515 41.8344 18.0615V18.0594ZM40.3544 17.18C40.045 17.18 39.8352 17.5316 39.8352 18.0594C39.8352 18.5872 40.056 18.9388 40.3762 18.9388C40.532 18.944 40.6842 18.8633 40.8069 18.7104L40.6965 18.4641C40.6078 18.5736 40.4994 18.6352 40.3872 18.6399C40.2437 18.6399 40.089 18.4993 40.0672 18.2004H40.8514V18.0598C40.8514 17.532 40.6525 17.1804 40.3544 17.1804V17.18ZM40.3434 17.4968C40.4981 17.4968 40.6085 17.6552 40.6194 17.9188H40.0453C40.0784 17.6726 40.1786 17.4968 40.3434 17.4968ZM37.4829 18.0594V17.2152H37.273V17.4276C37.1957 17.2692 37.0864 17.1813 36.9306 17.1813C36.6325 17.1813 36.4114 17.5507 36.4114 18.0607C36.4114 18.5707 36.6322 18.9401 36.9306 18.9401C37.0853 18.9401 37.1957 18.8522 37.273 18.6938V18.9061H37.4829V18.0594ZM36.6325 18.0594C36.6325 17.7426 36.7541 17.4968 36.964 17.4968C37.1629 17.4968 37.284 17.7431 37.284 18.0594C37.284 18.3936 37.1506 18.622 36.964 18.622C36.7541 18.6394 36.6325 18.3757 36.6325 18.0594ZM44.7946 17.18C44.6784 17.1759 44.5693 17.2694 44.5074 17.4263V17.214H44.2976V18.9023H44.5072V17.9541C44.5072 17.6726 44.5954 17.4968 44.7392 17.4968C44.7877 17.4999 44.8358 17.5117 44.8826 17.532L44.949 17.2152C44.8984 17.1949 44.8466 17.1831 44.7944 17.18H44.7946ZM43.9773 18.0594V17.2152H43.7674V17.4276C43.6901 17.2692 43.5808 17.1813 43.425 17.1813C43.1269 17.1813 42.9058 17.5507 42.9058 18.0607C42.9058 18.5707 43.1266 18.9401 43.425 18.9401C43.5797 18.9401 43.6901 18.8522 43.7674 18.6938V18.9061H43.9773V18.0594ZM43.1269 18.0594C43.1269 17.7426 43.2485 17.4968 43.4584 17.4968C43.6573 17.4968 43.7784 17.7431 43.7784 18.0594C43.7784 18.3936 43.645 18.622 43.4584 18.622C43.2485 18.6394 43.1269 18.3757 43.1269 18.0594ZM46.109 18.0594V16.5469H45.8992V17.4263C45.8218 17.2679 45.7125 17.18 45.5568 17.18C45.2586 17.18 45.0376 17.5494 45.0376 18.0594C45.0376 18.5694 45.2584 18.9388 45.5568 18.9388C45.7114 18.9388 45.8218 18.8509 45.8992 18.6925V18.9048H46.109V18.0594ZM45.2586 18.0594C45.2586 17.7426 45.3802 17.4968 45.5901 17.4968C45.789 17.4968 45.9101 17.7431 45.9101 18.0594C45.9101 18.3936 45.7768 18.622 45.5901 18.622C45.38 18.6399 45.2584 18.3762 45.2584 18.0594H45.2586Z" fill="white"/>
<path d="M42.3739 14.1287C44.3301 14.1287 45.9158 12.0992 45.9158 9.59561C45.9158 7.09204 44.3301 5.0625 42.3739 5.0625C40.4178 5.0625 38.832 7.09204 38.832 9.59561C38.832 12.0992 40.4178 14.1287 42.3739 14.1287Z" fill="#F79E1B"/>
<path d="M37.6957 14.7179C39.7822 14.7179 41.4735 12.6037 41.4735 9.99566C41.4735 7.38765 39.7822 5.27344 37.6957 5.27344C35.6093 5.27344 33.918 7.38765 33.918 9.99566C33.918 12.6037 35.6093 14.7179 37.6957 14.7179Z" fill="#EB001B"/>
<path d="M39.9197 6.1875C39.4385 6.62479 39.0467 7.19798 38.7762 7.86038C38.5057 8.52278 38.3643 9.25566 38.3633 9.99935C38.3641 10.7429 38.5053 11.4756 38.7754 12.138C39.0456 12.8004 39.4371 13.3737 39.918 13.8112C40.3992 13.3739 40.791 12.8007 41.0615 12.1383C41.3319 11.4759 41.4734 10.743 41.4744 9.99935C41.4736 9.25585 41.3324 8.52308 41.0622 7.8607C40.7921 7.19831 40.4006 6.62502 39.9197 6.1875Z" fill="#FF5F00"/>
<path d="M0.292969 2.69872C0.292969 1.76054 0.770685 1 1.35942 1H19.2265C19.8155 1 20.293 1.76036 20.293 2.69872V19.3013C20.293 20.2395 19.8153 21 19.2265 21H1.35942C0.770435 21 0.292969 20.2396 0.292969 19.3013V2.69872ZM14.28 7.05892C13.998 6.89051 13.5563 6.70979 13.0047 6.70979C11.5987 6.70979 10.6083 7.83722 10.5999 9.45306C10.592 10.6475 11.3069 11.3138 11.8467 11.7114C12.4005 12.1189 12.5867 12.3787 12.5841 12.7426C12.5806 13.2998 12.1418 13.5543 11.7328 13.5543C11.1633 13.5543 10.8607 13.4283 10.3934 13.118L10.2101 12.9858L10.0104 14.8467C10.3427 15.0787 10.9573 15.2798 11.5954 15.2902C13.0911 15.2902 14.0621 14.1757 14.0731 12.4502C14.0785 11.5046 13.6994 10.7849 12.8785 10.1917C12.3811 9.80715 12.0765 9.55055 12.0798 9.16117C12.0798 8.81565 12.3376 8.44618 12.8946 8.44618C13.3599 8.43467 13.697 8.59624 13.9596 8.76465L14.0871 8.86057L14.28 7.05892ZM17.9287 6.86219H16.8292C16.4886 6.86219 16.2337 7.01021 16.0841 7.55153L13.9709 15.1695H15.4651C15.4651 15.1695 15.7094 14.1452 15.7646 13.9203C15.9279 13.9203 17.3794 13.9239 17.5869 13.9239C17.6295 14.2149 17.76 15.1695 17.76 15.1695H19.0804L17.9287 6.86219ZM16.1741 12.2201C16.2918 11.7411 16.741 9.89637 16.741 9.89637C16.7326 9.91849 16.8578 9.4151 16.9297 9.10299L17.0259 9.81968C17.0259 9.81968 17.2983 11.8039 17.3552 12.22H16.1741V12.2201ZM7.69698 15.1669H9.11928L10.0095 6.85425H8.58661L7.69698 15.1669ZM4.962 11.3765L4.46314 7.55696C4.37701 7.03059 4.1272 6.87352 3.81816 6.85518H1.52373L1.50557 7.02813C2.0637 7.24327 2.56279 7.5537 3.00019 7.93988L4.26522 15.1597L5.77069 15.1569L8.0108 6.86032H6.50357L5.1105 12.5289L4.96208 11.3769C4.96205 11.3768 4.96202 11.3766 4.962 11.3765Z" fill="#767676"/>
</svg>
