<svg width="22" height="22" viewBox="0 0 22 22" fill="none" xmlns="http://www.w3.org/2000/svg">
<path d="M7.6686 2C7.45469 2.07993 7.24432 2.16712 7.03778 2.26126L7.6686 2ZM20.0106 15.3011C20.1128 15.0799 20.207 14.8542 20.2929 14.6245L20.0106 15.3011ZM17.7917 18.3647C17.9634 18.2044 18.1294 18.0381 18.2892 17.866L17.7917 18.3647ZM14.5618 20.3723C14.7559 20.2991 14.947 20.22 15.135 20.1351L14.5618 20.3723ZM11.4489 20.9939C11.218 21.0019 10.9855 21.0019 10.7545 20.9939H11.4489ZM7.08017 20.1404C7.26097 20.2217 7.44469 20.2978 7.63111 20.3683L7.08017 20.1404ZM3.96541 17.9208C4.1021 18.0657 4.24315 18.2064 4.38836 18.3428L3.96541 17.9208ZM1.92556 14.6645C2.00044 14.8622 2.08153 15.0569 2.16858 15.2483L1.92556 14.6645ZM1.29783 11.5053C1.29134 11.2972 1.29136 11.0878 1.29783 10.8794V11.5053ZM1.91831 7.73714C1.99187 7.54165 2.0715 7.34913 2.15696 7.1598L1.91831 7.73714ZM3.94888 4.47923C4.09354 4.32514 4.24311 4.17573 4.39736 4.03124L3.94888 4.47923Z" fill="white"/>
<path d="M7.6686 2C7.45469 2.07993 7.24432 2.16712 7.03778 2.26126M20.0106 15.3011C20.1128 15.0799 20.207 14.8542 20.2929 14.6245M17.7917 18.3647C17.9634 18.2044 18.1294 18.0381 18.2892 17.866M14.5618 20.3723C14.7559 20.2991 14.947 20.22 15.135 20.1351M11.4489 20.9939C11.218 21.0019 10.9855 21.0019 10.7545 20.9939M7.08017 20.1404C7.26097 20.2217 7.44469 20.2978 7.63111 20.3683M3.96541 17.9208C4.1021 18.0657 4.24315 18.2064 4.38836 18.3428M1.92556 14.6645C2.00044 14.8622 2.08153 15.0569 2.16858 15.2483M1.29783 11.5053C1.29134 11.2972 1.29136 11.0878 1.29783 10.8794M1.91831 7.73714C1.99187 7.54165 2.0715 7.34913 2.15696 7.1598M3.94888 4.47923C4.09354 4.32514 4.24311 4.17573 4.39736 4.03124" stroke="black" stroke-linecap="round" stroke-linejoin="round"/>
<path d="M12.793 11C12.793 11.8284 12.1214 12.5 11.293 12.5C10.4646 12.5 9.79297 11.8284 9.79297 11C9.79297 10.1716 10.4646 9.5 11.293 9.5M12.793 11C12.793 10.1716 12.1214 9.5 11.293 9.5L12.793 11ZM12.793 11H15.293H12.793ZM11.293 9.5V5V9.5Z" fill="white"/>
<path d="M12.793 11C12.793 11.8284 12.1214 12.5 11.293 12.5C10.4646 12.5 9.79297 11.8284 9.79297 11C9.79297 10.1716 10.4646 9.5 11.293 9.5M12.793 11C12.793 10.1716 12.1214 9.5 11.293 9.5M12.793 11H15.293M11.293 9.5V5" stroke="black" stroke-linecap="round"/>
<path d="M21.293 11C21.293 5.47715 16.8158 1 11.293 1L21.293 11Z" fill="white"/>
<path d="M21.293 11C21.293 5.47715 16.8158 1 11.293 1" stroke="black" stroke-linecap="round"/>
</svg>
