<svg width="391" height="218" viewBox="0 0 391 218" fill="none" xmlns="http://www.w3.org/2000/svg">
<mask id="mask0_1193_11201" style="mask-type:alpha" maskUnits="userSpaceOnUse" x="0" y="0" width="391" height="218">
<rect width="390" height="218" rx="15" transform="matrix(-1 0 0 1 390.293 0)" fill="#D9D9D9"/>
</mask>
<g mask="url(#mask0_1193_11201)">
<path d="M390.301 15C390.301 6.71573 383.585 0 375.301 0H15.3008C7.01651 0 0.300781 6.71573 0.300781 15V203C0.300781 211.284 7.01651 218 15.3008 218H375.301C383.585 218 390.301 211.284 390.301 203V15Z" fill="#21292B"/>
<circle cx="352" cy="352" r="352" transform="matrix(-0.974284 0.225324 0.225324 0.974284 282.836 0.648438)" fill="url(#paint0_linear_1193_11201)"/>
<circle cx="123.564" cy="123.564" r="123.564" transform="matrix(-0.415349 -0.909662 -0.909662 0.415349 516.738 14.8047)" fill="url(#paint1_linear_1193_11201)"/>
<path d="M31.4844 185.398H31.6328C32.3047 185.398 32.8724 185.312 33.3359 185.141C33.8047 184.969 34.1823 184.727 34.4688 184.414C34.7604 184.096 34.9714 183.719 35.1016 183.281C35.237 182.839 35.3047 182.349 35.3047 181.812V179.75C35.3047 179.312 35.2604 178.93 35.1719 178.602C35.0833 178.268 34.9583 177.99 34.7969 177.766C34.6406 177.542 34.4557 177.375 34.2422 177.266C34.0286 177.151 33.7995 177.094 33.5547 177.094C33.2839 177.094 33.0443 177.156 32.8359 177.281C32.6276 177.406 32.4505 177.578 32.3047 177.797C32.1641 178.01 32.0547 178.258 31.9766 178.539C31.9036 178.82 31.8672 179.117 31.8672 179.43C31.8672 179.732 31.901 180.021 31.9688 180.297C32.0417 180.573 32.1484 180.818 32.2891 181.031C32.4349 181.245 32.6172 181.414 32.8359 181.539C33.0547 181.659 33.3099 181.719 33.6016 181.719C33.8776 181.719 34.1276 181.667 34.3516 181.562C34.5807 181.453 34.7786 181.31 34.9453 181.133C35.112 180.951 35.2396 180.75 35.3281 180.531C35.4219 180.307 35.474 180.081 35.4844 179.852L36.2109 180.164C36.2109 180.544 36.1302 180.919 35.9688 181.289C35.8125 181.659 35.5911 181.995 35.3047 182.297C35.0234 182.594 34.6953 182.833 34.3203 183.016C33.9453 183.193 33.5417 183.281 33.1094 183.281C32.5729 183.281 32.099 183.182 31.6875 182.984C31.276 182.786 30.9297 182.513 30.6484 182.164C30.3724 181.81 30.1641 181.404 30.0234 180.945C29.8828 180.482 29.8125 179.987 29.8125 179.461C29.8125 178.914 29.8984 178.401 30.0703 177.922C30.2422 177.438 30.4896 177.013 30.8125 176.648C31.1406 176.279 31.5365 175.99 32 175.781C32.4635 175.568 32.9844 175.461 33.5625 175.461C34.1615 175.461 34.6953 175.578 35.1641 175.812C35.6328 176.047 36.0312 176.372 36.3594 176.789C36.6875 177.201 36.9375 177.688 37.1094 178.25C37.2865 178.812 37.375 179.427 37.375 180.094V180.82C37.375 181.523 37.3047 182.19 37.1641 182.82C37.0234 183.451 36.8073 184.026 36.5156 184.547C36.224 185.068 35.8516 185.518 35.3984 185.898C34.9505 186.279 34.4141 186.573 33.7891 186.781C33.1693 186.984 32.4609 187.086 31.6641 187.086H31.4844V185.398ZM44.8125 175.531H45.0938V177.195H44.9609C44.3307 177.195 43.776 177.292 43.2969 177.484C42.8229 177.677 42.4271 177.948 42.1094 178.297C41.7969 178.641 41.5599 179.049 41.3984 179.523C41.237 179.992 41.1562 180.505 41.1562 181.062V182.906C41.1562 183.339 41.2005 183.719 41.2891 184.047C41.3828 184.37 41.5104 184.643 41.6719 184.867C41.8385 185.086 42.0312 185.25 42.25 185.359C42.474 185.469 42.7188 185.523 42.9844 185.523C43.25 185.523 43.4896 185.469 43.7031 185.359C43.9167 185.25 44.099 185.096 44.25 184.898C44.4062 184.695 44.5234 184.458 44.6016 184.188C44.6849 183.917 44.7266 183.62 44.7266 183.297C44.7266 182.979 44.6875 182.685 44.6094 182.414C44.5312 182.143 44.4167 181.906 44.2656 181.703C44.1146 181.495 43.9271 181.336 43.7031 181.227C43.4844 181.112 43.2344 181.055 42.9531 181.055C42.5885 181.055 42.263 181.141 41.9766 181.312C41.6901 181.479 41.4635 181.698 41.2969 181.969C41.1302 182.24 41.0391 182.526 41.0234 182.828L40.3281 182.484C40.3542 182.042 40.4479 181.635 40.6094 181.266C40.776 180.896 40.9974 180.573 41.2734 180.297C41.5547 180.021 41.8854 179.807 42.2656 179.656C42.651 179.505 43.0781 179.43 43.5469 179.43C44.0885 179.43 44.5625 179.534 44.9688 179.742C45.375 179.945 45.7109 180.224 45.9766 180.578C46.2474 180.932 46.4505 181.341 46.5859 181.805C46.7214 182.263 46.7891 182.747 46.7891 183.258C46.7891 183.805 46.7005 184.315 46.5234 184.789C46.3516 185.263 46.1016 185.677 45.7734 186.031C45.4453 186.385 45.0495 186.661 44.5859 186.859C44.1224 187.057 43.6016 187.156 43.0234 187.156C42.4141 187.156 41.8672 187.042 41.3828 186.812C40.9036 186.583 40.4922 186.266 40.1484 185.859C39.8047 185.453 39.5417 184.979 39.3594 184.438C39.1771 183.896 39.0859 183.31 39.0859 182.68V181.852C39.0859 180.961 39.2083 180.133 39.4531 179.367C39.6979 178.602 40.0599 177.932 40.5391 177.359C41.0234 176.781 41.6224 176.333 42.3359 176.016C43.0495 175.693 43.875 175.531 44.8125 175.531ZM50.2578 181.766L48.6094 181.367L49.2422 175.625H55.5V177.336H50.9531L50.6562 179.992C50.8177 179.893 51.0521 179.794 51.3594 179.695C51.6719 179.591 52.0234 179.539 52.4141 179.539C52.9557 179.539 53.4401 179.628 53.8672 179.805C54.2943 179.977 54.6562 180.227 54.9531 180.555C55.2552 180.883 55.4818 181.284 55.6328 181.758C55.7891 182.227 55.8672 182.758 55.8672 183.352C55.8672 183.872 55.7891 184.362 55.6328 184.82C55.4818 185.273 55.25 185.677 54.9375 186.031C54.625 186.38 54.2318 186.656 53.7578 186.859C53.2839 187.057 52.7266 187.156 52.0859 187.156C51.6016 187.156 51.1354 187.086 50.6875 186.945C50.2448 186.799 49.8464 186.589 49.4922 186.312C49.138 186.031 48.8542 185.688 48.6406 185.281C48.4323 184.875 48.3177 184.409 48.2969 183.883H50.3359C50.3724 184.232 50.4661 184.529 50.6172 184.773C50.7682 185.018 50.9661 185.206 51.2109 185.336C51.4609 185.466 51.75 185.531 52.0781 185.531C52.375 185.531 52.6302 185.477 52.8438 185.367C53.0625 185.253 53.2422 185.094 53.3828 184.891C53.5234 184.688 53.6276 184.448 53.6953 184.172C53.763 183.896 53.7969 183.594 53.7969 183.266C53.7969 182.948 53.7578 182.659 53.6797 182.398C53.6016 182.133 53.4818 181.904 53.3203 181.711C53.1589 181.518 52.9557 181.37 52.7109 181.266C52.4714 181.161 52.1901 181.109 51.8672 181.109C51.4349 181.109 51.1016 181.174 50.8672 181.305C50.638 181.435 50.4349 181.589 50.2578 181.766ZM59.3984 181.766L57.75 181.367L58.3828 175.625H64.6406V177.336H60.0938L59.7969 179.992C59.9583 179.893 60.1927 179.794 60.5 179.695C60.8125 179.591 61.1641 179.539 61.5547 179.539C62.0964 179.539 62.5807 179.628 63.0078 179.805C63.4349 179.977 63.7969 180.227 64.0938 180.555C64.3958 180.883 64.6224 181.284 64.7734 181.758C64.9297 182.227 65.0078 182.758 65.0078 183.352C65.0078 183.872 64.9297 184.362 64.7734 184.82C64.6224 185.273 64.3906 185.677 64.0781 186.031C63.7656 186.38 63.3724 186.656 62.8984 186.859C62.4245 187.057 61.8672 187.156 61.2266 187.156C60.7422 187.156 60.276 187.086 59.8281 186.945C59.3854 186.799 58.987 186.589 58.6328 186.312C58.2786 186.031 57.9948 185.688 57.7812 185.281C57.5729 184.875 57.4583 184.409 57.4375 183.883H59.4766C59.513 184.232 59.6068 184.529 59.7578 184.773C59.9089 185.018 60.1068 185.206 60.3516 185.336C60.6016 185.466 60.8906 185.531 61.2188 185.531C61.5156 185.531 61.7708 185.477 61.9844 185.367C62.2031 185.253 62.3828 185.094 62.5234 184.891C62.6641 184.688 62.7682 184.448 62.8359 184.172C62.9036 183.896 62.9375 183.594 62.9375 183.266C62.9375 182.948 62.8984 182.659 62.8203 182.398C62.7422 182.133 62.6224 181.904 62.4609 181.711C62.2995 181.518 62.0964 181.37 61.8516 181.266C61.612 181.161 61.3307 181.109 61.0078 181.109C60.5755 181.109 60.2422 181.174 60.0078 181.305C59.7786 181.435 59.5755 181.589 59.3984 181.766Z" fill="white"/>
<path d="M94.4844 185.547H94.6328C95.3047 185.547 95.8724 185.461 96.3359 185.289C96.8047 185.117 97.1823 184.875 97.4688 184.562C97.7604 184.245 97.9714 183.867 98.1016 183.43C98.237 182.987 98.3047 182.497 98.3047 181.961V179.898C98.3047 179.461 98.2604 179.078 98.1719 178.75C98.0833 178.417 97.9583 178.138 97.7969 177.914C97.6406 177.69 97.4557 177.523 97.2422 177.414C97.0286 177.299 96.7995 177.242 96.5547 177.242C96.2839 177.242 96.0443 177.305 95.8359 177.43C95.6276 177.555 95.4505 177.727 95.3047 177.945C95.1641 178.159 95.0547 178.406 94.9766 178.688C94.9036 178.969 94.8672 179.266 94.8672 179.578C94.8672 179.88 94.901 180.169 94.9688 180.445C95.0417 180.721 95.1484 180.966 95.2891 181.18C95.4349 181.393 95.6172 181.562 95.8359 181.688C96.0547 181.807 96.3099 181.867 96.6016 181.867C96.8776 181.867 97.1276 181.815 97.3516 181.711C97.5807 181.602 97.7786 181.458 97.9453 181.281C98.112 181.099 98.2396 180.898 98.3281 180.68C98.4219 180.456 98.474 180.229 98.4844 180L99.2109 180.312C99.2109 180.693 99.1302 181.068 98.9688 181.438C98.8125 181.807 98.5911 182.143 98.3047 182.445C98.0234 182.742 97.6953 182.982 97.3203 183.164C96.9453 183.341 96.5417 183.43 96.1094 183.43C95.5729 183.43 95.099 183.331 94.6875 183.133C94.276 182.935 93.9297 182.661 93.6484 182.312C93.3724 181.958 93.1641 181.552 93.0234 181.094C92.8828 180.63 92.8125 180.135 92.8125 179.609C92.8125 179.062 92.8984 178.549 93.0703 178.07C93.2422 177.586 93.4896 177.161 93.8125 176.797C94.1406 176.427 94.5365 176.138 95 175.93C95.4635 175.716 95.9844 175.609 96.5625 175.609C97.1615 175.609 97.6953 175.727 98.1641 175.961C98.6328 176.195 99.0312 176.521 99.3594 176.938C99.6875 177.349 99.9375 177.836 100.109 178.398C100.286 178.961 100.375 179.576 100.375 180.242V180.969C100.375 181.672 100.305 182.339 100.164 182.969C100.023 183.599 99.8073 184.174 99.5156 184.695C99.224 185.216 98.8516 185.667 98.3984 186.047C97.9505 186.427 97.4141 186.721 96.7891 186.93C96.1693 187.133 95.4609 187.234 94.6641 187.234H94.4844V185.547ZM107.812 175.68H108.094V177.344H107.961C107.331 177.344 106.776 177.44 106.297 177.633C105.823 177.826 105.427 178.096 105.109 178.445C104.797 178.789 104.56 179.198 104.398 179.672C104.237 180.141 104.156 180.654 104.156 181.211V183.055C104.156 183.487 104.201 183.867 104.289 184.195C104.383 184.518 104.51 184.792 104.672 185.016C104.839 185.234 105.031 185.398 105.25 185.508C105.474 185.617 105.719 185.672 105.984 185.672C106.25 185.672 106.49 185.617 106.703 185.508C106.917 185.398 107.099 185.245 107.25 185.047C107.406 184.844 107.523 184.607 107.602 184.336C107.685 184.065 107.727 183.768 107.727 183.445C107.727 183.128 107.688 182.833 107.609 182.562C107.531 182.292 107.417 182.055 107.266 181.852C107.115 181.643 106.927 181.484 106.703 181.375C106.484 181.26 106.234 181.203 105.953 181.203C105.589 181.203 105.263 181.289 104.977 181.461C104.69 181.628 104.464 181.846 104.297 182.117C104.13 182.388 104.039 182.674 104.023 182.977L103.328 182.633C103.354 182.19 103.448 181.784 103.609 181.414C103.776 181.044 103.997 180.721 104.273 180.445C104.555 180.169 104.885 179.956 105.266 179.805C105.651 179.654 106.078 179.578 106.547 179.578C107.089 179.578 107.562 179.682 107.969 179.891C108.375 180.094 108.711 180.372 108.977 180.727C109.247 181.081 109.451 181.49 109.586 181.953C109.721 182.411 109.789 182.896 109.789 183.406C109.789 183.953 109.701 184.464 109.523 184.938C109.352 185.411 109.102 185.826 108.773 186.18C108.445 186.534 108.049 186.81 107.586 187.008C107.122 187.206 106.602 187.305 106.023 187.305C105.414 187.305 104.867 187.19 104.383 186.961C103.904 186.732 103.492 186.414 103.148 186.008C102.805 185.602 102.542 185.128 102.359 184.586C102.177 184.044 102.086 183.458 102.086 182.828V182C102.086 181.109 102.208 180.281 102.453 179.516C102.698 178.75 103.06 178.081 103.539 177.508C104.023 176.93 104.622 176.482 105.336 176.164C106.049 175.841 106.875 175.68 107.812 175.68ZM113.258 181.914L111.609 181.516L112.242 175.773H118.5V177.484H113.953L113.656 180.141C113.818 180.042 114.052 179.943 114.359 179.844C114.672 179.74 115.023 179.688 115.414 179.688C115.956 179.688 116.44 179.776 116.867 179.953C117.294 180.125 117.656 180.375 117.953 180.703C118.255 181.031 118.482 181.432 118.633 181.906C118.789 182.375 118.867 182.906 118.867 183.5C118.867 184.021 118.789 184.51 118.633 184.969C118.482 185.422 118.25 185.826 117.938 186.18C117.625 186.529 117.232 186.805 116.758 187.008C116.284 187.206 115.727 187.305 115.086 187.305C114.602 187.305 114.135 187.234 113.688 187.094C113.245 186.948 112.846 186.737 112.492 186.461C112.138 186.18 111.854 185.836 111.641 185.43C111.432 185.023 111.318 184.557 111.297 184.031H113.336C113.372 184.38 113.466 184.677 113.617 184.922C113.768 185.167 113.966 185.354 114.211 185.484C114.461 185.615 114.75 185.68 115.078 185.68C115.375 185.68 115.63 185.625 115.844 185.516C116.062 185.401 116.242 185.242 116.383 185.039C116.523 184.836 116.628 184.596 116.695 184.32C116.763 184.044 116.797 183.742 116.797 183.414C116.797 183.096 116.758 182.807 116.68 182.547C116.602 182.281 116.482 182.052 116.32 181.859C116.159 181.667 115.956 181.518 115.711 181.414C115.471 181.31 115.19 181.258 114.867 181.258C114.435 181.258 114.102 181.323 113.867 181.453C113.638 181.583 113.435 181.737 113.258 181.914ZM122.398 181.914L120.75 181.516L121.383 175.773H127.641V177.484H123.094L122.797 180.141C122.958 180.042 123.193 179.943 123.5 179.844C123.812 179.74 124.164 179.688 124.555 179.688C125.096 179.688 125.581 179.776 126.008 179.953C126.435 180.125 126.797 180.375 127.094 180.703C127.396 181.031 127.622 181.432 127.773 181.906C127.93 182.375 128.008 182.906 128.008 183.5C128.008 184.021 127.93 184.51 127.773 184.969C127.622 185.422 127.391 185.826 127.078 186.18C126.766 186.529 126.372 186.805 125.898 187.008C125.424 187.206 124.867 187.305 124.227 187.305C123.742 187.305 123.276 187.234 122.828 187.094C122.385 186.948 121.987 186.737 121.633 186.461C121.279 186.18 120.995 185.836 120.781 185.43C120.573 185.023 120.458 184.557 120.438 184.031H122.477C122.513 184.38 122.607 184.677 122.758 184.922C122.909 185.167 123.107 185.354 123.352 185.484C123.602 185.615 123.891 185.68 124.219 185.68C124.516 185.68 124.771 185.625 124.984 185.516C125.203 185.401 125.383 185.242 125.523 185.039C125.664 184.836 125.768 184.596 125.836 184.32C125.904 184.044 125.938 183.742 125.938 183.414C125.938 183.096 125.898 182.807 125.82 182.547C125.742 182.281 125.622 182.052 125.461 181.859C125.299 181.667 125.096 181.518 124.852 181.414C124.612 181.31 124.331 181.258 124.008 181.258C123.576 181.258 123.242 181.323 123.008 181.453C122.779 181.583 122.576 181.737 122.398 181.914Z" fill="white"/>
<path d="M157.484 185.547H157.633C158.305 185.547 158.872 185.461 159.336 185.289C159.805 185.117 160.182 184.875 160.469 184.562C160.76 184.245 160.971 183.867 161.102 183.43C161.237 182.987 161.305 182.497 161.305 181.961V179.898C161.305 179.461 161.26 179.078 161.172 178.75C161.083 178.417 160.958 178.138 160.797 177.914C160.641 177.69 160.456 177.523 160.242 177.414C160.029 177.299 159.799 177.242 159.555 177.242C159.284 177.242 159.044 177.305 158.836 177.43C158.628 177.555 158.451 177.727 158.305 177.945C158.164 178.159 158.055 178.406 157.977 178.688C157.904 178.969 157.867 179.266 157.867 179.578C157.867 179.88 157.901 180.169 157.969 180.445C158.042 180.721 158.148 180.966 158.289 181.18C158.435 181.393 158.617 181.562 158.836 181.688C159.055 181.807 159.31 181.867 159.602 181.867C159.878 181.867 160.128 181.815 160.352 181.711C160.581 181.602 160.779 181.458 160.945 181.281C161.112 181.099 161.24 180.898 161.328 180.68C161.422 180.456 161.474 180.229 161.484 180L162.211 180.312C162.211 180.693 162.13 181.068 161.969 181.438C161.812 181.807 161.591 182.143 161.305 182.445C161.023 182.742 160.695 182.982 160.32 183.164C159.945 183.341 159.542 183.43 159.109 183.43C158.573 183.43 158.099 183.331 157.688 183.133C157.276 182.935 156.93 182.661 156.648 182.312C156.372 181.958 156.164 181.552 156.023 181.094C155.883 180.63 155.812 180.135 155.812 179.609C155.812 179.062 155.898 178.549 156.07 178.07C156.242 177.586 156.49 177.161 156.812 176.797C157.141 176.427 157.536 176.138 158 175.93C158.464 175.716 158.984 175.609 159.562 175.609C160.161 175.609 160.695 175.727 161.164 175.961C161.633 176.195 162.031 176.521 162.359 176.938C162.688 177.349 162.938 177.836 163.109 178.398C163.286 178.961 163.375 179.576 163.375 180.242V180.969C163.375 181.672 163.305 182.339 163.164 182.969C163.023 183.599 162.807 184.174 162.516 184.695C162.224 185.216 161.852 185.667 161.398 186.047C160.951 186.427 160.414 186.721 159.789 186.93C159.169 187.133 158.461 187.234 157.664 187.234H157.484V185.547ZM170.812 175.68H171.094V177.344H170.961C170.331 177.344 169.776 177.44 169.297 177.633C168.823 177.826 168.427 178.096 168.109 178.445C167.797 178.789 167.56 179.198 167.398 179.672C167.237 180.141 167.156 180.654 167.156 181.211V183.055C167.156 183.487 167.201 183.867 167.289 184.195C167.383 184.518 167.51 184.792 167.672 185.016C167.839 185.234 168.031 185.398 168.25 185.508C168.474 185.617 168.719 185.672 168.984 185.672C169.25 185.672 169.49 185.617 169.703 185.508C169.917 185.398 170.099 185.245 170.25 185.047C170.406 184.844 170.523 184.607 170.602 184.336C170.685 184.065 170.727 183.768 170.727 183.445C170.727 183.128 170.688 182.833 170.609 182.562C170.531 182.292 170.417 182.055 170.266 181.852C170.115 181.643 169.927 181.484 169.703 181.375C169.484 181.26 169.234 181.203 168.953 181.203C168.589 181.203 168.263 181.289 167.977 181.461C167.69 181.628 167.464 181.846 167.297 182.117C167.13 182.388 167.039 182.674 167.023 182.977L166.328 182.633C166.354 182.19 166.448 181.784 166.609 181.414C166.776 181.044 166.997 180.721 167.273 180.445C167.555 180.169 167.885 179.956 168.266 179.805C168.651 179.654 169.078 179.578 169.547 179.578C170.089 179.578 170.562 179.682 170.969 179.891C171.375 180.094 171.711 180.372 171.977 180.727C172.247 181.081 172.451 181.49 172.586 181.953C172.721 182.411 172.789 182.896 172.789 183.406C172.789 183.953 172.701 184.464 172.523 184.938C172.352 185.411 172.102 185.826 171.773 186.18C171.445 186.534 171.049 186.81 170.586 187.008C170.122 187.206 169.602 187.305 169.023 187.305C168.414 187.305 167.867 187.19 167.383 186.961C166.904 186.732 166.492 186.414 166.148 186.008C165.805 185.602 165.542 185.128 165.359 184.586C165.177 184.044 165.086 183.458 165.086 182.828V182C165.086 181.109 165.208 180.281 165.453 179.516C165.698 178.75 166.06 178.081 166.539 177.508C167.023 176.93 167.622 176.482 168.336 176.164C169.049 175.841 169.875 175.68 170.812 175.68ZM176.258 181.914L174.609 181.516L175.242 175.773H181.5V177.484H176.953L176.656 180.141C176.818 180.042 177.052 179.943 177.359 179.844C177.672 179.74 178.023 179.688 178.414 179.688C178.956 179.688 179.44 179.776 179.867 179.953C180.294 180.125 180.656 180.375 180.953 180.703C181.255 181.031 181.482 181.432 181.633 181.906C181.789 182.375 181.867 182.906 181.867 183.5C181.867 184.021 181.789 184.51 181.633 184.969C181.482 185.422 181.25 185.826 180.938 186.18C180.625 186.529 180.232 186.805 179.758 187.008C179.284 187.206 178.727 187.305 178.086 187.305C177.602 187.305 177.135 187.234 176.688 187.094C176.245 186.948 175.846 186.737 175.492 186.461C175.138 186.18 174.854 185.836 174.641 185.43C174.432 185.023 174.318 184.557 174.297 184.031H176.336C176.372 184.38 176.466 184.677 176.617 184.922C176.768 185.167 176.966 185.354 177.211 185.484C177.461 185.615 177.75 185.68 178.078 185.68C178.375 185.68 178.63 185.625 178.844 185.516C179.062 185.401 179.242 185.242 179.383 185.039C179.523 184.836 179.628 184.596 179.695 184.32C179.763 184.044 179.797 183.742 179.797 183.414C179.797 183.096 179.758 182.807 179.68 182.547C179.602 182.281 179.482 182.052 179.32 181.859C179.159 181.667 178.956 181.518 178.711 181.414C178.471 181.31 178.19 181.258 177.867 181.258C177.435 181.258 177.102 181.323 176.867 181.453C176.638 181.583 176.435 181.737 176.258 181.914ZM185.398 181.914L183.75 181.516L184.383 175.773H190.641V177.484H186.094L185.797 180.141C185.958 180.042 186.193 179.943 186.5 179.844C186.812 179.74 187.164 179.688 187.555 179.688C188.096 179.688 188.581 179.776 189.008 179.953C189.435 180.125 189.797 180.375 190.094 180.703C190.396 181.031 190.622 181.432 190.773 181.906C190.93 182.375 191.008 182.906 191.008 183.5C191.008 184.021 190.93 184.51 190.773 184.969C190.622 185.422 190.391 185.826 190.078 186.18C189.766 186.529 189.372 186.805 188.898 187.008C188.424 187.206 187.867 187.305 187.227 187.305C186.742 187.305 186.276 187.234 185.828 187.094C185.385 186.948 184.987 186.737 184.633 186.461C184.279 186.18 183.995 185.836 183.781 185.43C183.573 185.023 183.458 184.557 183.438 184.031H185.477C185.513 184.38 185.607 184.677 185.758 184.922C185.909 185.167 186.107 185.354 186.352 185.484C186.602 185.615 186.891 185.68 187.219 185.68C187.516 185.68 187.771 185.625 187.984 185.516C188.203 185.401 188.383 185.242 188.523 185.039C188.664 184.836 188.768 184.596 188.836 184.32C188.904 184.044 188.938 183.742 188.938 183.414C188.938 183.096 188.898 182.807 188.82 182.547C188.742 182.281 188.622 182.052 188.461 181.859C188.299 181.667 188.096 181.518 187.852 181.414C187.612 181.31 187.331 181.258 187.008 181.258C186.576 181.258 186.242 181.323 186.008 181.453C185.779 181.583 185.576 181.737 185.398 181.914Z" fill="white"/>
<path d="M220.484 185.547H220.633C221.305 185.547 221.872 185.461 222.336 185.289C222.805 185.117 223.182 184.875 223.469 184.562C223.76 184.245 223.971 183.867 224.102 183.43C224.237 182.987 224.305 182.497 224.305 181.961V179.898C224.305 179.461 224.26 179.078 224.172 178.75C224.083 178.417 223.958 178.138 223.797 177.914C223.641 177.69 223.456 177.523 223.242 177.414C223.029 177.299 222.799 177.242 222.555 177.242C222.284 177.242 222.044 177.305 221.836 177.43C221.628 177.555 221.451 177.727 221.305 177.945C221.164 178.159 221.055 178.406 220.977 178.688C220.904 178.969 220.867 179.266 220.867 179.578C220.867 179.88 220.901 180.169 220.969 180.445C221.042 180.721 221.148 180.966 221.289 181.18C221.435 181.393 221.617 181.562 221.836 181.688C222.055 181.807 222.31 181.867 222.602 181.867C222.878 181.867 223.128 181.815 223.352 181.711C223.581 181.602 223.779 181.458 223.945 181.281C224.112 181.099 224.24 180.898 224.328 180.68C224.422 180.456 224.474 180.229 224.484 180L225.211 180.312C225.211 180.693 225.13 181.068 224.969 181.438C224.812 181.807 224.591 182.143 224.305 182.445C224.023 182.742 223.695 182.982 223.32 183.164C222.945 183.341 222.542 183.43 222.109 183.43C221.573 183.43 221.099 183.331 220.688 183.133C220.276 182.935 219.93 182.661 219.648 182.312C219.372 181.958 219.164 181.552 219.023 181.094C218.883 180.63 218.812 180.135 218.812 179.609C218.812 179.062 218.898 178.549 219.07 178.07C219.242 177.586 219.49 177.161 219.812 176.797C220.141 176.427 220.536 176.138 221 175.93C221.464 175.716 221.984 175.609 222.562 175.609C223.161 175.609 223.695 175.727 224.164 175.961C224.633 176.195 225.031 176.521 225.359 176.938C225.688 177.349 225.938 177.836 226.109 178.398C226.286 178.961 226.375 179.576 226.375 180.242V180.969C226.375 181.672 226.305 182.339 226.164 182.969C226.023 183.599 225.807 184.174 225.516 184.695C225.224 185.216 224.852 185.667 224.398 186.047C223.951 186.427 223.414 186.721 222.789 186.93C222.169 187.133 221.461 187.234 220.664 187.234H220.484V185.547ZM233.812 175.68H234.094V177.344H233.961C233.331 177.344 232.776 177.44 232.297 177.633C231.823 177.826 231.427 178.096 231.109 178.445C230.797 178.789 230.56 179.198 230.398 179.672C230.237 180.141 230.156 180.654 230.156 181.211V183.055C230.156 183.487 230.201 183.867 230.289 184.195C230.383 184.518 230.51 184.792 230.672 185.016C230.839 185.234 231.031 185.398 231.25 185.508C231.474 185.617 231.719 185.672 231.984 185.672C232.25 185.672 232.49 185.617 232.703 185.508C232.917 185.398 233.099 185.245 233.25 185.047C233.406 184.844 233.523 184.607 233.602 184.336C233.685 184.065 233.727 183.768 233.727 183.445C233.727 183.128 233.688 182.833 233.609 182.562C233.531 182.292 233.417 182.055 233.266 181.852C233.115 181.643 232.927 181.484 232.703 181.375C232.484 181.26 232.234 181.203 231.953 181.203C231.589 181.203 231.263 181.289 230.977 181.461C230.69 181.628 230.464 181.846 230.297 182.117C230.13 182.388 230.039 182.674 230.023 182.977L229.328 182.633C229.354 182.19 229.448 181.784 229.609 181.414C229.776 181.044 229.997 180.721 230.273 180.445C230.555 180.169 230.885 179.956 231.266 179.805C231.651 179.654 232.078 179.578 232.547 179.578C233.089 179.578 233.562 179.682 233.969 179.891C234.375 180.094 234.711 180.372 234.977 180.727C235.247 181.081 235.451 181.49 235.586 181.953C235.721 182.411 235.789 182.896 235.789 183.406C235.789 183.953 235.701 184.464 235.523 184.938C235.352 185.411 235.102 185.826 234.773 186.18C234.445 186.534 234.049 186.81 233.586 187.008C233.122 187.206 232.602 187.305 232.023 187.305C231.414 187.305 230.867 187.19 230.383 186.961C229.904 186.732 229.492 186.414 229.148 186.008C228.805 185.602 228.542 185.128 228.359 184.586C228.177 184.044 228.086 183.458 228.086 182.828V182C228.086 181.109 228.208 180.281 228.453 179.516C228.698 178.75 229.06 178.081 229.539 177.508C230.023 176.93 230.622 176.482 231.336 176.164C232.049 175.841 232.875 175.68 233.812 175.68ZM239.258 181.914L237.609 181.516L238.242 175.773H244.5V177.484H239.953L239.656 180.141C239.818 180.042 240.052 179.943 240.359 179.844C240.672 179.74 241.023 179.688 241.414 179.688C241.956 179.688 242.44 179.776 242.867 179.953C243.294 180.125 243.656 180.375 243.953 180.703C244.255 181.031 244.482 181.432 244.633 181.906C244.789 182.375 244.867 182.906 244.867 183.5C244.867 184.021 244.789 184.51 244.633 184.969C244.482 185.422 244.25 185.826 243.938 186.18C243.625 186.529 243.232 186.805 242.758 187.008C242.284 187.206 241.727 187.305 241.086 187.305C240.602 187.305 240.135 187.234 239.688 187.094C239.245 186.948 238.846 186.737 238.492 186.461C238.138 186.18 237.854 185.836 237.641 185.43C237.432 185.023 237.318 184.557 237.297 184.031H239.336C239.372 184.38 239.466 184.677 239.617 184.922C239.768 185.167 239.966 185.354 240.211 185.484C240.461 185.615 240.75 185.68 241.078 185.68C241.375 185.68 241.63 185.625 241.844 185.516C242.062 185.401 242.242 185.242 242.383 185.039C242.523 184.836 242.628 184.596 242.695 184.32C242.763 184.044 242.797 183.742 242.797 183.414C242.797 183.096 242.758 182.807 242.68 182.547C242.602 182.281 242.482 182.052 242.32 181.859C242.159 181.667 241.956 181.518 241.711 181.414C241.471 181.31 241.19 181.258 240.867 181.258C240.435 181.258 240.102 181.323 239.867 181.453C239.638 181.583 239.435 181.737 239.258 181.914ZM248.398 181.914L246.75 181.516L247.383 175.773H253.641V177.484H249.094L248.797 180.141C248.958 180.042 249.193 179.943 249.5 179.844C249.812 179.74 250.164 179.688 250.555 179.688C251.096 179.688 251.581 179.776 252.008 179.953C252.435 180.125 252.797 180.375 253.094 180.703C253.396 181.031 253.622 181.432 253.773 181.906C253.93 182.375 254.008 182.906 254.008 183.5C254.008 184.021 253.93 184.51 253.773 184.969C253.622 185.422 253.391 185.826 253.078 186.18C252.766 186.529 252.372 186.805 251.898 187.008C251.424 187.206 250.867 187.305 250.227 187.305C249.742 187.305 249.276 187.234 248.828 187.094C248.385 186.948 247.987 186.737 247.633 186.461C247.279 186.18 246.995 185.836 246.781 185.43C246.573 185.023 246.458 184.557 246.438 184.031H248.477C248.513 184.38 248.607 184.677 248.758 184.922C248.909 185.167 249.107 185.354 249.352 185.484C249.602 185.615 249.891 185.68 250.219 185.68C250.516 185.68 250.771 185.625 250.984 185.516C251.203 185.401 251.383 185.242 251.523 185.039C251.664 184.836 251.768 184.596 251.836 184.32C251.904 184.044 251.938 183.742 251.938 183.414C251.938 183.096 251.898 182.807 251.82 182.547C251.742 182.281 251.622 182.052 251.461 181.859C251.299 181.667 251.096 181.518 250.852 181.414C250.612 181.31 250.331 181.258 250.008 181.258C249.576 181.258 249.242 181.323 249.008 181.453C248.779 181.583 248.576 181.737 248.398 181.914Z" fill="white"/>
<path d="M29.1094 106.285V90.813C29.1094 89.2659 30.341 88 31.8462 88H52.3725C53.8778 88 55.1094 89.2659 55.1094 90.813V106.285C55.1094 107.832 53.8778 109.098 52.3725 109.098H31.8462C30.341 109.098 29.1094 107.832 29.1094 106.285Z" fill="#FF9800"/>
<path d="M55.1094 96.4385V95.032H46.8988C46.1462 95.032 45.5304 94.3991 45.5304 93.6255C45.5304 92.8519 46.1462 92.219 46.8988 92.219H47.5831V90.8125H46.8988C45.3936 90.8125 44.162 92.0784 44.162 93.6255C44.162 95.1727 45.3936 96.4385 46.8988 96.4385H48.9515V100.658H46.8988C44.9831 100.658 43.4778 102.205 43.4778 104.174C43.4778 106.143 44.9831 107.691 46.8988 107.691H48.2673V106.284H46.8988C45.7357 106.284 44.8462 105.37 44.8462 104.174C44.8462 102.979 45.7357 102.065 46.8988 102.065H55.1094V100.658H50.3199V96.4385H55.1094ZM37.3199 100.658H35.2673V96.4385H37.3199C38.8252 96.4385 40.0567 95.1727 40.0567 93.6255C40.0567 92.0784 38.8252 90.8125 37.3199 90.8125H35.2673V92.219H37.3199C38.0725 92.219 38.6883 92.8519 38.6883 93.6255C38.6883 94.3991 38.0725 95.032 37.3199 95.032H29.1094V96.4385H33.8988V100.658H29.1094V102.065H37.3199C38.4831 102.065 39.3725 102.979 39.3725 104.174C39.3725 105.37 38.4831 106.284 37.3199 106.284H35.9515V107.691H37.3199C39.2357 107.691 40.741 106.143 40.741 104.174C40.741 102.205 39.2357 100.658 37.3199 100.658Z" fill="#FFD54F"/>
<path d="M338.063 33.1151C338.034 35.3439 340.075 36.5877 341.612 37.3271C343.191 38.0859 343.721 38.5724 343.715 39.2509C343.703 40.2894 342.456 40.7476 341.288 40.7655C339.25 40.7967 338.066 40.2224 337.124 39.788L336.39 43.1787C337.335 43.6087 339.085 43.9836 340.899 44C345.157 44 347.944 41.9245 347.959 38.7063C347.975 34.6223 342.237 34.3961 342.276 32.5706C342.29 32.0171 342.825 31.4264 343.997 31.2762C344.577 31.2003 346.179 31.1423 347.995 31.968L348.708 28.6874C347.731 28.3362 346.476 28 344.913 28C340.905 28 338.085 30.1038 338.063 33.1151ZM355.557 28.2827C354.779 28.2827 354.124 28.7305 353.831 29.4179L347.748 43.759H352.003L352.85 41.4484H358.051L358.542 43.759H362.292L359.019 28.2827H355.557ZM356.152 32.4635L357.38 38.2749H354.017L356.152 32.4635ZM332.903 28.2827L329.549 43.759H333.604L336.957 28.2827H332.903ZM326.904 28.2827L322.683 38.8164L320.976 29.8598C320.776 28.86 319.984 28.2827 319.106 28.2827H312.206L312.109 28.732C313.526 29.0355 315.135 29.525 316.11 30.0487C316.707 30.3686 316.877 30.6483 317.073 31.4086L320.307 43.759H324.593L331.163 28.2827H326.904Z" fill="white"/>
<path d="M170.588 151.927V153H165.317V151.927H170.588ZM165.584 143.047V153H164.265V143.047H165.584ZM169.891 147.326V148.399H165.317V147.326H169.891ZM170.52 143.047V144.127H165.317V143.047H170.52ZM172.885 145.604L174.505 148.297L176.146 145.604H177.629L175.209 149.254L177.704 153H176.241L174.532 150.225L172.823 153H171.354L173.842 149.254L171.429 145.604H172.885ZM180.24 147.025V155.844H178.969V145.604H180.131L180.24 147.025ZM185.224 149.24V149.384C185.224 149.922 185.16 150.421 185.032 150.881C184.905 151.337 184.718 151.733 184.472 152.07C184.23 152.408 183.932 152.67 183.576 152.856C183.221 153.043 182.813 153.137 182.353 153.137C181.883 153.137 181.468 153.059 181.108 152.904C180.748 152.749 180.443 152.524 180.192 152.228C179.942 151.931 179.741 151.576 179.591 151.161C179.445 150.746 179.345 150.279 179.29 149.76V148.994C179.345 148.447 179.447 147.957 179.598 147.524C179.748 147.091 179.946 146.722 180.192 146.417C180.443 146.107 180.746 145.872 181.102 145.713C181.457 145.549 181.867 145.467 182.332 145.467C182.797 145.467 183.209 145.558 183.569 145.74C183.929 145.918 184.232 146.173 184.479 146.506C184.725 146.839 184.909 147.237 185.032 147.702C185.16 148.162 185.224 148.675 185.224 149.24ZM183.952 149.384V149.24C183.952 148.871 183.913 148.525 183.836 148.201C183.758 147.873 183.638 147.586 183.474 147.34C183.314 147.089 183.109 146.893 182.858 146.752C182.608 146.606 182.309 146.533 181.963 146.533C181.644 146.533 181.366 146.588 181.129 146.697C180.896 146.807 180.698 146.955 180.534 147.142C180.37 147.324 180.236 147.534 180.131 147.771C180.031 148.003 179.955 148.244 179.905 148.495V150.266C179.996 150.585 180.124 150.885 180.288 151.168C180.452 151.446 180.671 151.672 180.944 151.845C181.218 152.013 181.562 152.098 181.977 152.098C182.318 152.098 182.612 152.027 182.858 151.886C183.109 151.74 183.314 151.542 183.474 151.291C183.638 151.04 183.758 150.753 183.836 150.43C183.913 150.102 183.952 149.753 183.952 149.384ZM188.211 145.604V153H186.939V145.604H188.211ZM186.844 143.642C186.844 143.437 186.905 143.263 187.028 143.122C187.156 142.981 187.343 142.91 187.589 142.91C187.83 142.91 188.015 142.981 188.143 143.122C188.275 143.263 188.341 143.437 188.341 143.642C188.341 143.838 188.275 144.006 188.143 144.147C188.015 144.284 187.83 144.353 187.589 144.353C187.343 144.353 187.156 144.284 187.028 144.147C186.905 144.006 186.844 143.838 186.844 143.642ZM191.506 146.766V153H190.241V145.604H191.472L191.506 146.766ZM193.816 145.562L193.81 146.738C193.705 146.715 193.604 146.702 193.509 146.697C193.418 146.688 193.313 146.684 193.194 146.684C192.903 146.684 192.645 146.729 192.422 146.82C192.199 146.911 192.009 147.039 191.854 147.203C191.7 147.367 191.576 147.563 191.485 147.791C191.399 148.014 191.342 148.26 191.314 148.529L190.959 148.734C190.959 148.288 191.002 147.868 191.089 147.477C191.18 147.085 191.319 146.738 191.506 146.438C191.693 146.132 191.93 145.895 192.217 145.727C192.508 145.553 192.855 145.467 193.256 145.467C193.347 145.467 193.452 145.478 193.57 145.501C193.689 145.519 193.771 145.54 193.816 145.562ZM197.918 153.137C197.403 153.137 196.936 153.05 196.517 152.877C196.102 152.699 195.744 152.451 195.443 152.132C195.147 151.813 194.919 151.435 194.76 150.997C194.6 150.56 194.521 150.081 194.521 149.562V149.274C194.521 148.673 194.609 148.137 194.787 147.668C194.965 147.194 195.206 146.793 195.512 146.465C195.817 146.137 196.163 145.888 196.551 145.72C196.938 145.551 197.339 145.467 197.754 145.467C198.283 145.467 198.738 145.558 199.121 145.74C199.508 145.923 199.825 146.178 200.071 146.506C200.317 146.829 200.5 147.212 200.618 147.654C200.737 148.092 200.796 148.57 200.796 149.09V149.657H195.272V148.625H199.531V148.529C199.513 148.201 199.445 147.882 199.326 147.572C199.212 147.262 199.03 147.007 198.779 146.807C198.529 146.606 198.187 146.506 197.754 146.506C197.467 146.506 197.202 146.567 196.961 146.69C196.719 146.809 196.512 146.987 196.339 147.224C196.166 147.461 196.031 147.75 195.936 148.092C195.84 148.434 195.792 148.828 195.792 149.274V149.562C195.792 149.912 195.84 150.243 195.936 150.553C196.036 150.858 196.179 151.127 196.366 151.359C196.558 151.592 196.788 151.774 197.057 151.906C197.33 152.038 197.64 152.104 197.986 152.104C198.433 152.104 198.811 152.013 199.121 151.831C199.431 151.649 199.702 151.405 199.935 151.1L200.7 151.708C200.541 151.95 200.338 152.18 200.092 152.398C199.846 152.617 199.543 152.795 199.183 152.932C198.827 153.068 198.406 153.137 197.918 153.137ZM202.218 152.33C202.218 152.116 202.284 151.936 202.416 151.79C202.553 151.64 202.749 151.564 203.004 151.564C203.259 151.564 203.453 151.64 203.585 151.79C203.722 151.936 203.79 152.116 203.79 152.33C203.79 152.54 203.722 152.717 203.585 152.863C203.453 153.009 203.259 153.082 203.004 153.082C202.749 153.082 202.553 153.009 202.416 152.863C202.284 152.717 202.218 152.54 202.218 152.33ZM202.225 146.294C202.225 146.08 202.291 145.9 202.423 145.754C202.56 145.604 202.756 145.528 203.011 145.528C203.266 145.528 203.46 145.604 203.592 145.754C203.729 145.9 203.797 146.08 203.797 146.294C203.797 146.504 203.729 146.681 203.592 146.827C203.46 146.973 203.266 147.046 203.011 147.046C202.756 147.046 202.56 146.973 202.423 146.827C202.291 146.681 202.225 146.504 202.225 146.294ZM213.155 142.992V153H211.891V144.571L209.341 145.501V144.359L212.957 142.992H213.155ZM223.122 147.23V148.748C223.122 149.564 223.049 150.252 222.903 150.812C222.757 151.373 222.548 151.824 222.274 152.166C222.001 152.508 221.671 152.756 221.283 152.911C220.9 153.062 220.467 153.137 219.984 153.137C219.602 153.137 219.248 153.089 218.925 152.993C218.601 152.897 218.31 152.745 218.05 152.535C217.795 152.321 217.576 152.043 217.394 151.701C217.211 151.359 217.072 150.945 216.977 150.457C216.881 149.969 216.833 149.4 216.833 148.748V147.23C216.833 146.415 216.906 145.731 217.052 145.18C217.202 144.628 217.414 144.186 217.688 143.854C217.961 143.516 218.289 143.275 218.672 143.129C219.059 142.983 219.492 142.91 219.971 142.91C220.358 142.91 220.714 142.958 221.037 143.054C221.365 143.145 221.657 143.293 221.912 143.498C222.167 143.699 222.384 143.967 222.562 144.305C222.744 144.637 222.883 145.045 222.979 145.528C223.074 146.011 223.122 146.579 223.122 147.23ZM221.851 148.953V147.019C221.851 146.572 221.823 146.18 221.769 145.843C221.718 145.501 221.643 145.209 221.543 144.968C221.443 144.726 221.315 144.53 221.16 144.38C221.01 144.229 220.834 144.12 220.634 144.052C220.438 143.979 220.217 143.942 219.971 143.942C219.67 143.942 219.403 143.999 219.171 144.113C218.938 144.223 218.743 144.398 218.583 144.64C218.428 144.881 218.31 145.198 218.228 145.59C218.146 145.982 218.104 146.458 218.104 147.019V148.953C218.104 149.4 218.13 149.794 218.18 150.136C218.234 150.478 218.314 150.774 218.419 151.024C218.524 151.271 218.651 151.473 218.802 151.633C218.952 151.792 219.125 151.911 219.321 151.988C219.522 152.061 219.743 152.098 219.984 152.098C220.294 152.098 220.565 152.038 220.798 151.92C221.03 151.801 221.224 151.617 221.379 151.366C221.538 151.111 221.657 150.785 221.734 150.389C221.812 149.988 221.851 149.509 221.851 148.953ZM227.518 148.249V149.288H224.182V148.249H227.518ZM230.218 148.263L229.206 148.003L229.705 143.047H234.812V144.216H230.778L230.478 146.923C230.66 146.818 230.89 146.72 231.168 146.629C231.451 146.538 231.774 146.492 232.139 146.492C232.599 146.492 233.011 146.572 233.376 146.731C233.741 146.886 234.05 147.11 234.306 147.401C234.565 147.693 234.764 148.044 234.9 148.454C235.037 148.864 235.105 149.322 235.105 149.828C235.105 150.307 235.039 150.746 234.907 151.147C234.78 151.549 234.586 151.899 234.326 152.2C234.066 152.496 233.738 152.727 233.342 152.891C232.95 153.055 232.487 153.137 231.954 153.137C231.553 153.137 231.173 153.082 230.812 152.973C230.457 152.859 230.138 152.688 229.855 152.46C229.577 152.228 229.35 151.94 229.172 151.599C228.999 151.252 228.889 150.847 228.844 150.382H230.047C230.102 150.756 230.211 151.07 230.375 151.325C230.539 151.58 230.753 151.774 231.018 151.906C231.286 152.034 231.599 152.098 231.954 152.098C232.255 152.098 232.521 152.045 232.754 151.94C232.986 151.836 233.182 151.685 233.342 151.489C233.501 151.293 233.622 151.056 233.704 150.778C233.791 150.5 233.834 150.188 233.834 149.842C233.834 149.527 233.791 149.236 233.704 148.967C233.618 148.698 233.488 148.463 233.314 148.263C233.146 148.062 232.938 147.907 232.692 147.798C232.446 147.684 232.164 147.627 231.845 147.627C231.421 147.627 231.1 147.684 230.881 147.798C230.667 147.912 230.446 148.067 230.218 148.263ZM239.262 148.249V149.288H235.926V148.249H239.262ZM246.884 151.961V153H240.369V152.091L243.63 148.461C244.031 148.014 244.341 147.636 244.56 147.326C244.783 147.012 244.938 146.731 245.024 146.485C245.116 146.235 245.161 145.979 245.161 145.72C245.161 145.392 245.093 145.095 244.956 144.831C244.824 144.562 244.628 144.348 244.368 144.188C244.108 144.029 243.794 143.949 243.425 143.949C242.983 143.949 242.614 144.036 242.317 144.209C242.026 144.378 241.807 144.615 241.661 144.92C241.515 145.225 241.442 145.576 241.442 145.973H240.178C240.178 145.412 240.301 144.899 240.547 144.435C240.793 143.97 241.158 143.601 241.641 143.327C242.124 143.049 242.718 142.91 243.425 142.91C244.054 142.91 244.591 143.022 245.038 143.245C245.485 143.464 245.826 143.774 246.063 144.175C246.305 144.571 246.426 145.036 246.426 145.569C246.426 145.861 246.376 146.157 246.275 146.458C246.18 146.754 246.045 147.05 245.872 147.347C245.703 147.643 245.505 147.935 245.277 148.222C245.054 148.509 244.815 148.791 244.56 149.069L241.894 151.961H246.884ZM254.485 147.23V148.748C254.485 149.564 254.412 150.252 254.267 150.812C254.121 151.373 253.911 151.824 253.638 152.166C253.364 152.508 253.034 152.756 252.646 152.911C252.264 153.062 251.831 153.137 251.348 153.137C250.965 153.137 250.612 153.089 250.288 152.993C249.965 152.897 249.673 152.745 249.413 152.535C249.158 152.321 248.939 152.043 248.757 151.701C248.575 151.359 248.436 150.945 248.34 150.457C248.244 149.969 248.196 149.4 248.196 148.748V147.23C248.196 146.415 248.269 145.731 248.415 145.18C248.565 144.628 248.777 144.186 249.051 143.854C249.324 143.516 249.652 143.275 250.035 143.129C250.423 142.983 250.855 142.91 251.334 142.91C251.721 142.91 252.077 142.958 252.4 143.054C252.729 143.145 253.02 143.293 253.275 143.498C253.531 143.699 253.747 143.967 253.925 144.305C254.107 144.637 254.246 145.045 254.342 145.528C254.438 146.011 254.485 146.579 254.485 147.23ZM253.214 148.953V147.019C253.214 146.572 253.187 146.18 253.132 145.843C253.082 145.501 253.007 145.209 252.906 144.968C252.806 144.726 252.678 144.53 252.523 144.38C252.373 144.229 252.198 144.12 251.997 144.052C251.801 143.979 251.58 143.942 251.334 143.942C251.033 143.942 250.767 143.999 250.534 144.113C250.302 144.223 250.106 144.398 249.946 144.64C249.791 144.881 249.673 145.198 249.591 145.59C249.509 145.982 249.468 146.458 249.468 147.019V148.953C249.468 149.4 249.493 149.794 249.543 150.136C249.598 150.478 249.677 150.774 249.782 151.024C249.887 151.271 250.015 151.473 250.165 151.633C250.315 151.792 250.489 151.911 250.685 151.988C250.885 152.061 251.106 152.098 251.348 152.098C251.658 152.098 251.929 152.038 252.161 151.92C252.394 151.801 252.587 151.617 252.742 151.366C252.902 151.111 253.02 150.785 253.098 150.389C253.175 149.988 253.214 149.509 253.214 148.953ZM257.958 147.401H258.86C259.302 147.401 259.667 147.328 259.954 147.183C260.246 147.032 260.462 146.829 260.604 146.574C260.749 146.314 260.822 146.023 260.822 145.699C260.822 145.316 260.758 144.995 260.631 144.735C260.503 144.476 260.312 144.28 260.057 144.147C259.801 144.015 259.478 143.949 259.086 143.949C258.73 143.949 258.416 144.02 258.143 144.161C257.874 144.298 257.662 144.494 257.507 144.749C257.356 145.004 257.281 145.305 257.281 145.651H256.017C256.017 145.146 256.144 144.685 256.399 144.271C256.655 143.856 257.012 143.525 257.473 143.279C257.938 143.033 258.475 142.91 259.086 142.91C259.688 142.91 260.214 143.017 260.665 143.231C261.116 143.441 261.467 143.756 261.718 144.175C261.968 144.59 262.094 145.107 262.094 145.727C262.094 145.977 262.035 146.246 261.916 146.533C261.802 146.816 261.622 147.08 261.376 147.326C261.134 147.572 260.82 147.775 260.433 147.935C260.045 148.09 259.58 148.167 259.038 148.167H257.958V147.401ZM257.958 148.44V147.682H259.038C259.672 147.682 260.196 147.757 260.61 147.907C261.025 148.058 261.351 148.258 261.588 148.509C261.829 148.759 261.998 149.035 262.094 149.336C262.194 149.632 262.244 149.928 262.244 150.225C262.244 150.689 262.164 151.102 262.005 151.462C261.85 151.822 261.629 152.127 261.342 152.378C261.059 152.629 260.727 152.818 260.344 152.945C259.961 153.073 259.544 153.137 259.093 153.137C258.66 153.137 258.252 153.075 257.869 152.952C257.491 152.829 257.156 152.651 256.864 152.419C256.573 152.182 256.345 151.893 256.181 151.551C256.017 151.204 255.935 150.81 255.935 150.368H257.199C257.199 150.715 257.274 151.018 257.425 151.277C257.58 151.537 257.799 151.74 258.081 151.886C258.368 152.027 258.705 152.098 259.093 152.098C259.48 152.098 259.813 152.032 260.091 151.899C260.373 151.763 260.59 151.558 260.74 151.284C260.895 151.011 260.973 150.667 260.973 150.252C260.973 149.837 260.886 149.498 260.713 149.233C260.54 148.965 260.294 148.766 259.975 148.639C259.66 148.507 259.289 148.44 258.86 148.44H257.958ZM270.235 147.23V148.748C270.235 149.564 270.162 150.252 270.017 150.812C269.871 151.373 269.661 151.824 269.388 152.166C269.114 152.508 268.784 152.756 268.396 152.911C268.014 153.062 267.581 153.137 267.098 153.137C266.715 153.137 266.362 153.089 266.038 152.993C265.715 152.897 265.423 152.745 265.163 152.535C264.908 152.321 264.689 152.043 264.507 151.701C264.325 151.359 264.186 150.945 264.09 150.457C263.994 149.969 263.946 149.4 263.946 148.748V147.23C263.946 146.415 264.019 145.731 264.165 145.18C264.315 144.628 264.527 144.186 264.801 143.854C265.074 143.516 265.402 143.275 265.785 143.129C266.173 142.983 266.605 142.91 267.084 142.91C267.471 142.91 267.827 142.958 268.15 143.054C268.479 143.145 268.77 143.293 269.025 143.498C269.281 143.699 269.497 143.967 269.675 144.305C269.857 144.637 269.996 145.045 270.092 145.528C270.188 146.011 270.235 146.579 270.235 147.23ZM268.964 148.953V147.019C268.964 146.572 268.937 146.18 268.882 145.843C268.832 145.501 268.757 145.209 268.656 144.968C268.556 144.726 268.428 144.53 268.273 144.38C268.123 144.229 267.948 144.12 267.747 144.052C267.551 143.979 267.33 143.942 267.084 143.942C266.783 143.942 266.517 143.999 266.284 144.113C266.052 144.223 265.856 144.398 265.696 144.64C265.541 144.881 265.423 145.198 265.341 145.59C265.259 145.982 265.218 146.458 265.218 147.019V148.953C265.218 149.4 265.243 149.794 265.293 150.136C265.348 150.478 265.427 150.774 265.532 151.024C265.637 151.271 265.765 151.473 265.915 151.633C266.065 151.792 266.239 151.911 266.435 151.988C266.635 152.061 266.856 152.098 267.098 152.098C267.408 152.098 267.679 152.038 267.911 151.92C268.144 151.801 268.337 151.617 268.492 151.366C268.652 151.111 268.77 150.785 268.848 150.389C268.925 149.988 268.964 149.509 268.964 148.953Z" fill="white"/>
<path d="M33.874 148.563H31.3311L31.3174 147.237H33.498C33.8717 147.237 34.1839 147.185 34.4346 147.08C34.6852 146.975 34.8743 146.823 35.002 146.622C35.1341 146.422 35.2002 146.178 35.2002 145.891C35.2002 145.572 35.1387 145.312 35.0156 145.111C34.8971 144.911 34.7103 144.765 34.4551 144.674C34.1999 144.578 33.8763 144.53 33.4844 144.53H31.9395V153H30.0596V143.047H33.4844C34.0495 143.047 34.5531 143.102 34.9951 143.211C35.4417 143.316 35.82 143.48 36.1299 143.703C36.4398 143.926 36.6745 144.207 36.834 144.544C36.998 144.881 37.0801 145.282 37.0801 145.747C37.0801 146.157 36.9844 146.535 36.793 146.882C36.6061 147.224 36.3167 147.502 35.9248 147.716C35.5374 147.93 35.0452 148.053 34.4482 148.085L33.874 148.563ZM33.792 153H30.7773L31.5635 151.523H33.792C34.1657 151.523 34.4733 151.462 34.7148 151.339C34.9609 151.216 35.1432 151.047 35.2617 150.833C35.3848 150.614 35.4463 150.364 35.4463 150.081C35.4463 149.771 35.3916 149.502 35.2822 149.274C35.1774 149.047 35.0088 148.871 34.7764 148.748C34.5485 148.625 34.2477 148.563 33.874 148.563H31.9189L31.9326 147.237H34.4209L34.8516 147.75C35.4258 147.755 35.8929 147.868 36.2529 148.092C36.6175 148.315 36.8864 148.602 37.0596 148.953C37.2327 149.304 37.3193 149.682 37.3193 150.088C37.3193 150.726 37.1803 151.261 36.9023 151.694C36.6289 152.127 36.2279 152.453 35.6992 152.672C35.1751 152.891 34.5394 153 33.792 153ZM42.9043 144.558L40.0674 153H38.0781L41.7969 143.047H43.0684L42.9043 144.558ZM45.2764 153L42.4258 144.558L42.2549 143.047H43.5332L47.2725 153H45.2764ZM45.1465 149.302V150.785H39.8076V149.302H45.1465ZM56.2959 143.047V153H54.4092L50.1777 146.096V153H48.2979V143.047H50.1777L54.4229 149.958V143.047H56.2959ZM62.2705 149.979V143.047H64.1504V149.979C64.1504 150.639 64.0068 151.207 63.7197 151.681C63.4326 152.15 63.0407 152.51 62.5439 152.761C62.0472 153.011 61.4867 153.137 60.8623 153.137C60.2197 153.137 59.6501 153.03 59.1533 152.815C58.6566 152.597 58.2669 152.264 57.9844 151.817C57.7064 151.371 57.5674 150.803 57.5674 150.115H59.4541C59.4541 150.489 59.5111 150.79 59.625 151.018C59.7389 151.245 59.9007 151.41 60.1104 151.51C60.3245 151.61 60.5752 151.66 60.8623 151.66C61.1403 151.66 61.3841 151.596 61.5938 151.469C61.8079 151.337 61.9743 151.145 62.0928 150.895C62.2113 150.644 62.2705 150.339 62.2705 149.979ZM69.8242 144.558L66.9873 153H64.998L68.7168 143.047H69.9883L69.8242 144.558ZM72.1963 153L69.3457 144.558L69.1748 143.047H70.4531L74.1924 153H72.1963ZM72.0664 149.302V150.785H66.7275V149.302H72.0664ZM76.0381 143.047H77.665L80.3857 150.539L83.0996 143.047H84.7334L81.0352 153H79.7295L76.0381 143.047ZM75.2178 143.047H76.8105L77.0977 149.931V153H75.2178V143.047ZM83.9541 143.047H85.5537V153H83.6738V149.931L83.9541 143.047ZM89.4707 143.047V153H87.5908V143.047H89.4707ZM99.499 143.047V153H97.6123L93.3809 146.096V153H91.501V143.047H93.3809L97.626 149.958V143.047H99.499ZM108.96 149.979V143.047H110.84V149.979C110.84 150.639 110.696 151.207 110.409 151.681C110.122 152.15 109.73 152.51 109.233 152.761C108.737 153.011 108.176 153.137 107.552 153.137C106.909 153.137 106.34 153.03 105.843 152.815C105.346 152.597 104.956 152.264 104.674 151.817C104.396 151.371 104.257 150.803 104.257 150.115H106.144C106.144 150.489 106.201 150.79 106.314 151.018C106.428 151.245 106.59 151.41 106.8 151.51C107.014 151.61 107.265 151.66 107.552 151.66C107.83 151.66 108.074 151.596 108.283 151.469C108.497 151.337 108.664 151.145 108.782 150.895C108.901 150.644 108.96 150.339 108.96 149.979ZM116.514 144.558L113.677 153H111.688L115.406 143.047H116.678L116.514 144.558ZM118.886 153L116.035 144.558L115.864 143.047H117.143L120.882 153H118.886ZM118.756 149.302V150.785H113.417V149.302H118.756ZM127.608 149.726H129.488C129.438 150.391 129.254 150.981 128.935 151.496C128.616 152.007 128.171 152.408 127.602 152.699C127.032 152.991 126.341 153.137 125.53 153.137C124.906 153.137 124.343 153.027 123.842 152.809C123.345 152.585 122.919 152.269 122.563 151.858C122.213 151.444 121.944 150.947 121.757 150.368C121.57 149.785 121.477 149.131 121.477 148.406V147.647C121.477 146.923 121.572 146.269 121.764 145.686C121.955 145.102 122.229 144.605 122.584 144.195C122.944 143.781 123.375 143.462 123.876 143.238C124.382 143.015 124.947 142.903 125.571 142.903C126.382 142.903 127.068 143.054 127.629 143.354C128.189 143.651 128.625 144.059 128.935 144.578C129.244 145.098 129.431 145.695 129.495 146.369H127.615C127.579 145.95 127.488 145.594 127.342 145.303C127.201 145.011 126.986 144.79 126.699 144.64C126.417 144.485 126.041 144.407 125.571 144.407C125.207 144.407 124.885 144.476 124.607 144.612C124.334 144.749 124.106 144.954 123.924 145.228C123.742 145.496 123.605 145.834 123.514 146.239C123.423 146.64 123.377 147.105 123.377 147.634V148.406C123.377 148.912 123.418 149.366 123.5 149.767C123.582 150.168 123.71 150.507 123.883 150.785C124.056 151.063 124.279 151.275 124.553 151.421C124.826 151.567 125.152 151.64 125.53 151.64C125.991 151.64 126.364 151.567 126.651 151.421C126.943 151.275 127.164 151.061 127.314 150.778C127.469 150.496 127.567 150.145 127.608 149.726ZM132.824 143.047V153H130.944V143.047H132.824ZM138.799 143.047L134.807 147.9L132.523 150.341L132.188 148.516L133.774 146.458L136.495 143.047H138.799ZM136.707 153L133.61 148.338L134.957 147.121L138.942 153H136.707Z" fill="white"/>
<path d="M57.6951 55.5857H45.5273V32H57.6953L57.6951 55.5857Z" fill="#FF5F00"/>
<path d="M46.2971 43.7969C46.2971 39.0125 48.374 34.7506 51.6082 32.004C49.1601 29.9219 46.1322 28.7919 43.0146 28.7969C35.3347 28.7969 29.1094 35.5125 29.1094 43.7969C29.1094 52.0812 35.3347 58.7969 43.0146 58.7969C46.1322 58.8019 49.1602 57.6719 51.6084 55.5897C48.3745 52.8437 46.2971 48.5815 46.2971 43.7969Z" fill="#EB001B"/>
<path d="M74.1095 43.7969C74.1095 52.0812 67.8842 58.7969 60.2044 58.7969C57.0863 58.8018 54.058 57.6718 51.6094 55.5897C54.8444 52.8432 56.9214 48.5815 56.9214 43.7969C56.9214 39.0123 54.8444 34.7506 51.6094 32.004C54.0579 29.922 57.0862 28.792 60.2041 28.7969C67.8839 28.7969 74.1093 35.5125 74.1093 43.7969" fill="#F79E1B"/>
</g>
<defs>
<linearGradient id="paint0_linear_1193_11201" x1="879.5" y1="-129.5" x2="155" y2="352" gradientUnits="userSpaceOnUse">
<stop offset="0.538753"/>
<stop offset="0.930717" stop-color="#21292B"/>
</linearGradient>
<linearGradient id="paint1_linear_1193_11201" x1="123.564" y1="0" x2="123.564" y2="247.128" gradientUnits="userSpaceOnUse">
<stop offset="0.489007" stop-color="#21292B"/>
<stop offset="1" stop-color="#666666"/>
</linearGradient>
</defs>
</svg>
