<svg width="74" height="28" viewBox="0 0 74 28" fill="none" xmlns="http://www.w3.org/2000/svg">
<rect x="0.792969" y="0.5" width="72" height="27" rx="5.5" fill="#EDEDED" stroke="#D7D7D7"/>
<path d="M16.1416 19H14.0635L14.0771 17.9268H16.1416C16.8525 17.9268 17.445 17.7786 17.9189 17.4824C18.3929 17.1816 18.7484 16.7624 18.9854 16.2246C19.2269 15.6823 19.3477 15.0488 19.3477 14.3242V13.7158C19.3477 13.1462 19.2793 12.6403 19.1426 12.1982C19.0059 11.7516 18.8053 11.3757 18.541 11.0703C18.2767 10.7604 17.9531 10.5257 17.5703 10.3662C17.1921 10.2067 16.7568 10.127 16.2646 10.127H14.0225V9.04688H16.2646C16.9163 9.04688 17.5111 9.15625 18.0488 9.375C18.5866 9.58919 19.0492 9.90137 19.4365 10.3115C19.8285 10.7171 20.1292 11.2093 20.3389 11.7881C20.5485 12.3623 20.6533 13.0094 20.6533 13.7295V14.3242C20.6533 15.0443 20.5485 15.6937 20.3389 16.2725C20.1292 16.8467 19.8262 17.3366 19.4297 17.7422C19.0378 18.1478 18.5638 18.46 18.0078 18.6787C17.4564 18.8929 16.8343 19 16.1416 19ZM14.7676 9.04688V19H13.4482V9.04688H14.7676ZM26.1699 9.92871L22.875 19H21.5283L25.3223 9.04688H26.1904L26.1699 9.92871ZM28.9316 19L25.6299 9.92871L25.6094 9.04688H26.4775L30.2852 19H28.9316ZM28.7607 15.3154V16.3955H23.1689V15.3154H28.7607ZM32.9375 9.04688V19H31.6182V9.04688H32.9375ZM37.1074 13.5244V14.6045H32.6504V13.5244H37.1074ZM37.7842 9.04688V10.127H32.6504V9.04688H37.7842ZM45.0508 9.04688H46.3633V15.7803C46.3633 16.5277 46.1969 17.1497 45.8643 17.6465C45.5316 18.1432 45.0895 18.5169 44.5381 18.7676C43.9912 19.0137 43.3965 19.1367 42.7539 19.1367C42.0794 19.1367 41.4688 19.0137 40.9219 18.7676C40.3796 18.5169 39.9489 18.1432 39.6299 17.6465C39.3154 17.1497 39.1582 16.5277 39.1582 15.7803V9.04688H40.4639V15.7803C40.4639 16.2998 40.5596 16.7282 40.751 17.0654C40.9424 17.4027 41.209 17.6533 41.5508 17.8174C41.8971 17.9814 42.2982 18.0635 42.7539 18.0635C43.2142 18.0635 43.6152 17.9814 43.957 17.8174C44.3034 17.6533 44.5723 17.4027 44.7637 17.0654C44.9551 16.7282 45.0508 16.2998 45.0508 15.7803V9.04688ZM54.4707 17.9268V19H49.4941V17.9268H54.4707ZM49.7539 9.04688V19H48.4346V9.04688H49.7539ZM57.7725 9.04688V19H56.4736V9.04688H57.7725ZM60.9717 9.04688V10.127H53.2812V9.04688H60.9717Z" fill="#7F7F7F"/>
</svg>
