<svg width="22" height="22" viewBox="0 0 22 22" fill="none" xmlns="http://www.w3.org/2000/svg">
<path d="M3.28094 13.654L1.75867 12.1317C1.13774 11.5108 1.13774 10.4892 1.75867 9.86832L3.28094 8.34602C3.54133 8.08563 3.75165 7.57486 3.75165 7.21431V5.06106C3.75165 4.17974 4.47273 3.45868 5.35405 3.45868H7.50728C7.86782 3.45868 8.37859 3.24839 8.63898 2.988L10.1613 1.4657C10.7822 0.844767 11.8037 0.844767 12.4247 1.4657L13.9469 2.988C14.2073 3.24839 14.7181 3.45868 15.0786 3.45868H17.2319C18.1132 3.45868 18.8343 4.17974 18.8343 5.06106V7.21431C18.8343 7.57486 19.0446 8.08563 19.305 8.34602L20.8273 9.86832C21.4482 10.4892 21.4482 11.5108 20.8273 12.1317L19.305 13.654C19.0446 13.9144 18.8343 14.4252 18.8343 14.7857V16.9388C18.8343 17.8201 18.1132 18.5413 17.2319 18.5413H15.0786C14.7181 18.5413 14.2073 18.7516 13.9469 19.012L12.4247 20.5343C11.8037 21.1553 10.7822 21.1553 10.1613 20.5343L8.63898 19.012C8.37859 18.7516 7.86782 18.5413 7.50728 18.5413H5.35405C4.47273 18.5413 3.75165 17.8201 3.75165 16.9388V14.7857C3.75165 14.4151 3.54133 13.9044 3.28094 13.654Z" stroke="black" stroke-linecap="round" stroke-linejoin="round"/>
<path d="M8.30078 13.9934L14.3098 7.98438" stroke="black" stroke-linecap="round" stroke-linejoin="round"/>
<path d="M13.8008 13.4922H13.8098" stroke="black" stroke-linecap="round" stroke-linejoin="round"/>
<path d="M8.79297 8.48438H8.80196" stroke="black" stroke-linecap="round" stroke-linejoin="round"/>
</svg>
