<svg width="17" height="17" viewBox="0 0 17 17" fill="none" xmlns="http://www.w3.org/2000/svg">
<path d="M16 8.5C16 12.6421 12.6421 16 8.5 16C4.35786 16 1 12.6421 1 8.5C1 4.35786 4.35786 1 8.5 1C12.6421 1 16 4.35786 16 8.5Z" fill="white" stroke="#767676"/>
<path d="M10.5336 7.04729C10.4593 6.47529 9.80252 5.55113 8.62157 5.5511C7.24937 5.55108 6.67199 6.31106 6.55484 6.69104C6.37206 7.19931 6.40862 8.24429 8.017 8.35821C10.0275 8.50071 10.8329 8.73801 10.7305 9.96846C10.628 11.1988 9.50725 11.4647 8.62157 11.4361C7.73582 11.4077 6.2867 11.0008 6.23047 9.90644M8.48102 4.75V5.55383M8.48102 11.4288V12.25" stroke="#767676" stroke-linecap="round"/>
</svg>
