<svg width="22" height="22" viewBox="0 0 22 22" fill="none" xmlns="http://www.w3.org/2000/svg">
<path d="M17.165 11.1702C16.7618 11.6444 16.0167 11.6479 15.5466 11.1777L10.827 6.45825C10.3568 5.98811 10.3603 5.24301 10.8345 4.83983L12.1303 3.7382C13.0617 2.94628 14.1975 2.42124 15.4286 2.21352L16.1917 2.08477C16.9124 1.96317 17.6702 2.2149 18.2108 2.75547L19.2494 3.79416C19.79 4.33474 20.0417 5.0925 19.9202 5.81314L19.7914 6.57623C19.5837 7.80726 19.0587 8.94302 18.2667 9.87446L17.165 11.1702Z" fill="white" stroke="#767676"/>
<path d="M18.8945 3.1052L20.9998 1L18.8945 3.1052Z" fill="white"/>
<path d="M18.8945 3.1052L20.9998 1" stroke="#767676" stroke-linecap="round" stroke-linejoin="round"/>
<path d="M1 20.9958L3.10526 18.8906L1 20.9958Z" fill="white"/>
<path d="M1 20.9958L3.10526 18.8906" stroke="#767676" stroke-linecap="round" stroke-linejoin="round"/>
<path d="M4.8399 10.8345C5.24311 10.3603 5.98822 10.3568 6.45838 10.827L11.1779 15.5464C11.6482 16.0165 11.6447 16.7617 11.1705 17.1648L9.87468 18.2665C8.94321 19.0584 7.80742 19.5835 6.57636 19.7912L5.81324 19.9199C5.09259 20.0415 4.3348 19.7898 3.79421 19.2492L2.75549 18.2106C2.2149 17.67 1.96317 16.9122 2.08477 16.1916L2.21353 15.4284C2.42125 14.1974 2.9463 13.0617 3.73825 12.1302L4.8399 10.8345Z" fill="white" stroke="#767676"/>
<path d="M7.31641 11.5271L9.42167 9.42188L7.31641 11.5271ZM10.4743 14.6849L12.5796 12.5797L10.4743 14.6849Z" fill="white"/>
<path d="M7.31641 11.5271L9.42167 9.42188M10.4743 14.6849L12.5796 12.5797" stroke="#767676" stroke-linecap="round" stroke-linejoin="round"/>
</svg>
