<svg width="10" height="20" viewBox="0 0 10 20" fill="none" xmlns="http://www.w3.org/2000/svg">
<path d="M4.53844 3.335C5.45949 3.335 6.20613 2.58836 6.20613 1.66703C6.20613 0.746289 5.45949 0 4.53844 0C3.61738 0 2.87109 0.746289 2.87109 1.66699C2.87109 2.58836 3.61738 3.335 4.53844 3.335Z" fill="currentColor"/>
<path d="M9.01733 10.0662L7.78952 5.71004C7.45147 4.56891 6.69409 3.8125 5.84194 3.8125C5.21019 3.8125 4.53815 3.8125 4.53815 3.8125C4.53815 3.8125 3.86644 3.8125 3.23507 3.8125C2.38292 3.8125 1.62483 4.56891 1.28683 5.71004L0.0589741 10.0662C-0.0310649 10.4331 0.192725 10.8078 0.559287 10.8975C0.926553 10.9883 1.29452 10.7736 1.38491 10.4066L2.60874 6.06387H2.96995L0.840576 13.618H2.84831V19.2214C2.84831 19.6496 3.19542 19.9967 3.62351 19.9967C4.05226 19.9967 4.39905 19.6496 4.39905 19.2214V13.618H4.82647V19.2214C4.82647 19.6496 5.17394 19.9967 5.60233 19.9967C6.03073 19.9967 6.37753 19.6496 6.37753 19.2214V13.618H8.23636L6.10667 6.06387H6.46753L7.69136 10.4066C7.78206 10.7736 8.14968 10.9882 8.51663 10.8975C8.88358 10.8078 9.10737 10.4332 9.01733 10.0662Z" fill="currentColor"/>
</svg>
