<svg width="38" height="38" viewBox="0 0 38 38" fill="none" xmlns="http://www.w3.org/2000/svg">
<path d="M20.5927 22.0768L20.552 21.774L19.94 21.2502L19.7528 21.2109L19.6214 21.3428L19.6416 21.4997L19.4343 21.6314L19.4141 21.8133L19.6569 21.9059L19.9957 22.0768H20.5927Z" fill="currentColor" stroke="currentColor" stroke-width="0.5" stroke-miterlimit="2.613"/>
<path d="M19.4004 21.7333L19.4135 21.7109" stroke="currentColor" stroke-width="0.5" stroke-miterlimit="2.613"/>
<path d="M16.4624 23.3277L16.3712 23.4847L16.4321 23.7696L16.6394 24.4074L16.9984 25.2484L17.2968 25.7508L17.6962 26.3922L17.9795 26.7699L18.4145 27.3258L18.9352 27.9455L19.345 28.3449L19.6887 28.6691L19.704 28.8473L19.6586 28.9934L19.4666 29.0468L18.8898 29.0681L17.8784 29.0256L17.0441 28.9505L16.3108 28.8579L15.4204 28.6799L14.9704 28.5409L14.6721 28.4483L14.333 28.4054L13.9437 28.4161L13.7366 28.4802H13.4533L12.7807 28.4054L12.3963 28.3128L11.9766 28.2914L11.3089 28.281L10.8032 28.2487H10.338L9.87788 28.27L9.56424 28.3624L9.34158 28.4054L9.26562 28.4802L9.28092 28.6265L9.49321 28.8685L9.8929 29.2572L10.1306 29.3282L10.5049 29.5172L10.9346 29.6849L11.3999 29.7915L12.0676 29.8023L12.6643 29.7594L13.17 29.6778L13.6 29.5815L13.782 29.6456L13.868 29.7702L14.0197 29.8023L14.3888 29.7915L14.854 29.8131L15.092 29.8664L15.375 29.8131L16.2955 29.8945L16.9225 29.9588L17.9492 30.1159L18.6975 30.2724L19.4362 30.4508L20.0878 30.661L20.3411 30.7892L21.014 30.8106L21.3727 30.7465L21.5648 30.472L21.7719 30.1372L21.7123 29.8664L21.4593 29.5278L21.1206 29.036L20.8517 28.523L20.6545 27.9455L20.569 27.4504V26.9693L20.6397 26.4028L20.731 26.1175L20.6244 25.8756L20.4023 25.7508L19.9572 25.5192L19.6428 25.3624L19.5832 25.0594L19.4362 24.7352L19.1576 24.418L18.8595 24.1473L18.4855 23.8946L18.0098 23.6412L17.4738 23.3596L17.1905 23.2636L16.9075 23.2031L16.6698 23.2314L16.4624 23.3277Z" fill="currentColor" stroke="currentColor" stroke-width="0.5" stroke-miterlimit="2.613"/>
<path d="M14.7338 2.08337L14.7288 2.22236L14.5215 2.2545L14.2535 2.22967L13.8489 2.29011L13.5456 2.35787L13.3027 2.36865L13.2268 2.44353L13.3128 2.5469L13.4951 2.57539L13.6669 2.53978L13.8642 2.47915L14.0666 2.47202L14.4963 2.48627L14.825 2.55749L15.2143 2.62525L15.7859 2.80697L15.8367 2.89263L15.776 2.9602L15.508 3.02795L15.3463 3.08147L15.0581 3.21679L14.6182 3.3808L14.0822 3.64818L13.4702 3.84414L12.9847 4.06879L12.5448 4.2043L12.1301 4.27553L11.7659 4.28265L11.2651 4.28977L11.0728 4.32538L10.9616 4.48939L10.8756 4.66764L10.7794 4.78872L10.5365 5.04532L10.3037 5.33022L10.1469 5.4692L10.1316 5.62955L10.1469 5.854V6.0927L10.3543 6.22456L10.5365 6.29232L10.754 6.28154L11.1081 6.21378L11.5075 6.12831L12.0487 5.97508L12.2662 5.9822L12.3167 6.07845L12.2662 6.17104L12.0839 6.2388L11.5326 6.38491L11.1179 6.47038L11.037 6.56663L11.0217 6.67L11.1583 6.75546L11.4466 6.7803H11.6793L11.9725 6.77317L12.2913 6.71966L12.7517 6.54853L13.0552 6.5058L13.3131 6.46999L13.5103 6.51638L13.7986 6.5058L14.0819 6.53082L14.3147 6.62707L14.6788 6.6519L15.1542 6.75527L15.4121 6.7801L15.8116 6.73025L16.3225 6.75527L16.5448 6.81572L16.6664 6.96182L16.641 7.15066L16.5804 7.38223L16.4591 7.64942L16.2872 7.98436L16.1154 8.35146L15.9331 8.6864L15.8118 8.91797L15.3971 9.37419L14.8963 9.81944L14.4464 10.2578L13.8748 10.6603L13.3489 10.9738L13.015 11.2231L12.8383 11.633L12.5905 11.8397L12.2768 11.9964L11.8976 12.2172L11.316 12.4667L10.8256 12.6412L10.5122 12.8942L10.2895 13.0975L10.0671 13.1937L9.75377 13.3042L9.5516 13.2721L9.15218 13.1437L8.70712 12.9406L8.05471 12.7375L7.32143 12.4667L6.94222 12.2636L6.47176 11.9964L5.95595 11.6971L5.3997 11.5546L4.9093 11.494L4.28229 11.5866L3.83724 11.7612L3.45284 11.95L3.25558 12.2955L3.11898 12.5629L2.96216 12.9725L2.7854 13.2218L2.60836 13.6032L2.58323 14.0594L2.42641 14.3266L2.24937 14.7506L2.09255 15.1747L1.80432 15.5703L1.6475 15.9622L1.55652 16.4504L1.30872 16.8602L1.1519 17.0954L1.13169 17.3307L1.11147 17.7262V18.4175L1 18.7024L1.06584 18.9519L1.04016 19.3617L1.24261 19.6895L1.39943 19.7679L1.68766 19.7036L1.9554 19.5324L2.3398 19.2046L2.67366 18.8269L2.80507 18.5134L2.71928 18.2604L2.60781 17.9468L2.47121 17.5692L2.3398 17.1738L2.26904 16.8743V16.5928L2.36002 16.2758L2.58241 15.7911L2.80479 15.5381L3.00724 15.4099L3.16379 15.2388L3.45229 15.2209L3.58889 15.1605L3.79107 15.0321L4.01346 14.8931L4.21563 14.7042L4.30141 14.4836L4.37245 14.2948L4.39266 14.0419L4.45851 13.8211L4.61533 13.6821L4.77215 13.6499L4.97432 13.6963L5.26282 13.8068L5.57619 14.0598L5.91005 14.4053L6.28926 14.7189L6.69387 14.9718L7.05287 15.1749L7.40585 15.2852L7.51704 15.4421L7.40585 15.5206L7.02637 15.46L6.49034 15.4278L5.79749 15.3316L5.13005 15.239L4.326 15.2211L3.85582 15.239L3.4971 15.3957L3.11789 15.6309L2.80425 16.0086L2.56137 16.4361L2.53623 16.7497L2.67284 17.3162L2.9862 18.0396L3.14302 18.6062L3.34028 19.1584L3.47688 19.5471L3.54272 19.9105L3.71949 20.3203L3.85609 20.9475L3.9875 21.1683L4.32628 21.3571L4.63992 21.5777L4.99372 21.9556L5.24151 22.3974L5.62072 22.7893L6.17724 23.167L6.58159 23.3416L6.84933 23.3558L7.07172 23.3094L7.20832 23.0888L7.35995 22.9L7.45093 22.6328V22.0197L7.33973 21.8451C7.31951 21.8451 7.31951 21.7348 7.31951 21.7206L7.27389 21.6103L7.09166 21.4216L6.7578 21.1862L6.13572 20.9975L5.90813 20.9475L5.8677 20.6803L5.88792 20.5092L5.46308 20.1635L5.19507 19.7215L4.97241 19.0941L4.79045 18.5134L4.482 18.0571L4.37081 17.5049L4.54757 17.1736L4.86121 17.0489H5.10382L5.46281 17.2698L5.97862 17.4908L6.51465 17.6298L7.8091 18.0716L8.43638 18.3245V18.5598L9.01284 18.7948L9.75132 18.9694H11.2938L11.1826 19.1727L11.1171 19.283L11.3143 19.5467L11.6935 19.9423L12.3006 20.3661L13.0339 20.9329L13.6609 21.3246L14.8343 21.9589L15.7851 22.3186L16.4981 22.586L17.4136 23.0243L18.2581 23.4484L18.9865 23.8831L19.7449 24.6065L19.7801 24.9091L19.952 25.2228L20.4173 25.4581L20.8424 25.5757L21.1055 25.5505L21.3134 25.4082L21.6117 25.1838L21.6827 24.881L22.0365 24.4498L22.1122 24.1183L22.1682 23.7514L22.2035 23.4627L22.3199 23.2813L22.5573 23.1993H22.7851L22.8002 23.3204L22.6338 23.4486L22.4871 23.7264L22.3756 23.8975V24.1077L22.3354 24.5532L22.2447 24.7776L21.9663 25.116L21.5918 25.5511L21.218 26.0248L20.9959 26.6414L20.8844 27.2864L20.9959 28.0062L21.1426 28.4268L21.4964 28.979L21.9464 29.6347L22.3002 30.1477L22.7854 30.6859L23.3616 31.1849L23.4731 31.3558V31.4734L23.3974 31.6195L23.1952 31.8547L22.8766 32.1683L22.224 32.7601L21.5713 33.2586L20.9746 33.7187L20.717 33.8255L20.1908 33.968L19.8771 34.1784L19.7102 34.4171L19.3362 34.7447L18.9119 35.0723L18.3909 35.4537L18.0721 35.8456L17.8849 36.2412L17.7737 36.5688L17.7939 36.8325L18.0163 37H18.8359L19.1895 36.9752L19.5594 36.8187L20.0446 36.6618L20.12 36.5299H20.2869L20.5446 36.4514L20.7874 36.2912L20.9191 35.6641L20.8429 35.5318L20.8077 35.4L20.9394 35.4248L21.0855 35.4533L21.2377 35.3748L21.4806 35.2679L21.7382 35.0327L22.0568 34.7156L22.2237 34.4271L22.2589 34.1917L22.4666 34.0846L22.7649 33.9672L23.0078 33.8638L23.21 33.5753L23.64 33.2584L24.4435 32.7345L25.0552 32.4459L25.6729 32.2072L25.8188 32.1038L25.8748 31.9968L26.0057 31.8794L25.9144 31.7229L25.895 31.4341L25.8136 31.1637L25.7174 31.007L25.5052 30.7504L25.1667 30.4509L25 30.2264L24.9645 29.991V29.6741L25.0399 29.4926L25.2421 29.0044L25.4492 28.7692L25.6721 28.6766L26.0813 28.4949L26.5668 28.2027L27.2195 27.811L27.6646 27.4831L28.1143 27.1161L28.5795 26.7455L28.9137 26.3286L29.1918 25.972L29.4549 25.5661L29.642 25.1168L29.698 24.7002L29.7333 24.3832L29.8852 24.2798L30.0518 24.2515L30.1986 24.3195L30.33 24.5403L30.3652 24.8429L30.4264 25.1314L30.3862 25.3278L30.3505 25.6306V26.2756L30.4616 26.7852L30.5925 26.917L30.704 26.9062L30.7594 26.8136L30.6838 26.6034V26.2467L30.8357 25.9474L30.9067 25.5127L30.9821 25.2098L31.0788 25.0673H31.19L31.2807 25.1314L31.372 25.3809L31.4474 25.6196L31.4121 25.9973L31.3007 26.5105L30.9622 27.0096L30.6491 27.4833L30.4614 27.8895L30.4261 28.139L30.4614 28.4275L30.5922 28.7053H30.8354L30.9619 28.5842L30.8906 28.4524L30.8354 28.2169L31.0575 28.0065L31.3157 27.7571L31.4875 27.522L31.8968 27.062L32.2309 26.6414L32.3776 26.1815L32.5088 25.5759V24.9736L32.3424 24.553L32.0083 24.2251L31.9678 24.0686L32.12 24.0153L32.3074 24.0792L32.5503 24.2896L32.8486 24.6708L32.9751 25.1158L33.0508 25.7074L33.2382 26.1172L33.2585 26.128L33.5161 26.5341L33.6827 26.5769L33.7581 26.47L33.7382 26.4057L33.6114 26.1031L33.5915 25.8003L33.6114 25.3551L33.7229 24.8561V24.6067L33.6827 24.3965L33.3841 23.9757L33.1262 23.6729L33.2175 23.5554L33.5721 23.5021L34.0568 23.3456L34.5778 23.1493L35.043 22.8607L35.64 22.2944L35.9785 21.8241L36.2569 21.3752L36.3481 20.6555L36.3684 20.0104L36.2216 19.2123L36.0498 18.635L35.9031 18.0435L35.8118 17.4271L35.8831 17.0352L36.0348 16.547L36.3481 16.0623L36.7978 15.5635L36.9648 15.2465L37 15.0898L36.8538 14.9474L36.6473 14.879V15.1037L36.4804 15.2355L36.182 15.5491L36.0151 15.6275L35.5498 16.023L35.363 16.2332L35.1406 16.5861L34.8977 16.6146L34.6753 16.522L34.5436 16.1014L34.5794 15.6169L34.7313 15.1678L35.1009 14.7472L35.8487 13.9597L36.2946 13.3183L36.3498 12.8692L36.2787 12.7267L36.1479 12.8193L35.9255 13.2112L35.5867 13.6068L35.0857 13.8956L34.5095 14.2875L33.65 14.9966L33.4833 14.9859L33.4278 14.8648L33.4076 14.576L33.4631 14.038L33.7262 13.4359L34.1915 12.766L34.8083 12.228L35.572 11.7683L35.643 11.6614L35.5517 11.6116L35.1627 11.754L34.8436 11.9001L34.3026 12.228L33.6303 12.6486L33.1494 13.1082L32.6793 13.7104L32.4216 14.1985L32.3459 14.6833L32.3102 15.3389L32.5325 16.023L32.7549 16.6146L33.1847 17.5447L33.4631 18.66L33.63 19.5115V19.9715L33.5587 20.456L33.4481 20.852L33.2402 21.2971L32.4563 21.9918L31.6569 22.5048L30.6305 22.911L29.6442 22.95L29.5134 22.6114L29.1596 22.1233L28.6741 21.653L28.3555 21.3754L27.9307 20.9692L27.0146 20.3531L26.0844 19.815L25.6751 19.5902L24.3902 18.9773L22.5444 17.8868L21.5377 17.0067L20.4356 15.7347L20.1369 14.9722L20.2124 14.4983L20.3643 14.4057L20.7541 14.5909L21.371 14.8011L21.8721 14.7868L22.448 14.9722L23.0652 15.2359L23.3837 15.4176L23.7935 15.6173L24.2184 15.6565L24.3145 15.5247L24.2031 15.5104L24.0719 15.5497L23.8648 15.4571L23.6823 15.2611L23.4198 14.9581L22.9138 14.6305L22.4133 14.4987L22.1346 14.4594L22.1906 14.356H22.5797L23.0296 14.4594L23.6821 14.7622L23.9809 14.8548L24.0919 14.7477L23.9042 14.566L23.3985 14.2488L22.6146 13.9602L21.6685 13.7002L21.4817 13.5933L21.6685 13.5007L22.0936 13.6469L22.878 13.7394L23.717 13.9747L24.1621 14.1314L24.9459 14.2097L25.5076 14.1564L25.8207 14.053L26.2507 13.8676L26.4382 13.7394L26.4584 13.6469L26.2843 13.6569L26.1182 13.7779L25.5617 13.9063L25.0762 13.9597L24.6664 13.9204L24.2722 13.6996L23.9184 13.4074L23.4935 13.1866L22.8564 13.094L22.2444 12.9479L21.9814 12.8303L22.0016 12.7271L22.2444 12.7519H22.7854L23.3261 12.7271H23.8826L24.1812 12.6878L24.4241 12.8303L24.8131 12.898H25.1317L25.2784 12.8197L25.0208 12.7662L24.7022 12.6201L24.3681 12.3993L23.8271 12.1997L23.3821 12.1604L22.9728 12.1211L22.8206 12.057L23.1195 11.9394H23.6045L23.979 12.0178L24.3484 12.1498L24.9451 12.3315L25.5418 12.3458L25.8603 12.2389L25.9516 12.0963L25.7087 12.0179L25.2082 12.0037L24.7782 11.9003L24.4044 11.6759L23.9946 11.5298L23.4539 11.4657L22.9887 11.3481L22.7865 11.1629L22.8217 11.0703L23.1206 11.113L23.4946 11.1914L23.717 11.309L24.0356 11.3338L24.0708 11.2162L23.7372 11.031L23.6405 10.8635L24.0902 10.9134L24.5151 11.0701L25.056 11.1128L25.2636 11.3871L25.8196 11.6224L25.8499 11.6187L25.9715 11.5831L26.1182 11.519L26.0469 11.4406L25.8393 11.4512L25.6521 11.2695L25.2776 10.8633L24.6254 10.4537L23.958 10.2435L23.7706 10.0868L23.3608 9.74475L22.9868 9.6023L22.9313 9.47044L23.0977 9.39209L23.4925 9.4562L24.2711 9.61289L24.6457 9.70548L24.8885 9.94417L25.2776 10.0868H25.5762L25.9707 10.1652L26.4002 10.1116L26.5671 10.0083L26.3242 9.86217L25.9704 9.79807L25.5606 9.7588L25.3175 9.6127L24.9989 9.28487L24.9235 9.07467L24.5137 8.81441L24.0686 8.61479L23.5624 8.39381L23.0064 8.02691L22.9712 7.91988H23.0971L23.8255 8.32605L24.5692 8.62884L24.9637 8.83905L25.4647 9.16668L25.9144 9.33762L26.1726 9.39113L26.3037 9.24503L26.1169 9.19517L25.727 8.94569L25.6158 8.66792L25.2065 8.35434L24.8678 8.15472L24.7008 7.85539L24.1247 7.2498L23.3408 6.76509L23.305 6.6084L23.5832 6.63323L23.9779 6.77587L24.6096 6.96105L25.2623 6.98608L25.7478 7.14643L26.2685 7.21053L26.7135 7.11794L26.6783 6.98608L26.1723 6.90754L25.727 6.76509L24.832 6.46229L24.347 6.27711L24.0889 6.05612L24.1801 5.97758L24.3113 6.04169L24.5134 6.0952L24.7765 6.10945H25.2065L25.5754 6.08096L26.1374 6.05612L26.5668 6.17374L27.0119 6.39819L27.1993 6.43746L27.2195 6.31984L27.0673 6.21301L26.6223 5.92426L25.9297 5.67479L25.4292 5.63552L24.4785 5.59625L24.2563 5.41107L23.7711 5.069L23.2302 4.80894L23.028 4.67708L23.1949 4.58448L23.4526 4.66283L23.9176 4.83396L24.4435 4.96582L25.1516 5.08344H25.7636L26.2696 5.47902L26.6794 5.64996L26.8261 5.54312L26.2696 4.96582L25.3945 4.52058L24.6661 4.3995L24.0492 3.94328L23.5083 3.71883L22.7649 3.58697L23.1747 3.33768L23.9025 3.16655L24.4435 3.04894L24.57 2.93151L24.4992 2.83892L24.2003 2.7856L23.9176 2.74633L21.8139 2.77482L21.4399 2.48261L21.0148 2.28665L20.4741 2.11552L19.7657 2.03698H19.1537L18.987 1.88029L18.4106 1.44563L17.7177 1L17.2929 1.49895L17.2727 1.65564L17.4751 1.84083L17.4953 1.99752L17.3489 2.09011L16.8784 2.11494L16.0236 1.94381L15.184 1.81619L14.7944 1.82677L14.1573 1.91937L14.233 2.07625L14.5871 2.06547L14.7338 2.08337Z" fill="currentColor" stroke="currentColor" stroke-width="0.5" stroke-miterlimit="2.613"/>
<path d="M22.1887 18.5004L21.3691 17.7519L20.6607 17.0179L20.1347 16.4408L19.9328 16.0453L19.8216 15.6639L19.6897 15.4039L19.4826 15.3363L19.2799 15.3754L19.2094 15.6248L19.3564 16.0595L19.7102 16.6903L20.1549 17.1997L20.6607 17.6488L21.2172 18.0407L21.5508 18.2651L22.1887 18.5004ZM11.0269 5.09892L10.8296 5.29122L10.7485 5.48719L10.784 5.62617L10.8802 5.6689L11.1583 5.62617L11.3657 5.54436L11.5124 5.44079L11.5932 5.24849L11.5124 5.1559L11.3353 5.05253L11.1886 5.04194L11.0269 5.09892ZM16.3369 4.58206H16.5645L16.777 4.52528L16.7921 4.37552L16.7112 4.20458L16.615 4.04423L16.423 3.95144L16.1752 3.9193L15.8361 3.93008L15.6238 4.05482L15.5277 4.1938L15.5935 4.31854L15.8211 4.41113L16.0637 4.50372L16.3369 4.58206ZM34.5682 18.5431L34.4368 18.6357L34.4627 18.8032L34.5023 19.1025L34.5482 19.4199L34.5783 19.6938L34.5583 20.0076L34.5381 20.3568L34.4469 20.6704L34.3403 20.9447L34.1584 21.2121L33.9212 21.4864L33.6781 21.7539L33.4202 21.9996L33.1827 22.2204L33.0513 22.3878L32.9549 22.5411L32.9748 22.6552L33.0972 22.6943L33.3245 22.6552L33.769 22.3557L34.1584 22.035L34.4168 21.7782L34.6447 21.4792L34.7955 21.2049L34.928 20.8914L35.0233 20.5243L35.0334 20.3568V19.6869L34.9575 19.3556L34.8509 19.0099L34.7201 18.7213L34.6548 18.5752L34.5682 18.5431ZM14.9359 20.6989L15.1941 20.9021L16.0435 21.4223L16.5139 21.7179L16.9336 21.9855L17.2724 22.2098L17.3382 22.2843L17.3838 22.338L17.2521 22.331L16.9134 22.1811L16.3418 21.9141L15.4569 21.4935L15.0979 21.3222L14.7187 21.1125L14.304 20.845L14.0005 20.6777L13.6363 20.4282L13.3986 20.2538L13.2519 20.0933L13.1964 19.9008L13.2065 19.7227L13.3024 19.6548L13.4693 19.6619L13.7324 19.7726L14.0155 19.9651L14.2231 20.1427L14.4455 20.2998L14.663 20.4887L14.9359 20.6989ZM13.0194 12.6209L13.0295 12.5247L13.1205 12.4535L13.439 12.3609L14.1015 12.2148L14.7641 12.1576H15.1687L15.5025 12.2076L15.8159 12.3181L16.0637 12.4893L16.079 12.5853L16.0487 12.6531L15.9424 12.6673L15.7807 12.6531L15.5329 12.603L15.3001 12.5534L15.0119 12.5318H14.6529L14.3493 12.5283L14.0813 12.5462L13.783 12.5817L13.5453 12.628L13.3128 12.6637L13.1609 12.6708L13.0549 12.6602L13.0194 12.6209ZM21.5155 20.6633L21.4191 20.8521L21.3789 21.0015L21.2983 21.2727L21.2724 21.4898L21.3437 21.5507L21.4904 21.5647L21.5658 21.5218L21.601 21.408L21.7133 21.244L21.824 21.1549L21.9455 21.0765L22.0212 20.952L22.0007 20.7416L21.8953 20.6313L21.8341 20.5916H21.6923L21.5868 20.6065L21.5155 20.6633ZM21.7234 27.1521H21.627L21.5508 26.9918L21.5456 26.8099L21.601 26.5604L21.7275 26.2185L21.9354 26.0081L22.1226 25.8445L22.2892 25.8301L22.3346 25.9369L22.2338 26.1652L22.0914 26.443L22.0212 26.5783L21.8895 26.7887L21.7887 27.0345L21.7587 27.1055L21.7234 27.1521ZM28.2416 24.0092L28.1208 24.1161L28.1407 24.2872L28.3527 24.4937L28.3839 24.7182L28.4333 24.7825L28.5301 24.8004L28.6355 24.7575L28.6667 24.6576L28.7167 24.5473L28.7374 24.4296V24.2728L28.7065 24.1553L28.5902 24.052L28.4893 23.9879L28.368 23.9807L28.2416 24.0092ZM18.9414 35.8859L18.734 36.0316L18.6581 36.1387L18.6329 36.2314L18.6531 36.3061L18.719 36.3417H18.7796L18.9212 36.3204L19.0676 36.2528L19.1586 36.1564L19.2345 36.0532L19.2799 35.9213L19.2657 35.8466L19.2094 35.8145L19.0982 35.818L18.9414 35.8859ZM20.4634 34.3249L20.291 34.3998L20.2055 34.4749L20.1954 34.5388L20.2457 34.6031L20.332 34.6206L20.4486 34.5923L20.544 34.5531L20.621 34.4782L20.6664 34.3998L20.6505 34.3357L20.5899 34.3107L20.4634 34.3249ZM23.3162 32.3257L22.6179 32.8214L22.042 33.2595L21.6322 33.5802L21.6114 33.6693L21.6568 33.7226L21.7529 33.7263L21.8996 33.6585L22.1627 33.4911L22.4971 33.2774L22.8559 33.0137L23.1944 32.7823L23.4927 32.5361L23.7159 32.3045L23.7755 32.2011L23.7159 32.148L23.6446 32.137L23.4468 32.2262L23.3162 32.3257ZM25.0049 31.6028L24.9035 31.6773L24.8735 31.738L24.8893 31.7986L24.959 31.8273H25.0202L25.1114 31.7559L25.2122 31.6918L25.2573 31.6419L25.2532 31.6028L25.2021 31.5848L25.0915 31.5811L25.0049 31.6028ZM22.5567 28.891H22.4764L22.4411 28.9231L22.431 29.0296V29.208L22.4813 29.4005L22.5676 29.5395L22.7496 29.7497L22.8709 29.8744L22.9365 29.8954L22.9722 29.8923L22.9916 29.8602L22.9463 29.6962L22.9009 29.6144L22.8963 29.5537L22.8911 29.3826L22.8356 29.1689L22.7545 29.0086L22.6436 28.9162L22.5567 28.891ZM11.0015 28.6521L10.8195 28.6769L10.6627 28.7127L10.6171 28.7591L10.6122 28.8232L10.693 28.8944L10.7485 28.9266L10.8701 28.9514L11.0067 28.9481L11.0722 28.9337L11.1531 28.8659L11.1987 28.791L11.2189 28.7306L11.2036 28.6769L11.1381 28.6486L11.0015 28.6521ZM16.1801 29.0584L15.735 28.9585L15.6692 28.9764L15.6542 29.0513L15.7047 29.1189L16.0435 29.1974L16.5189 29.3008L17.1207 29.4074L17.3838 29.4219L17.6568 29.4324L17.9199 29.4646L18.2182 29.5002L18.39 29.4933L18.4458 29.4432V29.3755L18.4004 29.3327L18.2436 29.3042L17.9655 29.2615L17.6215 29.2438L17.2573 29.2045L16.8374 29.1726L16.5847 29.1476L16.3773 29.1154L16.1801 29.0584ZM20.2615 29.1618L20.1249 29.233L20.0989 29.3008L20.1249 29.3612L20.2055 29.3862L20.3522 29.3612L20.4533 29.3042L20.5087 29.233V29.176L20.4735 29.1439H20.362L20.2615 29.1618ZM6.62691 22.3772L6.4802 22.3557L6.41955 22.3665L6.39414 22.4308L6.42474 22.5411L6.50042 22.5909L6.60669 22.605L6.69275 22.559L6.70778 22.4877L6.69275 22.4273L6.62691 22.3772ZM3.65335 17.9125L3.59761 18.1904L3.60772 18.4719L3.66837 18.7142L3.78476 18.9708L3.90114 19.1346L3.98201 19.2594L4.03255 19.3269L4.09812 19.3662H4.13364L4.16397 19.3341L4.18937 19.238L4.11861 18.9067L4.06807 18.7034L3.95169 18.4719L3.85552 18.2545L3.8506 18.0834L3.79487 17.9159L3.73913 17.8803H3.68367L3.65335 17.9125ZM7.8812 17.5667L7.90633 17.5098L7.88612 17.4385L7.76481 17.36L7.53231 17.2853L7.20857 17.1856L6.93044 17.0894L6.62691 17.0358L6.44988 16.9896L6.28814 16.9931L6.40944 17.0572L6.76351 17.2068L7.07715 17.3708L7.39571 17.5098L7.53231 17.5525L7.7293 17.5739L7.8812 17.5667ZM3.44598 15.7887L3.29408 15.974L3.28916 16.1022L3.34981 16.1378L3.44079 16.113L3.53177 16.0239L3.59242 15.9242L3.63805 15.8493V15.7425L3.56729 15.7103L3.49133 15.7353L3.44598 15.7887ZM17.9248 8.07415L17.7477 8.09552L17.5152 8.2524L17.065 8.75828L16.5896 9.40681L16.3219 9.78102L16.0233 10.2157L15.6594 10.6113L15.5684 10.761L15.5834 10.8143L15.6796 10.818L15.9779 10.736L16.4077 10.419L16.974 9.85937L17.3281 9.39622L17.6466 9.02547L17.8843 8.58735L17.9906 8.31285L18.0007 8.15962L17.9248 8.07415ZM9.5095 14.0747L9.61059 14.1033L9.64119 14.1888L9.56524 14.4953L9.35268 14.9157L9.16554 15.3184L8.83687 15.6069L8.66994 15.6961L8.4929 15.7425L8.39182 15.6924L8.38171 15.5998L8.5235 15.493L8.66994 15.3219L8.85709 15.0333L8.96855 14.759L9.06964 14.4881L9.26662 14.2281L9.39831 14.0962L9.5095 14.0747ZM3.47139 13.184L3.25884 13.444L3.16267 13.8004L3.13726 13.9894V14.1282L3.18289 14.1994L3.3143 14.1746L3.55718 13.9108L3.69351 13.5973L3.79978 13.3193L3.80497 13.1233L3.74432 13.0592L3.58258 13.0914L3.47139 13.184ZM6.15153 13.722L6.16683 13.8004L6.22721 13.8539L6.36381 13.9501L6.5108 14.0356L6.68237 14.1033L6.80395 14.1567L6.85449 14.1532L6.8799 14.1211L6.87471 14.0606L6.80887 13.9929L6.70286 13.9037L6.52583 13.8288L6.41436 13.7576L6.31846 13.6972L6.2324 13.6864L6.18186 13.6827L6.15153 13.722ZM4.63934 12.0687L4.38663 12.09L4.26505 12.1507L4.22462 12.2467L4.26013 12.3181L4.40165 12.3572L4.63415 12.3395L4.87703 12.2752L4.94779 12.1934L4.94287 12.1328L4.86201 12.0794L4.77076 12.0615L4.63934 12.0687ZM17.2674 13.6899L17.4344 13.722L17.4849 13.7861L17.5051 13.9286L17.5303 14.0783L17.48 14.1852L17.3737 14.2281L17.1158 14.2315L16.944 14.2031L16.8475 14.1139L16.7669 14.0427V13.9286L16.8931 13.8146L17.0855 13.7078L17.2674 13.6899ZM12.8877 4.4966L13.1205 4.35761L13.5505 4.2117L13.9802 4.07618L14.3898 3.94067L14.5769 3.87656L14.7187 3.86232L14.8348 3.88022L14.9258 3.98359L14.8651 4.05828L14.749 4.07984L14.6072 4.10467L14.4504 4.19726L14.1015 4.34703L13.6212 4.43962L13.3229 4.49313L13.0344 4.50738L12.8877 4.4966ZM12.0282 5.10238L11.9522 5.18785L11.9421 5.25195L12.008 5.30547L12.0888 5.33396L12.1899 5.33049L12.2405 5.31259L12.276 5.23078L12.2659 5.138L12.2405 5.08467L12.1697 5.07389H12.0888L12.0282 5.10238ZM13.0194 5.72588L12.9486 5.72954L12.8929 5.77227L12.8828 5.8435L12.9131 5.90067L12.9688 5.92184H13.065L13.1407 5.89701L13.156 5.8435L13.1306 5.7794L13.095 5.74032L13.0194 5.72588ZM15.9727 6.03599L16.4784 5.78305L16.7869 5.64753L16.974 5.56572H17.0399L17.05 5.66178L16.9235 5.733L16.8628 5.8793L16.706 6.05024L16.423 6.14629L16.1347 6.19288H15.8766L15.8312 6.13224L15.8968 6.06795L15.9727 6.03599ZM17.677 6.16073L17.8439 6.01097L18.0362 5.88277L18.2081 5.80095L18.3346 5.79364L18.4204 5.83291V5.9434L18.375 6.06448L18.1827 6.19288L17.9551 6.29259L17.7226 6.33533L17.6111 6.3103L17.5961 6.2462L17.677 6.16073ZM17.7073 6.78769L17.7731 6.70588L17.93 6.65603L18.2029 6.56324L18.5165 6.42792L18.6632 6.35323L18.8856 6.27815L19.0274 6.30318V6.41021L18.9717 6.50646L18.7744 6.67027L18.5015 6.76286L18.2283 6.84121L17.945 6.84487H17.7682L17.7073 6.78769ZM17.1612 3.35644L16.9994 3.39551L16.9639 3.47405L17.0298 3.55952L17.2068 3.5524L17.3535 3.51313L17.4595 3.42766L17.4142 3.35644L17.2724 3.32083L17.1612 3.35644ZM20.0134 2.70426L19.9227 2.65787L19.9883 2.57259L20.2413 2.55469L20.3779 2.58664L20.4844 2.62591L20.4888 2.69001L20.3981 2.7185L20.2566 2.72562L20.12 2.7185L20.0134 2.70426ZM20.4276 3.11043L20.5751 3.10696L20.6866 3.12486L20.7418 3.1497L20.7218 3.18896L20.6407 3.25672L20.5298 3.26365L20.3981 3.2496L20.3221 3.22458L20.2667 3.17818L20.332 3.13892L20.4276 3.11043ZM20.3981 4.94203L20.6664 4.86369L20.8986 4.77822L21.1418 4.68197L21.3278 4.63558L21.4401 4.61421L21.5508 4.4966L21.4702 4.44308L21.3136 4.4502L21.1259 4.47889L20.9186 4.53587L20.7718 4.54299L20.7519 4.46464L20.7718 4.31488L20.6866 4.25424H20.5642L20.4844 4.32547L20.4074 4.39688L20.2866 4.48947L20.2003 4.6427V4.77822L20.2413 4.85291L20.2314 4.93125L20.3068 4.94916L20.3981 4.94203ZM20.2967 12.2789L20.4276 12.2717L20.5399 12.3358L20.544 12.3894L20.5087 12.4215L20.4074 12.4427L20.2768 12.4356L20.1902 12.3751L20.2112 12.3218L20.2967 12.2789ZM20.5087 12.0723H20.6607L20.762 11.9938L20.7519 11.9368L20.6505 11.8904H20.544L20.4634 11.9083L20.4276 11.9616V12.0402L20.5087 12.0723ZM20.6765 11.3988L20.7871 11.3845H20.8937L20.9593 11.4236L20.974 11.4842L20.9396 11.5343L20.8374 11.5697L20.732 11.5805L20.621 11.5626L20.5852 11.5093V11.4452L20.6765 11.3988ZM20.7921 11.1066L20.944 11.1102L21.0806 11.0815L21.1358 11.0211L21.0959 10.9462L20.9849 10.9071L20.8527 10.9212L20.732 10.9604L20.7065 11.0245L20.7117 11.0673L20.7921 11.1066ZM21.0959 10.3512L21.2524 10.319H21.3737L21.4292 10.3652L21.409 10.4473L21.3336 10.5185L21.2625 10.5828L21.1215 10.6041H20.9798L20.8584 10.5614L20.8483 10.4936L20.9339 10.4295L20.9992 10.376L21.0959 10.3512ZM21.2524 9.78814L21.409 9.7739L21.5508 9.79526L21.6114 9.8559V9.91635L21.5456 9.99123L21.4292 10.0055L21.3079 10.027L21.156 10.0234L21.0904 9.96986L21.1005 9.89151L21.1516 9.838L21.2524 9.78814ZM21.3948 9.5993H21.5456L21.6674 9.57081L21.824 9.52442L21.8442 9.43183L21.7887 9.35695L21.6568 9.32499L21.5204 9.32846L21.4243 9.35695L21.3382 9.3891L21.2371 9.4532L21.2172 9.52096L21.2581 9.57428L21.3336 9.59218L21.3948 9.5993ZM1.76686 18.6465L1.89855 18.6572L1.93379 18.7498L1.84281 18.8282L1.69091 18.8032L1.61523 18.6998L1.76686 18.6465ZM21.2882 8.93654L21.5308 8.84741L21.6464 8.82951L21.7887 8.84029L21.8442 8.8759V8.91517L21.7887 8.97927L21.6923 9.03625L21.5508 9.07205L21.3838 9.08245L21.2472 9.0684L21.2122 9.01122L21.2325 8.96503L21.2882 8.93654ZM21.5057 8.65145L21.6822 8.59793L21.7529 8.54096L21.7887 8.48398V8.43046L21.7587 8.39851L21.6822 8.39485L21.5767 8.40197L21.4702 8.41987L21.3789 8.45895L21.3336 8.49822L21.3177 8.56598L21.3382 8.62642L21.4191 8.64433L21.5057 8.65145ZM21.5456 8.15962L21.6975 8.12054L21.8089 8.06703L21.8341 8.02083L21.8499 7.94248L21.824 7.89243L21.7529 7.87819L21.6464 7.88185L21.5204 7.89956L21.4344 7.94248L21.3737 7.98502L21.3636 8.05625L21.3789 8.11342L21.4603 8.14537L21.5456 8.15962ZM21.5456 6.8876L21.6723 6.88394L21.748 6.90184L21.7688 6.94804L21.7275 6.99444L21.6622 7.04429L21.5557 7.06219H21.4445L21.3737 7.016V6.96248L21.4401 6.91609L21.5456 6.8876ZM21.5557 7.65374L21.7133 7.60022L21.8341 7.52534L21.8442 7.41504L21.8341 7.34728L21.7529 7.31514L21.6622 7.29742L21.5868 7.30089L21.5456 7.33669L21.5256 7.38636L21.5057 7.45065L21.4603 7.47202H21.3737L21.3489 7.50763L21.359 7.57173L21.4243 7.6289L21.4904 7.64642L21.5557 7.65374ZM21.5767 6.5028L21.6874 6.44928L21.804 6.45294L21.8742 6.51339L21.8595 6.57402L21.804 6.62734L21.7133 6.65237L21.627 6.66681L21.5508 6.67393L21.4502 6.66681L21.4243 6.62388L21.4502 6.5669L21.5103 6.52782L21.5767 6.5028ZM21.5969 6.21771L21.6874 6.19288L21.783 6.13224L21.7887 6.07507L21.7789 6.01463L21.7177 5.9896L21.6221 6.00038L21.5609 6.02541L21.4956 6.07507L21.4904 6.13571V6.19288L21.5357 6.21059L21.5969 6.21771ZM21.3789 5.64753L21.4401 5.62617L21.5204 5.6227L21.5868 5.65119L21.601 5.69393L21.5767 5.75803L21.5103 5.79364L21.4502 5.81866L21.3691 5.82579L21.3035 5.7973L21.2882 5.74725L21.3177 5.70471L21.3789 5.64753Z" fill="currentColor" stroke="currentColor" stroke-width="0.5" stroke-miterlimit="2.613"/>
</svg>
