<svg width="22" height="22" viewBox="0 0 22 22" fill="none" xmlns="http://www.w3.org/2000/svg">
<path d="M1 3.9375L7.91302 8.5457C10.4616 10.2446 11.5384 10.2446 14.087 8.5457L21 3.9375" stroke="currentColor" stroke-width="1.5" stroke-linejoin="round"/>
<path d="M1.01577 12.736C1.08114 16.3426 1.11383 18.1458 2.24496 19.4816C3.37608 20.8174 4.95033 20.8639 8.09883 20.9569C10.0393 21.0144 11.9607 21.0144 13.9012 20.9569C17.0497 20.8639 18.6239 20.8174 19.7551 19.4816C20.8862 18.1458 20.9189 16.3426 20.9842 12.736C21.0053 11.5764 21.0053 10.4236 20.9842 9.264C20.9189 5.65748 20.8862 3.85422 19.7551 2.51842C18.6239 1.18262 17.0497 1.1361 13.9012 1.04303C11.9607 0.98566 10.0393 0.98566 8.09882 1.04301C4.95033 1.13607 3.37608 1.1826 2.24495 2.51841C1.11382 3.85421 1.08114 5.65747 1.01576 9.264C0.99474 10.4236 0.99475 11.5764 1.01577 12.736Z" stroke="currentColor" stroke-width="1.5" stroke-linejoin="round"/>
</svg>
