<svg width="36" height="36" viewBox="0 0 36 36" fill="none" xmlns="http://www.w3.org/2000/svg">
<path d="M17.7682 8.35598e-05C15.6327 0.0130304 13.5 0.135743 11.3811 0.367583L10.9131 0.423083L10.3315 0.492083C10.2059 0.505583 10.0218 0.531083 9.92547 0.549083C9.80793 0.569991 9.68973 0.587998 9.57102 0.603083C9.41861 0.62228 9.26659 0.643783 9.11504 0.667583L8.65907 0.739583C8.32699 0.790583 7.34621 0.964583 6.85067 1.06208C5.0199 1.41908 2.98781 1.95308 2.15329 2.29808C1.56311 2.54258 0.824952 3.05708 0.55309 3.41258C0.303656 3.76962 0.135956 4.16542 0.059263 4.57808C0.00936417 4.81508 0.00420235 4.92308 0.000761054 5.82608C-0.00440089 6.91808 0.0162467 7.66058 0.0764695 8.62358C0.362097 13.1521 1.27404 16.9336 2.97749 20.6236C4.1168 23.1925 5.64136 25.6186 7.5114 27.8386C9.23205 29.8831 11.1592 31.6966 13.353 33.3436C14.6762 34.3336 16.3418 35.4511 16.9251 35.7361C17.5892 36.0616 18.336 36.0871 18.9726 35.8066C19.4888 35.5771 21.3506 34.3456 22.6084 33.4006C24.5677 31.9141 26.3644 30.272 27.9751 28.4956C28.8526 27.5281 30.6266 25.1146 31.3768 23.8681C34.1677 19.2331 35.7627 13.5436 35.9383 7.65008C35.9899 6.68708 36.0157 5.81408 35.9899 5.35658C35.9838 5.24237 35.974 5.12832 35.9606 5.01458L35.9623 4.41908L35.6784 3.90458C35.5211 3.60296 35.2972 3.3313 35.0194 3.10508C34.6822 2.79758 34.3793 2.62358 33.6722 2.32658C31.9567 1.60658 29.6493 1.03958 26.8618 0.649583C25.9757 0.517616 25.0851 0.409565 24.1914 0.325583L23.4962 0.253583C23.2617 0.229595 23.0264 0.211089 22.7908 0.198083C21.6524 0.114424 20.5118 0.0544067 19.3701 0.0180836C18.8363 0.00246133 18.3022 -0.00303998 17.7682 0.00158356V8.35598e-05ZM18.0555 1.24508C23.8025 1.23458 28.5997 1.89908 32.5073 3.24308C33.9526 3.73808 34.2107 3.89258 34.5032 4.43108C34.7235 4.83608 34.7269 4.89608 34.665 6.96758C34.326 18.3526 29.8472 26.7961 20.7053 33.2791C19.5972 34.0666 18.441 34.7836 18.1519 34.8631C18.0091 34.9021 17.7475 34.8136 17.3208 34.5826C16.4743 34.1251 14.3647 32.6281 12.9504 31.4806C10.6241 29.5981 8.29257 27.0751 6.70441 24.7216C3.31473 19.7056 1.55451 13.8556 1.34631 6.92258C1.28609 4.89758 1.29125 4.83458 1.51149 4.42958C1.804 3.89408 2.06554 3.73658 3.45583 3.26408C7.29287 1.95458 11.345 1.35008 16.8941 1.25558C17.2864 1.24958 17.6736 1.24508 18.0555 1.24508ZM16.4364 2.30708L16.359 2.31158C16.0148 2.34758 15.5881 2.62058 15.3834 2.94458C14.9136 3.68708 15.0048 5.33258 15.5486 5.90558C15.7602 6.13058 15.872 6.16958 16.2729 6.16958C16.5396 6.16958 16.8476 6.10958 16.9732 6.03008C17.0989 5.95208 17.3002 5.71958 17.4206 5.51258C17.7372 4.97258 17.7441 3.61508 17.4327 3.01058C17.2331 2.62508 16.8597 2.34608 16.507 2.31158L16.4691 2.30858H16.4347L16.4364 2.30708ZM18.3188 2.39708L18.2895 4.24658C18.2771 4.83852 18.2713 5.43055 18.2723 6.02258C18.2806 6.05343 18.2922 6.08356 18.3068 6.11258C18.3498 6.12008 18.4599 6.12608 18.6044 6.12608H18.9176V5.33258C18.9176 4.57358 18.9262 4.54208 19.1344 4.56908C19.3065 4.59158 19.4131 4.75808 19.6626 5.38358L19.9758 6.16958H20.7329L20.3991 5.32358L20.067 4.47608L20.3388 4.24958C20.6709 3.97058 20.7742 3.56558 20.6314 3.09908C20.4748 2.57858 20.0773 2.39858 19.0983 2.39708H18.3188ZM22.4071 2.48708C21.5381 2.48708 21.1458 3.06158 21.151 4.32908C21.151 5.16608 21.2955 5.69408 21.6052 5.99858C21.9631 6.34808 22.7409 6.40958 23.2313 6.12458C23.4962 5.97158 23.6649 5.50058 23.67 4.91258C23.67 4.75658 23.6631 4.63358 23.639 4.54658C23.5823 4.40558 23.4154 4.38758 22.9387 4.34708L22.5344 4.31258C22.4638 4.34858 22.4587 4.43258 22.4587 4.61858V4.67858L22.4604 4.70558C22.4707 4.88258 22.5206 4.91258 22.7116 4.91258C22.9147 4.91258 22.9628 4.95758 22.9628 5.14358C22.9628 5.67608 22.4811 5.91158 22.1197 5.55758C21.6242 5.07158 21.736 3.21758 22.2694 3.06758C22.4931 3.00458 22.863 3.24008 22.863 3.44408C22.863 3.52208 22.9869 3.56408 23.2158 3.56408C23.6184 3.56408 23.6631 3.44558 23.4188 3.02708C23.3333 2.85797 23.1906 2.71565 23.0098 2.61915C22.829 2.52265 22.6187 2.47658 22.4071 2.48708ZM13.4614 2.54408C13.2735 2.53954 13.0855 2.54655 12.8988 2.56508L12.2914 2.62208L12.2638 4.49558L12.2363 6.36908L12.9727 6.30608C13.3771 6.27008 13.8159 6.19508 13.9518 6.13958C14.3665 5.96258 14.6022 5.59058 14.6108 5.09708C14.616 4.75208 14.5678 4.60358 14.3992 4.45358C14.1824 4.26158 14.1824 4.25858 14.3733 3.97958C14.487 3.82451 14.5508 3.64567 14.558 3.46176C14.5653 3.27784 14.5158 3.09561 14.4146 2.93408C14.2718 2.68958 13.9621 2.56058 13.4614 2.54408ZM24.2791 2.65508V6.42008L24.6319 6.45608L24.9863 6.49358V5.65808C24.9863 4.73258 24.9536 4.76708 25.721 4.87958L26.0996 4.93658V5.77058C26.0996 6.49058 26.1237 6.61208 26.2768 6.64808C26.7242 6.75158 26.7121 6.79808 26.6829 4.84508L26.6553 2.98058L26.3783 2.95208L26.0996 2.92358V4.37558L25.6694 4.32158C24.9639 4.23458 24.9863 4.26158 24.9863 3.47858C24.9863 2.96108 24.9519 2.75558 24.8607 2.75558C24.7407 2.74752 24.622 2.72893 24.5063 2.70008L24.3411 2.65958L24.2791 2.65508ZM11.5326 2.70308L11.1884 2.73908C10.8495 2.77358 10.8374 2.79008 10.5742 3.55058C10.4279 3.97808 10.2472 4.48958 10.175 4.68758L10.0425 5.04758L9.71383 4.10408C9.53316 3.58508 9.34905 3.12608 9.30431 3.08408C9.2613 3.04208 9.08407 3.03458 8.91201 3.06908L8.59885 3.12908V4.96508C8.59885 6.71258 8.60745 6.79958 8.79328 6.79958C8.90423 6.79903 9.01445 6.78385 9.12021 6.75458C9.22 6.72008 9.24753 6.54458 9.22344 6.09908C9.20526 5.77778 9.20526 5.45589 9.22344 5.13458C9.25442 4.80458 9.28539 4.85258 9.65017 5.80358L10.0442 6.83108L10.409 5.67908L10.7738 4.52858L10.7892 5.06858C10.8153 5.13651 10.8171 5.20974 10.7944 5.27858L10.803 5.53808C10.8271 6.40508 10.8546 6.53858 10.9871 6.49358C11.1002 6.45987 11.2186 6.44166 11.3381 6.43958C11.524 6.43958 11.5326 6.35258 11.5326 4.57058V2.70308ZM18.9176 2.91308L19.3443 2.96258C19.95 3.03608 20.2046 3.40658 19.9035 3.77408C19.7659 3.93908 19.1189 4.07408 18.9916 3.96158C18.952 3.92558 18.9176 3.67358 18.9176 3.40358V2.91308ZM16.402 2.95058C16.5448 2.95658 16.6825 3.05558 16.7926 3.25058C17.0197 3.65258 17.0025 5.06558 16.7651 5.38808C16.5362 5.69858 16.2403 5.69858 16.0114 5.38808C15.8806 5.21108 15.8221 4.92458 15.8015 4.33358C15.7757 3.63758 15.8015 3.47708 15.9822 3.22358C16.1129 3.03608 16.2592 2.94608 16.402 2.95058ZM12.9487 3.11558H13.2825C13.6868 3.11558 13.8589 3.25058 13.8589 3.57158C13.8589 3.85658 13.7212 3.96908 13.2773 4.04408L12.9504 4.09958V3.60758L12.9487 3.11558ZM27.569 3.12308C27.5484 3.13077 27.5301 3.14259 27.5157 3.15758V6.87758L27.7944 6.91508C27.9476 6.93458 28.1059 6.95858 28.1489 6.96458C28.1902 6.97208 28.2246 6.15308 28.2246 5.14208C28.2246 4.13258 28.1902 3.28958 28.1489 3.26708C28.0342 3.22615 27.9155 3.19403 27.7944 3.17108L27.569 3.12308ZM6.95735 3.45008C6.87754 3.45571 6.79857 3.46827 6.72162 3.48758C6.4119 3.56258 6.40846 3.57458 6.03336 5.02508C5.82688 5.82908 5.59287 6.72008 5.51716 7.00808L5.37779 7.53008L5.69783 7.47008C5.82917 7.44824 5.95812 7.41662 6.08326 7.37558C6.11767 7.35758 6.17789 7.12058 6.21747 6.84758C6.2949 6.29258 6.28802 6.30158 6.79217 6.21758L7.15866 6.15608L7.27911 6.60908C7.39956 7.05308 7.40988 7.06058 7.72304 7.00808C7.84686 6.99182 7.96811 6.96313 8.08437 6.92258C8.13599 6.88508 7.17587 3.54308 7.09156 3.46658C7.07435 3.45158 7.02445 3.44558 6.95735 3.45008ZM28.9318 3.47708V5.31608C28.9318 6.72908 28.961 7.15808 29.0591 7.15958C29.1279 7.15958 29.2862 7.18508 29.4101 7.21508C29.6304 7.26758 29.6338 7.25408 29.663 6.17408L29.6906 5.07908L30.2446 6.30458C30.5475 6.97958 30.8675 7.56758 30.9518 7.61108C31.3544 7.82108 31.3648 7.77008 31.3372 5.84108L31.3097 3.98108L31.031 3.91658L30.7522 3.85058V4.85258C30.7488 6.00308 30.7385 5.99858 30.1328 4.64258C29.6889 3.64958 29.546 3.47558 29.1658 3.47558L28.9318 3.47708ZM3.81028 4.28558C3.78963 4.28558 3.62961 4.33058 3.45411 4.38308L3.13579 4.48208V4.94708L3.16504 6.42908C3.1788 7.13408 3.19945 7.69658 3.24419 8.20208C3.26311 8.20808 3.28548 8.20508 3.31301 8.19458C3.41109 8.16008 3.86534 8.01158 4.32475 7.86158C5.10937 7.60808 5.15927 7.57658 5.15927 7.33058C5.15927 7.18808 5.14378 7.06958 5.12486 7.06958C5.10593 7.06958 4.82546 7.15058 4.50198 7.24958C4.29661 7.31536 4.08888 7.37539 3.87911 7.42958C3.86018 7.42958 3.84469 6.72158 3.84469 5.85758C3.84469 4.99208 3.82749 4.28558 3.81028 4.28558ZM32.2044 4.28558C32.1855 4.28558 32.17 5.12858 32.17 6.15908V8.03258L32.497 8.12558C32.6793 8.17808 32.8376 8.22308 32.8514 8.22908C32.8652 8.23358 32.8772 7.39358 32.8772 6.36008V4.48058L32.5589 4.38158C32.4429 4.34351 32.3245 4.31097 32.2044 4.28408V4.28558ZM13.3668 4.59458C13.8193 4.60958 14.1015 5.04008 13.8468 5.44658C13.7384 5.61908 13.6059 5.68508 13.3255 5.70608L12.9487 5.73308V5.19908C12.9487 4.73258 12.9745 4.65908 13.162 4.61558C13.2287 4.59979 13.2977 4.59272 13.3668 4.59458ZM6.73883 4.59908L6.87304 5.08208C6.94702 5.35208 6.97111 5.47958 6.94358 5.55608C6.94282 5.56696 6.93934 5.57756 6.9334 5.58714C6.92745 5.59672 6.91919 5.60507 6.90917 5.61158C6.8963 5.62309 6.88186 5.63317 6.86615 5.64158C6.62354 5.77808 6.45664 5.73608 6.52202 5.55158C6.55644 5.45858 6.61838 5.20658 6.65968 4.99058L6.73883 4.59908ZM18.5752 7.08908C17.6202 7.10858 16.796 7.34408 16.328 7.75808C15.9099 8.12858 15.8634 8.52308 16.211 8.72558C16.6498 8.97908 17.369 9.05558 19.9414 9.12758C22.2952 9.19358 22.5774 9.21758 22.9869 9.39308C23.4893 9.61058 23.7079 9.89258 23.6924 10.3081C23.6821 10.6531 23.4222 11.0236 23.1882 11.0236C22.7942 11.0236 21.4865 10.7326 20.5625 10.4386C20.1914 10.3148 19.8115 10.2121 19.4252 10.1311L19.3598 10.1266C19.112 10.1326 18.8126 10.3081 17.9523 10.9531C17.5738 11.2366 16.9027 11.6341 16.4605 11.8381C15.0255 12.5026 14.5833 13.0291 14.3837 14.3116C14.2753 15.0061 14.1428 15.2836 13.5251 16.0921C13.0123 16.7641 12.651 17.6671 12.6475 18.2776C12.6475 18.5731 12.5271 19.0441 12.3309 19.5361C12.0728 20.1856 12.0143 20.4766 11.9954 21.2191C11.9748 21.9901 11.9352 22.1791 11.7149 22.5376C11.5549 22.7956 11.4293 23.1826 11.3846 23.5486C11.3209 24.0886 11.2693 24.1876 10.8168 24.6586C10.5432 24.9406 10.3195 25.2211 10.3195 25.2811C10.3195 25.3141 10.2765 25.3861 10.2111 25.4731C10.1973 25.5301 10.1664 25.5706 10.1268 25.5751C10.0915 25.6183 10.0536 25.6599 10.0132 25.6996C9.6278 26.0896 9.43853 26.5381 9.60027 26.6806C9.68458 26.7556 9.7534 26.7316 9.87041 26.5846C10.0924 26.3026 10.2197 26.3371 10.1182 26.6506C10.0597 26.8306 10.07 26.9296 10.1509 26.9611C10.3023 27.0196 10.877 26.9401 11.1781 26.8186C11.3364 26.7541 11.4534 26.5891 11.5394 26.3086C11.6083 26.0791 11.7356 25.8181 11.8216 25.7296C11.9163 25.6306 11.9954 25.3321 12.0212 24.9706C12.0591 24.4426 12.109 24.3241 12.4514 23.9386C12.6751 23.6896 12.9108 23.2831 13.0037 22.9906C13.0949 22.7086 13.2394 22.3561 13.3272 22.2076C13.9759 21.0976 14.394 20.4556 14.468 20.4556C14.6917 20.4556 14.8706 20.8816 14.8706 21.4156C14.8706 21.8356 14.9119 21.9946 15.0324 22.0546C15.1786 22.1266 15.1803 22.1641 15.0478 22.3966C14.9556 22.5651 14.8819 22.7409 14.8276 22.9216C14.7295 23.2816 14.406 23.6671 14.0671 23.8216C13.9122 23.8936 13.575 24.1336 13.3169 24.3571C12.9452 24.6781 12.8471 24.8221 12.8489 25.0576C12.8506 25.4536 12.9968 25.6606 13.1672 25.5076C13.3702 25.3276 13.4631 25.3801 13.3909 25.6351C13.3255 25.8661 13.3358 25.8721 13.6627 25.8151C14.0808 25.7401 14.4594 25.5256 14.5299 25.3246C14.5592 25.2406 14.6228 25.1116 14.671 25.0381C14.7209 24.9631 14.9067 24.6271 15.0874 24.2881C15.3111 23.8681 15.5572 23.5711 15.8669 23.3461C16.1146 23.1661 16.3831 22.8766 16.4657 22.7041C16.7048 22.1971 17.4 21.7621 17.4 22.1221C17.4 22.3321 17.0077 22.9681 16.722 23.2216C16.3624 23.5411 16.0854 23.9701 16.0854 24.2071C16.0854 24.4156 16.2265 24.4771 16.3383 24.3196C16.4485 24.1606 16.5741 24.2236 16.519 24.4096C16.5139 24.4269 16.5099 24.4444 16.507 24.4621C16.5242 24.5071 16.55 24.5446 16.5844 24.5746C16.6274 24.5851 16.6876 24.5896 16.7771 24.5896C17.2967 24.5896 17.7871 24.3286 17.8611 24.0121C17.9187 23.8151 18.0067 23.6259 18.1226 23.4496C18.25 23.2636 18.2947 23.0866 18.2534 22.9381C18.1846 22.6966 18.3704 22.0726 18.5115 22.0726C18.6147 22.0726 18.983 22.7431 19.0759 23.1076C19.1269 23.2764 19.2184 23.4339 19.3443 23.5696C19.5301 23.7511 19.611 23.7616 20.5195 23.7166C21.4607 23.6701 21.5054 23.6566 21.7498 23.3911C21.9322 23.1901 22.0182 22.9636 22.0595 22.5706C22.1318 21.8776 22.4759 21.4066 23.2639 20.9146L23.8524 20.5486L23.9969 20.7496C24.0778 20.8591 24.2499 21.1831 24.3806 21.4681C24.6009 21.9421 24.6095 22.0201 24.4925 22.4281C24.4219 22.6741 24.3944 22.9591 24.4305 23.0626C24.4684 23.1676 24.4185 23.4466 24.3187 23.6926L24.2413 23.8846L24.2258 23.9686C24.2068 24.0434 24.1987 24.12 24.2017 24.1966L24.3789 24.3616C24.6491 24.6196 24.8366 24.6511 24.9227 24.4546C24.9984 24.2746 25.1894 24.2806 25.1894 24.4621C25.1894 24.6526 25.3872 24.5821 25.6161 24.3121C25.7916 24.1021 25.7933 24.0646 25.6436 23.6881C25.5541 23.4661 25.5042 23.2156 25.5283 23.1316C25.5524 23.0461 25.5283 22.8031 25.4733 22.5916C25.3473 22.049 25.3538 21.4894 25.4922 20.9491C25.5903 20.5321 25.5782 20.4406 25.3494 20.0041C25.21 19.7386 25.1154 19.5031 25.1377 19.4836C25.1618 19.4626 25.3528 19.5061 25.5645 19.5796C26.5452 19.9216 27.3109 19.8436 27.7772 19.3546L28.0147 19.1041C28.0184 19.0903 28.0207 19.0762 28.0215 19.0621L27.4555 19.0171C27.3262 19.0065 27.1971 18.9939 27.0683 18.9796C26.7259 18.9301 26.5762 18.8221 26.029 18.3961C25.5232 18.0031 25.506 17.9731 25.5593 17.6221C25.592 17.4136 25.5421 16.9591 25.444 16.5706C25.2857 15.9376 25.2857 15.8461 25.4337 15.3946C25.5214 15.1246 25.5937 14.7841 25.5937 14.6401C25.5937 14.2051 25.3218 13.5361 25.0001 13.1806C24.8194 12.9715 24.6809 12.7372 24.5906 12.4876C24.5078 12.2454 24.3874 12.0142 24.2327 11.8006C23.9987 11.4946 23.9918 11.4571 24.1312 11.1631C24.2288 10.9025 24.2787 10.6302 24.2791 10.3561C24.2791 9.92558 24.2361 9.81758 23.9505 9.52958C23.3311 8.90258 23.0385 8.84408 20.079 8.76758C16.6635 8.67758 16.1267 8.56358 16.6567 8.04308C16.8735 7.83008 17.2279 7.83608 17.9643 8.06408C18.7713 8.31308 19.7573 8.37458 20.3337 8.21258C20.8292 8.07308 20.8378 8.08058 19.9792 7.92158C19.8416 7.89608 19.7263 7.83158 19.7263 7.77608C19.7263 7.75658 19.7401 7.74308 19.7624 7.73258C19.7779 7.70558 19.8502 7.69958 19.9861 7.71308C20.0481 7.71608 20.1203 7.72208 20.2064 7.73258C21.5295 7.88858 21.7498 7.90058 21.7498 7.81208C21.7498 7.66658 20.8619 7.36658 19.9345 7.20008C19.4876 7.1187 19.0316 7.08147 18.5752 7.08908ZM18.9417 7.82558C19.0784 7.83631 19.2128 7.86357 19.3409 7.90658L19.7779 8.04458L19.4648 8.04908L19.4235 8.05058L19.3701 8.04758C19.2154 8.05106 19.0617 8.02548 18.9193 7.97258C18.7421 7.87208 18.7817 7.81808 18.9417 7.82558Z" fill="white"/>
</svg>
