<svg width="10" height="19" viewBox="0 0 10 19" fill="none" xmlns="http://www.w3.org/2000/svg">
<path d="M2.91791 4.99902H7.50034C7.67528 4.99898 7.84579 5.054 7.98771 5.15629C8.12962 5.25857 8.23574 5.40293 8.29102 5.56891L9.95736 10.5679C10.0272 10.7778 10.0108 11.0069 9.9117 11.2047C9.81264 11.4025 9.63905 11.5529 9.42913 11.6227C9.21921 11.6925 8.99014 11.6761 8.79233 11.5771C8.59452 11.478 8.44416 11.3044 8.37434 11.0945L7.08376 7.21692V17.4966C7.08376 17.7175 6.99598 17.9295 6.83973 18.0857C6.68348 18.242 6.47156 18.3297 6.25059 18.3297C6.02962 18.3297 5.8177 18.242 5.66145 18.0857C5.5052 17.9295 5.41742 17.7175 5.41742 17.4966V12.4975H4.58425V17.4966C4.58425 17.7175 4.49647 17.9295 4.34022 18.0857C4.18397 18.242 3.97205 18.3297 3.75108 18.3297C3.53011 18.3297 3.31819 18.242 3.16194 18.0857C3.00569 17.9295 2.91791 17.7175 2.91791 17.4966V7.21692L1.62566 11.0945C1.55584 11.3044 1.40548 11.478 1.20767 11.5771C1.00985 11.6761 0.780792 11.6925 0.57087 11.6227C0.360948 11.5529 0.187362 11.4025 0.0883002 11.2047C-0.010762 11.0069 -0.0271865 10.7778 0.0426401 10.5679L1.70898 5.56891C1.76435 5.40266 1.87072 5.25811 2.01297 5.1558C2.15522 5.05349 2.3261 4.99863 2.50132 4.99902H2.91791ZM2.91791 2.08292C2.91791 2.49489 3.04007 2.8976 3.26894 3.24014C3.49782 3.58267 3.82313 3.84964 4.20373 4.0073C4.58434 4.16495 5.00314 4.2062 5.40719 4.12583C5.81124 4.04546 6.18238 3.84708 6.47368 3.55577C6.76499 3.26447 6.96336 2.89333 7.04373 2.48928C7.1241 2.08523 7.08286 1.66643 6.9252 1.28582C6.76755 0.905219 6.50058 0.579911 6.15804 0.351036C5.81551 0.122161 5.4128 0 5.00083 0C4.44841 0 3.91861 0.21945 3.52798 0.610074C3.13736 1.0007 2.91791 1.5305 2.91791 2.08292Z" fill="currentColor"/>
</svg>
