<svg width="22" height="22" viewBox="0 0 22 22" fill="none" xmlns="http://www.w3.org/2000/svg">
<path d="M19.3128 1C18.1994 1 17.2969 3.68629 17.2969 7H19.3128C20.2843 7 20.7701 7 21.0708 6.66455C21.3716 6.32909 21.3192 5.88733 21.2145 5.00381C20.9381 2.67143 20.191 1 19.3128 1Z" stroke="black"/>
<path d="M17.2909 7.05426V17.6458C17.2909 19.1575 17.2909 19.9133 16.829 20.2108C16.0742 20.6971 14.9073 19.6774 14.3204 19.3073C13.8354 19.0014 13.5931 18.8485 13.3239 18.8397C13.0332 18.8301 12.7864 18.9768 12.2624 19.3073L10.3518 20.5124C9.83636 20.8374 9.5787 21 9.29193 21C9.00518 21 8.74746 20.8374 8.23207 20.5124L6.32145 19.3073C5.83653 19.0014 5.59407 18.8485 5.32498 18.8397C5.0342 18.8301 4.78745 18.9768 4.26345 19.3073C3.67661 19.6774 2.50968 20.6971 1.75486 20.2108C1.29297 19.9133 1.29297 19.1575 1.29297 17.6458V7.05426C1.29297 4.20025 1.29297 2.77325 2.17154 1.88663C3.0501 1 4.46413 1 7.29219 1H19.2906" stroke="black" stroke-linecap="round" stroke-linejoin="round"/>
<path d="M5.29297 5H13.2925" stroke="black" stroke-linecap="round" stroke-linejoin="round"/>
<path d="M7.29286 9H5.29297" stroke="black" stroke-linecap="round" stroke-linejoin="round"/>
<path d="M11.789 9.875C10.9606 9.875 10.2891 10.4626 10.2891 11.1875C10.2891 11.9124 10.9606 12.5 11.789 12.5C12.6173 12.5 13.2889 13.0876 13.2889 13.8125C13.2889 14.5374 12.6173 15.125 11.789 15.125M11.789 9.875C12.442 9.875 12.9976 10.2402 13.2035 10.75M11.789 9.875V9M11.789 15.125C11.1359 15.125 10.5803 14.7598 10.3745 14.25M11.789 15.125V16" stroke="black" stroke-linecap="round"/>
</svg>
