<svg width="22" height="22" viewBox="0 0 22 22" fill="none" xmlns="http://www.w3.org/2000/svg">
<path d="M1.0315 13.7696C0.807654 15.1636 1.80842 16.1312 3.03374 16.6134C7.73138 18.4622 14.2686 18.4622 18.9662 16.6134C20.1916 16.1312 21.1923 15.1636 20.9685 13.7696C20.8309 12.9129 20.1507 12.1995 19.6467 11.5029C18.9866 10.5793 18.921 9.5718 18.9209 8.5C18.9209 4.35786 15.3746 1 11 1C6.6254 1 3.07908 4.35786 3.07908 8.5C3.07898 9.5718 3.01339 10.5793 2.35327 11.5029C1.84931 12.1995 1.16906 12.9129 1.0315 13.7696Z" stroke="currentColor" stroke-width="1.5" stroke-linecap="round" stroke-linejoin="round"/>
<path d="M6.78906 18C7.27168 19.7252 8.9738 21 10.9996 21C13.0254 21 14.7275 19.7252 15.2101 18" stroke="currentColor" stroke-width="1.5" stroke-linecap="round" stroke-linejoin="round"/>
</svg>
