<svg width="21" height="24" viewBox="0 0 21 24" fill="none" xmlns="http://www.w3.org/2000/svg">
<path d="M19.8224 3.78047L16.5329 0.476245C16.2324 0.174623 15.8151 0 15.3888 0H5.83101C4.54288 0 3.49515 1.04887 3.49515 2.337V6.89307C3.49515 7.11419 3.6743 7.29335 3.89542 7.29335C4.11653 7.29335 4.29569 7.11419 4.29569 6.89307V2.337C4.29569 1.48997 4.98398 0.800545 5.83101 0.800545H15.3888C15.6054 0.800545 15.8151 0.887856 15.9659 1.0398L19.2554 4.34403C19.4085 4.49824 19.4936 4.70235 19.4936 4.91893V20.8606C19.4936 21.7088 18.8041 22.3971 17.9582 22.3971H5.83101C4.98398 22.3971 4.29569 21.7088 4.29569 20.8606V16.308C4.29569 16.0869 4.11653 15.9077 3.89542 15.9077C3.6743 15.9077 3.49515 16.0869 3.49515 16.308V20.8606C3.49515 22.1488 4.54288 23.1965 5.83101 23.1965H17.9582C19.2452 23.1965 20.293 22.1488 20.293 20.8606V4.91893C20.293 4.48917 20.1263 4.08436 19.8224 3.78047ZM4.74699 13.0139C4.82523 13.0922 4.92728 13.1307 5.0282 13.1307C5.13139 13.1307 5.23344 13.0922 5.31168 13.0139C5.46702 12.8575 5.46702 12.6046 5.31168 12.4493L4.46124 11.5988L5.31168 10.7484C5.46702 10.5919 5.46702 10.3402 5.31168 10.1826C5.1552 10.0272 4.90234 10.0272 4.74699 10.1826L3.89542 11.033L3.04498 10.1826C2.88964 10.0272 2.63677 10.0272 2.48029 10.1826C2.32494 10.3402 2.32494 10.5919 2.48029 10.7484L3.32959 11.5988L2.48029 12.4493C2.32494 12.6046 2.32494 12.8575 2.48029 13.0139C2.55853 13.0922 2.66172 13.1307 2.7615 13.1307C2.86469 13.1307 2.96674 13.0922 3.04498 13.0139L3.89542 12.1635L4.74699 13.0139ZM1.09238 11.5988C1.09238 10.0544 2.35103 8.79578 3.89542 8.79578C5.44095 8.79578 6.69959 10.0544 6.69959 11.5988C6.69959 13.1432 5.44095 14.4019 3.89542 14.4019C2.35103 14.4019 1.09238 13.1432 1.09238 11.5988ZM7.499 11.5988C7.499 9.6122 5.88204 7.99637 3.89542 7.99637C1.90993 7.99637 0.292969 9.6122 0.292969 11.5988C0.292969 13.5843 1.90993 15.2013 3.89542 15.2013C5.88204 15.2013 7.499 13.5843 7.499 11.5988ZM15.4409 1.42306C15.221 1.42306 15.0418 1.60109 15.0418 1.8222V4.86563C15.0418 5.08675 15.221 5.2659 15.4409 5.2659H18.354C18.5751 5.2659 18.7542 5.08675 18.7542 4.86563C18.7542 4.64452 18.5751 4.46536 18.354 4.46536H15.8412V1.8222C15.8412 1.60109 15.6621 1.42306 15.4409 1.42306Z" fill="black"/>
</svg>
