<svg width="15" height="22" viewBox="0 0 15 22" fill="none" xmlns="http://www.w3.org/2000/svg">
<path d="M6 21V14.5M6 14.5C3.242 14.5 1 12.258 1 9.5C1.0025 8.51239 1.2972 7.5476 1.84696 6.72716C2.39673 5.90671 3.17698 5.26728 4.08945 4.88942C5.00192 4.51156 6.0058 4.41216 6.97465 4.60374C7.94351 4.79531 8.83401 5.2693 9.534 5.966M6 14.5C8.758 14.5 11 12.258 11 9.5C11 8.12 10.44 6.872 9.534 5.966M3.5 18H8.5M9.534 5.966L14.5 1M14.5 1H10.96M14.5 1V4.54" fill='currentColor' stroke="#767676" stroke-miterlimit="10" stroke-linecap="round" stroke-linejoin="round"/>
</svg>
