<svg width="22" height="22" viewBox="0 0 22 22" fill="none" xmlns="http://www.w3.org/2000/svg">
<path d="M4.97509 14.4816C3.40312 15.324 -0.718488 17.0441 1.79185 19.1966C3.01813 20.248 4.38389 21 6.10098 21H15.899C17.6161 21 18.9819 20.248 20.2081 19.1966C22.7185 17.0441 18.5969 15.324 17.0249 14.4816C13.3387 12.5061 8.66134 12.5061 4.97509 14.4816Z" stroke="currentColor" stroke-width="1.5" stroke-linecap="round" stroke-linejoin="round"/>
<path d="M16 5.5C16 7.98528 13.7615 10 11 10C8.23858 10 6 7.98528 6 5.5C6 3.01472 8.23858 1 11 1C13.7615 1 16 3.01472 16 5.5Z" stroke="currentColor" stroke-width="1.5"/>
</svg>
