<svg width="390" height="45" viewBox="0 0 390 45" fill="none" xmlns="http://www.w3.org/2000/svg">
<line x1="53.0742" y1="9.5" x2="345.865" y2="9.5" stroke="black"/>
<path d="M4.37695 37.1973H2.19727L2.18555 36.0605H4.05469C4.375 36.0605 4.64258 36.0156 4.85742 35.9258C5.07227 35.8359 5.23438 35.7051 5.34375 35.5332C5.45703 35.3613 5.51367 35.1523 5.51367 34.9062C5.51367 34.6328 5.46094 34.4102 5.35547 34.2383C5.25391 34.0664 5.09375 33.9414 4.875 33.8633C4.65625 33.7812 4.37891 33.7402 4.04297 33.7402H2.71875V41H1.10742V32.4688H4.04297C4.52734 32.4688 4.95898 32.5156 5.33789 32.6094C5.7207 32.6992 6.04492 32.8398 6.31055 33.0312C6.57617 33.2227 6.77734 33.4629 6.91406 33.752C7.05469 34.041 7.125 34.3848 7.125 34.7832C7.125 35.1348 7.04297 35.459 6.87891 35.7559C6.71875 36.0488 6.4707 36.2871 6.13477 36.4707C5.80273 36.6543 5.38086 36.7598 4.86914 36.7871L4.37695 37.1973ZM4.30664 41H1.72266L2.39648 39.7344H4.30664C4.62695 39.7344 4.89062 39.6816 5.09766 39.5762C5.30859 39.4707 5.46484 39.3262 5.56641 39.1426C5.67188 38.9551 5.72461 38.7402 5.72461 38.498C5.72461 38.2324 5.67773 38.002 5.58398 37.8066C5.49414 37.6113 5.34961 37.4609 5.15039 37.3555C4.95508 37.25 4.69727 37.1973 4.37695 37.1973H2.70117L2.71289 36.0605H4.8457L5.21484 36.5C5.70703 36.5039 6.10742 36.6016 6.41602 36.793C6.72852 36.9844 6.95898 37.2305 7.10742 37.5312C7.25586 37.832 7.33008 38.1562 7.33008 38.5039C7.33008 39.0508 7.21094 39.5098 6.97266 39.8809C6.73828 40.252 6.39453 40.5312 5.94141 40.7188C5.49219 40.9062 4.94727 41 4.30664 41ZM8.45203 37.8945V37.7715C8.45203 37.3066 8.51844 36.8789 8.65125 36.4883C8.78406 36.0938 8.97742 35.752 9.23133 35.4629C9.48523 35.1738 9.79578 34.9492 10.163 34.7891C10.5302 34.625 10.9481 34.543 11.4169 34.543C11.8934 34.543 12.3153 34.625 12.6825 34.7891C13.0536 34.9492 13.3661 35.1738 13.62 35.4629C13.8739 35.752 14.0673 36.0938 14.2001 36.4883C14.3329 36.8789 14.3993 37.3066 14.3993 37.7715V37.8945C14.3993 38.3555 14.3329 38.7832 14.2001 39.1777C14.0673 39.5684 13.8739 39.9102 13.62 40.2031C13.3661 40.4922 13.0555 40.7168 12.6884 40.877C12.3212 41.0371 11.9012 41.1172 11.4286 41.1172C10.9598 41.1172 10.5399 41.0371 10.1688 40.877C9.79773 40.7168 9.48523 40.4922 9.23133 40.2031C8.97742 39.9102 8.78406 39.5684 8.65125 39.1777C8.51844 38.7832 8.45203 38.3555 8.45203 37.8945ZM9.99891 37.7715V37.8945C9.99891 38.1719 10.0262 38.4316 10.0809 38.6738C10.1356 38.916 10.2196 39.1289 10.3329 39.3125C10.4462 39.4961 10.5927 39.6406 10.7723 39.7461C10.9559 39.8477 11.1747 39.8984 11.4286 39.8984C11.6786 39.8984 11.8934 39.8477 12.0731 39.7461C12.2528 39.6406 12.3993 39.4961 12.5126 39.3125C12.6298 39.1289 12.7157 38.916 12.7704 38.6738C12.8251 38.4316 12.8524 38.1719 12.8524 37.8945V37.7715C12.8524 37.498 12.8251 37.2422 12.7704 37.0039C12.7157 36.7617 12.6298 36.5488 12.5126 36.3652C12.3993 36.1777 12.2509 36.0312 12.0673 35.9258C11.8876 35.8164 11.6708 35.7617 11.4169 35.7617C11.1669 35.7617 10.952 35.8164 10.7723 35.9258C10.5927 36.0312 10.4462 36.1777 10.3329 36.3652C10.2196 36.5488 10.1356 36.7617 10.0809 37.0039C10.0262 37.2422 9.99891 37.498 9.99891 37.7715ZM15.3689 37.8945V37.7715C15.3689 37.3066 15.4353 36.8789 15.5681 36.4883C15.7009 36.0938 15.8943 35.752 16.1482 35.4629C16.4021 35.1738 16.7127 34.9492 17.0798 34.7891C17.447 34.625 17.865 34.543 18.3337 34.543C18.8103 34.543 19.2322 34.625 19.5994 34.7891C19.9705 34.9492 20.283 35.1738 20.5369 35.4629C20.7908 35.752 20.9841 36.0938 21.117 36.4883C21.2498 36.8789 21.3162 37.3066 21.3162 37.7715V37.8945C21.3162 38.3555 21.2498 38.7832 21.117 39.1777C20.9841 39.5684 20.7908 39.9102 20.5369 40.2031C20.283 40.4922 19.9724 40.7168 19.6052 40.877C19.238 41.0371 18.8181 41.1172 18.3455 41.1172C17.8767 41.1172 17.4568 41.0371 17.0857 40.877C16.7146 40.7168 16.4021 40.4922 16.1482 40.2031C15.8943 39.9102 15.7009 39.5684 15.5681 39.1777C15.4353 38.7832 15.3689 38.3555 15.3689 37.8945ZM16.9158 37.7715V37.8945C16.9158 38.1719 16.9431 38.4316 16.9978 38.6738C17.0525 38.916 17.1365 39.1289 17.2498 39.3125C17.363 39.4961 17.5095 39.6406 17.6892 39.7461C17.8728 39.8477 18.0916 39.8984 18.3455 39.8984C18.5955 39.8984 18.8103 39.8477 18.99 39.7461C19.1697 39.6406 19.3162 39.4961 19.4295 39.3125C19.5466 39.1289 19.6326 38.916 19.6873 38.6738C19.742 38.4316 19.7693 38.1719 19.7693 37.8945V37.7715C19.7693 37.498 19.742 37.2422 19.6873 37.0039C19.6326 36.7617 19.5466 36.5488 19.4295 36.3652C19.3162 36.1777 19.1677 36.0312 18.9841 35.9258C18.8045 35.8164 18.5877 35.7617 18.3337 35.7617C18.0837 35.7617 17.8689 35.8164 17.6892 35.9258C17.5095 36.0312 17.363 36.1777 17.2498 36.3652C17.1365 36.5488 17.0525 36.7617 16.9978 37.0039C16.9431 37.2422 16.9158 37.498 16.9158 37.7715ZM24.108 31.9941V41H22.5612V31.9941H24.108ZM28.0807 34.6602L25.3209 37.7598L23.8268 39.2773L23.3346 38.0762L24.4889 36.623L26.2116 34.6602H28.0807ZM26.4987 41L24.5358 38.0469L25.567 37.0449L28.2916 41H26.4987ZM30.6616 34.6602V41H29.1089V34.6602H30.6616ZM29.0034 33.002C29.0034 32.7715 29.0816 32.5801 29.2378 32.4277C29.398 32.2754 29.6128 32.1992 29.8823 32.1992C30.1519 32.1992 30.3648 32.2754 30.521 32.4277C30.6812 32.5801 30.7612 32.7715 30.7612 33.002C30.7612 33.2285 30.6812 33.418 30.521 33.5703C30.3648 33.7227 30.1519 33.7988 29.8823 33.7988C29.6128 33.7988 29.398 33.7227 29.2378 33.5703C29.0816 33.418 29.0034 33.2285 29.0034 33.002ZM33.7758 36.0137V41H32.2289V34.6602H33.682L33.7758 36.0137ZM33.5297 37.6016H33.0727C33.0766 37.1406 33.1391 36.7227 33.2602 36.3477C33.3813 35.9727 33.5512 35.6504 33.7699 35.3809C33.9926 35.1113 34.2563 34.9043 34.5609 34.7598C34.8656 34.6152 35.2055 34.543 35.5805 34.543C35.8852 34.543 36.1605 34.5859 36.4066 34.6719C36.6527 34.7578 36.8637 34.8945 37.0395 35.082C37.2191 35.2695 37.3559 35.5156 37.4496 35.8203C37.5473 36.1211 37.5961 36.4922 37.5961 36.9336V41H36.0375V36.9219C36.0375 36.6328 35.9945 36.4043 35.9086 36.2363C35.8266 36.0684 35.7055 35.9492 35.5453 35.8789C35.3891 35.8086 35.1957 35.7734 34.9652 35.7734C34.727 35.7734 34.518 35.8223 34.3383 35.9199C34.1625 36.0137 34.0141 36.1445 33.893 36.3125C33.7758 36.4805 33.6859 36.6738 33.6234 36.8926C33.5609 37.1113 33.5297 37.3477 33.5297 37.6016ZM43.1126 34.6602H44.5188V40.8066C44.5188 41.3809 44.3938 41.8672 44.1438 42.2656C43.8977 42.668 43.552 42.9727 43.1067 43.1797C42.6614 43.3906 42.1438 43.4961 41.554 43.4961C41.3001 43.4961 41.0247 43.4609 40.7278 43.3906C40.4348 43.3203 40.1516 43.209 39.8782 43.0566C39.6087 42.9082 39.3841 42.7148 39.2044 42.4766L39.9016 41.5625C40.1126 41.8086 40.3509 41.9941 40.6165 42.1191C40.8821 42.248 41.1692 42.3125 41.4778 42.3125C41.7903 42.3125 42.0559 42.2539 42.2747 42.1367C42.4973 42.0234 42.6673 41.8555 42.7845 41.6328C42.9055 41.4141 42.9661 41.1445 42.9661 40.8242V36.1074L43.1126 34.6602ZM38.8294 37.9062V37.7832C38.8294 37.2988 38.888 36.8594 39.0052 36.4648C39.1223 36.0664 39.2903 35.7246 39.5091 35.4395C39.7317 35.1543 39.9993 34.9336 40.3118 34.7773C40.6282 34.6211 40.9837 34.543 41.3782 34.543C41.7962 34.543 42.1477 34.6191 42.4329 34.7715C42.722 34.9238 42.9602 35.1406 43.1477 35.4219C43.3391 35.7031 43.4876 36.0371 43.593 36.4238C43.7024 36.8066 43.7864 37.2285 43.845 37.6895V38.0234C43.7903 38.4727 43.7024 38.8848 43.5813 39.2598C43.4641 39.6348 43.3079 39.9629 43.1126 40.2441C42.9173 40.5215 42.6751 40.7363 42.386 40.8887C42.097 41.041 41.7571 41.1172 41.3665 41.1172C40.9759 41.1172 40.6243 41.0371 40.3118 40.877C39.9993 40.7168 39.7317 40.4922 39.5091 40.2031C39.2903 39.9141 39.1223 39.5742 39.0052 39.1836C38.888 38.793 38.8294 38.3672 38.8294 37.9062ZM40.3763 37.7832V37.9062C40.3763 38.1797 40.4036 38.4355 40.4583 38.6738C40.513 38.9121 40.597 39.123 40.7102 39.3066C40.8235 39.4863 40.9661 39.627 41.138 39.7285C41.3098 39.8301 41.5149 39.8809 41.7532 39.8809C42.0735 39.8809 42.3352 39.8145 42.5384 39.6816C42.7454 39.5449 42.9016 39.3594 43.0071 39.125C43.1165 38.8867 43.1868 38.6191 43.218 38.3223V37.4023C43.1985 37.168 43.1555 36.9512 43.0891 36.752C43.0266 36.5527 42.9388 36.3809 42.8255 36.2363C42.7122 36.0918 42.5677 35.9785 42.3919 35.8965C42.2161 35.8145 42.0071 35.7734 41.7649 35.7734C41.5305 35.7734 41.3255 35.8262 41.1497 35.9316C40.9739 36.0332 40.8294 36.1758 40.7161 36.3594C40.6028 36.543 40.5169 36.7559 40.4583 36.998C40.4036 37.2402 40.3763 37.502 40.3763 37.7832ZM52.9444 39.6523V32H54.503V41H53.0967L52.9444 39.6523ZM48.8721 37.9062V37.7832C48.8721 37.2988 48.9268 36.8594 49.0362 36.4648C49.1495 36.0664 49.3135 35.7246 49.5284 35.4395C49.7432 35.1543 50.003 34.9336 50.3077 34.7773C50.6162 34.6211 50.9659 34.543 51.3565 34.543C51.7354 34.543 52.0655 34.6191 52.3467 34.7715C52.6319 34.9238 52.8741 35.1406 53.0733 35.4219C53.2764 35.7031 53.4385 36.0371 53.5596 36.4238C53.6807 36.8066 53.7686 37.2285 53.8233 37.6895V38.0234C53.7686 38.4727 53.6807 38.8848 53.5596 39.2598C53.4385 39.6348 53.2764 39.9629 53.0733 40.2441C52.8741 40.5215 52.6319 40.7363 52.3467 40.8887C52.0616 41.041 51.7276 41.1172 51.3448 41.1172C50.958 41.1172 50.6104 41.0371 50.3018 40.877C49.9971 40.7168 49.7373 40.4922 49.5225 40.2031C49.3116 39.9141 49.1495 39.5742 49.0362 39.1836C48.9268 38.793 48.8721 38.3672 48.8721 37.9062ZM50.4248 37.7832V37.9062C50.4248 38.1797 50.4483 38.4355 50.4952 38.6738C50.542 38.9121 50.6182 39.123 50.7237 39.3066C50.8291 39.4863 50.9639 39.627 51.128 39.7285C51.2959 39.8301 51.4991 39.8809 51.7373 39.8809C52.042 39.8809 52.292 39.8145 52.4873 39.6816C52.6866 39.5449 52.8409 39.3594 52.9502 39.125C53.0596 38.8867 53.1299 38.6191 53.1612 38.3223V37.4023C53.1455 37.168 53.1045 36.9512 53.0381 36.752C52.9756 36.5527 52.8858 36.3809 52.7686 36.2363C52.6553 36.0918 52.5147 35.9785 52.3467 35.8965C52.1787 35.8145 51.9795 35.7734 51.7491 35.7734C51.5108 35.7734 51.3077 35.8262 51.1397 35.9316C50.9717 36.0332 50.835 36.1758 50.7295 36.3594C50.6241 36.543 50.5459 36.7559 50.4952 36.998C50.4483 37.2402 50.4248 37.502 50.4248 37.7832ZM58.871 41.1172C58.3905 41.1172 57.9589 41.0391 57.5761 40.8828C57.1933 40.7266 56.8671 40.5098 56.5976 40.2324C56.332 39.9512 56.1269 39.625 55.9823 39.2539C55.8417 38.8789 55.7714 38.4766 55.7714 38.0469V37.8125C55.7714 37.3242 55.8417 36.8809 55.9823 36.4824C56.123 36.0801 56.3222 35.7344 56.58 35.4453C56.8378 35.1562 57.1464 34.9336 57.5058 34.7773C57.8652 34.6211 58.2616 34.543 58.6952 34.543C59.1445 34.543 59.5409 34.6191 59.8847 34.7715C60.2284 34.9199 60.5155 35.1309 60.746 35.4043C60.9765 35.6777 61.1503 36.0059 61.2675 36.3887C61.3847 36.7676 61.4433 37.1875 61.4433 37.6484V38.2988H56.4745V37.2324H59.9198V37.1152C59.912 36.8691 59.8652 36.6445 59.7792 36.4414C59.6933 36.2344 59.5605 36.0703 59.3808 35.9492C59.2011 35.8242 58.9687 35.7617 58.6835 35.7617C58.453 35.7617 58.2519 35.8125 58.08 35.9141C57.912 36.0117 57.7714 36.1523 57.6581 36.3359C57.5488 36.5156 57.4667 36.7305 57.412 36.9805C57.3573 37.2305 57.33 37.5078 57.33 37.8125V38.0469C57.33 38.3125 57.3652 38.5586 57.4355 38.7852C57.5097 39.0117 57.6171 39.209 57.7577 39.377C57.9023 39.541 58.0741 39.6699 58.2734 39.7637C58.4765 39.8535 58.707 39.8984 58.9648 39.8984C59.289 39.8984 59.582 39.8359 59.8437 39.7109C60.1093 39.582 60.3398 39.3926 60.5351 39.1426L61.3144 39.9512C61.1816 40.1465 61.0019 40.334 60.7753 40.5137C60.5527 40.6934 60.2831 40.8398 59.9667 40.9531C59.6503 41.0625 59.2851 41.1172 58.871 41.1172ZM65.6004 34.6602V35.7734H61.9676V34.6602H65.6004ZM62.9402 33.1016H64.493V39.1719C64.493 39.3594 64.5184 39.5039 64.5691 39.6055C64.6199 39.707 64.6961 39.7754 64.7977 39.8105C64.8992 39.8457 65.0203 39.8633 65.1609 39.8633C65.2625 39.8633 65.3563 39.8574 65.4422 39.8457C65.5281 39.834 65.6004 39.8223 65.659 39.8105L65.6648 40.9707C65.5359 41.0137 65.3895 41.0488 65.2254 41.0762C65.0652 41.1035 64.8836 41.1172 64.6805 41.1172C64.3328 41.1172 64.0281 41.0586 63.7664 40.9414C63.5047 40.8203 63.3016 40.627 63.157 40.3613C63.0125 40.0918 62.9402 39.7363 62.9402 39.2949V33.1016ZM70.2438 39.6523V36.7285C70.2438 36.5137 70.2067 36.3281 70.1325 36.1719C70.0583 36.0156 69.945 35.8945 69.7927 35.8086C69.6403 35.7227 69.447 35.6797 69.2126 35.6797C69.0055 35.6797 68.8239 35.7148 68.6677 35.7852C68.5153 35.8555 68.3981 35.9551 68.3161 36.084C68.2341 36.209 68.193 36.3535 68.193 36.5176H66.6403C66.6403 36.2559 66.7028 36.0078 66.8278 35.7734C66.9528 35.5352 67.1305 35.3242 67.361 35.1406C67.5954 34.9531 67.8747 34.8066 68.1989 34.7012C68.527 34.5957 68.8942 34.543 69.3005 34.543C69.7809 34.543 70.2087 34.625 70.5837 34.7891C70.9626 34.9492 71.2595 35.1914 71.4743 35.5156C71.693 35.8398 71.8024 36.248 71.8024 36.7402V39.5059C71.8024 39.8223 71.822 40.0938 71.861 40.3203C71.904 40.543 71.9665 40.7363 72.0485 40.9004V41H70.4723C70.3981 40.8398 70.3415 40.6367 70.3024 40.3906C70.2634 40.1406 70.2438 39.8945 70.2438 39.6523ZM70.4606 37.1387L70.4723 38.0586H69.4938C69.2516 38.0586 69.0387 38.084 68.8552 38.1348C68.6716 38.1816 68.5212 38.252 68.404 38.3457C68.2868 38.4355 68.1989 38.5449 68.1403 38.6738C68.0817 38.7988 68.0524 38.9414 68.0524 39.1016C68.0524 39.2578 68.0876 39.3984 68.1579 39.5234C68.2321 39.6484 68.3376 39.748 68.4743 39.8223C68.6149 39.8926 68.779 39.9277 68.9665 39.9277C69.2399 39.9277 69.4782 39.873 69.6813 39.7637C69.8845 39.6504 70.0427 39.5137 70.1559 39.3535C70.2692 39.1934 70.3298 39.041 70.3376 38.8965L70.7829 39.5645C70.7282 39.7246 70.6462 39.8945 70.5368 40.0742C70.4274 40.2539 70.2868 40.4219 70.1149 40.5781C69.943 40.7344 69.736 40.8633 69.4938 40.9648C69.2516 41.0664 68.9704 41.1172 68.6501 41.1172C68.2399 41.1172 67.8727 41.0352 67.5485 40.8711C67.2243 40.707 66.9684 40.4824 66.7809 40.1973C66.5934 39.9121 66.4997 39.5879 66.4997 39.2246C66.4997 38.8887 66.5622 38.5918 66.6872 38.334C66.8122 38.0762 66.9977 37.8594 67.2438 37.6836C67.4899 37.5039 67.7946 37.3691 68.1579 37.2793C68.5251 37.1855 68.945 37.1387 69.4177 37.1387H70.4606ZM74.9576 34.6602V41H73.4048V34.6602H74.9576ZM73.2994 33.002C73.2994 32.7715 73.3775 32.5801 73.5338 32.4277C73.6939 32.2754 73.9088 32.1992 74.1783 32.1992C74.4478 32.1992 74.6607 32.2754 74.817 32.4277C74.9771 32.5801 75.0572 32.7715 75.0572 33.002C75.0572 33.2285 74.9771 33.418 74.817 33.5703C74.6607 33.7227 74.4478 33.7988 74.1783 33.7988C73.9088 33.7988 73.6939 33.7227 73.5338 33.5703C73.3775 33.418 73.2994 33.2285 73.2994 33.002ZM78.1948 32V41H76.642V32H78.1948ZM83.2777 39.2656C83.2777 39.1328 83.2425 39.0137 83.1722 38.9082C83.1019 38.8027 82.9691 38.707 82.7738 38.6211C82.5823 38.5312 82.3011 38.4473 81.93 38.3691C81.6019 38.2988 81.2991 38.2109 81.0218 38.1055C80.7445 38 80.5062 37.873 80.307 37.7246C80.1077 37.5723 79.9515 37.3945 79.8382 37.1914C79.7288 36.9844 79.6741 36.7461 79.6741 36.4766C79.6741 36.2148 79.7308 35.9688 79.8441 35.7383C79.9573 35.5039 80.1214 35.2988 80.3363 35.123C80.5511 34.9434 80.8128 34.8027 81.1214 34.7012C81.43 34.5957 81.7777 34.543 82.1644 34.543C82.7034 34.543 83.1663 34.6309 83.553 34.8066C83.9437 34.9824 84.2425 35.2246 84.4495 35.5332C84.6566 35.8379 84.7601 36.1816 84.7601 36.5645H83.2132C83.2132 36.3965 83.1741 36.2441 83.096 36.1074C83.0218 35.9707 82.9066 35.8613 82.7503 35.7793C82.5941 35.6934 82.3968 35.6504 82.1585 35.6504C81.9437 35.6504 81.762 35.6855 81.6136 35.7559C81.4691 35.8262 81.3597 35.918 81.2855 36.0312C81.2113 36.1445 81.1741 36.2695 81.1741 36.4062C81.1741 36.5078 81.1937 36.5996 81.2327 36.6816C81.2757 36.7598 81.3441 36.832 81.4378 36.8984C81.5316 36.9648 81.6585 37.0254 81.8187 37.0801C81.9827 37.1348 82.1839 37.1875 82.4222 37.2383C82.8948 37.332 83.307 37.457 83.6585 37.6133C84.014 37.7656 84.2913 37.9688 84.4905 38.2227C84.6898 38.4766 84.7894 38.8008 84.7894 39.1953C84.7894 39.4766 84.7288 39.7344 84.6077 39.9688C84.4866 40.1992 84.3109 40.4004 84.0804 40.5723C83.8499 40.7441 83.5745 40.8789 83.2542 40.9766C82.9339 41.0703 82.5726 41.1172 82.1702 41.1172C81.5882 41.1172 81.096 41.0137 80.6937 40.8066C80.2913 40.5957 79.9866 40.3301 79.7796 40.0098C79.5726 39.6855 79.4691 39.3496 79.4691 39.002H80.9515C80.9632 39.248 81.0296 39.4453 81.1507 39.5938C81.2718 39.7422 81.4241 39.8496 81.6077 39.916C81.7952 39.9785 81.9925 40.0098 82.1995 40.0098C82.4339 40.0098 82.6312 39.9785 82.7913 39.916C82.9515 39.8496 83.0726 39.7617 83.1546 39.6523C83.2366 39.5391 83.2777 39.4102 83.2777 39.2656Z" fill="#7F7F7F"/>
<circle cx="46.293" cy="10" r="10" fill="#21292B"/>
<path d="M44.929 13.9984C44.6563 13.9984 44.4745 13.8985 44.2927 13.6985L41.5657 10.6995C41.2021 10.2996 41.2021 9.69978 41.5657 9.29991C41.9293 8.90003 42.4747 8.90003 42.8383 9.29991L45.5653 12.299C45.929 12.6988 45.929 13.2986 45.5653 13.6985C45.3835 13.8985 45.2017 13.9984 44.929 13.9984Z" fill="white"/>
<path d="M44.9285 13.9975C44.6558 13.9975 44.474 13.8975 44.2922 13.6976C43.9286 13.2977 43.9286 12.6979 44.2922 12.298L49.7463 6.29991C50.1099 5.90003 50.6554 5.90003 51.019 6.29991C51.3826 6.69978 51.3826 7.29959 51.019 7.69946L45.5649 13.6976C45.3831 13.8975 45.2013 13.9975 44.9285 13.9975Z" fill="white"/>
<path d="M150.154 42V33.2727H153.426C154.097 33.2727 154.659 33.3977 155.114 33.6477C155.571 33.8977 155.917 34.2415 156.15 34.679C156.385 35.1136 156.503 35.608 156.503 36.1619C156.503 36.7216 156.385 37.2187 156.15 37.6534C155.914 38.0881 155.566 38.4304 155.105 38.6804C154.645 38.9276 154.078 39.0511 153.405 39.0511H151.236V37.7514H153.192C153.584 37.7514 153.905 37.6832 154.155 37.5469C154.405 37.4105 154.59 37.223 154.709 36.9844C154.831 36.7457 154.892 36.4716 154.892 36.1619C154.892 35.8523 154.831 35.5795 154.709 35.3438C154.59 35.108 154.404 34.9247 154.151 34.794C153.901 34.6605 153.578 34.5938 153.184 34.5938H151.735V42H150.154ZM159.695 42.1321C159.28 42.1321 158.906 42.0582 158.574 41.9105C158.244 41.7599 157.983 41.5384 157.79 41.2457C157.599 40.9531 157.504 40.5923 157.504 40.1634C157.504 39.794 157.572 39.4886 157.709 39.2472C157.845 39.0057 158.031 38.8125 158.267 38.6676C158.503 38.5227 158.768 38.4134 159.064 38.3395C159.362 38.2628 159.67 38.2074 159.989 38.1733C160.372 38.1335 160.683 38.098 160.922 38.0668C161.16 38.0327 161.334 37.9815 161.442 37.9134C161.553 37.8423 161.608 37.733 161.608 37.5852V37.5597C161.608 37.2386 161.513 36.9901 161.322 36.8139C161.132 36.6378 160.858 36.5497 160.5 36.5497C160.122 36.5497 159.822 36.6321 159.601 36.7969C159.382 36.9616 159.234 37.1562 159.158 37.3807L157.717 37.1761C157.831 36.7784 158.018 36.446 158.28 36.179C158.541 35.9091 158.861 35.7074 159.239 35.5739C159.616 35.4375 160.034 35.3693 160.491 35.3693C160.807 35.3693 161.121 35.4062 161.433 35.4801C161.746 35.554 162.031 35.6761 162.29 35.8466C162.548 36.0142 162.756 36.2429 162.912 36.5327C163.071 36.8224 163.151 37.1847 163.151 37.6193V42H161.668V41.1009H161.616C161.523 41.2827 161.391 41.4531 161.22 41.6122C161.053 41.7685 160.841 41.8949 160.585 41.9915C160.332 42.0852 160.035 42.1321 159.695 42.1321ZM160.095 40.9986C160.405 40.9986 160.673 40.9375 160.901 40.8153C161.128 40.6903 161.303 40.5256 161.425 40.321C161.55 40.1165 161.612 39.8935 161.612 39.652V38.8807C161.564 38.9205 161.482 38.9574 161.365 38.9915C161.251 39.0256 161.124 39.0554 160.982 39.081C160.839 39.1065 160.699 39.1293 160.56 39.1491C160.42 39.169 160.3 39.1861 160.197 39.2003C159.967 39.2315 159.761 39.2827 159.58 39.3537C159.398 39.4247 159.254 39.5241 159.149 39.652C159.044 39.777 158.991 39.9389 158.991 40.1378C158.991 40.4219 159.095 40.6364 159.303 40.7812C159.51 40.9261 159.774 40.9986 160.095 40.9986ZM165.546 44.4545C165.336 44.4545 165.141 44.4375 164.962 44.4034C164.786 44.3722 164.646 44.3352 164.54 44.2926L164.898 43.0909C165.123 43.1563 165.323 43.1875 165.499 43.1847C165.675 43.1818 165.83 43.1264 165.964 43.0185C166.1 42.9134 166.215 42.7372 166.309 42.4901L166.441 42.1364L164.067 35.4545H165.704L167.212 40.3977H167.28L168.793 35.4545H170.434L167.813 42.7926C167.691 43.1392 167.529 43.4361 167.327 43.6832C167.126 43.9332 166.878 44.1236 166.586 44.2543C166.296 44.3878 165.95 44.4545 165.546 44.4545ZM171.621 42V35.4545H173.096V36.5668H173.173C173.309 36.1918 173.535 35.8991 173.85 35.6889C174.165 35.4759 174.542 35.3693 174.979 35.3693C175.423 35.3693 175.796 35.4773 176.1 35.6932C176.407 35.9062 176.623 36.1974 176.748 36.5668H176.816C176.961 36.2031 177.205 35.9134 177.549 35.6974C177.896 35.4787 178.306 35.3693 178.78 35.3693C179.383 35.3693 179.874 35.5597 180.255 35.9403C180.636 36.321 180.826 36.8764 180.826 37.6065V42H179.279V37.8452C179.279 37.4389 179.171 37.142 178.955 36.9545C178.739 36.7642 178.475 36.669 178.163 36.669C177.79 36.669 177.499 36.7855 177.289 37.0185C177.082 37.2486 176.978 37.5483 176.978 37.9176V42H175.465V37.7812C175.465 37.4432 175.363 37.1733 175.158 36.9716C174.957 36.7699 174.692 36.669 174.366 36.669C174.144 36.669 173.942 36.7259 173.761 36.8395C173.579 36.9503 173.434 37.108 173.326 37.3125C173.218 37.5142 173.164 37.75 173.164 38.0199V42H171.621ZM185.409 42.1278C184.752 42.1278 184.186 41.9915 183.708 41.7188C183.234 41.4432 182.869 41.054 182.613 40.5511C182.357 40.0455 182.23 39.4503 182.23 38.7656C182.23 38.0923 182.357 37.5014 182.613 36.9929C182.872 36.4815 183.232 36.0838 183.696 35.7997C184.159 35.5128 184.703 35.3693 185.328 35.3693C185.731 35.3693 186.112 35.4347 186.47 35.5653C186.83 35.6932 187.149 35.892 187.424 36.1619C187.703 36.4318 187.921 36.7756 188.08 37.1932C188.24 37.608 188.319 38.1023 188.319 38.6761V39.1491H182.954V38.1094H186.84C186.838 37.8139 186.774 37.5511 186.649 37.321C186.524 37.0881 186.349 36.9048 186.125 36.7713C185.903 36.6378 185.644 36.571 185.349 36.571C185.034 36.571 184.757 36.6477 184.518 36.8011C184.279 36.9517 184.093 37.1506 183.96 37.3977C183.829 37.642 183.762 37.9105 183.759 38.2031V39.1108C183.759 39.4915 183.829 39.8182 183.968 40.0909C184.107 40.3608 184.302 40.5682 184.552 40.7131C184.802 40.8551 185.095 40.9261 185.43 40.9261C185.654 40.9261 185.857 40.8949 186.039 40.8324C186.221 40.767 186.379 40.6719 186.512 40.5469C186.646 40.4219 186.747 40.267 186.815 40.0824L188.255 40.2443C188.164 40.625 187.991 40.9574 187.735 41.2415C187.482 41.5227 187.159 41.7415 186.764 41.8977C186.369 42.0511 185.917 42.1278 185.409 42.1278ZM191.287 38.1648V42H189.744V35.4545H191.219V36.5668H191.295C191.446 36.2003 191.686 35.9091 192.015 35.6932C192.348 35.4773 192.758 35.3693 193.247 35.3693C193.699 35.3693 194.092 35.4659 194.427 35.6591C194.765 35.8523 195.027 36.1321 195.212 36.4986C195.399 36.8651 195.491 37.3097 195.488 37.8324V42H193.946V38.071C193.946 37.6335 193.832 37.2912 193.605 37.044C193.381 36.7969 193.069 36.6733 192.672 36.6733C192.402 36.6733 192.162 36.733 191.952 36.8523C191.744 36.9687 191.581 37.1378 191.462 37.3594C191.345 37.581 191.287 37.8494 191.287 38.1648ZM200.445 35.4545V36.6477H196.682V35.4545H200.445ZM197.611 33.8864H199.154V40.0312C199.154 40.2386 199.185 40.3977 199.248 40.5085C199.313 40.6165 199.398 40.6903 199.503 40.7301C199.608 40.7699 199.725 40.7898 199.853 40.7898C199.949 40.7898 200.037 40.7827 200.117 40.7685C200.199 40.7543 200.262 40.7415 200.305 40.7301L200.564 41.9361C200.482 41.9645 200.364 41.9957 200.211 42.0298C200.06 42.0639 199.876 42.0838 199.657 42.0895C199.27 42.1009 198.922 42.0426 198.613 41.9148C198.303 41.7841 198.057 41.5824 197.876 41.3097C197.697 41.0369 197.608 40.696 197.611 40.2869V33.8864ZM204.952 42V35.4545H206.426V36.5668H206.503C206.639 36.1918 206.865 35.8991 207.181 35.6889C207.496 35.4759 207.872 35.3693 208.31 35.3693C208.753 35.3693 209.127 35.4773 209.431 35.6932C209.737 35.9062 209.953 36.1974 210.078 36.5668H210.146C210.291 36.2031 210.536 35.9134 210.879 35.6974C211.226 35.4787 211.636 35.3693 212.111 35.3693C212.713 35.3693 213.205 35.5597 213.585 35.9403C213.966 36.321 214.156 36.8764 214.156 37.6065V42H212.61V37.8452C212.61 37.4389 212.502 37.142 212.286 36.9545C212.07 36.7642 211.806 36.669 211.493 36.669C211.121 36.669 210.83 36.7855 210.619 37.0185C210.412 37.2486 210.308 37.5483 210.308 37.9176V42H208.796V37.7812C208.796 37.4432 208.693 37.1733 208.489 36.9716C208.287 36.7699 208.023 36.669 207.696 36.669C207.475 36.669 207.273 36.7259 207.091 36.8395C206.909 36.9503 206.764 37.108 206.656 37.3125C206.548 37.5142 206.494 37.75 206.494 38.0199V42H204.952ZM218.739 42.1278C218.083 42.1278 217.516 41.9915 217.039 41.7188C216.564 41.4432 216.199 41.054 215.944 40.5511C215.688 40.0455 215.56 39.4503 215.56 38.7656C215.56 38.0923 215.688 37.5014 215.944 36.9929C216.202 36.4815 216.563 36.0838 217.026 35.7997C217.489 35.5128 218.033 35.3693 218.658 35.3693C219.062 35.3693 219.442 35.4347 219.8 35.5653C220.161 35.6932 220.479 35.892 220.755 36.1619C221.033 36.4318 221.252 36.7756 221.411 37.1932C221.57 37.608 221.65 38.1023 221.65 38.6761V39.1491H216.285V38.1094H220.171C220.168 37.8139 220.104 37.5511 219.979 37.321C219.854 37.0881 219.679 36.9048 219.455 36.7713C219.233 36.6378 218.975 36.571 218.679 36.571C218.364 36.571 218.087 36.6477 217.848 36.8011C217.61 36.9517 217.424 37.1506 217.29 37.3977C217.16 37.642 217.093 37.9105 217.09 38.2031V39.1108C217.09 39.4915 217.16 39.8182 217.299 40.0909C217.438 40.3608 217.633 40.5682 217.883 40.7131C218.133 40.8551 218.425 40.9261 218.76 40.9261C218.985 40.9261 219.188 40.8949 219.37 40.8324C219.552 40.767 219.709 40.6719 219.843 40.5469C219.976 40.4219 220.077 40.267 220.145 40.0824L221.586 40.2443C221.495 40.625 221.321 40.9574 221.066 41.2415C220.813 41.5227 220.489 41.7415 220.094 41.8977C219.699 42.0511 219.248 42.1278 218.739 42.1278ZM226.343 35.4545V36.6477H222.58V35.4545H226.343ZM223.509 33.8864H225.052V40.0312C225.052 40.2386 225.083 40.3977 225.146 40.5085C225.211 40.6165 225.296 40.6903 225.401 40.7301C225.506 40.7699 225.623 40.7898 225.751 40.7898C225.847 40.7898 225.935 40.7827 226.015 40.7685C226.097 40.7543 226.16 40.7415 226.202 40.7301L226.462 41.9361C226.38 41.9645 226.262 41.9957 226.109 42.0298C225.958 42.0639 225.774 42.0838 225.555 42.0895C225.168 42.1009 224.82 42.0426 224.511 41.9148C224.201 41.7841 223.955 41.5824 223.774 41.3097C223.595 41.0369 223.506 40.696 223.509 40.2869V33.8864ZM229.436 38.1648V42H227.894V33.2727H229.402V36.5668H229.479C229.632 36.1974 229.87 35.9062 230.191 35.6932C230.515 35.4773 230.927 35.3693 231.427 35.3693C231.881 35.3693 232.277 35.4645 232.615 35.6548C232.954 35.8452 233.215 36.1236 233.4 36.4901C233.587 36.8565 233.681 37.304 233.681 37.8324V42H232.138V38.071C232.138 37.6307 232.025 37.2884 231.797 37.044C231.573 36.7969 231.257 36.6733 230.851 36.6733C230.579 36.6733 230.334 36.733 230.118 36.8523C229.905 36.9687 229.738 37.1378 229.615 37.3594C229.496 37.581 229.436 37.8494 229.436 38.1648ZM238.228 42.1278C237.589 42.1278 237.035 41.9872 236.566 41.706C236.098 41.4247 235.734 41.0312 235.476 40.5256C235.22 40.0199 235.092 39.429 235.092 38.7528C235.092 38.0767 235.22 37.4844 235.476 36.9759C235.734 36.4673 236.098 36.0724 236.566 35.7912C237.035 35.5099 237.589 35.3693 238.228 35.3693C238.868 35.3693 239.422 35.5099 239.89 35.7912C240.359 36.0724 240.721 36.4673 240.977 36.9759C241.235 37.4844 241.365 38.0767 241.365 38.7528C241.365 39.429 241.235 40.0199 240.977 40.5256C240.721 41.0312 240.359 41.4247 239.89 41.706C239.422 41.9872 238.868 42.1278 238.228 42.1278ZM238.237 40.892C238.583 40.892 238.873 40.7969 239.106 40.6065C239.339 40.4134 239.512 40.1548 239.626 39.831C239.743 39.5071 239.801 39.1463 239.801 38.7486C239.801 38.348 239.743 37.9858 239.626 37.6619C239.512 37.3352 239.339 37.0753 239.106 36.8821C238.873 36.6889 238.583 36.5923 238.237 36.5923C237.882 36.5923 237.586 36.6889 237.351 36.8821C237.118 37.0753 236.943 37.3352 236.826 37.6619C236.713 37.9858 236.656 38.348 236.656 38.7486C236.656 39.1463 236.713 39.5071 236.826 39.831C236.943 40.1548 237.118 40.4134 237.351 40.6065C237.586 40.7969 237.882 40.892 238.237 40.892ZM245.223 42.1151C244.709 42.1151 244.249 41.983 243.842 41.7188C243.436 41.4545 243.115 41.071 242.879 40.5682C242.643 40.0653 242.526 39.4545 242.526 38.7358C242.526 38.0085 242.645 37.3949 242.884 36.8949C243.125 36.392 243.45 36.0128 243.859 35.7571C244.268 35.4986 244.724 35.3693 245.227 35.3693C245.611 35.3693 245.926 35.4347 246.173 35.5653C246.42 35.6932 246.616 35.848 246.761 36.0298C246.906 36.2088 247.018 36.3778 247.098 36.5369H247.162V33.2727H248.709V42H247.192V40.9688H247.098C247.018 41.1278 246.903 41.2969 246.753 41.4759C246.602 41.652 246.403 41.8026 246.156 41.9276C245.909 42.0526 245.598 42.1151 245.223 42.1151ZM245.653 40.8494C245.98 40.8494 246.259 40.7614 246.489 40.5852C246.719 40.4062 246.893 40.1577 247.013 39.8395C247.132 39.5213 247.192 39.1506 247.192 38.7273C247.192 38.304 247.132 37.9361 247.013 37.6236C246.896 37.3111 246.723 37.0682 246.493 36.8949C246.266 36.7216 245.986 36.6349 245.653 36.6349C245.31 36.6349 245.023 36.7244 244.793 36.9034C244.562 37.0824 244.389 37.3295 244.273 37.6449C244.156 37.9602 244.098 38.321 244.098 38.7273C244.098 39.1364 244.156 39.5014 244.273 39.8224C244.392 40.1406 244.567 40.392 244.797 40.5767C245.03 40.7585 245.315 40.8494 245.653 40.8494ZM255.646 37.1847L254.24 37.3381C254.2 37.196 254.13 37.0625 254.031 36.9375C253.934 36.8125 253.804 36.7116 253.639 36.6349C253.474 36.5582 253.272 36.5199 253.034 36.5199C252.713 36.5199 252.443 36.5895 252.224 36.7287C252.008 36.8679 251.902 37.0483 251.904 37.2699C251.902 37.4602 251.971 37.6151 252.113 37.7344C252.258 37.8537 252.497 37.9517 252.829 38.0284L253.946 38.267C254.565 38.4006 255.025 38.6122 255.326 38.902C255.63 39.1918 255.784 39.571 255.787 40.0398C255.784 40.4517 255.663 40.8153 255.424 41.1307C255.189 41.4432 254.86 41.6875 254.44 41.8636C254.019 42.0398 253.537 42.1278 252.991 42.1278C252.19 42.1278 251.545 41.9602 251.056 41.625C250.568 41.2869 250.277 40.8168 250.183 40.2145L251.687 40.0696C251.755 40.3651 251.9 40.5881 252.122 40.7386C252.343 40.8892 252.632 40.9645 252.987 40.9645C253.353 40.9645 253.647 40.8892 253.869 40.7386C254.093 40.5881 254.206 40.402 254.206 40.1804C254.206 39.9929 254.133 39.8381 253.988 39.7159C253.846 39.5937 253.625 39.5 253.323 39.4347L252.207 39.2003C251.579 39.0696 251.115 38.8494 250.814 38.5398C250.512 38.2273 250.363 37.8324 250.366 37.3551C250.363 36.9517 250.473 36.6023 250.694 36.3068C250.919 36.0085 251.23 35.7784 251.627 35.6165C252.028 35.4517 252.49 35.3693 253.012 35.3693C253.779 35.3693 254.383 35.5327 254.823 35.8594C255.267 36.1861 255.541 36.6278 255.646 37.1847Z" fill="#7F7F7F"/>
<circle cx="203.293" cy="10" r="10" fill="#21292B"/>
<path d="M201.929 13.9984C201.656 13.9984 201.475 13.8985 201.293 13.6985L198.566 10.6995C198.202 10.2996 198.202 9.69978 198.566 9.29991C198.929 8.90003 199.475 8.90003 199.838 9.29991L202.565 12.299C202.929 12.6988 202.929 13.2986 202.565 13.6985C202.384 13.8985 202.202 13.9984 201.929 13.9984Z" fill="white"/>
<path d="M201.929 13.9975C201.656 13.9975 201.474 13.8975 201.292 13.6976C200.929 13.2977 200.929 12.6979 201.292 12.298L206.746 6.29991C207.11 5.90003 207.655 5.90003 208.019 6.29991C208.383 6.69978 208.383 7.29959 208.019 7.69946L202.565 13.6976C202.383 13.8975 202.201 13.9975 201.929 13.9975Z" fill="white"/>
<path d="M317.592 39.8984C317.811 39.8984 318.006 39.8555 318.178 39.7695C318.35 39.6836 318.486 39.5625 318.588 39.4062C318.693 39.25 318.75 39.0684 318.758 38.8613H320.217C320.209 39.291 320.088 39.6758 319.854 40.0156C319.619 40.3555 319.307 40.625 318.916 40.8242C318.529 41.0195 318.096 41.1172 317.615 41.1172C317.127 41.1172 316.701 41.0352 316.338 40.8711C315.975 40.707 315.672 40.4785 315.43 40.1855C315.191 39.8926 315.012 39.5527 314.891 39.166C314.773 38.7793 314.715 38.3652 314.715 37.9238V37.7363C314.715 37.2949 314.773 36.8809 314.891 36.4941C315.012 36.1074 315.191 35.7676 315.43 35.4746C315.672 35.1816 315.975 34.9531 316.338 34.7891C316.701 34.625 317.125 34.543 317.609 34.543C318.121 34.543 318.57 34.6426 318.957 34.8418C319.348 35.041 319.652 35.3223 319.871 35.6855C320.094 36.0488 320.209 36.4766 320.217 36.9688H318.758C318.75 36.7422 318.699 36.5391 318.605 36.3594C318.512 36.1797 318.379 36.0352 318.207 35.9258C318.035 35.8164 317.826 35.7617 317.58 35.7617C317.318 35.7617 317.1 35.8164 316.924 35.9258C316.752 36.0352 316.617 36.1855 316.52 36.377C316.426 36.5645 316.359 36.7754 316.32 37.0098C316.285 37.2402 316.268 37.4824 316.268 37.7363V37.9238C316.268 38.1816 316.285 38.4277 316.32 38.6621C316.359 38.8965 316.426 39.1074 316.52 39.2949C316.617 39.4785 316.752 39.625 316.924 39.7344C317.1 39.8438 317.322 39.8984 317.592 39.8984ZM321.093 37.8945V37.7715C321.093 37.3066 321.159 36.8789 321.292 36.4883C321.425 36.0938 321.618 35.752 321.872 35.4629C322.126 35.1738 322.436 34.9492 322.804 34.7891C323.171 34.625 323.589 34.543 324.057 34.543C324.534 34.543 324.956 34.625 325.323 34.7891C325.694 34.9492 326.007 35.1738 326.261 35.4629C326.515 35.752 326.708 36.0938 326.841 36.4883C326.974 36.8789 327.04 37.3066 327.04 37.7715V37.8945C327.04 38.3555 326.974 38.7832 326.841 39.1777C326.708 39.5684 326.515 39.9102 326.261 40.2031C326.007 40.4922 325.696 40.7168 325.329 40.877C324.962 41.0371 324.542 41.1172 324.069 41.1172C323.6 41.1172 323.181 41.0371 322.809 40.877C322.438 40.7168 322.126 40.4922 321.872 40.2031C321.618 39.9102 321.425 39.5684 321.292 39.1777C321.159 38.7832 321.093 38.3555 321.093 37.8945ZM322.64 37.7715V37.8945C322.64 38.1719 322.667 38.4316 322.722 38.6738C322.776 38.916 322.86 39.1289 322.974 39.3125C323.087 39.4961 323.233 39.6406 323.413 39.7461C323.597 39.8477 323.815 39.8984 324.069 39.8984C324.319 39.8984 324.534 39.8477 324.714 39.7461C324.893 39.6406 325.04 39.4961 325.153 39.3125C325.27 39.1289 325.356 38.916 325.411 38.6738C325.466 38.4316 325.493 38.1719 325.493 37.8945V37.7715C325.493 37.498 325.466 37.2422 325.411 37.0039C325.356 36.7617 325.27 36.5488 325.153 36.3652C325.04 36.1777 324.891 36.0312 324.708 35.9258C324.528 35.8164 324.311 35.7617 324.057 35.7617C323.807 35.7617 323.593 35.8164 323.413 35.9258C323.233 36.0312 323.087 36.1777 322.974 36.3652C322.86 36.5488 322.776 36.7617 322.722 37.0039C322.667 37.2422 322.64 37.498 322.64 37.7715ZM329.802 36.0137V41H328.256V34.6602H329.709L329.802 36.0137ZM329.556 37.6016H329.099C329.103 37.1406 329.166 36.7227 329.287 36.3477C329.408 35.9727 329.578 35.6504 329.797 35.3809C330.019 35.1113 330.283 34.9043 330.588 34.7598C330.892 34.6152 331.232 34.543 331.607 34.543C331.912 34.543 332.187 34.5859 332.433 34.6719C332.679 34.7578 332.89 34.8945 333.066 35.082C333.246 35.2695 333.383 35.5156 333.476 35.8203C333.574 36.1211 333.623 36.4922 333.623 36.9336V41H332.064V36.9219C332.064 36.6328 332.021 36.4043 331.935 36.2363C331.853 36.0684 331.732 35.9492 331.572 35.8789C331.416 35.8086 331.222 35.7734 330.992 35.7734C330.754 35.7734 330.545 35.8223 330.365 35.9199C330.189 36.0137 330.041 36.1445 329.92 36.3125C329.802 36.4805 329.713 36.6738 329.65 36.8926C329.588 37.1113 329.556 37.3477 329.556 37.6016ZM337.065 41H335.506V34.3086C335.506 33.7852 335.612 33.3438 335.823 32.9844C336.038 32.6211 336.344 32.3457 336.743 32.1582C337.145 31.9707 337.624 31.877 338.178 31.877C338.503 31.877 338.815 31.9102 339.116 31.9766C339.421 32.0391 339.733 32.1211 340.053 32.2227L339.825 33.4766C339.618 33.4102 339.391 33.3477 339.145 33.2891C338.903 33.2305 338.616 33.2012 338.284 33.2012C337.874 33.2012 337.567 33.2949 337.364 33.4824C337.165 33.6699 337.065 33.9453 337.065 34.3086V41ZM338.331 34.6602V35.7734H334.551V34.6602H338.331ZM340.78 34.6602V41H339.227V34.6602H340.78ZM343.947 35.9551V41H342.4V34.6602H343.865L343.947 35.9551ZM345.875 34.6191L345.851 36.0605C345.765 36.0449 345.667 36.0332 345.558 36.0254C345.453 36.0176 345.353 36.0137 345.259 36.0137C345.021 36.0137 344.812 36.0469 344.632 36.1133C344.453 36.1758 344.302 36.2676 344.181 36.3887C344.064 36.5098 343.974 36.6582 343.912 36.834C343.849 37.0059 343.814 37.2012 343.806 37.4199L343.472 37.3789C343.472 36.9766 343.513 36.6035 343.595 36.2598C343.677 35.916 343.796 35.6152 343.953 35.3574C344.109 35.0996 344.304 34.9004 344.539 34.7598C344.777 34.6152 345.05 34.543 345.359 34.543C345.445 34.543 345.537 34.5508 345.634 34.5664C345.736 34.5781 345.816 34.5957 345.875 34.6191ZM348.385 35.9609V41H346.838V34.6602H348.297L348.385 35.9609ZM348.157 37.6016H347.682C347.682 37.1602 347.735 36.7539 347.84 36.3828C347.95 36.0117 348.11 35.6895 348.321 35.416C348.532 35.1387 348.791 34.9238 349.1 34.7715C349.413 34.6191 349.774 34.543 350.184 34.543C350.469 34.543 350.731 34.5859 350.969 34.6719C351.207 34.7539 351.413 34.8848 351.584 35.0645C351.76 35.2402 351.895 35.4707 351.989 35.7559C352.082 36.0371 352.129 36.375 352.129 36.7695V41H350.582V36.9277C350.582 36.6309 350.539 36.3984 350.454 36.2305C350.371 36.0625 350.252 35.9453 350.096 35.8789C349.94 35.8086 349.752 35.7734 349.534 35.7734C349.291 35.7734 349.082 35.8223 348.907 35.9199C348.735 36.0137 348.592 36.1445 348.479 36.3125C348.37 36.4805 348.288 36.6738 348.233 36.8926C348.182 37.1113 348.157 37.3477 348.157 37.6016ZM352.012 37.3145L351.373 37.4316C351.377 37.0332 351.432 36.6602 351.538 36.3125C351.643 35.9609 351.797 35.6543 352 35.3926C352.207 35.127 352.463 34.9199 352.768 34.7715C353.077 34.6191 353.432 34.543 353.834 34.543C354.147 34.543 354.428 34.5879 354.678 34.6777C354.932 34.7637 355.149 34.9023 355.329 35.0938C355.508 35.2812 355.645 35.5254 355.739 35.8262C355.836 36.127 355.885 36.4941 355.885 36.9277V41H354.327V36.9219C354.327 36.6133 354.284 36.377 354.198 36.2129C354.116 36.0488 353.996 35.9355 353.84 35.873C353.684 35.8066 353.5 35.7734 353.289 35.7734C353.075 35.7734 352.887 35.8145 352.727 35.8965C352.571 35.9746 352.438 36.084 352.329 36.2246C352.223 36.3652 352.143 36.5293 352.088 36.7168C352.038 36.9004 352.012 37.0996 352.012 37.3145ZM360.886 39.6523V36.7285C360.886 36.5137 360.849 36.3281 360.775 36.1719C360.7 36.0156 360.587 35.8945 360.435 35.8086C360.283 35.7227 360.089 35.6797 359.855 35.6797C359.648 35.6797 359.466 35.7148 359.31 35.7852C359.158 35.8555 359.04 35.9551 358.958 36.084C358.876 36.209 358.835 36.3535 358.835 36.5176H357.283C357.283 36.2559 357.345 36.0078 357.47 35.7734C357.595 35.5352 357.773 35.3242 358.003 35.1406C358.238 34.9531 358.517 34.8066 358.841 34.7012C359.169 34.5957 359.536 34.543 359.943 34.543C360.423 34.543 360.851 34.625 361.226 34.7891C361.605 34.9492 361.902 35.1914 362.116 35.5156C362.335 35.8398 362.445 36.248 362.445 36.7402V39.5059C362.445 39.8223 362.464 40.0938 362.503 40.3203C362.546 40.543 362.609 40.7363 362.691 40.9004V41H361.115C361.04 40.8398 360.984 40.6367 360.945 40.3906C360.906 40.1406 360.886 39.8945 360.886 39.6523ZM361.103 37.1387L361.115 38.0586H360.136C359.894 38.0586 359.681 38.084 359.497 38.1348C359.314 38.1816 359.163 38.252 359.046 38.3457C358.929 38.4355 358.841 38.5449 358.783 38.6738C358.724 38.7988 358.695 38.9414 358.695 39.1016C358.695 39.2578 358.73 39.3984 358.8 39.5234C358.874 39.6484 358.98 39.748 359.116 39.8223C359.257 39.8926 359.421 39.9277 359.609 39.9277C359.882 39.9277 360.12 39.873 360.324 39.7637C360.527 39.6504 360.685 39.5137 360.798 39.3535C360.911 39.1934 360.972 39.041 360.98 38.8965L361.425 39.5645C361.37 39.7246 361.288 39.8945 361.179 40.0742C361.07 40.2539 360.929 40.4219 360.757 40.5781C360.585 40.7344 360.378 40.8633 360.136 40.9648C359.894 41.0664 359.613 41.1172 359.292 41.1172C358.882 41.1172 358.515 41.0352 358.191 40.8711C357.866 40.707 357.611 40.4824 357.423 40.1973C357.236 39.9121 357.142 39.5879 357.142 39.2246C357.142 38.8887 357.204 38.5918 357.329 38.334C357.454 38.0762 357.64 37.8594 357.886 37.6836C358.132 37.5039 358.437 37.3691 358.8 37.2793C359.167 37.1855 359.587 37.1387 360.06 37.1387H361.103ZM366.959 34.6602V35.7734H363.326V34.6602H366.959ZM364.299 33.1016H365.852V39.1719C365.852 39.3594 365.877 39.5039 365.928 39.6055C365.979 39.707 366.055 39.7754 366.156 39.8105C366.258 39.8457 366.379 39.8633 366.52 39.8633C366.621 39.8633 366.715 39.8574 366.801 39.8457C366.887 39.834 366.959 39.8223 367.018 39.8105L367.024 40.9707C366.895 41.0137 366.748 41.0488 366.584 41.0762C366.424 41.1035 366.242 41.1172 366.039 41.1172C365.692 41.1172 365.387 41.0586 365.125 40.9414C364.863 40.8203 364.66 40.627 364.516 40.3613C364.371 40.0918 364.299 39.7363 364.299 39.2949V33.1016ZM369.751 34.6602V41H368.198V34.6602H369.751ZM368.093 33.002C368.093 32.7715 368.171 32.5801 368.327 32.4277C368.487 32.2754 368.702 32.1992 368.972 32.1992C369.241 32.1992 369.454 32.2754 369.61 32.4277C369.771 32.5801 369.851 32.7715 369.851 33.002C369.851 33.2285 369.771 33.418 369.61 33.5703C369.454 33.7227 369.241 33.7988 368.972 33.7988C368.702 33.7988 368.487 33.7227 368.327 33.5703C368.171 33.418 368.093 33.2285 368.093 33.002ZM371.072 37.8945V37.7715C371.072 37.3066 371.139 36.8789 371.271 36.4883C371.404 36.0938 371.598 35.752 371.851 35.4629C372.105 35.1738 372.416 34.9492 372.783 34.7891C373.15 34.625 373.568 34.543 374.037 34.543C374.514 34.543 374.935 34.625 375.303 34.7891C375.674 34.9492 375.986 35.1738 376.24 35.4629C376.494 35.752 376.687 36.0938 376.82 36.4883C376.953 36.8789 377.019 37.3066 377.019 37.7715V37.8945C377.019 38.3555 376.953 38.7832 376.82 39.1777C376.687 39.5684 376.494 39.9102 376.24 40.2031C375.986 40.4922 375.676 40.7168 375.309 40.877C374.941 41.0371 374.521 41.1172 374.049 41.1172C373.58 41.1172 373.16 41.0371 372.789 40.877C372.418 40.7168 372.105 40.4922 371.851 40.2031C371.598 39.9102 371.404 39.5684 371.271 39.1777C371.139 38.7832 371.072 38.3555 371.072 37.8945ZM372.619 37.7715V37.8945C372.619 38.1719 372.646 38.4316 372.701 38.6738C372.756 38.916 372.84 39.1289 372.953 39.3125C373.066 39.4961 373.213 39.6406 373.393 39.7461C373.576 39.8477 373.795 39.8984 374.049 39.8984C374.299 39.8984 374.514 39.8477 374.693 39.7461C374.873 39.6406 375.019 39.4961 375.133 39.3125C375.25 39.1289 375.336 38.916 375.391 38.6738C375.445 38.4316 375.473 38.1719 375.473 37.8945V37.7715C375.473 37.498 375.445 37.2422 375.391 37.0039C375.336 36.7617 375.25 36.5488 375.133 36.3652C375.019 36.1777 374.871 36.0312 374.687 35.9258C374.508 35.8164 374.291 35.7617 374.037 35.7617C373.787 35.7617 373.572 35.8164 373.393 35.9258C373.213 36.0312 373.066 36.1777 372.953 36.3652C372.84 36.5488 372.756 36.7617 372.701 37.0039C372.646 37.2422 372.619 37.498 372.619 37.7715ZM379.782 36.0137V41H378.235V34.6602H379.688L379.782 36.0137ZM379.536 37.6016H379.079C379.083 37.1406 379.145 36.7227 379.266 36.3477C379.388 35.9727 379.557 35.6504 379.776 35.3809C379.999 35.1113 380.263 34.9043 380.567 34.7598C380.872 34.6152 381.212 34.543 381.587 34.543C381.891 34.543 382.167 34.5859 382.413 34.6719C382.659 34.7578 382.87 34.8945 383.046 35.082C383.225 35.2695 383.362 35.5156 383.456 35.8203C383.554 36.1211 383.602 36.4922 383.602 36.9336V41H382.044V36.9219C382.044 36.6328 382.001 36.4043 381.915 36.2363C381.833 36.0684 381.712 35.9492 381.552 35.8789C381.395 35.8086 381.202 35.7734 380.971 35.7734C380.733 35.7734 380.524 35.8223 380.345 35.9199C380.169 36.0137 380.02 36.1445 379.899 36.3125C379.782 36.4805 379.692 36.6738 379.63 36.8926C379.567 37.1113 379.536 37.3477 379.536 37.6016Z" fill="black"/>
<circle cx="352.293" cy="10" r="10" fill="url(#paint0_radial_1193_11359)"/>
<defs>
<radialGradient id="paint0_radial_1193_11359" cx="0" cy="0" r="1" gradientUnits="userSpaceOnUse" gradientTransform="translate(352.293 10) rotate(90) scale(10)">
<stop offset="0.433" stop-color="white"/>
<stop offset="0.468" stop-color="#21292B"/>
</radialGradient>
</defs>
</svg>
