<svg width="390" height="44" viewBox="0 0 390 44" fill="none" xmlns="http://www.w3.org/2000/svg">
<line x1="53.0742" y1="9.5" x2="345.865" y2="9.5" stroke="black"/>
<path d="M4.37695 37.1973H2.19727L2.18555 36.0605H4.05469C4.375 36.0605 4.64258 36.0156 4.85742 35.9258C5.07227 35.8359 5.23438 35.7051 5.34375 35.5332C5.45703 35.3613 5.51367 35.1523 5.51367 34.9062C5.51367 34.6328 5.46094 34.4102 5.35547 34.2383C5.25391 34.0664 5.09375 33.9414 4.875 33.8633C4.65625 33.7812 4.37891 33.7402 4.04297 33.7402H2.71875V41H1.10742V32.4688H4.04297C4.52734 32.4688 4.95898 32.5156 5.33789 32.6094C5.7207 32.6992 6.04492 32.8398 6.31055 33.0312C6.57617 33.2227 6.77734 33.4629 6.91406 33.752C7.05469 34.041 7.125 34.3848 7.125 34.7832C7.125 35.1348 7.04297 35.459 6.87891 35.7559C6.71875 36.0488 6.4707 36.2871 6.13477 36.4707C5.80273 36.6543 5.38086 36.7598 4.86914 36.7871L4.37695 37.1973ZM4.30664 41H1.72266L2.39648 39.7344H4.30664C4.62695 39.7344 4.89062 39.6816 5.09766 39.5762C5.30859 39.4707 5.46484 39.3262 5.56641 39.1426C5.67188 38.9551 5.72461 38.7402 5.72461 38.498C5.72461 38.2324 5.67773 38.002 5.58398 37.8066C5.49414 37.6113 5.34961 37.4609 5.15039 37.3555C4.95508 37.25 4.69727 37.1973 4.37695 37.1973H2.70117L2.71289 36.0605H4.8457L5.21484 36.5C5.70703 36.5039 6.10742 36.6016 6.41602 36.793C6.72852 36.9844 6.95898 37.2305 7.10742 37.5312C7.25586 37.832 7.33008 38.1562 7.33008 38.5039C7.33008 39.0508 7.21094 39.5098 6.97266 39.8809C6.73828 40.252 6.39453 40.5312 5.94141 40.7188C5.49219 40.9062 4.94727 41 4.30664 41ZM8.45203 37.8945V37.7715C8.45203 37.3066 8.51844 36.8789 8.65125 36.4883C8.78406 36.0938 8.97742 35.752 9.23133 35.4629C9.48523 35.1738 9.79578 34.9492 10.163 34.7891C10.5302 34.625 10.9481 34.543 11.4169 34.543C11.8934 34.543 12.3153 34.625 12.6825 34.7891C13.0536 34.9492 13.3661 35.1738 13.62 35.4629C13.8739 35.752 14.0673 36.0938 14.2001 36.4883C14.3329 36.8789 14.3993 37.3066 14.3993 37.7715V37.8945C14.3993 38.3555 14.3329 38.7832 14.2001 39.1777C14.0673 39.5684 13.8739 39.9102 13.62 40.2031C13.3661 40.4922 13.0555 40.7168 12.6884 40.877C12.3212 41.0371 11.9012 41.1172 11.4286 41.1172C10.9598 41.1172 10.5399 41.0371 10.1688 40.877C9.79773 40.7168 9.48523 40.4922 9.23133 40.2031C8.97742 39.9102 8.78406 39.5684 8.65125 39.1777C8.51844 38.7832 8.45203 38.3555 8.45203 37.8945ZM9.99891 37.7715V37.8945C9.99891 38.1719 10.0262 38.4316 10.0809 38.6738C10.1356 38.916 10.2196 39.1289 10.3329 39.3125C10.4462 39.4961 10.5927 39.6406 10.7723 39.7461C10.9559 39.8477 11.1747 39.8984 11.4286 39.8984C11.6786 39.8984 11.8934 39.8477 12.0731 39.7461C12.2528 39.6406 12.3993 39.4961 12.5126 39.3125C12.6298 39.1289 12.7157 38.916 12.7704 38.6738C12.8251 38.4316 12.8524 38.1719 12.8524 37.8945V37.7715C12.8524 37.498 12.8251 37.2422 12.7704 37.0039C12.7157 36.7617 12.6298 36.5488 12.5126 36.3652C12.3993 36.1777 12.2509 36.0312 12.0673 35.9258C11.8876 35.8164 11.6708 35.7617 11.4169 35.7617C11.1669 35.7617 10.952 35.8164 10.7723 35.9258C10.5927 36.0312 10.4462 36.1777 10.3329 36.3652C10.2196 36.5488 10.1356 36.7617 10.0809 37.0039C10.0262 37.2422 9.99891 37.498 9.99891 37.7715ZM15.3689 37.8945V37.7715C15.3689 37.3066 15.4353 36.8789 15.5681 36.4883C15.7009 36.0938 15.8943 35.752 16.1482 35.4629C16.4021 35.1738 16.7127 34.9492 17.0798 34.7891C17.447 34.625 17.865 34.543 18.3337 34.543C18.8103 34.543 19.2322 34.625 19.5994 34.7891C19.9705 34.9492 20.283 35.1738 20.5369 35.4629C20.7908 35.752 20.9841 36.0938 21.117 36.4883C21.2498 36.8789 21.3162 37.3066 21.3162 37.7715V37.8945C21.3162 38.3555 21.2498 38.7832 21.117 39.1777C20.9841 39.5684 20.7908 39.9102 20.5369 40.2031C20.283 40.4922 19.9724 40.7168 19.6052 40.877C19.238 41.0371 18.8181 41.1172 18.3455 41.1172C17.8767 41.1172 17.4568 41.0371 17.0857 40.877C16.7146 40.7168 16.4021 40.4922 16.1482 40.2031C15.8943 39.9102 15.7009 39.5684 15.5681 39.1777C15.4353 38.7832 15.3689 38.3555 15.3689 37.8945ZM16.9158 37.7715V37.8945C16.9158 38.1719 16.9431 38.4316 16.9978 38.6738C17.0525 38.916 17.1365 39.1289 17.2498 39.3125C17.363 39.4961 17.5095 39.6406 17.6892 39.7461C17.8728 39.8477 18.0916 39.8984 18.3455 39.8984C18.5955 39.8984 18.8103 39.8477 18.99 39.7461C19.1697 39.6406 19.3162 39.4961 19.4295 39.3125C19.5466 39.1289 19.6326 38.916 19.6873 38.6738C19.742 38.4316 19.7693 38.1719 19.7693 37.8945V37.7715C19.7693 37.498 19.742 37.2422 19.6873 37.0039C19.6326 36.7617 19.5466 36.5488 19.4295 36.3652C19.3162 36.1777 19.1677 36.0312 18.9841 35.9258C18.8045 35.8164 18.5877 35.7617 18.3337 35.7617C18.0837 35.7617 17.8689 35.8164 17.6892 35.9258C17.5095 36.0312 17.363 36.1777 17.2498 36.3652C17.1365 36.5488 17.0525 36.7617 16.9978 37.0039C16.9431 37.2422 16.9158 37.498 16.9158 37.7715ZM24.108 31.9941V41H22.5612V31.9941H24.108ZM28.0807 34.6602L25.3209 37.7598L23.8268 39.2773L23.3346 38.0762L24.4889 36.623L26.2116 34.6602H28.0807ZM26.4987 41L24.5358 38.0469L25.567 37.0449L28.2916 41H26.4987ZM30.6616 34.6602V41H29.1089V34.6602H30.6616ZM29.0034 33.002C29.0034 32.7715 29.0816 32.5801 29.2378 32.4277C29.398 32.2754 29.6128 32.1992 29.8823 32.1992C30.1519 32.1992 30.3648 32.2754 30.521 32.4277C30.6812 32.5801 30.7612 32.7715 30.7612 33.002C30.7612 33.2285 30.6812 33.418 30.521 33.5703C30.3648 33.7227 30.1519 33.7988 29.8823 33.7988C29.6128 33.7988 29.398 33.7227 29.2378 33.5703C29.0816 33.418 29.0034 33.2285 29.0034 33.002ZM33.7758 36.0137V41H32.2289V34.6602H33.682L33.7758 36.0137ZM33.5297 37.6016H33.0727C33.0766 37.1406 33.1391 36.7227 33.2602 36.3477C33.3813 35.9727 33.5512 35.6504 33.7699 35.3809C33.9926 35.1113 34.2563 34.9043 34.5609 34.7598C34.8656 34.6152 35.2055 34.543 35.5805 34.543C35.8852 34.543 36.1605 34.5859 36.4066 34.6719C36.6527 34.7578 36.8637 34.8945 37.0395 35.082C37.2191 35.2695 37.3559 35.5156 37.4496 35.8203C37.5473 36.1211 37.5961 36.4922 37.5961 36.9336V41H36.0375V36.9219C36.0375 36.6328 35.9945 36.4043 35.9086 36.2363C35.8266 36.0684 35.7055 35.9492 35.5453 35.8789C35.3891 35.8086 35.1957 35.7734 34.9652 35.7734C34.727 35.7734 34.518 35.8223 34.3383 35.9199C34.1625 36.0137 34.0141 36.1445 33.893 36.3125C33.7758 36.4805 33.6859 36.6738 33.6234 36.8926C33.5609 37.1113 33.5297 37.3477 33.5297 37.6016ZM43.1126 34.6602H44.5188V40.8066C44.5188 41.3809 44.3938 41.8672 44.1438 42.2656C43.8977 42.668 43.552 42.9727 43.1067 43.1797C42.6614 43.3906 42.1438 43.4961 41.554 43.4961C41.3001 43.4961 41.0247 43.4609 40.7278 43.3906C40.4348 43.3203 40.1516 43.209 39.8782 43.0566C39.6087 42.9082 39.3841 42.7148 39.2044 42.4766L39.9016 41.5625C40.1126 41.8086 40.3509 41.9941 40.6165 42.1191C40.8821 42.248 41.1692 42.3125 41.4778 42.3125C41.7903 42.3125 42.0559 42.2539 42.2747 42.1367C42.4973 42.0234 42.6673 41.8555 42.7845 41.6328C42.9055 41.4141 42.9661 41.1445 42.9661 40.8242V36.1074L43.1126 34.6602ZM38.8294 37.9062V37.7832C38.8294 37.2988 38.888 36.8594 39.0052 36.4648C39.1223 36.0664 39.2903 35.7246 39.5091 35.4395C39.7317 35.1543 39.9993 34.9336 40.3118 34.7773C40.6282 34.6211 40.9837 34.543 41.3782 34.543C41.7962 34.543 42.1477 34.6191 42.4329 34.7715C42.722 34.9238 42.9602 35.1406 43.1477 35.4219C43.3391 35.7031 43.4876 36.0371 43.593 36.4238C43.7024 36.8066 43.7864 37.2285 43.845 37.6895V38.0234C43.7903 38.4727 43.7024 38.8848 43.5813 39.2598C43.4641 39.6348 43.3079 39.9629 43.1126 40.2441C42.9173 40.5215 42.6751 40.7363 42.386 40.8887C42.097 41.041 41.7571 41.1172 41.3665 41.1172C40.9759 41.1172 40.6243 41.0371 40.3118 40.877C39.9993 40.7168 39.7317 40.4922 39.5091 40.2031C39.2903 39.9141 39.1223 39.5742 39.0052 39.1836C38.888 38.793 38.8294 38.3672 38.8294 37.9062ZM40.3763 37.7832V37.9062C40.3763 38.1797 40.4036 38.4355 40.4583 38.6738C40.513 38.9121 40.597 39.123 40.7102 39.3066C40.8235 39.4863 40.9661 39.627 41.138 39.7285C41.3098 39.8301 41.5149 39.8809 41.7532 39.8809C42.0735 39.8809 42.3352 39.8145 42.5384 39.6816C42.7454 39.5449 42.9016 39.3594 43.0071 39.125C43.1165 38.8867 43.1868 38.6191 43.218 38.3223V37.4023C43.1985 37.168 43.1555 36.9512 43.0891 36.752C43.0266 36.5527 42.9388 36.3809 42.8255 36.2363C42.7122 36.0918 42.5677 35.9785 42.3919 35.8965C42.2161 35.8145 42.0071 35.7734 41.7649 35.7734C41.5305 35.7734 41.3255 35.8262 41.1497 35.9316C40.9739 36.0332 40.8294 36.1758 40.7161 36.3594C40.6028 36.543 40.5169 36.7559 40.4583 36.998C40.4036 37.2402 40.3763 37.502 40.3763 37.7832ZM52.9444 39.6523V32H54.503V41H53.0967L52.9444 39.6523ZM48.8721 37.9062V37.7832C48.8721 37.2988 48.9268 36.8594 49.0362 36.4648C49.1495 36.0664 49.3135 35.7246 49.5284 35.4395C49.7432 35.1543 50.003 34.9336 50.3077 34.7773C50.6162 34.6211 50.9659 34.543 51.3565 34.543C51.7354 34.543 52.0655 34.6191 52.3467 34.7715C52.6319 34.9238 52.8741 35.1406 53.0733 35.4219C53.2764 35.7031 53.4385 36.0371 53.5596 36.4238C53.6807 36.8066 53.7686 37.2285 53.8233 37.6895V38.0234C53.7686 38.4727 53.6807 38.8848 53.5596 39.2598C53.4385 39.6348 53.2764 39.9629 53.0733 40.2441C52.8741 40.5215 52.6319 40.7363 52.3467 40.8887C52.0616 41.041 51.7276 41.1172 51.3448 41.1172C50.958 41.1172 50.6104 41.0371 50.3018 40.877C49.9971 40.7168 49.7373 40.4922 49.5225 40.2031C49.3116 39.9141 49.1495 39.5742 49.0362 39.1836C48.9268 38.793 48.8721 38.3672 48.8721 37.9062ZM50.4248 37.7832V37.9062C50.4248 38.1797 50.4483 38.4355 50.4952 38.6738C50.542 38.9121 50.6182 39.123 50.7237 39.3066C50.8291 39.4863 50.9639 39.627 51.128 39.7285C51.2959 39.8301 51.4991 39.8809 51.7373 39.8809C52.042 39.8809 52.292 39.8145 52.4873 39.6816C52.6866 39.5449 52.8409 39.3594 52.9502 39.125C53.0596 38.8867 53.1299 38.6191 53.1612 38.3223V37.4023C53.1455 37.168 53.1045 36.9512 53.0381 36.752C52.9756 36.5527 52.8858 36.3809 52.7686 36.2363C52.6553 36.0918 52.5147 35.9785 52.3467 35.8965C52.1787 35.8145 51.9795 35.7734 51.7491 35.7734C51.5108 35.7734 51.3077 35.8262 51.1397 35.9316C50.9717 36.0332 50.835 36.1758 50.7295 36.3594C50.6241 36.543 50.5459 36.7559 50.4952 36.998C50.4483 37.2402 50.4248 37.502 50.4248 37.7832ZM58.871 41.1172C58.3905 41.1172 57.9589 41.0391 57.5761 40.8828C57.1933 40.7266 56.8671 40.5098 56.5976 40.2324C56.332 39.9512 56.1269 39.625 55.9823 39.2539C55.8417 38.8789 55.7714 38.4766 55.7714 38.0469V37.8125C55.7714 37.3242 55.8417 36.8809 55.9823 36.4824C56.123 36.0801 56.3222 35.7344 56.58 35.4453C56.8378 35.1562 57.1464 34.9336 57.5058 34.7773C57.8652 34.6211 58.2616 34.543 58.6952 34.543C59.1445 34.543 59.5409 34.6191 59.8847 34.7715C60.2284 34.9199 60.5155 35.1309 60.746 35.4043C60.9765 35.6777 61.1503 36.0059 61.2675 36.3887C61.3847 36.7676 61.4433 37.1875 61.4433 37.6484V38.2988H56.4745V37.2324H59.9198V37.1152C59.912 36.8691 59.8652 36.6445 59.7792 36.4414C59.6933 36.2344 59.5605 36.0703 59.3808 35.9492C59.2011 35.8242 58.9687 35.7617 58.6835 35.7617C58.453 35.7617 58.2519 35.8125 58.08 35.9141C57.912 36.0117 57.7714 36.1523 57.6581 36.3359C57.5488 36.5156 57.4667 36.7305 57.412 36.9805C57.3573 37.2305 57.33 37.5078 57.33 37.8125V38.0469C57.33 38.3125 57.3652 38.5586 57.4355 38.7852C57.5097 39.0117 57.6171 39.209 57.7577 39.377C57.9023 39.541 58.0741 39.6699 58.2734 39.7637C58.4765 39.8535 58.707 39.8984 58.9648 39.8984C59.289 39.8984 59.582 39.8359 59.8437 39.7109C60.1093 39.582 60.3398 39.3926 60.5351 39.1426L61.3144 39.9512C61.1816 40.1465 61.0019 40.334 60.7753 40.5137C60.5527 40.6934 60.2831 40.8398 59.9667 40.9531C59.6503 41.0625 59.2851 41.1172 58.871 41.1172ZM65.6004 34.6602V35.7734H61.9676V34.6602H65.6004ZM62.9402 33.1016H64.493V39.1719C64.493 39.3594 64.5184 39.5039 64.5691 39.6055C64.6199 39.707 64.6961 39.7754 64.7977 39.8105C64.8992 39.8457 65.0203 39.8633 65.1609 39.8633C65.2625 39.8633 65.3563 39.8574 65.4422 39.8457C65.5281 39.834 65.6004 39.8223 65.659 39.8105L65.6648 40.9707C65.5359 41.0137 65.3895 41.0488 65.2254 41.0762C65.0652 41.1035 64.8836 41.1172 64.6805 41.1172C64.3328 41.1172 64.0281 41.0586 63.7664 40.9414C63.5047 40.8203 63.3016 40.627 63.157 40.3613C63.0125 40.0918 62.9402 39.7363 62.9402 39.2949V33.1016ZM70.2438 39.6523V36.7285C70.2438 36.5137 70.2067 36.3281 70.1325 36.1719C70.0583 36.0156 69.945 35.8945 69.7927 35.8086C69.6403 35.7227 69.447 35.6797 69.2126 35.6797C69.0055 35.6797 68.8239 35.7148 68.6677 35.7852C68.5153 35.8555 68.3981 35.9551 68.3161 36.084C68.2341 36.209 68.193 36.3535 68.193 36.5176H66.6403C66.6403 36.2559 66.7028 36.0078 66.8278 35.7734C66.9528 35.5352 67.1305 35.3242 67.361 35.1406C67.5954 34.9531 67.8747 34.8066 68.1989 34.7012C68.527 34.5957 68.8942 34.543 69.3005 34.543C69.7809 34.543 70.2087 34.625 70.5837 34.7891C70.9626 34.9492 71.2595 35.1914 71.4743 35.5156C71.693 35.8398 71.8024 36.248 71.8024 36.7402V39.5059C71.8024 39.8223 71.822 40.0938 71.861 40.3203C71.904 40.543 71.9665 40.7363 72.0485 40.9004V41H70.4723C70.3981 40.8398 70.3415 40.6367 70.3024 40.3906C70.2634 40.1406 70.2438 39.8945 70.2438 39.6523ZM70.4606 37.1387L70.4723 38.0586H69.4938C69.2516 38.0586 69.0387 38.084 68.8552 38.1348C68.6716 38.1816 68.5212 38.252 68.404 38.3457C68.2868 38.4355 68.1989 38.5449 68.1403 38.6738C68.0817 38.7988 68.0524 38.9414 68.0524 39.1016C68.0524 39.2578 68.0876 39.3984 68.1579 39.5234C68.2321 39.6484 68.3376 39.748 68.4743 39.8223C68.6149 39.8926 68.779 39.9277 68.9665 39.9277C69.2399 39.9277 69.4782 39.873 69.6813 39.7637C69.8845 39.6504 70.0427 39.5137 70.1559 39.3535C70.2692 39.1934 70.3298 39.041 70.3376 38.8965L70.7829 39.5645C70.7282 39.7246 70.6462 39.8945 70.5368 40.0742C70.4274 40.2539 70.2868 40.4219 70.1149 40.5781C69.943 40.7344 69.736 40.8633 69.4938 40.9648C69.2516 41.0664 68.9704 41.1172 68.6501 41.1172C68.2399 41.1172 67.8727 41.0352 67.5485 40.8711C67.2243 40.707 66.9684 40.4824 66.7809 40.1973C66.5934 39.9121 66.4997 39.5879 66.4997 39.2246C66.4997 38.8887 66.5622 38.5918 66.6872 38.334C66.8122 38.0762 66.9977 37.8594 67.2438 37.6836C67.4899 37.5039 67.7946 37.3691 68.1579 37.2793C68.5251 37.1855 68.945 37.1387 69.4177 37.1387H70.4606ZM74.9576 34.6602V41H73.4048V34.6602H74.9576ZM73.2994 33.002C73.2994 32.7715 73.3775 32.5801 73.5338 32.4277C73.6939 32.2754 73.9088 32.1992 74.1783 32.1992C74.4478 32.1992 74.6607 32.2754 74.817 32.4277C74.9771 32.5801 75.0572 32.7715 75.0572 33.002C75.0572 33.2285 74.9771 33.418 74.817 33.5703C74.6607 33.7227 74.4478 33.7988 74.1783 33.7988C73.9088 33.7988 73.6939 33.7227 73.5338 33.5703C73.3775 33.418 73.2994 33.2285 73.2994 33.002ZM78.1948 32V41H76.642V32H78.1948ZM83.2777 39.2656C83.2777 39.1328 83.2425 39.0137 83.1722 38.9082C83.1019 38.8027 82.9691 38.707 82.7738 38.6211C82.5823 38.5312 82.3011 38.4473 81.93 38.3691C81.6019 38.2988 81.2991 38.2109 81.0218 38.1055C80.7445 38 80.5062 37.873 80.307 37.7246C80.1077 37.5723 79.9515 37.3945 79.8382 37.1914C79.7288 36.9844 79.6741 36.7461 79.6741 36.4766C79.6741 36.2148 79.7308 35.9688 79.8441 35.7383C79.9573 35.5039 80.1214 35.2988 80.3363 35.123C80.5511 34.9434 80.8128 34.8027 81.1214 34.7012C81.43 34.5957 81.7777 34.543 82.1644 34.543C82.7034 34.543 83.1663 34.6309 83.553 34.8066C83.9437 34.9824 84.2425 35.2246 84.4495 35.5332C84.6566 35.8379 84.7601 36.1816 84.7601 36.5645H83.2132C83.2132 36.3965 83.1741 36.2441 83.096 36.1074C83.0218 35.9707 82.9066 35.8613 82.7503 35.7793C82.5941 35.6934 82.3968 35.6504 82.1585 35.6504C81.9437 35.6504 81.762 35.6855 81.6136 35.7559C81.4691 35.8262 81.3597 35.918 81.2855 36.0312C81.2113 36.1445 81.1741 36.2695 81.1741 36.4062C81.1741 36.5078 81.1937 36.5996 81.2327 36.6816C81.2757 36.7598 81.3441 36.832 81.4378 36.8984C81.5316 36.9648 81.6585 37.0254 81.8187 37.0801C81.9827 37.1348 82.1839 37.1875 82.4222 37.2383C82.8948 37.332 83.307 37.457 83.6585 37.6133C84.014 37.7656 84.2913 37.9688 84.4905 38.2227C84.6898 38.4766 84.7894 38.8008 84.7894 39.1953C84.7894 39.4766 84.7288 39.7344 84.6077 39.9688C84.4866 40.1992 84.3109 40.4004 84.0804 40.5723C83.8499 40.7441 83.5745 40.8789 83.2542 40.9766C82.9339 41.0703 82.5726 41.1172 82.1702 41.1172C81.5882 41.1172 81.096 41.0137 80.6937 40.8066C80.2913 40.5957 79.9866 40.3301 79.7796 40.0098C79.5726 39.6855 79.4691 39.3496 79.4691 39.002H80.9515C80.9632 39.248 81.0296 39.4453 81.1507 39.5938C81.2718 39.7422 81.4241 39.8496 81.6077 39.916C81.7952 39.9785 81.9925 40.0098 82.1995 40.0098C82.4339 40.0098 82.6312 39.9785 82.7913 39.916C82.9515 39.8496 83.0726 39.7617 83.1546 39.6523C83.2366 39.5391 83.2777 39.4102 83.2777 39.2656Z" fill="#7F7F7F"/>
<circle cx="46.293" cy="10" r="10" fill="#21292B"/>
<path d="M44.929 13.9984C44.6563 13.9984 44.4745 13.8985 44.2927 13.6985L41.5657 10.6995C41.2021 10.2996 41.2021 9.69978 41.5657 9.29991C41.9293 8.90003 42.4747 8.90003 42.8383 9.29991L45.5653 12.299C45.929 12.6988 45.929 13.2986 45.5653 13.6985C45.3835 13.8985 45.2017 13.9984 44.929 13.9984Z" fill="white"/>
<path d="M44.9285 13.9975C44.6558 13.9975 44.474 13.8975 44.2922 13.6976C43.9286 13.2977 43.9286 12.6979 44.2922 12.298L49.7463 6.29991C50.1099 5.90003 50.6554 5.90003 51.019 6.29991C51.3826 6.69978 51.3826 7.29959 51.019 7.69946L45.5649 13.6976C45.3831 13.8975 45.2013 13.9975 44.9285 13.9975Z" fill="white"/>
<path d="M153.389 37.8887H151.191V36.623H153.389C153.748 36.623 154.039 36.5645 154.262 36.4473C154.488 36.3262 154.654 36.1621 154.76 35.9551C154.865 35.7441 154.918 35.5039 154.918 35.2344C154.918 34.9727 154.865 34.7285 154.76 34.502C154.654 34.2754 154.488 34.0918 154.262 33.9512C154.039 33.8105 153.748 33.7402 153.389 33.7402H151.719V41H150.107V32.4688H153.389C154.053 32.4688 154.619 32.5879 155.088 32.8262C155.561 33.0605 155.92 33.3867 156.166 33.8047C156.416 34.2188 156.541 34.6914 156.541 35.2227C156.541 35.7734 156.416 36.248 156.166 36.6465C155.92 37.0449 155.561 37.3516 155.088 37.5664C154.619 37.7812 154.053 37.8887 153.389 37.8887ZM161.231 39.6523V36.7285C161.231 36.5137 161.194 36.3281 161.12 36.1719C161.046 36.0156 160.932 35.8945 160.78 35.8086C160.628 35.7227 160.434 35.6797 160.2 35.6797C159.993 35.6797 159.811 35.7148 159.655 35.7852C159.503 35.8555 159.386 35.9551 159.304 36.084C159.222 36.209 159.181 36.3535 159.181 36.5176H157.628C157.628 36.2559 157.69 36.0078 157.815 35.7734C157.94 35.5352 158.118 35.3242 158.349 35.1406C158.583 34.9531 158.862 34.8066 159.186 34.7012C159.515 34.5957 159.882 34.543 160.288 34.543C160.768 34.543 161.196 34.625 161.571 34.7891C161.95 34.9492 162.247 35.1914 162.462 35.5156C162.681 35.8398 162.79 36.248 162.79 36.7402V39.5059C162.79 39.8223 162.809 40.0938 162.849 40.3203C162.891 40.543 162.954 40.7363 163.036 40.9004V41H161.46C161.386 40.8398 161.329 40.6367 161.29 40.3906C161.251 40.1406 161.231 39.8945 161.231 39.6523ZM161.448 37.1387L161.46 38.0586H160.481C160.239 38.0586 160.026 38.084 159.843 38.1348C159.659 38.1816 159.509 38.252 159.391 38.3457C159.274 38.4355 159.186 38.5449 159.128 38.6738C159.069 38.7988 159.04 38.9414 159.04 39.1016C159.04 39.2578 159.075 39.3984 159.145 39.5234C159.22 39.6484 159.325 39.748 159.462 39.8223C159.602 39.8926 159.766 39.9277 159.954 39.9277C160.227 39.9277 160.466 39.873 160.669 39.7637C160.872 39.6504 161.03 39.5137 161.143 39.3535C161.257 39.1934 161.317 39.041 161.325 38.8965L161.77 39.5645C161.716 39.7246 161.634 39.8945 161.524 40.0742C161.415 40.2539 161.274 40.4219 161.102 40.5781C160.931 40.7344 160.724 40.8633 160.481 40.9648C160.239 41.0664 159.958 41.1172 159.638 41.1172C159.227 41.1172 158.86 41.0352 158.536 40.8711C158.212 40.707 157.956 40.4824 157.768 40.1973C157.581 39.9121 157.487 39.5879 157.487 39.2246C157.487 38.8887 157.55 38.5918 157.675 38.334C157.8 38.0762 157.985 37.8594 158.231 37.6836C158.477 37.5039 158.782 37.3691 159.145 37.2793C159.513 37.1855 159.932 37.1387 160.405 37.1387H161.448ZM166.068 40.2969L167.767 34.6602H169.426L166.883 41.9609C166.824 42.1172 166.748 42.2871 166.654 42.4707C166.564 42.6543 166.443 42.8281 166.291 42.9922C166.138 43.1602 165.947 43.2969 165.717 43.4023C165.49 43.5078 165.215 43.5605 164.89 43.5605C164.75 43.5605 164.625 43.5508 164.515 43.5312C164.406 43.5117 164.291 43.4863 164.17 43.4551V42.2949C164.209 42.2988 164.254 42.3008 164.304 42.3008C164.359 42.3047 164.406 42.3066 164.445 42.3066C164.672 42.3066 164.859 42.2793 165.008 42.2246C165.156 42.1738 165.275 42.0898 165.365 41.9727C165.459 41.8594 165.537 41.7109 165.599 41.5273L166.068 40.2969ZM165.23 34.6602L166.666 39.3301L166.918 40.9648L165.851 41.1582L163.56 34.6602H165.23ZM171.837 35.9609V41H170.29V34.6602H171.749L171.837 35.9609ZM171.608 37.6016H171.133C171.133 37.1602 171.186 36.7539 171.292 36.3828C171.401 36.0117 171.561 35.6895 171.772 35.416C171.983 35.1387 172.243 34.9238 172.551 34.7715C172.864 34.6191 173.225 34.543 173.635 34.543C173.921 34.543 174.182 34.5859 174.421 34.6719C174.659 34.7539 174.864 34.8848 175.036 35.0645C175.212 35.2402 175.346 35.4707 175.44 35.7559C175.534 36.0371 175.581 36.375 175.581 36.7695V41H174.034V36.9277C174.034 36.6309 173.991 36.3984 173.905 36.2305C173.823 36.0625 173.704 35.9453 173.548 35.8789C173.391 35.8086 173.204 35.7734 172.985 35.7734C172.743 35.7734 172.534 35.8223 172.358 35.9199C172.186 36.0137 172.044 36.1445 171.93 36.3125C171.821 36.4805 171.739 36.6738 171.684 36.8926C171.633 37.1113 171.608 37.3477 171.608 37.6016ZM175.464 37.3145L174.825 37.4316C174.829 37.0332 174.883 36.6602 174.989 36.3125C175.094 35.9609 175.249 35.6543 175.452 35.3926C175.659 35.127 175.915 34.9199 176.219 34.7715C176.528 34.6191 176.883 34.543 177.286 34.543C177.598 34.543 177.88 34.5879 178.13 34.6777C178.383 34.7637 178.6 34.9023 178.78 35.0938C178.96 35.2812 179.096 35.5254 179.19 35.8262C179.288 36.127 179.337 36.4941 179.337 36.9277V41H177.778V36.9219C177.778 36.6133 177.735 36.377 177.649 36.2129C177.567 36.0488 177.448 35.9355 177.292 35.873C177.135 35.8066 176.952 35.7734 176.741 35.7734C176.526 35.7734 176.339 35.8145 176.178 35.8965C176.022 35.9746 175.889 36.084 175.78 36.2246C175.674 36.3652 175.594 36.5293 175.54 36.7168C175.489 36.9004 175.464 37.0996 175.464 37.3145ZM183.693 41.1172C183.212 41.1172 182.781 41.0391 182.398 40.8828C182.015 40.7266 181.689 40.5098 181.419 40.2324C181.154 39.9512 180.949 39.625 180.804 39.2539C180.664 38.8789 180.593 38.4766 180.593 38.0469V37.8125C180.593 37.3242 180.664 36.8809 180.804 36.4824C180.945 36.0801 181.144 35.7344 181.402 35.4453C181.66 35.1562 181.968 34.9336 182.328 34.7773C182.687 34.6211 183.084 34.543 183.517 34.543C183.966 34.543 184.363 34.6191 184.707 34.7715C185.05 34.9199 185.337 35.1309 185.568 35.4043C185.798 35.6777 185.972 36.0059 186.089 36.3887C186.207 36.7676 186.265 37.1875 186.265 37.6484V38.2988H181.296V37.2324H184.742V37.1152C184.734 36.8691 184.687 36.6445 184.601 36.4414C184.515 36.2344 184.382 36.0703 184.203 35.9492C184.023 35.8242 183.791 35.7617 183.505 35.7617C183.275 35.7617 183.074 35.8125 182.902 35.9141C182.734 36.0117 182.593 36.1523 182.48 36.3359C182.371 36.5156 182.289 36.7305 182.234 36.9805C182.179 37.2305 182.152 37.5078 182.152 37.8125V38.0469C182.152 38.3125 182.187 38.5586 182.257 38.7852C182.332 39.0117 182.439 39.209 182.58 39.377C182.724 39.541 182.896 39.6699 183.095 39.7637C183.298 39.8535 183.529 39.8984 183.787 39.8984C184.111 39.8984 184.404 39.8359 184.666 39.7109C184.931 39.582 185.162 39.3926 185.357 39.1426L186.136 39.9512C186.003 40.1465 185.824 40.334 185.597 40.5137C185.375 40.6934 185.105 40.8398 184.789 40.9531C184.472 41.0625 184.107 41.1172 183.693 41.1172ZM188.94 36.0137V41H187.393V34.6602H188.846L188.94 36.0137ZM188.694 37.6016H188.237C188.241 37.1406 188.303 36.7227 188.424 36.3477C188.545 35.9727 188.715 35.6504 188.934 35.3809C189.157 35.1113 189.42 34.9043 189.725 34.7598C190.03 34.6152 190.37 34.543 190.745 34.543C191.049 34.543 191.325 34.5859 191.571 34.6719C191.817 34.7578 192.028 34.8945 192.204 35.082C192.383 35.2695 192.52 35.5156 192.614 35.8203C192.711 36.1211 192.76 36.4922 192.76 36.9336V41H191.202V36.9219C191.202 36.6328 191.159 36.4043 191.073 36.2363C190.991 36.0684 190.87 35.9492 190.709 35.8789C190.553 35.8086 190.36 35.7734 190.129 35.7734C189.891 35.7734 189.682 35.8223 189.502 35.9199C189.327 36.0137 189.178 36.1445 189.057 36.3125C188.94 36.4805 188.85 36.6738 188.787 36.8926C188.725 37.1113 188.694 37.3477 188.694 37.6016ZM197.245 34.6602V35.7734H193.613V34.6602H197.245ZM194.585 33.1016H196.138V39.1719C196.138 39.3594 196.163 39.5039 196.214 39.6055C196.265 39.707 196.341 39.7754 196.443 39.8105C196.544 39.8457 196.665 39.8633 196.806 39.8633C196.908 39.8633 197.001 39.8574 197.087 39.8457C197.173 39.834 197.245 39.8223 197.304 39.8105L197.31 40.9707C197.181 41.0137 197.034 41.0488 196.87 41.0762C196.71 41.1035 196.529 41.1172 196.325 41.1172C195.978 41.1172 195.673 41.0586 195.411 40.9414C195.15 40.8203 194.947 40.627 194.802 40.3613C194.658 40.0918 194.585 39.7363 194.585 39.2949V33.1016ZM203.046 35.9609V41H201.499V34.6602H202.958L203.046 35.9609ZM202.817 37.6016H202.343C202.343 37.1602 202.396 36.7539 202.501 36.3828C202.61 36.0117 202.771 35.6895 202.981 35.416C203.192 35.1387 203.452 34.9238 203.761 34.7715C204.073 34.6191 204.435 34.543 204.845 34.543C205.13 34.543 205.392 34.5859 205.63 34.6719C205.868 34.7539 206.073 34.8848 206.245 35.0645C206.421 35.2402 206.556 35.4707 206.649 35.7559C206.743 36.0371 206.79 36.375 206.79 36.7695V41H205.243V36.9277C205.243 36.6309 205.2 36.3984 205.114 36.2305C205.032 36.0625 204.913 35.9453 204.757 35.8789C204.601 35.8086 204.413 35.7734 204.194 35.7734C203.952 35.7734 203.743 35.8223 203.567 35.9199C203.396 36.0137 203.253 36.1445 203.14 36.3125C203.03 36.4805 202.948 36.6738 202.894 36.8926C202.843 37.1113 202.817 37.3477 202.817 37.6016ZM206.673 37.3145L206.034 37.4316C206.038 37.0332 206.093 36.6602 206.198 36.3125C206.304 35.9609 206.458 35.6543 206.661 35.3926C206.868 35.127 207.124 34.9199 207.429 34.7715C207.737 34.6191 208.093 34.543 208.495 34.543C208.808 34.543 209.089 34.5879 209.339 34.6777C209.593 34.7637 209.81 34.9023 209.989 35.0938C210.169 35.2812 210.306 35.5254 210.399 35.8262C210.497 36.127 210.546 36.4941 210.546 36.9277V41H208.987V36.9219C208.987 36.6133 208.944 36.377 208.858 36.2129C208.776 36.0488 208.657 35.9355 208.501 35.873C208.345 35.8066 208.161 35.7734 207.95 35.7734C207.735 35.7734 207.548 35.8145 207.388 35.8965C207.231 35.9746 207.099 36.084 206.989 36.2246C206.884 36.3652 206.804 36.5293 206.749 36.7168C206.698 36.9004 206.673 37.0996 206.673 37.3145ZM214.902 41.1172C214.422 41.1172 213.99 41.0391 213.607 40.8828C213.225 40.7266 212.898 40.5098 212.629 40.2324C212.363 39.9512 212.158 39.625 212.014 39.2539C211.873 38.8789 211.803 38.4766 211.803 38.0469V37.8125C211.803 37.3242 211.873 36.8809 212.014 36.4824C212.154 36.0801 212.353 35.7344 212.611 35.4453C212.869 35.1562 213.178 34.9336 213.537 34.7773C213.896 34.6211 214.293 34.543 214.726 34.543C215.176 34.543 215.572 34.6191 215.916 34.7715C216.26 34.9199 216.547 35.1309 216.777 35.4043C217.008 35.6777 217.182 36.0059 217.299 36.3887C217.416 36.7676 217.475 37.1875 217.475 37.6484V38.2988H212.506V37.2324H215.951V37.1152C215.943 36.8691 215.896 36.6445 215.81 36.4414C215.725 36.2344 215.592 36.0703 215.412 35.9492C215.232 35.8242 215 35.7617 214.715 35.7617C214.484 35.7617 214.283 35.8125 214.111 35.9141C213.943 36.0117 213.803 36.1523 213.689 36.3359C213.58 36.5156 213.498 36.7305 213.443 36.9805C213.389 37.2305 213.361 37.5078 213.361 37.8125V38.0469C213.361 38.3125 213.396 38.5586 213.467 38.7852C213.541 39.0117 213.648 39.209 213.789 39.377C213.934 39.541 214.105 39.6699 214.305 39.7637C214.508 39.8535 214.738 39.8984 214.996 39.8984C215.32 39.8984 215.613 39.8359 215.875 39.7109C216.141 39.582 216.371 39.3926 216.566 39.1426L217.346 39.9512C217.213 40.1465 217.033 40.334 216.807 40.5137C216.584 40.6934 216.314 40.8398 215.998 40.9531C215.682 41.0625 215.316 41.1172 214.902 41.1172ZM221.632 34.6602V35.7734H217.999V34.6602H221.632ZM218.971 33.1016H220.524V39.1719C220.524 39.3594 220.55 39.5039 220.6 39.6055C220.651 39.707 220.727 39.7754 220.829 39.8105C220.93 39.8457 221.052 39.8633 221.192 39.8633C221.294 39.8633 221.387 39.8574 221.473 39.8457C221.559 39.834 221.632 39.8223 221.69 39.8105L221.696 40.9707C221.567 41.0137 221.421 41.0488 221.257 41.0762C221.096 41.1035 220.915 41.1172 220.712 41.1172C220.364 41.1172 220.059 41.0586 219.798 40.9414C219.536 40.8203 219.333 40.627 219.188 40.3613C219.044 40.0918 218.971 39.7363 218.971 39.2949V33.1016ZM224.3 32V41H222.748V32H224.3ZM224.054 37.6016H223.597C223.597 37.1602 223.656 36.7539 223.773 36.3828C223.89 36.0117 224.056 35.6895 224.271 35.416C224.486 35.1387 224.742 34.9238 225.039 34.7715C225.34 34.6191 225.672 34.543 226.035 34.543C226.347 34.543 226.631 34.5879 226.884 34.6777C227.142 34.7637 227.363 34.9023 227.547 35.0938C227.73 35.2852 227.871 35.5352 227.968 35.8438C228.07 36.1484 228.121 36.5195 228.121 36.957V41H226.562V36.9453C226.562 36.6523 226.519 36.4219 226.433 36.2539C226.347 36.082 226.224 35.959 226.064 35.8848C225.908 35.8105 225.715 35.7734 225.484 35.7734C225.234 35.7734 225.019 35.8223 224.84 35.9199C224.66 36.0137 224.511 36.1445 224.394 36.3125C224.281 36.4805 224.195 36.6738 224.136 36.8926C224.082 37.1113 224.054 37.3477 224.054 37.6016ZM229.331 37.8945V37.7715C229.331 37.3066 229.397 36.8789 229.53 36.4883C229.663 36.0938 229.856 35.752 230.11 35.4629C230.364 35.1738 230.674 34.9492 231.042 34.7891C231.409 34.625 231.827 34.543 232.295 34.543C232.772 34.543 233.194 34.625 233.561 34.7891C233.932 34.9492 234.245 35.1738 234.499 35.4629C234.753 35.752 234.946 36.0938 235.079 36.4883C235.211 36.8789 235.278 37.3066 235.278 37.7715V37.8945C235.278 38.3555 235.211 38.7832 235.079 39.1777C234.946 39.5684 234.753 39.9102 234.499 40.2031C234.245 40.4922 233.934 40.7168 233.567 40.877C233.2 41.0371 232.78 41.1172 232.307 41.1172C231.838 41.1172 231.419 41.0371 231.047 40.877C230.676 40.7168 230.364 40.4922 230.11 40.2031C229.856 39.9102 229.663 39.5684 229.53 39.1777C229.397 38.7832 229.331 38.3555 229.331 37.8945ZM230.878 37.7715V37.8945C230.878 38.1719 230.905 38.4316 230.96 38.6738C231.014 38.916 231.098 39.1289 231.211 39.3125C231.325 39.4961 231.471 39.6406 231.651 39.7461C231.835 39.8477 232.053 39.8984 232.307 39.8984C232.557 39.8984 232.772 39.8477 232.952 39.7461C233.131 39.6406 233.278 39.4961 233.391 39.3125C233.508 39.1289 233.594 38.916 233.649 38.6738C233.704 38.4316 233.731 38.1719 233.731 37.8945V37.7715C233.731 37.498 233.704 37.2422 233.649 37.0039C233.594 36.7617 233.508 36.5488 233.391 36.3652C233.278 36.1777 233.129 36.0312 232.946 35.9258C232.766 35.8164 232.549 35.7617 232.295 35.7617C232.045 35.7617 231.831 35.8164 231.651 35.9258C231.471 36.0312 231.325 36.1777 231.211 36.3652C231.098 36.5488 231.014 36.7617 230.96 37.0039C230.905 37.2422 230.878 37.498 230.878 37.7715ZM240.326 39.6523V32H241.884V41H240.478L240.326 39.6523ZM236.253 37.9062V37.7832C236.253 37.2988 236.308 36.8594 236.417 36.4648C236.531 36.0664 236.695 35.7246 236.91 35.4395C237.124 35.1543 237.384 34.9336 237.689 34.7773C237.997 34.6211 238.347 34.543 238.738 34.543C239.117 34.543 239.447 34.6191 239.728 34.7715C240.013 34.9238 240.255 35.1406 240.455 35.4219C240.658 35.7031 240.82 36.0371 240.941 36.4238C241.062 36.8066 241.15 37.2285 241.205 37.6895V38.0234C241.15 38.4727 241.062 38.8848 240.941 39.2598C240.82 39.6348 240.658 39.9629 240.455 40.2441C240.255 40.5215 240.013 40.7363 239.728 40.8887C239.443 41.041 239.109 41.1172 238.726 41.1172C238.339 41.1172 237.992 41.0371 237.683 40.877C237.378 40.7168 237.119 40.4922 236.904 40.2031C236.693 39.9141 236.531 39.5742 236.417 39.1836C236.308 38.793 236.253 38.3672 236.253 37.9062ZM237.806 37.7832V37.9062C237.806 38.1797 237.83 38.4355 237.876 38.6738C237.923 38.9121 237.999 39.123 238.105 39.3066C238.21 39.4863 238.345 39.627 238.509 39.7285C238.677 39.8301 238.88 39.8809 239.119 39.8809C239.423 39.8809 239.673 39.8145 239.869 39.6816C240.068 39.5449 240.222 39.3594 240.331 39.125C240.441 38.8867 240.511 38.6191 240.542 38.3223V37.4023C240.527 37.168 240.486 36.9512 240.419 36.752C240.357 36.5527 240.267 36.3809 240.15 36.2363C240.037 36.0918 239.896 35.9785 239.728 35.8965C239.56 35.8145 239.361 35.7734 239.13 35.7734C238.892 35.7734 238.689 35.8262 238.521 35.9316C238.353 36.0332 238.216 36.1758 238.111 36.3594C238.005 36.543 237.927 36.7559 237.876 36.998C237.83 37.2402 237.806 37.502 237.806 37.7832ZM246.891 39.2656C246.891 39.1328 246.856 39.0137 246.785 38.9082C246.715 38.8027 246.582 38.707 246.387 38.6211C246.196 38.5312 245.914 38.4473 245.543 38.3691C245.215 38.2988 244.912 38.2109 244.635 38.1055C244.358 38 244.119 37.873 243.92 37.7246C243.721 37.5723 243.565 37.3945 243.451 37.1914C243.342 36.9844 243.287 36.7461 243.287 36.4766C243.287 36.2148 243.344 35.9688 243.457 35.7383C243.571 35.5039 243.735 35.2988 243.95 35.123C244.164 34.9434 244.426 34.8027 244.735 34.7012C245.043 34.5957 245.391 34.543 245.778 34.543C246.317 34.543 246.78 34.6309 247.166 34.8066C247.557 34.9824 247.856 35.2246 248.063 35.5332C248.27 35.8379 248.373 36.1816 248.373 36.5645H246.826C246.826 36.3965 246.787 36.2441 246.709 36.1074C246.635 35.9707 246.52 35.8613 246.364 35.7793C246.207 35.6934 246.01 35.6504 245.772 35.6504C245.557 35.6504 245.375 35.6855 245.227 35.7559C245.082 35.8262 244.973 35.918 244.899 36.0312C244.825 36.1445 244.787 36.2695 244.787 36.4062C244.787 36.5078 244.807 36.5996 244.846 36.6816C244.889 36.7598 244.957 36.832 245.051 36.8984C245.145 36.9648 245.272 37.0254 245.432 37.0801C245.596 37.1348 245.797 37.1875 246.035 37.2383C246.508 37.332 246.92 37.457 247.272 37.6133C247.627 37.7656 247.905 37.9688 248.104 38.2227C248.303 38.4766 248.403 38.8008 248.403 39.1953C248.403 39.4766 248.342 39.7344 248.221 39.9688C248.1 40.1992 247.924 40.4004 247.694 40.5723C247.463 40.7441 247.188 40.8789 246.868 40.9766C246.547 41.0703 246.186 41.1172 245.784 41.1172C245.201 41.1172 244.709 41.0137 244.307 40.8066C243.905 40.5957 243.6 40.3301 243.393 40.0098C243.186 39.6855 243.082 39.3496 243.082 39.002H244.565C244.576 39.248 244.643 39.4453 244.764 39.5938C244.885 39.7422 245.037 39.8496 245.221 39.916C245.409 39.9785 245.606 40.0098 245.813 40.0098C246.047 40.0098 246.244 39.9785 246.405 39.916C246.565 39.8496 246.686 39.7617 246.768 39.6523C246.85 39.5391 246.891 39.4102 246.891 39.2656Z" fill="black"/>
<circle cx="203.293" cy="10" r="10" fill="url(#paint0_radial_1193_11225)"/>
<path d="M317.592 39.8984C317.811 39.8984 318.006 39.8555 318.178 39.7695C318.35 39.6836 318.486 39.5625 318.588 39.4062C318.693 39.25 318.75 39.0684 318.758 38.8613H320.217C320.209 39.291 320.088 39.6758 319.854 40.0156C319.619 40.3555 319.307 40.625 318.916 40.8242C318.529 41.0195 318.096 41.1172 317.615 41.1172C317.127 41.1172 316.701 41.0352 316.338 40.8711C315.975 40.707 315.672 40.4785 315.43 40.1855C315.191 39.8926 315.012 39.5527 314.891 39.166C314.773 38.7793 314.715 38.3652 314.715 37.9238V37.7363C314.715 37.2949 314.773 36.8809 314.891 36.4941C315.012 36.1074 315.191 35.7676 315.43 35.4746C315.672 35.1816 315.975 34.9531 316.338 34.7891C316.701 34.625 317.125 34.543 317.609 34.543C318.121 34.543 318.57 34.6426 318.957 34.8418C319.348 35.041 319.652 35.3223 319.871 35.6855C320.094 36.0488 320.209 36.4766 320.217 36.9688H318.758C318.75 36.7422 318.699 36.5391 318.605 36.3594C318.512 36.1797 318.379 36.0352 318.207 35.9258C318.035 35.8164 317.826 35.7617 317.58 35.7617C317.318 35.7617 317.1 35.8164 316.924 35.9258C316.752 36.0352 316.617 36.1855 316.52 36.377C316.426 36.5645 316.359 36.7754 316.32 37.0098C316.285 37.2402 316.268 37.4824 316.268 37.7363V37.9238C316.268 38.1816 316.285 38.4277 316.32 38.6621C316.359 38.8965 316.426 39.1074 316.52 39.2949C316.617 39.4785 316.752 39.625 316.924 39.7344C317.1 39.8438 317.322 39.8984 317.592 39.8984ZM321.093 37.8945V37.7715C321.093 37.3066 321.159 36.8789 321.292 36.4883C321.425 36.0938 321.618 35.752 321.872 35.4629C322.126 35.1738 322.436 34.9492 322.804 34.7891C323.171 34.625 323.589 34.543 324.057 34.543C324.534 34.543 324.956 34.625 325.323 34.7891C325.694 34.9492 326.007 35.1738 326.261 35.4629C326.515 35.752 326.708 36.0938 326.841 36.4883C326.974 36.8789 327.04 37.3066 327.04 37.7715V37.8945C327.04 38.3555 326.974 38.7832 326.841 39.1777C326.708 39.5684 326.515 39.9102 326.261 40.2031C326.007 40.4922 325.696 40.7168 325.329 40.877C324.962 41.0371 324.542 41.1172 324.069 41.1172C323.6 41.1172 323.181 41.0371 322.809 40.877C322.438 40.7168 322.126 40.4922 321.872 40.2031C321.618 39.9102 321.425 39.5684 321.292 39.1777C321.159 38.7832 321.093 38.3555 321.093 37.8945ZM322.64 37.7715V37.8945C322.64 38.1719 322.667 38.4316 322.722 38.6738C322.776 38.916 322.86 39.1289 322.974 39.3125C323.087 39.4961 323.233 39.6406 323.413 39.7461C323.597 39.8477 323.815 39.8984 324.069 39.8984C324.319 39.8984 324.534 39.8477 324.714 39.7461C324.893 39.6406 325.04 39.4961 325.153 39.3125C325.27 39.1289 325.356 38.916 325.411 38.6738C325.466 38.4316 325.493 38.1719 325.493 37.8945V37.7715C325.493 37.498 325.466 37.2422 325.411 37.0039C325.356 36.7617 325.27 36.5488 325.153 36.3652C325.04 36.1777 324.891 36.0312 324.708 35.9258C324.528 35.8164 324.311 35.7617 324.057 35.7617C323.807 35.7617 323.593 35.8164 323.413 35.9258C323.233 36.0312 323.087 36.1777 322.974 36.3652C322.86 36.5488 322.776 36.7617 322.722 37.0039C322.667 37.2422 322.64 37.498 322.64 37.7715ZM329.802 36.0137V41H328.256V34.6602H329.709L329.802 36.0137ZM329.556 37.6016H329.099C329.103 37.1406 329.166 36.7227 329.287 36.3477C329.408 35.9727 329.578 35.6504 329.797 35.3809C330.019 35.1113 330.283 34.9043 330.588 34.7598C330.892 34.6152 331.232 34.543 331.607 34.543C331.912 34.543 332.187 34.5859 332.433 34.6719C332.679 34.7578 332.89 34.8945 333.066 35.082C333.246 35.2695 333.383 35.5156 333.476 35.8203C333.574 36.1211 333.623 36.4922 333.623 36.9336V41H332.064V36.9219C332.064 36.6328 332.021 36.4043 331.935 36.2363C331.853 36.0684 331.732 35.9492 331.572 35.8789C331.416 35.8086 331.222 35.7734 330.992 35.7734C330.754 35.7734 330.545 35.8223 330.365 35.9199C330.189 36.0137 330.041 36.1445 329.92 36.3125C329.802 36.4805 329.713 36.6738 329.65 36.8926C329.588 37.1113 329.556 37.3477 329.556 37.6016ZM337.065 41H335.506V34.3086C335.506 33.7852 335.612 33.3438 335.823 32.9844C336.038 32.6211 336.344 32.3457 336.743 32.1582C337.145 31.9707 337.624 31.877 338.178 31.877C338.503 31.877 338.815 31.9102 339.116 31.9766C339.421 32.0391 339.733 32.1211 340.053 32.2227L339.825 33.4766C339.618 33.4102 339.391 33.3477 339.145 33.2891C338.903 33.2305 338.616 33.2012 338.284 33.2012C337.874 33.2012 337.567 33.2949 337.364 33.4824C337.165 33.6699 337.065 33.9453 337.065 34.3086V41ZM338.331 34.6602V35.7734H334.551V34.6602H338.331ZM340.78 34.6602V41H339.227V34.6602H340.78ZM343.947 35.9551V41H342.4V34.6602H343.865L343.947 35.9551ZM345.875 34.6191L345.851 36.0605C345.765 36.0449 345.667 36.0332 345.558 36.0254C345.453 36.0176 345.353 36.0137 345.259 36.0137C345.021 36.0137 344.812 36.0469 344.632 36.1133C344.453 36.1758 344.302 36.2676 344.181 36.3887C344.064 36.5098 343.974 36.6582 343.912 36.834C343.849 37.0059 343.814 37.2012 343.806 37.4199L343.472 37.3789C343.472 36.9766 343.513 36.6035 343.595 36.2598C343.677 35.916 343.796 35.6152 343.953 35.3574C344.109 35.0996 344.304 34.9004 344.539 34.7598C344.777 34.6152 345.05 34.543 345.359 34.543C345.445 34.543 345.537 34.5508 345.634 34.5664C345.736 34.5781 345.816 34.5957 345.875 34.6191ZM348.385 35.9609V41H346.838V34.6602H348.297L348.385 35.9609ZM348.157 37.6016H347.682C347.682 37.1602 347.735 36.7539 347.84 36.3828C347.95 36.0117 348.11 35.6895 348.321 35.416C348.532 35.1387 348.791 34.9238 349.1 34.7715C349.413 34.6191 349.774 34.543 350.184 34.543C350.469 34.543 350.731 34.5859 350.969 34.6719C351.207 34.7539 351.413 34.8848 351.584 35.0645C351.76 35.2402 351.895 35.4707 351.989 35.7559C352.082 36.0371 352.129 36.375 352.129 36.7695V41H350.582V36.9277C350.582 36.6309 350.539 36.3984 350.454 36.2305C350.371 36.0625 350.252 35.9453 350.096 35.8789C349.94 35.8086 349.752 35.7734 349.534 35.7734C349.291 35.7734 349.082 35.8223 348.907 35.9199C348.735 36.0137 348.592 36.1445 348.479 36.3125C348.37 36.4805 348.288 36.6738 348.233 36.8926C348.182 37.1113 348.157 37.3477 348.157 37.6016ZM352.012 37.3145L351.373 37.4316C351.377 37.0332 351.432 36.6602 351.538 36.3125C351.643 35.9609 351.797 35.6543 352 35.3926C352.207 35.127 352.463 34.9199 352.768 34.7715C353.077 34.6191 353.432 34.543 353.834 34.543C354.147 34.543 354.428 34.5879 354.678 34.6777C354.932 34.7637 355.149 34.9023 355.329 35.0938C355.508 35.2812 355.645 35.5254 355.739 35.8262C355.836 36.127 355.885 36.4941 355.885 36.9277V41H354.327V36.9219C354.327 36.6133 354.284 36.377 354.198 36.2129C354.116 36.0488 353.996 35.9355 353.84 35.873C353.684 35.8066 353.5 35.7734 353.289 35.7734C353.075 35.7734 352.887 35.8145 352.727 35.8965C352.571 35.9746 352.438 36.084 352.329 36.2246C352.223 36.3652 352.143 36.5293 352.088 36.7168C352.038 36.9004 352.012 37.0996 352.012 37.3145ZM360.886 39.6523V36.7285C360.886 36.5137 360.849 36.3281 360.775 36.1719C360.7 36.0156 360.587 35.8945 360.435 35.8086C360.283 35.7227 360.089 35.6797 359.855 35.6797C359.648 35.6797 359.466 35.7148 359.31 35.7852C359.158 35.8555 359.04 35.9551 358.958 36.084C358.876 36.209 358.835 36.3535 358.835 36.5176H357.283C357.283 36.2559 357.345 36.0078 357.47 35.7734C357.595 35.5352 357.773 35.3242 358.003 35.1406C358.238 34.9531 358.517 34.8066 358.841 34.7012C359.169 34.5957 359.536 34.543 359.943 34.543C360.423 34.543 360.851 34.625 361.226 34.7891C361.605 34.9492 361.902 35.1914 362.116 35.5156C362.335 35.8398 362.445 36.248 362.445 36.7402V39.5059C362.445 39.8223 362.464 40.0938 362.503 40.3203C362.546 40.543 362.609 40.7363 362.691 40.9004V41H361.115C361.04 40.8398 360.984 40.6367 360.945 40.3906C360.906 40.1406 360.886 39.8945 360.886 39.6523ZM361.103 37.1387L361.115 38.0586H360.136C359.894 38.0586 359.681 38.084 359.497 38.1348C359.314 38.1816 359.163 38.252 359.046 38.3457C358.929 38.4355 358.841 38.5449 358.783 38.6738C358.724 38.7988 358.695 38.9414 358.695 39.1016C358.695 39.2578 358.73 39.3984 358.8 39.5234C358.874 39.6484 358.98 39.748 359.116 39.8223C359.257 39.8926 359.421 39.9277 359.609 39.9277C359.882 39.9277 360.12 39.873 360.324 39.7637C360.527 39.6504 360.685 39.5137 360.798 39.3535C360.911 39.1934 360.972 39.041 360.98 38.8965L361.425 39.5645C361.37 39.7246 361.288 39.8945 361.179 40.0742C361.07 40.2539 360.929 40.4219 360.757 40.5781C360.585 40.7344 360.378 40.8633 360.136 40.9648C359.894 41.0664 359.613 41.1172 359.292 41.1172C358.882 41.1172 358.515 41.0352 358.191 40.8711C357.866 40.707 357.611 40.4824 357.423 40.1973C357.236 39.9121 357.142 39.5879 357.142 39.2246C357.142 38.8887 357.204 38.5918 357.329 38.334C357.454 38.0762 357.64 37.8594 357.886 37.6836C358.132 37.5039 358.437 37.3691 358.8 37.2793C359.167 37.1855 359.587 37.1387 360.06 37.1387H361.103ZM366.959 34.6602V35.7734H363.326V34.6602H366.959ZM364.299 33.1016H365.852V39.1719C365.852 39.3594 365.877 39.5039 365.928 39.6055C365.979 39.707 366.055 39.7754 366.156 39.8105C366.258 39.8457 366.379 39.8633 366.52 39.8633C366.621 39.8633 366.715 39.8574 366.801 39.8457C366.887 39.834 366.959 39.8223 367.018 39.8105L367.024 40.9707C366.895 41.0137 366.748 41.0488 366.584 41.0762C366.424 41.1035 366.242 41.1172 366.039 41.1172C365.692 41.1172 365.387 41.0586 365.125 40.9414C364.863 40.8203 364.66 40.627 364.516 40.3613C364.371 40.0918 364.299 39.7363 364.299 39.2949V33.1016ZM369.751 34.6602V41H368.198V34.6602H369.751ZM368.093 33.002C368.093 32.7715 368.171 32.5801 368.327 32.4277C368.487 32.2754 368.702 32.1992 368.972 32.1992C369.241 32.1992 369.454 32.2754 369.61 32.4277C369.771 32.5801 369.851 32.7715 369.851 33.002C369.851 33.2285 369.771 33.418 369.61 33.5703C369.454 33.7227 369.241 33.7988 368.972 33.7988C368.702 33.7988 368.487 33.7227 368.327 33.5703C368.171 33.418 368.093 33.2285 368.093 33.002ZM371.072 37.8945V37.7715C371.072 37.3066 371.139 36.8789 371.271 36.4883C371.404 36.0938 371.598 35.752 371.851 35.4629C372.105 35.1738 372.416 34.9492 372.783 34.7891C373.15 34.625 373.568 34.543 374.037 34.543C374.514 34.543 374.935 34.625 375.303 34.7891C375.674 34.9492 375.986 35.1738 376.24 35.4629C376.494 35.752 376.687 36.0938 376.82 36.4883C376.953 36.8789 377.019 37.3066 377.019 37.7715V37.8945C377.019 38.3555 376.953 38.7832 376.82 39.1777C376.687 39.5684 376.494 39.9102 376.24 40.2031C375.986 40.4922 375.676 40.7168 375.309 40.877C374.941 41.0371 374.521 41.1172 374.049 41.1172C373.58 41.1172 373.16 41.0371 372.789 40.877C372.418 40.7168 372.105 40.4922 371.851 40.2031C371.598 39.9102 371.404 39.5684 371.271 39.1777C371.139 38.7832 371.072 38.3555 371.072 37.8945ZM372.619 37.7715V37.8945C372.619 38.1719 372.646 38.4316 372.701 38.6738C372.756 38.916 372.84 39.1289 372.953 39.3125C373.066 39.4961 373.213 39.6406 373.393 39.7461C373.576 39.8477 373.795 39.8984 374.049 39.8984C374.299 39.8984 374.514 39.8477 374.693 39.7461C374.873 39.6406 375.019 39.4961 375.133 39.3125C375.25 39.1289 375.336 38.916 375.391 38.6738C375.445 38.4316 375.473 38.1719 375.473 37.8945V37.7715C375.473 37.498 375.445 37.2422 375.391 37.0039C375.336 36.7617 375.25 36.5488 375.133 36.3652C375.019 36.1777 374.871 36.0312 374.687 35.9258C374.508 35.8164 374.291 35.7617 374.037 35.7617C373.787 35.7617 373.572 35.8164 373.393 35.9258C373.213 36.0312 373.066 36.1777 372.953 36.3652C372.84 36.5488 372.756 36.7617 372.701 37.0039C372.646 37.2422 372.619 37.498 372.619 37.7715ZM379.782 36.0137V41H378.235V34.6602H379.688L379.782 36.0137ZM379.536 37.6016H379.079C379.083 37.1406 379.145 36.7227 379.266 36.3477C379.388 35.9727 379.557 35.6504 379.776 35.3809C379.999 35.1113 380.263 34.9043 380.567 34.7598C380.872 34.6152 381.212 34.543 381.587 34.543C381.891 34.543 382.167 34.5859 382.413 34.6719C382.659 34.7578 382.87 34.8945 383.046 35.082C383.225 35.2695 383.362 35.5156 383.456 35.8203C383.554 36.1211 383.602 36.4922 383.602 36.9336V41H382.044V36.9219C382.044 36.6328 382.001 36.4043 381.915 36.2363C381.833 36.0684 381.712 35.9492 381.552 35.8789C381.395 35.8086 381.202 35.7734 380.971 35.7734C380.733 35.7734 380.524 35.8223 380.345 35.9199C380.169 36.0137 380.02 36.1445 379.899 36.3125C379.782 36.4805 379.692 36.6738 379.63 36.8926C379.567 37.1113 379.536 37.3477 379.536 37.6016Z" fill="#7F7F7F"/>
<ellipse cx="352.252" cy="10" rx="9.95887" ry="10" fill="#21292B"/>
<defs>
<radialGradient id="paint0_radial_1193_11225" cx="0" cy="0" r="1" gradientUnits="userSpaceOnUse" gradientTransform="translate(203.293 10) rotate(90) scale(10)">
<stop offset="0.433" stop-color="white"/>
<stop offset="0.468" stop-color="#21292B"/>
</radialGradient>
</defs>
</svg>
