<svg width="390" height="44" viewBox="0 0 390 44" fill="none" xmlns="http://www.w3.org/2000/svg">
<line x1="52.7812" y1="9.5" x2="345.572" y2="9.5" stroke="black"/>
<path d="M4.08398 37.1973H1.9043L1.89258 36.0605H3.76172C4.08203 36.0605 4.34961 36.0156 4.56445 35.9258C4.7793 35.8359 4.94141 35.7051 5.05078 35.5332C5.16406 35.3613 5.2207 35.1523 5.2207 34.9062C5.2207 34.6328 5.16797 34.4102 5.0625 34.2383C4.96094 34.0664 4.80078 33.9414 4.58203 33.8633C4.36328 33.7812 4.08594 33.7402 3.75 33.7402H2.42578V41H0.814453V32.4688H3.75C4.23438 32.4688 4.66602 32.5156 5.04492 32.6094C5.42773 32.6992 5.75195 32.8398 6.01758 33.0312C6.2832 33.2227 6.48438 33.4629 6.62109 33.752C6.76172 34.041 6.83203 34.3848 6.83203 34.7832C6.83203 35.1348 6.75 35.459 6.58594 35.7559C6.42578 36.0488 6.17773 36.2871 5.8418 36.4707C5.50977 36.6543 5.08789 36.7598 4.57617 36.7871L4.08398 37.1973ZM4.01367 41H1.42969L2.10352 39.7344H4.01367C4.33398 39.7344 4.59766 39.6816 4.80469 39.5762C5.01562 39.4707 5.17188 39.3262 5.27344 39.1426C5.37891 38.9551 5.43164 38.7402 5.43164 38.498C5.43164 38.2324 5.38477 38.002 5.29102 37.8066C5.20117 37.6113 5.05664 37.4609 4.85742 37.3555C4.66211 37.25 4.4043 37.1973 4.08398 37.1973H2.4082L2.41992 36.0605H4.55273L4.92188 36.5C5.41406 36.5039 5.81445 36.6016 6.12305 36.793C6.43555 36.9844 6.66602 37.2305 6.81445 37.5312C6.96289 37.832 7.03711 38.1562 7.03711 38.5039C7.03711 39.0508 6.91797 39.5098 6.67969 39.8809C6.44531 40.252 6.10156 40.5312 5.64844 40.7188C5.19922 40.9062 4.6543 41 4.01367 41ZM8.15906 37.8945V37.7715C8.15906 37.3066 8.22547 36.8789 8.35828 36.4883C8.49109 36.0938 8.68445 35.752 8.93836 35.4629C9.19227 35.1738 9.50281 34.9492 9.87 34.7891C10.2372 34.625 10.6552 34.543 11.1239 34.543C11.6005 34.543 12.0223 34.625 12.3895 34.7891C12.7606 34.9492 13.0731 35.1738 13.327 35.4629C13.5809 35.752 13.7743 36.0938 13.9071 36.4883C14.0399 36.8789 14.1063 37.3066 14.1063 37.7715V37.8945C14.1063 38.3555 14.0399 38.7832 13.9071 39.1777C13.7743 39.5684 13.5809 39.9102 13.327 40.2031C13.0731 40.4922 12.7626 40.7168 12.3954 40.877C12.0282 41.0371 11.6083 41.1172 11.1356 41.1172C10.6669 41.1172 10.247 41.0371 9.87586 40.877C9.50477 40.7168 9.19227 40.4922 8.93836 40.2031C8.68445 39.9102 8.49109 39.5684 8.35828 39.1777C8.22547 38.7832 8.15906 38.3555 8.15906 37.8945ZM9.70594 37.7715V37.8945C9.70594 38.1719 9.73328 38.4316 9.78797 38.6738C9.84266 38.916 9.92664 39.1289 10.0399 39.3125C10.1532 39.4961 10.2997 39.6406 10.4794 39.7461C10.663 39.8477 10.8817 39.8984 11.1356 39.8984C11.3856 39.8984 11.6005 39.8477 11.7802 39.7461C11.9598 39.6406 12.1063 39.4961 12.2196 39.3125C12.3368 39.1289 12.4227 38.916 12.4774 38.6738C12.5321 38.4316 12.5595 38.1719 12.5595 37.8945V37.7715C12.5595 37.498 12.5321 37.2422 12.4774 37.0039C12.4227 36.7617 12.3368 36.5488 12.2196 36.3652C12.1063 36.1777 11.9579 36.0312 11.7743 35.9258C11.5946 35.8164 11.3778 35.7617 11.1239 35.7617C10.8739 35.7617 10.6591 35.8164 10.4794 35.9258C10.2997 36.0312 10.1532 36.1777 10.0399 36.3652C9.92664 36.5488 9.84266 36.7617 9.78797 37.0039C9.73328 37.2422 9.70594 37.498 9.70594 37.7715ZM15.0759 37.8945V37.7715C15.0759 37.3066 15.1423 36.8789 15.2752 36.4883C15.408 36.0938 15.6013 35.752 15.8552 35.4629C16.1091 35.1738 16.4197 34.9492 16.7869 34.7891C17.1541 34.625 17.572 34.543 18.0408 34.543C18.5173 34.543 18.9392 34.625 19.3064 34.7891C19.6775 34.9492 19.99 35.1738 20.2439 35.4629C20.4978 35.752 20.6912 36.0938 20.824 36.4883C20.9568 36.8789 21.0232 37.3066 21.0232 37.7715V37.8945C21.0232 38.3555 20.9568 38.7832 20.824 39.1777C20.6912 39.5684 20.4978 39.9102 20.2439 40.2031C19.99 40.4922 19.6795 40.7168 19.3123 40.877C18.9451 41.0371 18.5252 41.1172 18.0525 41.1172C17.5837 41.1172 17.1638 41.0371 16.7927 40.877C16.4216 40.7168 16.1091 40.4922 15.8552 40.2031C15.6013 39.9102 15.408 39.5684 15.2752 39.1777C15.1423 38.7832 15.0759 38.3555 15.0759 37.8945ZM16.6228 37.7715V37.8945C16.6228 38.1719 16.6502 38.4316 16.7048 38.6738C16.7595 38.916 16.8435 39.1289 16.9568 39.3125C17.0701 39.4961 17.2166 39.6406 17.3962 39.7461C17.5798 39.8477 17.7986 39.8984 18.0525 39.8984C18.3025 39.8984 18.5173 39.8477 18.697 39.7461C18.8767 39.6406 19.0232 39.4961 19.1365 39.3125C19.2537 39.1289 19.3396 38.916 19.3943 38.6738C19.449 38.4316 19.4763 38.1719 19.4763 37.8945V37.7715C19.4763 37.498 19.449 37.2422 19.3943 37.0039C19.3396 36.7617 19.2537 36.5488 19.1365 36.3652C19.0232 36.1777 18.8748 36.0312 18.6912 35.9258C18.5115 35.8164 18.2947 35.7617 18.0408 35.7617C17.7908 35.7617 17.5759 35.8164 17.3962 35.9258C17.2166 36.0312 17.0701 36.1777 16.9568 36.3652C16.8435 36.5488 16.7595 36.7617 16.7048 37.0039C16.6502 37.2422 16.6228 37.498 16.6228 37.7715ZM23.8151 31.9941V41H22.2682V31.9941H23.8151ZM27.7877 34.6602L25.028 37.7598L23.5338 39.2773L23.0416 38.0762L24.1959 36.623L25.9186 34.6602H27.7877ZM26.2057 41L24.2428 38.0469L25.2741 37.0449L27.9987 41H26.2057ZM30.3687 34.6602V41H28.8159V34.6602H30.3687ZM28.7105 33.002C28.7105 32.7715 28.7886 32.5801 28.9448 32.4277C29.105 32.2754 29.3198 32.1992 29.5894 32.1992C29.8589 32.1992 30.0718 32.2754 30.228 32.4277C30.3882 32.5801 30.4683 32.7715 30.4683 33.002C30.4683 33.2285 30.3882 33.418 30.228 33.5703C30.0718 33.7227 29.8589 33.7988 29.5894 33.7988C29.3198 33.7988 29.105 33.7227 28.9448 33.5703C28.7886 33.418 28.7105 33.2285 28.7105 33.002ZM33.4828 36.0137V41H31.9359V34.6602H33.3891L33.4828 36.0137ZM33.2367 37.6016H32.7797C32.7836 37.1406 32.8461 36.7227 32.9672 36.3477C33.0883 35.9727 33.2582 35.6504 33.477 35.3809C33.6996 35.1113 33.9633 34.9043 34.268 34.7598C34.5727 34.6152 34.9125 34.543 35.2875 34.543C35.5922 34.543 35.8676 34.5859 36.1137 34.6719C36.3598 34.7578 36.5707 34.8945 36.7465 35.082C36.9262 35.2695 37.0629 35.5156 37.1566 35.8203C37.2543 36.1211 37.3031 36.4922 37.3031 36.9336V41H35.7445V36.9219C35.7445 36.6328 35.7016 36.4043 35.6156 36.2363C35.5336 36.0684 35.4125 35.9492 35.2523 35.8789C35.0961 35.8086 34.9027 35.7734 34.6723 35.7734C34.434 35.7734 34.225 35.8223 34.0453 35.9199C33.8695 36.0137 33.7211 36.1445 33.6 36.3125C33.4828 36.4805 33.393 36.6738 33.3305 36.8926C33.268 37.1113 33.2367 37.3477 33.2367 37.6016ZM42.8196 34.6602H44.2259V40.8066C44.2259 41.3809 44.1009 41.8672 43.8509 42.2656C43.6048 42.668 43.2591 42.9727 42.8138 43.1797C42.3684 43.3906 41.8509 43.4961 41.261 43.4961C41.0071 43.4961 40.7317 43.4609 40.4348 43.3906C40.1419 43.3203 39.8587 43.209 39.5852 43.0566C39.3157 42.9082 39.0911 42.7148 38.9114 42.4766L39.6087 41.5625C39.8196 41.8086 40.0579 41.9941 40.3235 42.1191C40.5891 42.248 40.8763 42.3125 41.1848 42.3125C41.4973 42.3125 41.763 42.2539 41.9817 42.1367C42.2044 42.0234 42.3743 41.8555 42.4915 41.6328C42.6126 41.4141 42.6731 41.1445 42.6731 40.8242V36.1074L42.8196 34.6602ZM38.5364 37.9062V37.7832C38.5364 37.2988 38.595 36.8594 38.7122 36.4648C38.8294 36.0664 38.9973 35.7246 39.2161 35.4395C39.4388 35.1543 39.7063 34.9336 40.0188 34.7773C40.3352 34.6211 40.6907 34.543 41.0852 34.543C41.5032 34.543 41.8548 34.6191 42.1399 34.7715C42.429 34.9238 42.6673 35.1406 42.8548 35.4219C43.0462 35.7031 43.1946 36.0371 43.3001 36.4238C43.4095 36.8066 43.4934 37.2285 43.552 37.6895V38.0234C43.4973 38.4727 43.4095 38.8848 43.2884 39.2598C43.1712 39.6348 43.0149 39.9629 42.8196 40.2441C42.6243 40.5215 42.3821 40.7363 42.093 40.8887C41.804 41.041 41.4641 41.1172 41.0735 41.1172C40.6829 41.1172 40.3313 41.0371 40.0188 40.877C39.7063 40.7168 39.4388 40.4922 39.2161 40.2031C38.9973 39.9141 38.8294 39.5742 38.7122 39.1836C38.595 38.793 38.5364 38.3672 38.5364 37.9062ZM40.0833 37.7832V37.9062C40.0833 38.1797 40.1106 38.4355 40.1653 38.6738C40.22 38.9121 40.304 39.123 40.4173 39.3066C40.5305 39.4863 40.6731 39.627 40.845 39.7285C41.0169 39.8301 41.222 39.8809 41.4602 39.8809C41.7805 39.8809 42.0423 39.8145 42.2454 39.6816C42.4524 39.5449 42.6087 39.3594 42.7141 39.125C42.8235 38.8867 42.8938 38.6191 42.9251 38.3223V37.4023C42.9055 37.168 42.8626 36.9512 42.7962 36.752C42.7337 36.5527 42.6458 36.3809 42.5325 36.2363C42.4192 36.0918 42.2747 35.9785 42.0989 35.8965C41.9231 35.8145 41.7141 35.7734 41.472 35.7734C41.2376 35.7734 41.0325 35.8262 40.8567 35.9316C40.6809 36.0332 40.5364 36.1758 40.4231 36.3594C40.3098 36.543 40.2239 36.7559 40.1653 36.998C40.1106 37.2402 40.0833 37.502 40.0833 37.7832ZM52.6514 39.6523V32H54.21V41H52.8037L52.6514 39.6523ZM48.5791 37.9062V37.7832C48.5791 37.2988 48.6338 36.8594 48.7432 36.4648C48.8565 36.0664 49.0205 35.7246 49.2354 35.4395C49.4502 35.1543 49.71 34.9336 50.0147 34.7773C50.3233 34.6211 50.6729 34.543 51.0635 34.543C51.4424 34.543 51.7725 34.6191 52.0537 34.7715C52.3389 34.9238 52.5811 35.1406 52.7803 35.4219C52.9834 35.7031 53.1455 36.0371 53.2666 36.4238C53.3877 36.8066 53.4756 37.2285 53.5303 37.6895V38.0234C53.4756 38.4727 53.3877 38.8848 53.2666 39.2598C53.1455 39.6348 52.9834 39.9629 52.7803 40.2441C52.5811 40.5215 52.3389 40.7363 52.0537 40.8887C51.7686 41.041 51.4346 41.1172 51.0518 41.1172C50.6651 41.1172 50.3174 41.0371 50.0088 40.877C49.7041 40.7168 49.4444 40.4922 49.2295 40.2031C49.0186 39.9141 48.8565 39.5742 48.7432 39.1836C48.6338 38.793 48.5791 38.3672 48.5791 37.9062ZM50.1319 37.7832V37.9062C50.1319 38.1797 50.1553 38.4355 50.2022 38.6738C50.2491 38.9121 50.3252 39.123 50.4307 39.3066C50.5362 39.4863 50.6709 39.627 50.835 39.7285C51.003 39.8301 51.2061 39.8809 51.4444 39.8809C51.7491 39.8809 51.9991 39.8145 52.1944 39.6816C52.3936 39.5449 52.5479 39.3594 52.6573 39.125C52.7666 38.8867 52.837 38.6191 52.8682 38.3223V37.4023C52.8526 37.168 52.8116 36.9512 52.7452 36.752C52.6827 36.5527 52.5928 36.3809 52.4756 36.2363C52.3623 36.0918 52.2217 35.9785 52.0537 35.8965C51.8858 35.8145 51.6866 35.7734 51.4561 35.7734C51.2178 35.7734 51.0147 35.8262 50.8467 35.9316C50.6787 36.0332 50.542 36.1758 50.4366 36.3594C50.3311 36.543 50.253 36.7559 50.2022 36.998C50.1553 37.2402 50.1319 37.502 50.1319 37.7832ZM58.578 41.1172C58.0976 41.1172 57.6659 41.0391 57.2831 40.8828C56.9003 40.7266 56.5741 40.5098 56.3046 40.2324C56.039 39.9512 55.8339 39.625 55.6894 39.2539C55.5488 38.8789 55.4784 38.4766 55.4784 38.0469V37.8125C55.4784 37.3242 55.5488 36.8809 55.6894 36.4824C55.83 36.0801 56.0292 35.7344 56.287 35.4453C56.5448 35.1562 56.8534 34.9336 57.2128 34.7773C57.5722 34.6211 57.9687 34.543 58.4023 34.543C58.8515 34.543 59.248 34.6191 59.5917 34.7715C59.9355 34.9199 60.2226 35.1309 60.453 35.4043C60.6835 35.6777 60.8573 36.0059 60.9745 36.3887C61.0917 36.7676 61.1503 37.1875 61.1503 37.6484V38.2988H56.1816V37.2324H59.6269V37.1152C59.6191 36.8691 59.5722 36.6445 59.4863 36.4414C59.4003 36.2344 59.2675 36.0703 59.0878 35.9492C58.9081 35.8242 58.6757 35.7617 58.3905 35.7617C58.1601 35.7617 57.9589 35.8125 57.787 35.9141C57.6191 36.0117 57.4784 36.1523 57.3652 36.3359C57.2558 36.5156 57.1738 36.7305 57.1191 36.9805C57.0644 37.2305 57.037 37.5078 57.037 37.8125V38.0469C57.037 38.3125 57.0722 38.5586 57.1425 38.7852C57.2167 39.0117 57.3241 39.209 57.4648 39.377C57.6093 39.541 57.7812 39.6699 57.9804 39.7637C58.1835 39.8535 58.414 39.8984 58.6718 39.8984C58.996 39.8984 59.289 39.8359 59.5507 39.7109C59.8163 39.582 60.0468 39.3926 60.2421 39.1426L61.0214 39.9512C60.8886 40.1465 60.7089 40.334 60.4823 40.5137C60.2597 40.6934 59.9902 40.8398 59.6738 40.9531C59.3573 41.0625 58.9921 41.1172 58.578 41.1172ZM65.3074 34.6602V35.7734H61.6746V34.6602H65.3074ZM62.6473 33.1016H64.2V39.1719C64.2 39.3594 64.2254 39.5039 64.2762 39.6055C64.327 39.707 64.4031 39.7754 64.5047 39.8105C64.6063 39.8457 64.7273 39.8633 64.868 39.8633C64.9695 39.8633 65.0633 39.8574 65.1492 39.8457C65.2352 39.834 65.3074 39.8223 65.366 39.8105L65.3719 40.9707C65.243 41.0137 65.0965 41.0488 64.9324 41.0762C64.7723 41.1035 64.5906 41.1172 64.3875 41.1172C64.0398 41.1172 63.7352 41.0586 63.4734 40.9414C63.2117 40.8203 63.0086 40.627 62.8641 40.3613C62.7195 40.0918 62.6473 39.7363 62.6473 39.2949V33.1016ZM69.9509 39.6523V36.7285C69.9509 36.5137 69.9137 36.3281 69.8395 36.1719C69.7653 36.0156 69.652 35.8945 69.4997 35.8086C69.3473 35.7227 69.154 35.6797 68.9196 35.6797C68.7126 35.6797 68.5309 35.7148 68.3747 35.7852C68.2223 35.8555 68.1052 35.9551 68.0231 36.084C67.9411 36.209 67.9001 36.3535 67.9001 36.5176H66.3473C66.3473 36.2559 66.4098 36.0078 66.5348 35.7734C66.6598 35.5352 66.8376 35.3242 67.068 35.1406C67.3024 34.9531 67.5817 34.8066 67.9059 34.7012C68.2341 34.5957 68.6012 34.543 69.0075 34.543C69.488 34.543 69.9157 34.625 70.2907 34.7891C70.6696 34.9492 70.9665 35.1914 71.1813 35.5156C71.4001 35.8398 71.5095 36.248 71.5095 36.7402V39.5059C71.5095 39.8223 71.529 40.0938 71.568 40.3203C71.611 40.543 71.6735 40.7363 71.7555 40.9004V41H70.1794C70.1052 40.8398 70.0485 40.6367 70.0095 40.3906C69.9704 40.1406 69.9509 39.8945 69.9509 39.6523ZM70.1677 37.1387L70.1794 38.0586H69.2009C68.9587 38.0586 68.7458 38.084 68.5622 38.1348C68.3786 38.1816 68.2282 38.252 68.111 38.3457C67.9938 38.4355 67.9059 38.5449 67.8473 38.6738C67.7887 38.7988 67.7595 38.9414 67.7595 39.1016C67.7595 39.2578 67.7946 39.3984 67.8649 39.5234C67.9391 39.6484 68.0446 39.748 68.1813 39.8223C68.322 39.8926 68.486 39.9277 68.6735 39.9277C68.947 39.9277 69.1852 39.873 69.3884 39.7637C69.5915 39.6504 69.7497 39.5137 69.863 39.3535C69.9762 39.1934 70.0368 39.041 70.0446 38.8965L70.4899 39.5645C70.4352 39.7246 70.3532 39.8945 70.2438 40.0742C70.1345 40.2539 69.9938 40.4219 69.822 40.5781C69.6501 40.7344 69.443 40.8633 69.2009 40.9648C68.9587 41.0664 68.6774 41.1172 68.3571 41.1172C67.947 41.1172 67.5798 41.0352 67.2555 40.8711C66.9313 40.707 66.6755 40.4824 66.488 40.1973C66.3005 39.9121 66.2067 39.5879 66.2067 39.2246C66.2067 38.8887 66.2692 38.5918 66.3942 38.334C66.5192 38.0762 66.7048 37.8594 66.9509 37.6836C67.197 37.5039 67.5016 37.3691 67.8649 37.2793C68.2321 37.1855 68.652 37.1387 69.1247 37.1387H70.1677ZM74.6646 34.6602V41H73.1119V34.6602H74.6646ZM73.0064 33.002C73.0064 32.7715 73.0845 32.5801 73.2408 32.4277C73.4009 32.2754 73.6158 32.1992 73.8853 32.1992C74.1548 32.1992 74.3677 32.2754 74.524 32.4277C74.6841 32.5801 74.7642 32.7715 74.7642 33.002C74.7642 33.2285 74.6841 33.418 74.524 33.5703C74.3677 33.7227 74.1548 33.7988 73.8853 33.7988C73.6158 33.7988 73.4009 33.7227 73.2408 33.5703C73.0845 33.418 73.0064 33.2285 73.0064 33.002ZM77.9018 32V41H76.3491V32H77.9018ZM82.9847 39.2656C82.9847 39.1328 82.9495 39.0137 82.8792 38.9082C82.8089 38.8027 82.6761 38.707 82.4808 38.6211C82.2894 38.5312 82.0081 38.4473 81.637 38.3691C81.3089 38.2988 81.0062 38.2109 80.7288 38.1055C80.4515 38 80.2132 37.873 80.014 37.7246C79.8148 37.5723 79.6585 37.3945 79.5452 37.1914C79.4359 36.9844 79.3812 36.7461 79.3812 36.4766C79.3812 36.2148 79.4378 35.9688 79.5511 35.7383C79.6644 35.5039 79.8284 35.2988 80.0433 35.123C80.2581 34.9434 80.5198 34.8027 80.8284 34.7012C81.137 34.5957 81.4847 34.543 81.8714 34.543C82.4105 34.543 82.8734 34.6309 83.2601 34.8066C83.6507 34.9824 83.9495 35.2246 84.1566 35.5332C84.3636 35.8379 84.4671 36.1816 84.4671 36.5645H82.9202C82.9202 36.3965 82.8812 36.2441 82.803 36.1074C82.7288 35.9707 82.6136 35.8613 82.4573 35.7793C82.3011 35.6934 82.1038 35.6504 81.8655 35.6504C81.6507 35.6504 81.4691 35.6855 81.3206 35.7559C81.1761 35.8262 81.0667 35.918 80.9925 36.0312C80.9183 36.1445 80.8812 36.2695 80.8812 36.4062C80.8812 36.5078 80.9007 36.5996 80.9398 36.6816C80.9827 36.7598 81.0511 36.832 81.1448 36.8984C81.2386 36.9648 81.3655 37.0254 81.5257 37.0801C81.6898 37.1348 81.8909 37.1875 82.1292 37.2383C82.6019 37.332 83.014 37.457 83.3655 37.6133C83.721 37.7656 83.9984 37.9688 84.1976 38.2227C84.3968 38.4766 84.4964 38.8008 84.4964 39.1953C84.4964 39.4766 84.4359 39.7344 84.3148 39.9688C84.1937 40.1992 84.0179 40.4004 83.7874 40.5723C83.557 40.7441 83.2816 40.8789 82.9613 40.9766C82.6409 41.0703 82.2796 41.1172 81.8773 41.1172C81.2952 41.1172 80.803 41.0137 80.4007 40.8066C79.9984 40.5957 79.6937 40.3301 79.4866 40.0098C79.2796 39.6855 79.1761 39.3496 79.1761 39.002H80.6585C80.6702 39.248 80.7366 39.4453 80.8577 39.5938C80.9788 39.7422 81.1312 39.8496 81.3148 39.916C81.5023 39.9785 81.6995 40.0098 81.9066 40.0098C82.1409 40.0098 82.3382 39.9785 82.4984 39.916C82.6585 39.8496 82.7796 39.7617 82.8616 39.6523C82.9437 39.5391 82.9847 39.4102 82.9847 39.2656Z" fill="black"/>
<ellipse cx="45.9589" cy="10" rx="9.95887" ry="10" fill="url(#paint0_radial_1193_11751)"/>
<path d="M153.096 37.8887H150.898V36.623H153.096C153.455 36.623 153.746 36.5645 153.969 36.4473C154.195 36.3262 154.361 36.1621 154.467 35.9551C154.572 35.7441 154.625 35.5039 154.625 35.2344C154.625 34.9727 154.572 34.7285 154.467 34.502C154.361 34.2754 154.195 34.0918 153.969 33.9512C153.746 33.8105 153.455 33.7402 153.096 33.7402H151.426V41H149.814V32.4688H153.096C153.76 32.4688 154.326 32.5879 154.795 32.8262C155.268 33.0605 155.627 33.3867 155.873 33.8047C156.123 34.2188 156.248 34.6914 156.248 35.2227C156.248 35.7734 156.123 36.248 155.873 36.6465C155.627 37.0449 155.268 37.3516 154.795 37.5664C154.326 37.7812 153.76 37.8887 153.096 37.8887ZM160.938 39.6523V36.7285C160.938 36.5137 160.901 36.3281 160.827 36.1719C160.753 36.0156 160.64 35.8945 160.487 35.8086C160.335 35.7227 160.141 35.6797 159.907 35.6797C159.7 35.6797 159.518 35.7148 159.362 35.7852C159.21 35.8555 159.093 35.9551 159.011 36.084C158.929 36.209 158.888 36.3535 158.888 36.5176H157.335C157.335 36.2559 157.397 36.0078 157.522 35.7734C157.647 35.5352 157.825 35.3242 158.056 35.1406C158.29 34.9531 158.569 34.8066 158.893 34.7012C159.222 34.5957 159.589 34.543 159.995 34.543C160.475 34.543 160.903 34.625 161.278 34.7891C161.657 34.9492 161.954 35.1914 162.169 35.5156C162.388 35.8398 162.497 36.248 162.497 36.7402V39.5059C162.497 39.8223 162.516 40.0938 162.556 40.3203C162.599 40.543 162.661 40.7363 162.743 40.9004V41H161.167C161.093 40.8398 161.036 40.6367 160.997 40.3906C160.958 40.1406 160.938 39.8945 160.938 39.6523ZM161.155 37.1387L161.167 38.0586H160.188C159.946 38.0586 159.733 38.084 159.55 38.1348C159.366 38.1816 159.216 38.252 159.099 38.3457C158.981 38.4355 158.893 38.5449 158.835 38.6738C158.776 38.7988 158.747 38.9414 158.747 39.1016C158.747 39.2578 158.782 39.3984 158.852 39.5234C158.927 39.6484 159.032 39.748 159.169 39.8223C159.309 39.8926 159.474 39.9277 159.661 39.9277C159.934 39.9277 160.173 39.873 160.376 39.7637C160.579 39.6504 160.737 39.5137 160.85 39.3535C160.964 39.1934 161.024 39.041 161.032 38.8965L161.477 39.5645C161.423 39.7246 161.341 39.8945 161.231 40.0742C161.122 40.2539 160.981 40.4219 160.809 40.5781C160.638 40.7344 160.431 40.8633 160.188 40.9648C159.946 41.0664 159.665 41.1172 159.345 41.1172C158.934 41.1172 158.567 41.0352 158.243 40.8711C157.919 40.707 157.663 40.4824 157.475 40.1973C157.288 39.9121 157.194 39.5879 157.194 39.2246C157.194 38.8887 157.257 38.5918 157.382 38.334C157.507 38.0762 157.692 37.8594 157.938 37.6836C158.184 37.5039 158.489 37.3691 158.852 37.2793C159.22 37.1855 159.64 37.1387 160.112 37.1387H161.155ZM165.775 40.2969L167.474 34.6602H169.133L166.59 41.9609C166.531 42.1172 166.455 42.2871 166.361 42.4707C166.271 42.6543 166.15 42.8281 165.998 42.9922C165.845 43.1602 165.654 43.2969 165.424 43.4023C165.197 43.5078 164.922 43.5605 164.597 43.5605C164.457 43.5605 164.332 43.5508 164.222 43.5312C164.113 43.5117 163.998 43.4863 163.877 43.4551V42.2949C163.916 42.2988 163.961 42.3008 164.011 42.3008C164.066 42.3047 164.113 42.3066 164.152 42.3066C164.379 42.3066 164.566 42.2793 164.715 42.2246C164.863 42.1738 164.982 42.0898 165.072 41.9727C165.166 41.8594 165.244 41.7109 165.306 41.5273L165.775 40.2969ZM164.937 34.6602L166.373 39.3301L166.625 40.9648L165.558 41.1582L163.267 34.6602H164.937ZM171.544 35.9609V41H169.997V34.6602H171.456L171.544 35.9609ZM171.315 37.6016H170.84C170.84 37.1602 170.893 36.7539 170.999 36.3828C171.108 36.0117 171.268 35.6895 171.479 35.416C171.69 35.1387 171.95 34.9238 172.258 34.7715C172.571 34.6191 172.932 34.543 173.342 34.543C173.628 34.543 173.889 34.5859 174.128 34.6719C174.366 34.7539 174.571 34.8848 174.743 35.0645C174.919 35.2402 175.053 35.4707 175.147 35.7559C175.241 36.0371 175.288 36.375 175.288 36.7695V41H173.741V36.9277C173.741 36.6309 173.698 36.3984 173.612 36.2305C173.53 36.0625 173.411 35.9453 173.255 35.8789C173.098 35.8086 172.911 35.7734 172.692 35.7734C172.45 35.7734 172.241 35.8223 172.065 35.9199C171.893 36.0137 171.751 36.1445 171.637 36.3125C171.528 36.4805 171.446 36.6738 171.391 36.8926C171.34 37.1113 171.315 37.3477 171.315 37.6016ZM175.171 37.3145L174.532 37.4316C174.536 37.0332 174.59 36.6602 174.696 36.3125C174.801 35.9609 174.956 35.6543 175.159 35.3926C175.366 35.127 175.622 34.9199 175.926 34.7715C176.235 34.6191 176.59 34.543 176.993 34.543C177.305 34.543 177.587 34.5879 177.837 34.6777C178.09 34.7637 178.307 34.9023 178.487 35.0938C178.667 35.2812 178.803 35.5254 178.897 35.8262C178.995 36.127 179.044 36.4941 179.044 36.9277V41H177.485V36.9219C177.485 36.6133 177.442 36.377 177.356 36.2129C177.274 36.0488 177.155 35.9355 176.999 35.873C176.842 35.8066 176.659 35.7734 176.448 35.7734C176.233 35.7734 176.046 35.8145 175.885 35.8965C175.729 35.9746 175.596 36.084 175.487 36.2246C175.381 36.3652 175.301 36.5293 175.247 36.7168C175.196 36.9004 175.171 37.0996 175.171 37.3145ZM183.4 41.1172C182.919 41.1172 182.488 41.0391 182.105 40.8828C181.722 40.7266 181.396 40.5098 181.126 40.2324C180.861 39.9512 180.656 39.625 180.511 39.2539C180.371 38.8789 180.3 38.4766 180.3 38.0469V37.8125C180.3 37.3242 180.371 36.8809 180.511 36.4824C180.652 36.0801 180.851 35.7344 181.109 35.4453C181.367 35.1562 181.675 34.9336 182.035 34.7773C182.394 34.6211 182.791 34.543 183.224 34.543C183.673 34.543 184.07 34.6191 184.414 34.7715C184.757 34.9199 185.044 35.1309 185.275 35.4043C185.505 35.6777 185.679 36.0059 185.796 36.3887C185.914 36.7676 185.972 37.1875 185.972 37.6484V38.2988H181.003V37.2324H184.449V37.1152C184.441 36.8691 184.394 36.6445 184.308 36.4414C184.222 36.2344 184.089 36.0703 183.91 35.9492C183.73 35.8242 183.498 35.7617 183.212 35.7617C182.982 35.7617 182.781 35.8125 182.609 35.9141C182.441 36.0117 182.3 36.1523 182.187 36.3359C182.078 36.5156 181.996 36.7305 181.941 36.9805C181.886 37.2305 181.859 37.5078 181.859 37.8125V38.0469C181.859 38.3125 181.894 38.5586 181.964 38.7852C182.039 39.0117 182.146 39.209 182.287 39.377C182.431 39.541 182.603 39.6699 182.802 39.7637C183.005 39.8535 183.236 39.8984 183.494 39.8984C183.818 39.8984 184.111 39.8359 184.373 39.7109C184.638 39.582 184.869 39.3926 185.064 39.1426L185.843 39.9512C185.71 40.1465 185.531 40.334 185.304 40.5137C185.082 40.6934 184.812 40.8398 184.496 40.9531C184.179 41.0625 183.814 41.1172 183.4 41.1172ZM188.647 36.0137V41H187.1V34.6602H188.553L188.647 36.0137ZM188.401 37.6016H187.944C187.948 37.1406 188.01 36.7227 188.131 36.3477C188.252 35.9727 188.422 35.6504 188.641 35.3809C188.864 35.1113 189.127 34.9043 189.432 34.7598C189.737 34.6152 190.077 34.543 190.452 34.543C190.756 34.543 191.032 34.5859 191.278 34.6719C191.524 34.7578 191.735 34.8945 191.911 35.082C192.09 35.2695 192.227 35.5156 192.321 35.8203C192.418 36.1211 192.467 36.4922 192.467 36.9336V41H190.909V36.9219C190.909 36.6328 190.866 36.4043 190.78 36.2363C190.698 36.0684 190.577 35.9492 190.416 35.8789C190.26 35.8086 190.067 35.7734 189.836 35.7734C189.598 35.7734 189.389 35.8223 189.209 35.9199C189.034 36.0137 188.885 36.1445 188.764 36.3125C188.647 36.4805 188.557 36.6738 188.495 36.8926C188.432 37.1113 188.401 37.3477 188.401 37.6016ZM196.952 34.6602V35.7734H193.32V34.6602H196.952ZM194.292 33.1016H195.845V39.1719C195.845 39.3594 195.87 39.5039 195.921 39.6055C195.972 39.707 196.048 39.7754 196.15 39.8105C196.251 39.8457 196.372 39.8633 196.513 39.8633C196.615 39.8633 196.708 39.8574 196.794 39.8457C196.88 39.834 196.952 39.8223 197.011 39.8105L197.017 40.9707C196.888 41.0137 196.741 41.0488 196.577 41.0762C196.417 41.1035 196.236 41.1172 196.033 41.1172C195.685 41.1172 195.38 41.0586 195.118 40.9414C194.857 40.8203 194.654 40.627 194.509 40.3613C194.365 40.0918 194.292 39.7363 194.292 39.2949V33.1016ZM202.753 35.9609V41H201.206V34.6602H202.665L202.753 35.9609ZM202.524 37.6016H202.05C202.05 37.1602 202.103 36.7539 202.208 36.3828C202.317 36.0117 202.478 35.6895 202.689 35.416C202.899 35.1387 203.159 34.9238 203.468 34.7715C203.78 34.6191 204.142 34.543 204.552 34.543C204.837 34.543 205.099 34.5859 205.337 34.6719C205.575 34.7539 205.78 34.8848 205.952 35.0645C206.128 35.2402 206.263 35.4707 206.356 35.7559C206.45 36.0371 206.497 36.375 206.497 36.7695V41H204.95V36.9277C204.95 36.6309 204.907 36.3984 204.821 36.2305C204.739 36.0625 204.62 35.9453 204.464 35.8789C204.308 35.8086 204.12 35.7734 203.901 35.7734C203.659 35.7734 203.45 35.8223 203.274 35.9199C203.103 36.0137 202.96 36.1445 202.847 36.3125C202.737 36.4805 202.655 36.6738 202.601 36.8926C202.55 37.1113 202.524 37.3477 202.524 37.6016ZM206.38 37.3145L205.741 37.4316C205.745 37.0332 205.8 36.6602 205.905 36.3125C206.011 35.9609 206.165 35.6543 206.368 35.3926C206.575 35.127 206.831 34.9199 207.136 34.7715C207.444 34.6191 207.8 34.543 208.202 34.543C208.515 34.543 208.796 34.5879 209.046 34.6777C209.3 34.7637 209.517 34.9023 209.696 35.0938C209.876 35.2812 210.013 35.5254 210.106 35.8262C210.204 36.127 210.253 36.4941 210.253 36.9277V41H208.694V36.9219C208.694 36.6133 208.651 36.377 208.565 36.2129C208.483 36.0488 208.364 35.9355 208.208 35.873C208.052 35.8066 207.868 35.7734 207.657 35.7734C207.442 35.7734 207.255 35.8145 207.095 35.8965C206.939 35.9746 206.806 36.084 206.696 36.2246C206.591 36.3652 206.511 36.5293 206.456 36.7168C206.405 36.9004 206.38 37.0996 206.38 37.3145ZM214.609 41.1172C214.129 41.1172 213.697 41.0391 213.314 40.8828C212.932 40.7266 212.605 40.5098 212.336 40.2324C212.07 39.9512 211.865 39.625 211.721 39.2539C211.58 38.8789 211.51 38.4766 211.51 38.0469V37.8125C211.51 37.3242 211.58 36.8809 211.721 36.4824C211.861 36.0801 212.06 35.7344 212.318 35.4453C212.576 35.1562 212.885 34.9336 213.244 34.7773C213.603 34.6211 214 34.543 214.434 34.543C214.883 34.543 215.279 34.6191 215.623 34.7715C215.967 34.9199 216.254 35.1309 216.484 35.4043C216.715 35.6777 216.889 36.0059 217.006 36.3887C217.123 36.7676 217.182 37.1875 217.182 37.6484V38.2988H212.213V37.2324H215.658V37.1152C215.65 36.8691 215.603 36.6445 215.518 36.4414C215.432 36.2344 215.299 36.0703 215.119 35.9492C214.939 35.8242 214.707 35.7617 214.422 35.7617C214.191 35.7617 213.99 35.8125 213.818 35.9141C213.65 36.0117 213.51 36.1523 213.396 36.3359C213.287 36.5156 213.205 36.7305 213.15 36.9805C213.096 37.2305 213.068 37.5078 213.068 37.8125V38.0469C213.068 38.3125 213.103 38.5586 213.174 38.7852C213.248 39.0117 213.355 39.209 213.496 39.377C213.641 39.541 213.812 39.6699 214.012 39.7637C214.215 39.8535 214.445 39.8984 214.703 39.8984C215.027 39.8984 215.32 39.8359 215.582 39.7109C215.848 39.582 216.078 39.3926 216.273 39.1426L217.053 39.9512C216.92 40.1465 216.74 40.334 216.514 40.5137C216.291 40.6934 216.021 40.8398 215.705 40.9531C215.389 41.0625 215.023 41.1172 214.609 41.1172ZM221.339 34.6602V35.7734H217.706V34.6602H221.339ZM218.679 33.1016H220.231V39.1719C220.231 39.3594 220.257 39.5039 220.307 39.6055C220.358 39.707 220.434 39.7754 220.536 39.8105C220.637 39.8457 220.759 39.8633 220.899 39.8633C221.001 39.8633 221.095 39.8574 221.18 39.8457C221.266 39.834 221.339 39.8223 221.397 39.8105L221.403 40.9707C221.274 41.0137 221.128 41.0488 220.964 41.0762C220.804 41.1035 220.622 41.1172 220.419 41.1172C220.071 41.1172 219.766 41.0586 219.505 40.9414C219.243 40.8203 219.04 40.627 218.895 40.3613C218.751 40.0918 218.679 39.7363 218.679 39.2949V33.1016ZM224.007 32V41H222.455V32H224.007ZM223.761 37.6016H223.304C223.304 37.1602 223.363 36.7539 223.48 36.3828C223.597 36.0117 223.763 35.6895 223.978 35.416C224.193 35.1387 224.449 34.9238 224.746 34.7715C225.047 34.6191 225.379 34.543 225.742 34.543C226.054 34.543 226.338 34.5879 226.591 34.6777C226.849 34.7637 227.07 34.9023 227.254 35.0938C227.437 35.2852 227.578 35.5352 227.675 35.8438C227.777 36.1484 227.828 36.5195 227.828 36.957V41H226.269V36.9453C226.269 36.6523 226.226 36.4219 226.14 36.2539C226.054 36.082 225.931 35.959 225.771 35.8848C225.615 35.8105 225.422 35.7734 225.191 35.7734C224.941 35.7734 224.726 35.8223 224.547 35.9199C224.367 36.0137 224.218 36.1445 224.101 36.3125C223.988 36.4805 223.902 36.6738 223.843 36.8926C223.789 37.1113 223.761 37.3477 223.761 37.6016ZM229.038 37.8945V37.7715C229.038 37.3066 229.104 36.8789 229.237 36.4883C229.37 36.0938 229.563 35.752 229.817 35.4629C230.071 35.1738 230.381 34.9492 230.749 34.7891C231.116 34.625 231.534 34.543 232.003 34.543C232.479 34.543 232.901 34.625 233.268 34.7891C233.639 34.9492 233.952 35.1738 234.206 35.4629C234.46 35.752 234.653 36.0938 234.786 36.4883C234.919 36.8789 234.985 37.3066 234.985 37.7715V37.8945C234.985 38.3555 234.919 38.7832 234.786 39.1777C234.653 39.5684 234.46 39.9102 234.206 40.2031C233.952 40.4922 233.641 40.7168 233.274 40.877C232.907 41.0371 232.487 41.1172 232.014 41.1172C231.545 41.1172 231.126 41.0371 230.754 40.877C230.383 40.7168 230.071 40.4922 229.817 40.2031C229.563 39.9102 229.37 39.5684 229.237 39.1777C229.104 38.7832 229.038 38.3555 229.038 37.8945ZM230.585 37.7715V37.8945C230.585 38.1719 230.612 38.4316 230.667 38.6738C230.721 38.916 230.805 39.1289 230.919 39.3125C231.032 39.4961 231.178 39.6406 231.358 39.7461C231.542 39.8477 231.76 39.8984 232.014 39.8984C232.264 39.8984 232.479 39.8477 232.659 39.7461C232.838 39.6406 232.985 39.4961 233.098 39.3125C233.215 39.1289 233.301 38.916 233.356 38.6738C233.411 38.4316 233.438 38.1719 233.438 37.8945V37.7715C233.438 37.498 233.411 37.2422 233.356 37.0039C233.301 36.7617 233.215 36.5488 233.098 36.3652C232.985 36.1777 232.836 36.0312 232.653 35.9258C232.473 35.8164 232.256 35.7617 232.003 35.7617C231.753 35.7617 231.538 35.8164 231.358 35.9258C231.178 36.0312 231.032 36.1777 230.919 36.3652C230.805 36.5488 230.721 36.7617 230.667 37.0039C230.612 37.2422 230.585 37.498 230.585 37.7715ZM240.033 39.6523V32H241.591V41H240.185L240.033 39.6523ZM235.96 37.9062V37.7832C235.96 37.2988 236.015 36.8594 236.124 36.4648C236.238 36.0664 236.402 35.7246 236.617 35.4395C236.831 35.1543 237.091 34.9336 237.396 34.7773C237.705 34.6211 238.054 34.543 238.445 34.543C238.824 34.543 239.154 34.6191 239.435 34.7715C239.72 34.9238 239.962 35.1406 240.162 35.4219C240.365 35.7031 240.527 36.0371 240.648 36.4238C240.769 36.8066 240.857 37.2285 240.912 37.6895V38.0234C240.857 38.4727 240.769 38.8848 240.648 39.2598C240.527 39.6348 240.365 39.9629 240.162 40.2441C239.962 40.5215 239.72 40.7363 239.435 40.8887C239.15 41.041 238.816 41.1172 238.433 41.1172C238.046 41.1172 237.699 41.0371 237.39 40.877C237.085 40.7168 236.826 40.4922 236.611 40.2031C236.4 39.9141 236.238 39.5742 236.124 39.1836C236.015 38.793 235.96 38.3672 235.96 37.9062ZM237.513 37.7832V37.9062C237.513 38.1797 237.537 38.4355 237.583 38.6738C237.63 38.9121 237.706 39.123 237.812 39.3066C237.917 39.4863 238.052 39.627 238.216 39.7285C238.384 39.8301 238.587 39.8809 238.826 39.8809C239.13 39.8809 239.38 39.8145 239.576 39.6816C239.775 39.5449 239.929 39.3594 240.039 39.125C240.148 38.8867 240.218 38.6191 240.249 38.3223V37.4023C240.234 37.168 240.193 36.9512 240.126 36.752C240.064 36.5527 239.974 36.3809 239.857 36.2363C239.744 36.0918 239.603 35.9785 239.435 35.8965C239.267 35.8145 239.068 35.7734 238.837 35.7734C238.599 35.7734 238.396 35.8262 238.228 35.9316C238.06 36.0332 237.923 36.1758 237.818 36.3594C237.712 36.543 237.634 36.7559 237.583 36.998C237.537 37.2402 237.513 37.502 237.513 37.7832ZM246.598 39.2656C246.598 39.1328 246.563 39.0137 246.493 38.9082C246.422 38.8027 246.289 38.707 246.094 38.6211C245.903 38.5312 245.621 38.4473 245.25 38.3691C244.922 38.2988 244.619 38.2109 244.342 38.1055C244.065 38 243.826 37.873 243.627 37.7246C243.428 37.5723 243.272 37.3945 243.159 37.1914C243.049 36.9844 242.994 36.7461 242.994 36.4766C242.994 36.2148 243.051 35.9688 243.164 35.7383C243.278 35.5039 243.442 35.2988 243.657 35.123C243.871 34.9434 244.133 34.8027 244.442 34.7012C244.75 34.5957 245.098 34.543 245.485 34.543C246.024 34.543 246.487 34.6309 246.873 34.8066C247.264 34.9824 247.563 35.2246 247.77 35.5332C247.977 35.8379 248.08 36.1816 248.08 36.5645H246.534C246.534 36.3965 246.494 36.2441 246.416 36.1074C246.342 35.9707 246.227 35.8613 246.071 35.7793C245.914 35.6934 245.717 35.6504 245.479 35.6504C245.264 35.6504 245.082 35.6855 244.934 35.7559C244.789 35.8262 244.68 35.918 244.606 36.0312C244.532 36.1445 244.494 36.2695 244.494 36.4062C244.494 36.5078 244.514 36.5996 244.553 36.6816C244.596 36.7598 244.664 36.832 244.758 36.8984C244.852 36.9648 244.979 37.0254 245.139 37.0801C245.303 37.1348 245.504 37.1875 245.743 37.2383C246.215 37.332 246.627 37.457 246.979 37.6133C247.334 37.7656 247.612 37.9688 247.811 38.2227C248.01 38.4766 248.11 38.8008 248.11 39.1953C248.11 39.4766 248.049 39.7344 247.928 39.9688C247.807 40.1992 247.631 40.4004 247.401 40.5723C247.17 40.7441 246.895 40.8789 246.575 40.9766C246.254 41.0703 245.893 41.1172 245.491 41.1172C244.909 41.1172 244.416 41.0137 244.014 40.8066C243.612 40.5957 243.307 40.3301 243.1 40.0098C242.893 39.6855 242.789 39.3496 242.789 39.002H244.272C244.284 39.248 244.35 39.4453 244.471 39.5938C244.592 39.7422 244.744 39.8496 244.928 39.916C245.116 39.9785 245.313 40.0098 245.52 40.0098C245.754 40.0098 245.951 39.9785 246.112 39.916C246.272 39.8496 246.393 39.7617 246.475 39.6523C246.557 39.5391 246.598 39.4102 246.598 39.2656Z" fill="#7F7F7F"/>
<ellipse cx="202.959" cy="10" rx="9.95887" ry="10" fill="#21292B"/>
<path d="M317.299 39.8984C317.518 39.8984 317.713 39.8555 317.885 39.7695C318.057 39.6836 318.193 39.5625 318.295 39.4062C318.4 39.25 318.457 39.0684 318.465 38.8613H319.924C319.916 39.291 319.795 39.6758 319.561 40.0156C319.326 40.3555 319.014 40.625 318.623 40.8242C318.236 41.0195 317.803 41.1172 317.322 41.1172C316.834 41.1172 316.408 41.0352 316.045 40.8711C315.682 40.707 315.379 40.4785 315.137 40.1855C314.898 39.8926 314.719 39.5527 314.598 39.166C314.48 38.7793 314.422 38.3652 314.422 37.9238V37.7363C314.422 37.2949 314.48 36.8809 314.598 36.4941C314.719 36.1074 314.898 35.7676 315.137 35.4746C315.379 35.1816 315.682 34.9531 316.045 34.7891C316.408 34.625 316.832 34.543 317.316 34.543C317.828 34.543 318.277 34.6426 318.664 34.8418C319.055 35.041 319.359 35.3223 319.578 35.6855C319.801 36.0488 319.916 36.4766 319.924 36.9688H318.465C318.457 36.7422 318.406 36.5391 318.312 36.3594C318.219 36.1797 318.086 36.0352 317.914 35.9258C317.742 35.8164 317.533 35.7617 317.287 35.7617C317.025 35.7617 316.807 35.8164 316.631 35.9258C316.459 36.0352 316.324 36.1855 316.227 36.377C316.133 36.5645 316.066 36.7754 316.027 37.0098C315.992 37.2402 315.975 37.4824 315.975 37.7363V37.9238C315.975 38.1816 315.992 38.4277 316.027 38.6621C316.066 38.8965 316.133 39.1074 316.227 39.2949C316.324 39.4785 316.459 39.625 316.631 39.7344C316.807 39.8438 317.029 39.8984 317.299 39.8984ZM320.8 37.8945V37.7715C320.8 37.3066 320.866 36.8789 320.999 36.4883C321.132 36.0938 321.325 35.752 321.579 35.4629C321.833 35.1738 322.143 34.9492 322.511 34.7891C322.878 34.625 323.296 34.543 323.765 34.543C324.241 34.543 324.663 34.625 325.03 34.7891C325.401 34.9492 325.714 35.1738 325.968 35.4629C326.222 35.752 326.415 36.0938 326.548 36.4883C326.681 36.8789 326.747 37.3066 326.747 37.7715V37.8945C326.747 38.3555 326.681 38.7832 326.548 39.1777C326.415 39.5684 326.222 39.9102 325.968 40.2031C325.714 40.4922 325.403 40.7168 325.036 40.877C324.669 41.0371 324.249 41.1172 323.776 41.1172C323.307 41.1172 322.888 41.0371 322.516 40.877C322.145 40.7168 321.833 40.4922 321.579 40.2031C321.325 39.9102 321.132 39.5684 320.999 39.1777C320.866 38.7832 320.8 38.3555 320.8 37.8945ZM322.347 37.7715V37.8945C322.347 38.1719 322.374 38.4316 322.429 38.6738C322.483 38.916 322.567 39.1289 322.681 39.3125C322.794 39.4961 322.94 39.6406 323.12 39.7461C323.304 39.8477 323.522 39.8984 323.776 39.8984C324.026 39.8984 324.241 39.8477 324.421 39.7461C324.6 39.6406 324.747 39.4961 324.86 39.3125C324.977 39.1289 325.063 38.916 325.118 38.6738C325.173 38.4316 325.2 38.1719 325.2 37.8945V37.7715C325.2 37.498 325.173 37.2422 325.118 37.0039C325.063 36.7617 324.977 36.5488 324.86 36.3652C324.747 36.1777 324.599 36.0312 324.415 35.9258C324.235 35.8164 324.018 35.7617 323.765 35.7617C323.515 35.7617 323.3 35.8164 323.12 35.9258C322.94 36.0312 322.794 36.1777 322.681 36.3652C322.567 36.5488 322.483 36.7617 322.429 37.0039C322.374 37.2422 322.347 37.498 322.347 37.7715ZM329.51 36.0137V41H327.963V34.6602H329.416L329.51 36.0137ZM329.263 37.6016H328.806C328.81 37.1406 328.873 36.7227 328.994 36.3477C329.115 35.9727 329.285 35.6504 329.504 35.3809C329.726 35.1113 329.99 34.9043 330.295 34.7598C330.599 34.6152 330.939 34.543 331.314 34.543C331.619 34.543 331.894 34.5859 332.14 34.6719C332.386 34.7578 332.597 34.8945 332.773 35.082C332.953 35.2695 333.09 35.5156 333.183 35.8203C333.281 36.1211 333.33 36.4922 333.33 36.9336V41H331.771V36.9219C331.771 36.6328 331.728 36.4043 331.642 36.2363C331.56 36.0684 331.439 35.9492 331.279 35.8789C331.123 35.8086 330.929 35.7734 330.699 35.7734C330.461 35.7734 330.252 35.8223 330.072 35.9199C329.896 36.0137 329.748 36.1445 329.627 36.3125C329.51 36.4805 329.42 36.6738 329.357 36.8926C329.295 37.1113 329.263 37.3477 329.263 37.6016ZM336.772 41H335.214V34.3086C335.214 33.7852 335.319 33.3438 335.53 32.9844C335.745 32.6211 336.051 32.3457 336.45 32.1582C336.852 31.9707 337.331 31.877 337.885 31.877C338.21 31.877 338.522 31.9102 338.823 31.9766C339.128 32.0391 339.44 32.1211 339.76 32.2227L339.532 33.4766C339.325 33.4102 339.098 33.3477 338.852 33.2891C338.61 33.2305 338.323 33.2012 337.991 33.2012C337.581 33.2012 337.274 33.2949 337.071 33.4824C336.872 33.6699 336.772 33.9453 336.772 34.3086V41ZM338.038 34.6602V35.7734H334.258V34.6602H338.038ZM340.487 34.6602V41H338.934V34.6602H340.487ZM343.654 35.9551V41H342.107V34.6602H343.572L343.654 35.9551ZM345.582 34.6191L345.558 36.0605C345.472 36.0449 345.375 36.0332 345.265 36.0254C345.16 36.0176 345.06 36.0137 344.966 36.0137C344.728 36.0137 344.519 36.0469 344.339 36.1133C344.16 36.1758 344.009 36.2676 343.888 36.3887C343.771 36.5098 343.681 36.6582 343.619 36.834C343.556 37.0059 343.521 37.2012 343.513 37.4199L343.179 37.3789C343.179 36.9766 343.22 36.6035 343.302 36.2598C343.384 35.916 343.503 35.6152 343.66 35.3574C343.816 35.0996 344.011 34.9004 344.246 34.7598C344.484 34.6152 344.757 34.543 345.066 34.543C345.152 34.543 345.244 34.5508 345.341 34.5664C345.443 34.5781 345.523 34.5957 345.582 34.6191ZM348.092 35.9609V41H346.545V34.6602H348.004L348.092 35.9609ZM347.864 37.6016H347.389C347.389 37.1602 347.442 36.7539 347.547 36.3828C347.657 36.0117 347.817 35.6895 348.028 35.416C348.239 35.1387 348.498 34.9238 348.807 34.7715C349.12 34.6191 349.481 34.543 349.891 34.543C350.176 34.543 350.438 34.5859 350.676 34.6719C350.914 34.7539 351.12 34.8848 351.291 35.0645C351.467 35.2402 351.602 35.4707 351.696 35.7559C351.789 36.0371 351.836 36.375 351.836 36.7695V41H350.289V36.9277C350.289 36.6309 350.246 36.3984 350.161 36.2305C350.079 36.0625 349.959 35.9453 349.803 35.8789C349.647 35.8086 349.459 35.7734 349.241 35.7734C348.998 35.7734 348.789 35.8223 348.614 35.9199C348.442 36.0137 348.299 36.1445 348.186 36.3125C348.077 36.4805 347.995 36.6738 347.94 36.8926C347.889 37.1113 347.864 37.3477 347.864 37.6016ZM351.719 37.3145L351.08 37.4316C351.084 37.0332 351.139 36.6602 351.245 36.3125C351.35 35.9609 351.504 35.6543 351.707 35.3926C351.914 35.127 352.17 34.9199 352.475 34.7715C352.784 34.6191 353.139 34.543 353.541 34.543C353.854 34.543 354.135 34.5879 354.385 34.6777C354.639 34.7637 354.856 34.9023 355.036 35.0938C355.215 35.2812 355.352 35.5254 355.446 35.8262C355.543 36.127 355.592 36.4941 355.592 36.9277V41H354.034V36.9219C354.034 36.6133 353.991 36.377 353.905 36.2129C353.823 36.0488 353.704 35.9355 353.547 35.873C353.391 35.8066 353.207 35.7734 352.996 35.7734C352.782 35.7734 352.594 35.8145 352.434 35.8965C352.278 35.9746 352.145 36.084 352.036 36.2246C351.93 36.3652 351.85 36.5293 351.795 36.7168C351.745 36.9004 351.719 37.0996 351.719 37.3145ZM360.593 39.6523V36.7285C360.593 36.5137 360.556 36.3281 360.482 36.1719C360.408 36.0156 360.294 35.8945 360.142 35.8086C359.99 35.7227 359.796 35.6797 359.562 35.6797C359.355 35.6797 359.173 35.7148 359.017 35.7852C358.865 35.8555 358.747 35.9551 358.665 36.084C358.583 36.209 358.542 36.3535 358.542 36.5176H356.99C356.99 36.2559 357.052 36.0078 357.177 35.7734C357.302 35.5352 357.48 35.3242 357.71 35.1406C357.945 34.9531 358.224 34.8066 358.548 34.7012C358.876 34.5957 359.243 34.543 359.65 34.543C360.13 34.543 360.558 34.625 360.933 34.7891C361.312 34.9492 361.609 35.1914 361.824 35.5156C362.042 35.8398 362.152 36.248 362.152 36.7402V39.5059C362.152 39.8223 362.171 40.0938 362.21 40.3203C362.253 40.543 362.316 40.7363 362.398 40.9004V41H360.822C360.747 40.8398 360.691 40.6367 360.652 40.3906C360.613 40.1406 360.593 39.8945 360.593 39.6523ZM360.81 37.1387L360.822 38.0586H359.843C359.601 38.0586 359.388 38.084 359.204 38.1348C359.021 38.1816 358.87 38.252 358.753 38.3457C358.636 38.4355 358.548 38.5449 358.49 38.6738C358.431 38.7988 358.402 38.9414 358.402 39.1016C358.402 39.2578 358.437 39.3984 358.507 39.5234C358.581 39.6484 358.687 39.748 358.824 39.8223C358.964 39.8926 359.128 39.9277 359.316 39.9277C359.589 39.9277 359.827 39.873 360.031 39.7637C360.234 39.6504 360.392 39.5137 360.505 39.3535C360.618 39.1934 360.679 39.041 360.687 38.8965L361.132 39.5645C361.077 39.7246 360.995 39.8945 360.886 40.0742C360.777 40.2539 360.636 40.4219 360.464 40.5781C360.292 40.7344 360.085 40.8633 359.843 40.9648C359.601 41.0664 359.32 41.1172 358.999 41.1172C358.589 41.1172 358.222 41.0352 357.898 40.8711C357.574 40.707 357.318 40.4824 357.13 40.1973C356.943 39.9121 356.849 39.5879 356.849 39.2246C356.849 38.8887 356.911 38.5918 357.036 38.334C357.161 38.0762 357.347 37.8594 357.593 37.6836C357.839 37.5039 358.144 37.3691 358.507 37.2793C358.874 37.1855 359.294 37.1387 359.767 37.1387H360.81ZM366.666 34.6602V35.7734H363.033V34.6602H366.666ZM364.006 33.1016H365.559V39.1719C365.559 39.3594 365.584 39.5039 365.635 39.6055C365.686 39.707 365.762 39.7754 365.863 39.8105C365.965 39.8457 366.086 39.8633 366.227 39.8633C366.328 39.8633 366.422 39.8574 366.508 39.8457C366.594 39.834 366.666 39.8223 366.725 39.8105L366.731 40.9707C366.602 41.0137 366.455 41.0488 366.291 41.0762C366.131 41.1035 365.949 41.1172 365.746 41.1172C365.399 41.1172 365.094 41.0586 364.832 40.9414C364.57 40.8203 364.367 40.627 364.223 40.3613C364.078 40.0918 364.006 39.7363 364.006 39.2949V33.1016ZM369.458 34.6602V41H367.905V34.6602H369.458ZM367.8 33.002C367.8 32.7715 367.878 32.5801 368.034 32.4277C368.194 32.2754 368.409 32.1992 368.679 32.1992C368.948 32.1992 369.161 32.2754 369.317 32.4277C369.478 32.5801 369.558 32.7715 369.558 33.002C369.558 33.2285 369.478 33.418 369.317 33.5703C369.161 33.7227 368.948 33.7988 368.679 33.7988C368.409 33.7988 368.194 33.7227 368.034 33.5703C367.878 33.418 367.8 33.2285 367.8 33.002ZM370.779 37.8945V37.7715C370.779 37.3066 370.846 36.8789 370.978 36.4883C371.111 36.0938 371.305 35.752 371.559 35.4629C371.812 35.1738 372.123 34.9492 372.49 34.7891C372.857 34.625 373.275 34.543 373.744 34.543C374.221 34.543 374.643 34.625 375.01 34.7891C375.381 34.9492 375.693 35.1738 375.947 35.4629C376.201 35.752 376.394 36.0938 376.527 36.4883C376.66 36.8789 376.726 37.3066 376.726 37.7715V37.8945C376.726 38.3555 376.66 38.7832 376.527 39.1777C376.394 39.5684 376.201 39.9102 375.947 40.2031C375.693 40.4922 375.383 40.7168 375.016 40.877C374.648 41.0371 374.228 41.1172 373.756 41.1172C373.287 41.1172 372.867 41.0371 372.496 40.877C372.125 40.7168 371.812 40.4922 371.559 40.2031C371.305 39.9102 371.111 39.5684 370.978 39.1777C370.846 38.7832 370.779 38.3555 370.779 37.8945ZM372.326 37.7715V37.8945C372.326 38.1719 372.353 38.4316 372.408 38.6738C372.463 38.916 372.547 39.1289 372.66 39.3125C372.773 39.4961 372.92 39.6406 373.1 39.7461C373.283 39.8477 373.502 39.8984 373.756 39.8984C374.006 39.8984 374.221 39.8477 374.4 39.7461C374.58 39.6406 374.726 39.4961 374.84 39.3125C374.957 39.1289 375.043 38.916 375.098 38.6738C375.152 38.4316 375.18 38.1719 375.18 37.8945V37.7715C375.18 37.498 375.152 37.2422 375.098 37.0039C375.043 36.7617 374.957 36.5488 374.84 36.3652C374.726 36.1777 374.578 36.0312 374.394 35.9258C374.215 35.8164 373.998 35.7617 373.744 35.7617C373.494 35.7617 373.279 35.8164 373.1 35.9258C372.92 36.0312 372.773 36.1777 372.66 36.3652C372.547 36.5488 372.463 36.7617 372.408 37.0039C372.353 37.2422 372.326 37.498 372.326 37.7715ZM379.489 36.0137V41H377.942V34.6602H379.395L379.489 36.0137ZM379.243 37.6016H378.786C378.79 37.1406 378.852 36.7227 378.973 36.3477C379.095 35.9727 379.264 35.6504 379.483 35.3809C379.706 35.1113 379.97 34.9043 380.274 34.7598C380.579 34.6152 380.919 34.543 381.294 34.543C381.598 34.543 381.874 34.5859 382.12 34.6719C382.366 34.7578 382.577 34.8945 382.753 35.082C382.932 35.2695 383.069 35.5156 383.163 35.8203C383.261 36.1211 383.309 36.4922 383.309 36.9336V41H381.751V36.9219C381.751 36.6328 381.708 36.4043 381.622 36.2363C381.54 36.0684 381.419 35.9492 381.259 35.8789C381.102 35.8086 380.909 35.7734 380.679 35.7734C380.44 35.7734 380.231 35.8223 380.052 35.9199C379.876 36.0137 379.727 36.1445 379.606 36.3125C379.489 36.4805 379.399 36.6738 379.337 36.8926C379.274 37.1113 379.243 37.3477 379.243 37.6016Z" fill="#7F7F7F"/>
<ellipse cx="351.959" cy="10" rx="9.95887" ry="10" fill="#21292B"/>
<defs>
<radialGradient id="paint0_radial_1193_11751" cx="0" cy="0" r="1" gradientUnits="userSpaceOnUse" gradientTransform="translate(45.9589 10) rotate(90) scale(10 9.95887)">
<stop offset="0.433" stop-color="white"/>
<stop offset="0.468" stop-color="#21292B"/>
</radialGradient>
</defs>
</svg>
