<svg width="14" height="15" viewBox="0 0 14 15" fill="none" xmlns="http://www.w3.org/2000/svg">
<path d="M0.932617 5.19434H1.86621C2.05466 5.19439 2.29883 5.38246 2.29883 5.7373V10.4092H11.7012V5.7373C11.7012 5.38369 11.9457 5.19438 12.1338 5.19434H13.0674C13.2558 5.19454 13.5 5.3826 13.5 5.7373V11.4775C13.5002 11.5054 13.4849 11.5908 13.4121 11.7305C13.3437 11.8616 13.2425 12.0061 13.123 12.1396C13.0033 12.2735 12.8771 12.3842 12.7656 12.457C12.6429 12.5373 12.5894 12.5381 12.6025 12.5381H10.7021V13.2979C10.7021 13.3933 10.668 13.4697 10.625 13.5176C10.5829 13.5645 10.539 13.58 10.5029 13.5801C10.4674 13.5801 10.4225 13.5651 10.3799 13.5176C10.3365 13.4691 10.3018 13.3921 10.3018 13.2979V12.5381H3.70117V13.2979C3.70117 13.3933 3.66603 13.4697 3.62305 13.5176C3.58083 13.5646 3.53703 13.5801 3.50098 13.5801C3.46536 13.5801 3.42063 13.5653 3.37793 13.5176C3.3345 13.4691 3.30078 13.3921 3.30078 13.2979V12.5381H1.40039C1.41454 12.5381 1.36103 12.537 1.2373 12.4561C1.12586 12.3831 0.999815 12.2726 0.879883 12.1387C0.760203 12.005 0.657825 11.8611 0.588867 11.7295C0.515803 11.59 0.500158 11.5034 0.5 11.4736V5.7373C0.5 5.38383 0.744568 5.19453 0.932617 5.19434ZM3.2666 0.5H10.7354C11.1819 0.5 11.6357 0.923636 11.6357 1.56543V3.15039H11.4551L11.4395 3.16602C10.4596 3.2914 9.7696 4.20717 9.76953 5.21582V8.36621H4.2334V5.21582C4.2334 4.14036 3.44911 3.17015 2.36523 3.15137V1.56641C2.36571 0.924104 2.82003 0.500107 3.2666 0.5Z" fill="white" stroke="#767676"/>
</svg>
