<svg width="28" height="28" viewBox="0 0 28 28" fill="none" xmlns="http://www.w3.org/2000/svg">
<g filter="url(#filter0_d_1193_10855)">
<path d="M21.0664 3.35896C19.2246 1.24621 16.7435 0.042168 14.1469 0.00108669C11.5503 -0.0399946 9.0415 1.0851 7.15027 3.13879C5.25904 5.19248 4.13343 8.01401 4.01112 11.0076C3.88881 14.0011 4.77938 16.9323 6.49478 19.1823L6.50228 19.1919C6.51605 19.2088 6.52898 19.2261 6.54399 19.2425C6.57485 19.2829 6.60989 19.3286 6.65118 19.3763C6.81311 19.5749 7.00882 19.7328 7.22606 19.8401C7.44331 19.9474 7.67741 20.0018 7.91371 20C8.15002 19.9981 8.38344 19.9399 8.59937 19.8291C8.8153 19.7183 9.00909 19.5572 9.16861 19.356C9.78239 18.5862 10.5279 17.9717 11.358 17.5514C12.1881 17.131 13.0847 16.914 13.9912 16.914C14.8977 16.914 15.7943 17.131 16.6244 17.5514C17.4545 17.9717 18.2 18.5862 18.8138 19.356C18.9745 19.5583 19.1698 19.7199 19.3874 19.8305C19.605 19.9411 19.8402 19.9983 20.078 19.9986C20.3158 19.9989 20.551 19.9422 20.7688 19.832C20.9866 19.7219 21.1822 19.5608 21.3433 19.3589L21.4772 19.1905L21.4847 19.1808C23.1749 16.9783 24.0729 14.1142 23.9954 11.1735C23.9179 8.23273 22.8707 5.437 21.0676 3.35704L21.0664 3.35896ZM13.3214 3.82825C13.3214 3.624 13.3917 3.42812 13.5168 3.2837C13.642 3.13928 13.8117 3.05814 13.9887 3.05814C14.1657 3.05814 14.3354 3.13928 14.4605 3.2837C14.5857 3.42812 14.656 3.624 14.656 3.82825V5.36847C14.656 5.57271 14.5857 5.76859 14.4605 5.91301C14.3354 6.05744 14.1657 6.13857 13.9887 6.13857C13.8117 6.13857 13.642 6.05744 13.5168 5.91301C13.3917 5.76859 13.3214 5.57271 13.3214 5.36847V3.82825ZM8.65019 12.2994H7.31557C7.13859 12.2994 6.96885 12.2183 6.84371 12.0739C6.71856 11.9295 6.64826 11.7336 6.64826 11.5293C6.64826 11.3251 6.71856 11.1292 6.84371 10.9848C6.96885 10.8404 7.13859 10.7592 7.31557 10.7592H8.65019C8.82717 10.7592 8.99691 10.8404 9.12205 10.9848C9.2472 11.1292 9.3175 11.3251 9.3175 11.5293C9.3175 11.7336 9.2472 11.9295 9.12205 12.0739C8.99691 12.2183 8.82717 12.2994 8.65019 12.2994ZM10.6855 7.7173C10.5604 7.86161 10.3907 7.94268 10.2138 7.94268C10.0369 7.94268 9.86721 7.86161 9.74208 7.7173L8.79825 6.62855C8.67309 6.48412 8.60278 6.28821 8.60278 6.08394C8.60278 5.87968 8.67309 5.68377 8.79825 5.53933C8.92341 5.39489 9.09316 5.31375 9.27017 5.31375C9.44717 5.31375 9.61692 5.39489 9.74208 5.53933L10.6855 6.62855C10.8105 6.77296 10.8808 6.96877 10.8808 7.17293C10.8808 7.37708 10.8105 7.57289 10.6855 7.7173ZM16.9123 8.82914L14.9313 12.4631C14.8502 12.5927 14.7516 12.7065 14.6393 12.8C14.3681 13.0183 14.0333 13.1044 13.7075 13.0396C13.3816 12.9748 13.0911 12.7643 12.8989 12.4538C12.7067 12.1433 12.6284 11.7578 12.681 11.3811C12.7335 11.0044 12.9127 10.6668 13.1796 10.4416L16.3284 8.1553C16.4 8.09771 16.4852 8.06684 16.5724 8.06684C16.6597 8.06684 16.7448 8.09771 16.8164 8.1553C16.9063 8.2302 16.9669 8.34312 16.9848 8.46938C17.0028 8.59564 16.9768 8.72498 16.9123 8.82914ZM18.2353 7.7173C18.1091 7.85562 17.9411 7.9316 17.7671 7.92903C17.5931 7.92646 17.4269 7.84554 17.3038 7.70353C17.1807 7.56152 17.1106 7.36966 17.1084 7.16884C17.1062 6.96803 17.172 6.77415 17.2919 6.62855L18.2353 5.53933C18.3604 5.39489 18.5302 5.31375 18.7072 5.31375C18.8842 5.31375 19.054 5.39489 19.1791 5.53933C19.3043 5.68377 19.3746 5.87968 19.3746 6.08394C19.3746 6.28821 19.3043 6.48412 19.1791 6.62855L18.2353 7.7173ZM20.6618 12.2994H19.3272C19.1502 12.2994 18.9805 12.2183 18.8553 12.0739C18.7302 11.9295 18.6599 11.7336 18.6599 11.5293C18.6599 11.3251 18.7302 11.1292 18.8553 10.9848C18.9805 10.8404 19.1502 10.7592 19.3272 10.7592H20.6618C20.8388 10.7592 21.0085 10.8404 21.1337 10.9848C21.2588 11.1292 21.3291 11.3251 21.3291 11.5293C21.3291 11.7336 21.2588 11.9295 21.1337 12.0739C21.0085 12.2183 20.8388 12.2994 20.6618 12.2994Z" fill="white"/>
<path d="M14.1387 0.500977C16.5814 0.539623 18.9326 1.67209 20.6895 3.6875L20.7334 3.73828C22.4277 5.7191 23.4211 8.37786 23.4951 11.1865C23.5651 13.8432 22.8085 16.4267 21.3818 18.4746L21.0879 18.876L21.0859 18.8789L20.9521 19.0469C20.8332 19.1959 20.693 19.3099 20.543 19.3857C20.3934 19.4613 20.2352 19.4992 20.0781 19.499C19.9212 19.4988 19.7636 19.4606 19.6143 19.3848C19.5018 19.3276 19.3944 19.2492 19.2979 19.1504L19.2051 19.0449V19.0439L18.9521 18.7432C18.3473 18.0593 17.636 17.5032 16.8506 17.1055C15.9524 16.6506 14.9783 16.4141 13.9912 16.4141C13.0041 16.4141 12.03 16.6506 11.1318 17.1055C10.3464 17.5032 9.6351 18.0593 9.03027 18.7432L8.77734 19.0439L8.77637 19.0459C8.65867 19.1942 8.51968 19.3075 8.37109 19.3838C8.22279 19.4599 8.06613 19.4987 7.91016 19.5C7.75404 19.5013 7.59627 19.4652 7.44727 19.3916C7.2981 19.3179 7.15827 19.2067 7.03906 19.0605L7.0293 19.0488L6.94141 18.9395L6.92773 18.9209L6.91211 18.9043V18.9033C6.90994 18.9006 6.9073 18.8986 6.90332 18.8936C6.90027 18.8897 6.89618 18.8845 6.8916 18.8789H6.89258C5.35467 16.8617 4.50319 14.2615 4.5 11.5674L4.51074 11.0283C4.62123 8.32398 5.58162 5.77631 7.18848 3.85352L7.51855 3.47754C9.20863 1.64239 11.4017 0.598409 13.6816 0.506836L14.1387 0.500977ZM18.707 4.81348C18.4144 4.81352 18.1458 4.93205 17.9414 5.125L17.8574 5.21191L16.9141 6.30078L16.9062 6.31055C16.7064 6.55331 16.605 6.86442 16.6084 7.1748C16.6099 7.31071 16.6327 7.44584 16.6738 7.5752L16.5723 7.56641C16.4167 7.56644 16.2685 7.60825 16.1387 7.68164L16.0352 7.75098L12.8857 10.0371L12.8711 10.0479L12.8574 10.0596C12.4876 10.3716 12.2535 10.8255 12.1855 11.3125C12.1178 11.7993 12.2175 12.3029 12.4736 12.7168C12.7307 13.1322 13.1342 13.4356 13.6104 13.5303C14.0292 13.6135 14.4519 13.5244 14.8057 13.2959L14.9531 13.1895L14.959 13.1846C15.1139 13.0556 15.2476 12.901 15.3555 12.7285L15.3633 12.7158L15.3701 12.7021L17.3516 9.06836L17.3506 9.06738C17.4684 8.86434 17.5119 8.62635 17.4795 8.39844C17.4788 8.39383 17.4773 8.38937 17.4766 8.38477C17.5673 8.41089 17.6619 8.42726 17.7598 8.42871C18.0477 8.43296 18.3146 8.3229 18.5205 8.1377L18.6045 8.05469L18.6133 8.04492L19.5566 6.95605C19.7662 6.71417 19.875 6.39955 19.875 6.08398C19.875 5.7684 19.7662 5.45381 19.5566 5.21191C19.3451 4.96786 19.0416 4.81348 18.707 4.81348ZM7.31543 10.2588C6.98092 10.2588 6.67734 10.4132 6.46582 10.6572C6.25623 10.8991 6.14845 11.2138 6.14844 11.5293C6.14844 11.8449 6.25623 12.1595 6.46582 12.4014C6.67734 12.6455 6.9809 12.7998 7.31543 12.7998H8.65039C8.98491 12.7997 9.28849 12.6455 9.5 12.4014C9.70959 12.1595 9.81738 11.8448 9.81738 11.5293C9.81737 11.2138 9.70959 10.8991 9.5 10.6572C9.28849 10.4132 8.98489 10.2588 8.65039 10.2588H7.31543ZM19.3271 10.2588C18.9926 10.2588 18.6891 10.4132 18.4775 10.6572C18.268 10.8991 18.1602 11.2138 18.1602 11.5293C18.1602 11.8449 18.2679 12.1595 18.4775 12.4014C18.6891 12.6455 18.9926 12.7998 19.3271 12.7998H20.6621C20.9966 12.7997 21.3002 12.6454 21.5117 12.4014C21.7213 12.1595 21.8291 11.8448 21.8291 11.5293C21.8291 11.2138 21.7213 10.8991 21.5117 10.6572C21.3002 10.4132 20.9966 10.2589 20.6621 10.2588H19.3271ZM9.27051 4.81348C8.93589 4.81348 8.63148 4.96776 8.41992 5.21191C8.21045 5.45378 8.10254 5.76851 8.10254 6.08398C8.10255 6.36021 8.18548 6.63569 8.34668 6.8623L8.41992 6.95605H8.4209L9.36426 8.04492C9.5758 8.28888 9.87942 8.44238 10.2139 8.44238C10.5065 8.44236 10.7751 8.32468 10.9795 8.13184L11.0635 8.04492C11.2729 7.80308 11.3809 7.48828 11.3809 7.17285C11.3808 6.89705 11.2984 6.62192 11.1377 6.39551L11.0635 6.30078L10.1201 5.21191L10.0361 5.125C9.83179 4.93204 9.56317 4.81357 9.27051 4.81348ZM13.9883 2.55859C13.6538 2.55872 13.3501 2.71202 13.1387 2.95605C12.9291 3.1979 12.8213 3.51262 12.8213 3.82812V5.36816C12.8213 5.68361 12.9292 5.99839 13.1387 6.24023C13.3501 6.48427 13.6538 6.63855 13.9883 6.63867C14.3229 6.63867 14.6273 6.48437 14.8389 6.24023C15.0483 5.9984 15.1562 5.68357 15.1562 5.36816V3.82812C15.1562 3.51266 15.0484 3.19789 14.8389 2.95605C14.6273 2.71192 14.3229 2.55859 13.9883 2.55859Z" stroke="#767676"/>
</g>
<defs>
<filter id="filter0_d_1193_10855" x="0" y="0" width="28" height="28" filterUnits="userSpaceOnUse" color-interpolation-filters="sRGB">
<feFlood flood-opacity="0" result="BackgroundImageFix"/>
<feColorMatrix in="SourceAlpha" type="matrix" values="0 0 0 0 0 0 0 0 0 0 0 0 0 0 0 0 0 0 127 0" result="hardAlpha"/>
<feOffset dy="4"/>
<feGaussianBlur stdDeviation="2"/>
<feComposite in2="hardAlpha" operator="out"/>
<feColorMatrix type="matrix" values="0 0 0 0 0 0 0 0 0 0 0 0 0 0 0 0 0 0 0.25 0"/>
<feBlend mode="normal" in2="BackgroundImageFix" result="effect1_dropShadow_1193_10855"/>
<feBlend mode="normal" in="SourceGraphic" in2="effect1_dropShadow_1193_10855" result="shape"/>
</filter>
</defs>
</svg>
