<svg width="13" height="12" viewBox="0 0 13 12" fill="none" xmlns="http://www.w3.org/2000/svg">
<path d="M7.89983 0.866506L8.98502 2.99573C9.13302 3.29212 9.52761 3.57642 9.86061 3.63086L11.8275 3.95145C13.0853 4.15712 13.3813 5.05236 12.4749 5.9355L10.9458 7.43562C10.6868 7.68966 10.545 8.17962 10.6251 8.5305L11.063 10.3875C11.4082 11.8574 10.6128 12.426 9.28718 11.6578L7.44357 10.5871C7.11064 10.3936 6.56188 10.3936 6.22272 10.5871L4.37916 11.6578C3.05966 12.426 2.2581 11.8513 2.60339 10.3875L3.04117 8.5305C3.12132 8.17962 2.97951 7.68966 2.72054 7.43562L1.19141 5.9355C0.291193 5.05236 0.58099 4.15712 1.83882 3.95145L3.80573 3.63086C4.13252 3.57642 4.52713 3.29212 4.67511 2.99573L5.76029 0.866506C6.35222 -0.288835 7.31407 -0.288835 7.89983 0.866506Z" fill="#FF8F3A"/>
</svg>
