<!-- <svg width="36" height="36" viewBox="0 0 36 36" fill="none" xmlns="http://www.w3.org/2000/svg">
<path d="M21.7256 5.30469L17.9965 9.62197L14.2674 5.30469C9.87147 5.48342 5.5568 6.48874 1.57422 8.2622C2.80066 9.8214 4.48422 11.0037 6.41486 11.6616C6.48657 9.91659 8.07621 9.452 9.76147 9.28203C10.8099 9.18436 11.8636 9.14652 12.9168 9.16871L17.9965 36.0016L23.0762 9.18004C24.1294 9.15785 25.1831 9.19569 26.2316 9.29336C27.9168 9.46333 29.5065 9.92792 29.5782 11.673C31.5088 11.015 33.1924 9.83273 34.4188 8.27353C30.4371 6.49616 26.1224 5.48698 21.7256 5.30469Z" fill="white"/>
<path d="M18 0C11.8404 0.0709446 5.74407 1.18774 0 3.29745C0.26299 3.99426 0.595157 4.66583 0.992032 5.30312C6.35905 3.10919 12.1561 2.02004 18 2.10765C23.8439 2.02004 29.6409 3.10919 35.008 5.30312C35.4048 4.66583 35.737 3.99426 36 3.29745C30.2559 1.18774 24.1596 0.0709446 18 0Z" fill="white"/>
</svg> -->
<svg width="36" height="36" viewBox="0 0 36 36" fill="none" xmlns="http://www.w3.org/2000/svg">
  <path d="M21.7256 5.30469L17.9965 9.62197L14.2674 5.30469C9.87147 5.48342 5.5568 6.48874 1.57422 8.2622C2.80066 9.8214 4.48422 11.0037 6.41486 11.6616C6.48657 9.91659 8.07621 9.452 9.76147 9.28203C10.8099 9.18436 11.8636 9.14652 12.9168 9.16871L17.9965 36.0016L23.0762 9.18004C24.1294 9.15785 25.1831 9.19569 26.2316 9.29336C27.9168 9.46333 29.5065 9.92792 29.5782 11.673C31.5088 11.015 33.1924 9.83273 34.4188 8.27353C30.4371 6.49616 26.1224 5.48698 21.7256 5.30469Z" fill="currentColor"/>
  <path d="M18 0C11.8404 0.0709446 5.74407 1.18774 0 3.29745C0.26299 3.99426 0.595157 4.66583 0.992032 5.30312C6.35905 3.10919 12.1561 2.02004 18 2.10765C23.8439 2.02004 29.6409 3.10919 35.008 5.30312C35.4048 4.66583 35.737 3.99426 36 3.29745C30.2559 1.18774 24.1596 0.0709446 18 0Z" fill="currentColor"/>
</svg>



