<svg width="22" height="22" viewBox="0 0 22 22" fill="none" xmlns="http://www.w3.org/2000/svg">
<path d="M18.2835 18H18.293M18.2835 18C17.6608 18.6175 16.5323 18.4637 15.7409 18.4637C14.7695 18.4637 14.3017 18.6537 13.6084 19.347C13.0181 19.9374 12.2267 21 11.293 21C10.3593 21 9.56787 19.9374 8.97754 19.347C8.28425 18.6537 7.81646 18.4637 6.84503 18.4637C6.05365 18.4637 4.92515 18.6175 4.30246 18C3.67478 17.3776 3.82925 16.2444 3.82925 15.4479C3.82925 14.4414 3.60913 13.9786 2.89235 13.2618C1.82611 12.1956 1.29299 11.6624 1.29297 11C1.29298 10.3375 1.82609 9.8044 2.89232 8.73817C3.53217 8.09832 3.82925 7.46428 3.82925 6.55206C3.82925 5.76065 3.67546 4.63214 4.29297 4.00944C4.9154 3.38178 6.04857 3.53626 6.84505 3.53626C7.75724 3.53626 8.39129 3.2392 9.03112 2.59937C10.0974 1.53312 10.6305 1 11.293 1C11.9555 1 12.4886 1.53312 13.5548 2.59937C14.1945 3.23907 14.8285 3.53626 15.7409 3.53626C16.5323 3.53626 17.6609 3.38247 18.2836 4C18.9112 4.62243 18.7567 5.75559 18.7567 6.55206C18.7567 7.55858 18.9769 8.02137 19.6936 8.73817C20.7599 9.8044 21.293 10.3375 21.293 11C21.293 11.6624 20.7599 12.1956 19.6936 13.2618C18.9768 13.9786 18.7567 14.4414 18.7567 15.4479C18.7567 16.2444 18.9112 17.3776 18.2835 18Z" stroke="black"/>
<path d="M8.29297 11.8929L10.093 13.5L14.293 8.5" stroke="black" stroke-linecap="round" stroke-linejoin="round"/>
</svg>
