<svg width="22" height="22" viewBox="0 0 22 22" fill="none" xmlns="http://www.w3.org/2000/svg">
<path d="M11.293 15H11.302" stroke="black" stroke-linecap="round" stroke-linejoin="round"/>
<path d="M11.293 12V7" stroke="black" stroke-linecap="round" stroke-linejoin="round"/>
<path d="M14.4458 3.28405C13.2719 2.84839 12.7507 1.10473 11.4128 1.00447C11.3333 0.99851 11.2533 0.99851 11.1738 1.00447C9.83587 1.10474 9.31467 2.84829 8.14077 3.28405C6.89779 3.74524 5.19818 2.79988 4.14569 3.85239C3.13264 4.86542 4.0291 6.62993 3.57735 7.84747C3.11553 9.0915 1.18431 9.6061 1.29777 11.1195C1.39803 12.4574 3.14169 12.9786 3.57735 14.1525C4.02912 15.37 3.13259 17.1346 4.14569 18.1476C5.19803 19.2001 6.89775 18.2551 8.14077 18.7159C9.31437 19.1522 9.83607 20.8954 11.1738 20.9955C11.2533 21.0015 11.3333 21.0015 11.4128 20.9955C12.7505 20.8954 13.2723 19.1521 14.4458 18.7159C15.6634 18.2645 17.4281 19.1607 18.4409 18.1476C19.5282 17.0605 18.4806 15.2981 19.055 14.042C19.5859 12.8855 21.3993 12.3439 21.2888 10.8805C21.1887 9.5428 19.4455 9.021 19.0092 7.84747C18.5484 6.60445 19.4934 4.90473 18.4409 3.85239C17.3885 2.79983 15.6888 3.74527 14.4458 3.28405Z" stroke="black"/>
</svg>
